%TF.GenerationSoftware,KiCad,Pcbnew,9.0.6*%
%TF.CreationDate,2025-12-16T14:35:52+01:00*%
%TF.ProjectId,led circle,6c656420-6369-4726-936c-652e6b696361,rev?*%
%TF.SameCoordinates,Original*%
%TF.FileFunction,Legend,Top*%
%TF.FilePolarity,Positive*%
%FSLAX46Y46*%
G04 Gerber Fmt 4.6, Leading zero omitted, Abs format (unit mm)*
G04 Created by KiCad (PCBNEW 9.0.6) date 2025-12-16 14:35:52*
%MOMM*%
%LPD*%
G01*
G04 APERTURE LIST*
G04 Aperture macros list*
%AMRoundRect*
0 Rectangle with rounded corners*
0 $1 Rounding radius*
0 $2 $3 $4 $5 $6 $7 $8 $9 X,Y pos of 4 corners*
0 Add a 4 corners polygon primitive as box body*
4,1,4,$2,$3,$4,$5,$6,$7,$8,$9,$2,$3,0*
0 Add four circle primitives for the rounded corners*
1,1,$1+$1,$2,$3*
1,1,$1+$1,$4,$5*
1,1,$1+$1,$6,$7*
1,1,$1+$1,$8,$9*
0 Add four rect primitives between the rounded corners*
20,1,$1+$1,$2,$3,$4,$5,0*
20,1,$1+$1,$4,$5,$6,$7,0*
20,1,$1+$1,$6,$7,$8,$9,0*
20,1,$1+$1,$8,$9,$2,$3,0*%
G04 Aperture macros list end*
%ADD10C,0.100000*%
%ADD11C,0.150000*%
%ADD12C,0.120000*%
%ADD13C,2.200000*%
%ADD14RoundRect,0.130000X-0.520000X-0.570000X0.520000X-0.570000X0.520000X0.570000X-0.520000X0.570000X0*%
%ADD15RoundRect,0.130000X-0.520000X-0.520000X0.520000X-0.520000X0.520000X0.520000X-0.520000X0.520000X0*%
%ADD16RoundRect,0.300000X1.200000X-0.700000X1.200000X0.700000X-1.200000X0.700000X-1.200000X-0.700000X0*%
%ADD17RoundRect,0.250000X-0.650000X0.325000X-0.650000X-0.325000X0.650000X-0.325000X0.650000X0.325000X0*%
G04 APERTURE END LIST*
D10*
X26361905Y-23857419D02*
X26361905Y-22857419D01*
X26361905Y-22857419D02*
X26600000Y-22857419D01*
X26600000Y-22857419D02*
X26742857Y-22905038D01*
X26742857Y-22905038D02*
X26838095Y-23000276D01*
X26838095Y-23000276D02*
X26885714Y-23095514D01*
X26885714Y-23095514D02*
X26933333Y-23285990D01*
X26933333Y-23285990D02*
X26933333Y-23428847D01*
X26933333Y-23428847D02*
X26885714Y-23619323D01*
X26885714Y-23619323D02*
X26838095Y-23714561D01*
X26838095Y-23714561D02*
X26742857Y-23809800D01*
X26742857Y-23809800D02*
X26600000Y-23857419D01*
X26600000Y-23857419D02*
X26361905Y-23857419D01*
X27885714Y-23857419D02*
X27314286Y-23857419D01*
X27600000Y-23857419D02*
X27600000Y-22857419D01*
X27600000Y-22857419D02*
X27504762Y-23000276D01*
X27504762Y-23000276D02*
X27409524Y-23095514D01*
X27409524Y-23095514D02*
X27314286Y-23143133D01*
X61757419Y-20683333D02*
X62471704Y-20683333D01*
X62471704Y-20683333D02*
X62614561Y-20730952D01*
X62614561Y-20730952D02*
X62709800Y-20826190D01*
X62709800Y-20826190D02*
X62757419Y-20969047D01*
X62757419Y-20969047D02*
X62757419Y-21064285D01*
X61852657Y-20254761D02*
X61805038Y-20207142D01*
X61805038Y-20207142D02*
X61757419Y-20111904D01*
X61757419Y-20111904D02*
X61757419Y-19873809D01*
X61757419Y-19873809D02*
X61805038Y-19778571D01*
X61805038Y-19778571D02*
X61852657Y-19730952D01*
X61852657Y-19730952D02*
X61947895Y-19683333D01*
X61947895Y-19683333D02*
X62043133Y-19683333D01*
X62043133Y-19683333D02*
X62185990Y-19730952D01*
X62185990Y-19730952D02*
X62757419Y-20302380D01*
X62757419Y-20302380D02*
X62757419Y-19683333D01*
X49061905Y-23757419D02*
X49061905Y-22757419D01*
X49061905Y-22757419D02*
X49300000Y-22757419D01*
X49300000Y-22757419D02*
X49442857Y-22805038D01*
X49442857Y-22805038D02*
X49538095Y-22900276D01*
X49538095Y-22900276D02*
X49585714Y-22995514D01*
X49585714Y-22995514D02*
X49633333Y-23185990D01*
X49633333Y-23185990D02*
X49633333Y-23328847D01*
X49633333Y-23328847D02*
X49585714Y-23519323D01*
X49585714Y-23519323D02*
X49538095Y-23614561D01*
X49538095Y-23614561D02*
X49442857Y-23709800D01*
X49442857Y-23709800D02*
X49300000Y-23757419D01*
X49300000Y-23757419D02*
X49061905Y-23757419D01*
X50014286Y-22852657D02*
X50061905Y-22805038D01*
X50061905Y-22805038D02*
X50157143Y-22757419D01*
X50157143Y-22757419D02*
X50395238Y-22757419D01*
X50395238Y-22757419D02*
X50490476Y-22805038D01*
X50490476Y-22805038D02*
X50538095Y-22852657D01*
X50538095Y-22852657D02*
X50585714Y-22947895D01*
X50585714Y-22947895D02*
X50585714Y-23043133D01*
X50585714Y-23043133D02*
X50538095Y-23185990D01*
X50538095Y-23185990D02*
X49966667Y-23757419D01*
X49966667Y-23757419D02*
X50585714Y-23757419D01*
D11*
X22559580Y-18166666D02*
X22607200Y-18214285D01*
X22607200Y-18214285D02*
X22654819Y-18357142D01*
X22654819Y-18357142D02*
X22654819Y-18452380D01*
X22654819Y-18452380D02*
X22607200Y-18595237D01*
X22607200Y-18595237D02*
X22511961Y-18690475D01*
X22511961Y-18690475D02*
X22416723Y-18738094D01*
X22416723Y-18738094D02*
X22226247Y-18785713D01*
X22226247Y-18785713D02*
X22083390Y-18785713D01*
X22083390Y-18785713D02*
X21892914Y-18738094D01*
X21892914Y-18738094D02*
X21797676Y-18690475D01*
X21797676Y-18690475D02*
X21702438Y-18595237D01*
X21702438Y-18595237D02*
X21654819Y-18452380D01*
X21654819Y-18452380D02*
X21654819Y-18357142D01*
X21654819Y-18357142D02*
X21702438Y-18214285D01*
X21702438Y-18214285D02*
X21750057Y-18166666D01*
X22654819Y-17214285D02*
X22654819Y-17785713D01*
X22654819Y-17499999D02*
X21654819Y-17499999D01*
X21654819Y-17499999D02*
X21797676Y-17595237D01*
X21797676Y-17595237D02*
X21892914Y-17690475D01*
X21892914Y-17690475D02*
X21940533Y-17785713D01*
D10*
X15857419Y-20733333D02*
X16571704Y-20733333D01*
X16571704Y-20733333D02*
X16714561Y-20780952D01*
X16714561Y-20780952D02*
X16809800Y-20876190D01*
X16809800Y-20876190D02*
X16857419Y-21019047D01*
X16857419Y-21019047D02*
X16857419Y-21114285D01*
X16857419Y-19733333D02*
X16857419Y-20304761D01*
X16857419Y-20019047D02*
X15857419Y-20019047D01*
X15857419Y-20019047D02*
X16000276Y-20114285D01*
X16000276Y-20114285D02*
X16095514Y-20209523D01*
X16095514Y-20209523D02*
X16143133Y-20304761D01*
%TO.C,D1*%
X29100000Y-21700000D02*
X31100000Y-19700000D01*
X31100000Y-21700000D02*
X29100000Y-21700000D01*
X23100000Y-14700000D02*
X31100000Y-14700000D01*
X31100000Y-21700000D01*
X23100000Y-21700000D01*
X23100000Y-14700000D01*
X24100000Y-15700000D02*
X30100000Y-15700000D01*
X30100000Y-20700000D01*
X24100000Y-20700000D01*
X24100000Y-15700000D01*
%TO.C,D2*%
X51800000Y-21700000D02*
X53800000Y-19700000D01*
X53800000Y-21700000D02*
X51800000Y-21700000D01*
X45800000Y-14700000D02*
X53800000Y-14700000D01*
X53800000Y-21700000D01*
X45800000Y-21700000D01*
X45800000Y-14700000D01*
X46800000Y-15700000D02*
X52800000Y-15700000D01*
X52800000Y-20700000D01*
X46800000Y-20700000D01*
X46800000Y-15700000D01*
D12*
%TO.C,C1*%
X19440000Y-17288748D02*
X19440000Y-18711252D01*
X21260000Y-17288748D02*
X21260000Y-18711252D01*
%TD*%
%LPC*%
D13*
%TO.C,REF\u002A\u002A*%
X34100000Y-18200000D03*
%TD*%
D14*
%TO.C,D1*%
X29300000Y-19800000D03*
D15*
X29300000Y-18200000D03*
D14*
X29300000Y-16600000D03*
X24900000Y-16600000D03*
D15*
X24900000Y-18200000D03*
D14*
X24900000Y-19800000D03*
%TD*%
D16*
%TO.C,J2*%
X62300000Y-22450000D03*
X62300000Y-18200000D03*
X62300000Y-13950000D03*
%TD*%
D14*
%TO.C,D2*%
X52000000Y-19800000D03*
D15*
X52000000Y-18200000D03*
D14*
X52000000Y-16600000D03*
X47600000Y-16600000D03*
D15*
X47600000Y-18200000D03*
D14*
X47600000Y-19800000D03*
%TD*%
D17*
%TO.C,C1*%
X20350000Y-16525000D03*
X20350000Y-19475000D03*
%TD*%
D16*
%TO.C,J1*%
X14500000Y-22450000D03*
X14500000Y-18200000D03*
X14500000Y-13950000D03*
%TD*%
D13*
%TO.C,REF\u002A\u002A*%
X42800000Y-18200000D03*
%TD*%
%LPD*%
M02*
