%TF.GenerationSoftware,KiCad,Pcbnew,9.0.6*%
%TF.CreationDate,2025-12-14T21:03:12+01:00*%
%TF.ProjectId,led circle,6c656420-6369-4726-936c-652e6b696361,rev?*%
%TF.SameCoordinates,Original*%
%TF.FileFunction,Copper,L1,Top*%
%TF.FilePolarity,Positive*%
%FSLAX46Y46*%
G04 Gerber Fmt 4.6, Leading zero omitted, Abs format (unit mm)*
G04 Created by KiCad (PCBNEW 9.0.6) date 2025-12-14 21:03:12*
%MOMM*%
%LPD*%
G01*
G04 APERTURE LIST*
G04 Aperture macros list*
%AMRoundRect*
0 Rectangle with rounded corners*
0 $1 Rounding radius*
0 $2 $3 $4 $5 $6 $7 $8 $9 X,Y pos of 4 corners*
0 Add a 4 corners polygon primitive as box body*
4,1,4,$2,$3,$4,$5,$6,$7,$8,$9,$2,$3,0*
0 Add four circle primitives for the rounded corners*
1,1,$1+$1,$2,$3*
1,1,$1+$1,$4,$5*
1,1,$1+$1,$6,$7*
1,1,$1+$1,$8,$9*
0 Add four rect primitives between the rounded corners*
20,1,$1+$1,$2,$3,$4,$5,0*
20,1,$1+$1,$4,$5,$6,$7,0*
20,1,$1+$1,$6,$7,$8,$9,0*
20,1,$1+$1,$8,$9,$2,$3,0*%
G04 Aperture macros list end*
%TA.AperFunction,SMDPad,CuDef*%
%ADD10RoundRect,0.130000X-0.520000X-0.570000X0.520000X-0.570000X0.520000X0.570000X-0.520000X0.570000X0*%
%TD*%
%TA.AperFunction,SMDPad,CuDef*%
%ADD11RoundRect,0.130000X-0.520000X-0.520000X0.520000X-0.520000X0.520000X0.520000X-0.520000X0.520000X0*%
%TD*%
%TA.AperFunction,SMDPad,CuDef*%
%ADD12RoundRect,0.300000X1.200000X-0.700000X1.200000X0.700000X-1.200000X0.700000X-1.200000X-0.700000X0*%
%TD*%
%TA.AperFunction,SMDPad,CuDef*%
%ADD13RoundRect,0.250000X-0.650000X0.325000X-0.650000X-0.325000X0.650000X-0.325000X0.650000X0.325000X0*%
%TD*%
%TA.AperFunction,Conductor*%
%ADD14C,0.400000*%
%TD*%
%TA.AperFunction,Conductor*%
%ADD15C,0.200000*%
%TD*%
G04 APERTURE END LIST*
D10*
%TO.P,D1,1,VDD*%
%TO.N,Net-(D1-VDD)*%
X29300000Y-19800000D03*
D11*
%TO.P,D1,2*%
%TO.N,N/C*%
X29300000Y-18200000D03*
D10*
%TO.P,D1,3,DOUT*%
%TO.N,Net-(D1-DOUT)*%
X29300000Y-16600000D03*
%TO.P,D1,4,VSS*%
%TO.N,Net-(D1-VSS)*%
X24900000Y-16600000D03*
D11*
%TO.P,D1,5*%
%TO.N,N/C*%
X24900000Y-18200000D03*
D10*
%TO.P,D1,6,DIN*%
%TO.N,Net-(D1-DIN)*%
X24900000Y-19800000D03*
%TD*%
D12*
%TO.P,J2,1,Pin_1*%
%TO.N,Net-(D1-VDD)*%
X62300000Y-22450000D03*
%TO.P,J2,2,Pin_2*%
%TO.N,Net-(D2-DOUT)*%
X62300000Y-18200000D03*
%TO.P,J2,3,Pin_3*%
%TO.N,Net-(D1-VSS)*%
X62300000Y-13950000D03*
%TD*%
D10*
%TO.P,D2,1,VDD*%
%TO.N,Net-(D1-VDD)*%
X52000000Y-19800000D03*
D11*
%TO.P,D2,2*%
%TO.N,N/C*%
X52000000Y-18200000D03*
D10*
%TO.P,D2,3,DOUT*%
%TO.N,Net-(D2-DOUT)*%
X52000000Y-16600000D03*
%TO.P,D2,4,VSS*%
%TO.N,Net-(D1-VSS)*%
X47600000Y-16600000D03*
D11*
%TO.P,D2,5*%
%TO.N,N/C*%
X47600000Y-18200000D03*
D10*
%TO.P,D2,6,DIN*%
%TO.N,Net-(D1-DOUT)*%
X47600000Y-19800000D03*
%TD*%
D13*
%TO.P,C1,1*%
%TO.N,Net-(D1-VSS)*%
X20350000Y-16525000D03*
%TO.P,C1,2*%
%TO.N,Net-(D1-VDD)*%
X20350000Y-19475000D03*
%TD*%
D12*
%TO.P,J1,1,Pin_1*%
%TO.N,Net-(D1-VDD)*%
X14500000Y-22450000D03*
%TO.P,J1,2,Pin_2*%
%TO.N,Net-(D1-DIN)*%
X14500000Y-18200000D03*
%TO.P,J1,3,Pin_3*%
%TO.N,Net-(D1-VSS)*%
X14500000Y-13950000D03*
%TD*%
D14*
%TO.N,Net-(D1-VDD)*%
X31500000Y-22000000D02*
X29300000Y-19800000D01*
X52000000Y-19800000D02*
X49800000Y-22000000D01*
X52000000Y-19800000D02*
X59650000Y-19800000D01*
X17475000Y-19475000D02*
X14500000Y-22450000D01*
X23125000Y-22250000D02*
X26850000Y-22250000D01*
X59650000Y-19800000D02*
X62300000Y-22450000D01*
X49800000Y-22000000D02*
X31500000Y-22000000D01*
X20350000Y-19475000D02*
X17475000Y-19475000D01*
X20350000Y-19475000D02*
X23125000Y-22250000D01*
X29300000Y-19800000D02*
X26850000Y-22250000D01*
%TO.N,Net-(D1-VSS)*%
X20350000Y-16525000D02*
X24825000Y-16525000D01*
X50250000Y-13950000D02*
X62300000Y-13950000D01*
X46000000Y-15000000D02*
X47600000Y-16600000D01*
X17775000Y-13950000D02*
X20350000Y-16525000D01*
X24825000Y-16525000D02*
X24900000Y-16600000D01*
X26500000Y-15000000D02*
X46000000Y-15000000D01*
X14500000Y-13950000D02*
X17775000Y-13950000D01*
X47600000Y-16600000D02*
X50250000Y-13950000D01*
X24900000Y-16600000D02*
X26500000Y-15000000D01*
D15*
%TO.N,Net-(D1-DOUT)*%
X47600000Y-19800000D02*
X33400000Y-19800000D01*
X30200000Y-16600000D02*
X29300000Y-16600000D01*
X33400000Y-19800000D02*
X30200000Y-16600000D01*
%TO.N,Net-(D1-DIN)*%
X22436160Y-19800000D02*
X20836160Y-18200000D01*
X20836160Y-18200000D02*
X14500000Y-18200000D01*
X24900000Y-19800000D02*
X22436160Y-19800000D01*
%TO.N,Net-(D2-DOUT)*%
X60700000Y-16600000D02*
X62300000Y-18200000D01*
X52000000Y-16600000D02*
X60700000Y-16600000D01*
%TD*%
M02*
