%TF.GenerationSoftware,KiCad,Pcbnew,9.0.6*%
%TF.CreationDate,2025-12-14T21:04:14+01:00*%
%TF.ProjectId,led circle,6c656420-6369-4726-936c-652e6b696361,rev?*%
%TF.SameCoordinates,Original*%
%TF.FileFunction,Drillmap*%
%TF.FilePolarity,Positive*%
%FSLAX45Y45*%
G04 Gerber Fmt 4.5, Leading zero omitted, Abs format (unit mm)*
G04 Created by KiCad (PCBNEW 9.0.6) date 2025-12-14 21:04:14*
%MOMM*%
%LPD*%
G01*
G04 APERTURE LIST*
%ADD10C,0.200000*%
G04 APERTURE END LIST*
D10*
X1210000Y-1200000D02*
X6480000Y-1200000D01*
X6480000Y-2440000D01*
X1210000Y-2440000D01*
X1210000Y-1200000D01*
X1460777Y-2761484D02*
X1460777Y-2561484D01*
X1460777Y-2561484D02*
X1508396Y-2561484D01*
X1508396Y-2561484D02*
X1536967Y-2571008D01*
X1536967Y-2571008D02*
X1556015Y-2590055D01*
X1556015Y-2590055D02*
X1565539Y-2609103D01*
X1565539Y-2609103D02*
X1575062Y-2647198D01*
X1575062Y-2647198D02*
X1575062Y-2675770D01*
X1575062Y-2675770D02*
X1565539Y-2713865D01*
X1565539Y-2713865D02*
X1556015Y-2732912D01*
X1556015Y-2732912D02*
X1536967Y-2751960D01*
X1536967Y-2751960D02*
X1508396Y-2761484D01*
X1508396Y-2761484D02*
X1460777Y-2761484D01*
X1660777Y-2761484D02*
X1660777Y-2628150D01*
X1660777Y-2666246D02*
X1670301Y-2647198D01*
X1670301Y-2647198D02*
X1679824Y-2637674D01*
X1679824Y-2637674D02*
X1698872Y-2628150D01*
X1698872Y-2628150D02*
X1717920Y-2628150D01*
X1784586Y-2761484D02*
X1784586Y-2628150D01*
X1784586Y-2561484D02*
X1775062Y-2571008D01*
X1775062Y-2571008D02*
X1784586Y-2580531D01*
X1784586Y-2580531D02*
X1794110Y-2571008D01*
X1794110Y-2571008D02*
X1784586Y-2561484D01*
X1784586Y-2561484D02*
X1784586Y-2580531D01*
X1908396Y-2761484D02*
X1889348Y-2751960D01*
X1889348Y-2751960D02*
X1879824Y-2732912D01*
X1879824Y-2732912D02*
X1879824Y-2561484D01*
X2013158Y-2761484D02*
X1994110Y-2751960D01*
X1994110Y-2751960D02*
X1984586Y-2732912D01*
X1984586Y-2732912D02*
X1984586Y-2561484D01*
X2241729Y-2761484D02*
X2241729Y-2561484D01*
X2241729Y-2561484D02*
X2308396Y-2704341D01*
X2308396Y-2704341D02*
X2375063Y-2561484D01*
X2375063Y-2561484D02*
X2375063Y-2761484D01*
X2556015Y-2761484D02*
X2556015Y-2656722D01*
X2556015Y-2656722D02*
X2546491Y-2637674D01*
X2546491Y-2637674D02*
X2527444Y-2628150D01*
X2527444Y-2628150D02*
X2489348Y-2628150D01*
X2489348Y-2628150D02*
X2470301Y-2637674D01*
X2556015Y-2751960D02*
X2536967Y-2761484D01*
X2536967Y-2761484D02*
X2489348Y-2761484D01*
X2489348Y-2761484D02*
X2470301Y-2751960D01*
X2470301Y-2751960D02*
X2460777Y-2732912D01*
X2460777Y-2732912D02*
X2460777Y-2713865D01*
X2460777Y-2713865D02*
X2470301Y-2694817D01*
X2470301Y-2694817D02*
X2489348Y-2685293D01*
X2489348Y-2685293D02*
X2536967Y-2685293D01*
X2536967Y-2685293D02*
X2556015Y-2675770D01*
X2651253Y-2628150D02*
X2651253Y-2828150D01*
X2651253Y-2637674D02*
X2670301Y-2628150D01*
X2670301Y-2628150D02*
X2708396Y-2628150D01*
X2708396Y-2628150D02*
X2727444Y-2637674D01*
X2727444Y-2637674D02*
X2736967Y-2647198D01*
X2736967Y-2647198D02*
X2746491Y-2666246D01*
X2746491Y-2666246D02*
X2746491Y-2723389D01*
X2746491Y-2723389D02*
X2736967Y-2742436D01*
X2736967Y-2742436D02*
X2727444Y-2751960D01*
X2727444Y-2751960D02*
X2708396Y-2761484D01*
X2708396Y-2761484D02*
X2670301Y-2761484D01*
X2670301Y-2761484D02*
X2651253Y-2751960D01*
X2832205Y-2742436D02*
X2841729Y-2751960D01*
X2841729Y-2751960D02*
X2832205Y-2761484D01*
X2832205Y-2761484D02*
X2822682Y-2751960D01*
X2822682Y-2751960D02*
X2832205Y-2742436D01*
X2832205Y-2742436D02*
X2832205Y-2761484D01*
X2832205Y-2637674D02*
X2841729Y-2647198D01*
X2841729Y-2647198D02*
X2832205Y-2656722D01*
X2832205Y-2656722D02*
X2822682Y-2647198D01*
X2822682Y-2647198D02*
X2832205Y-2637674D01*
X2832205Y-2637674D02*
X2832205Y-2656722D01*
M02*
