%TF.GenerationSoftware,KiCad,Pcbnew,9.0.6*%
%TF.CreationDate,2025-12-16T14:31:59+01:00*%
%TF.ProjectId,target,74617267-6574-42e6-9b69-6361645f7063,rev?*%
%TF.SameCoordinates,Original*%
%TF.FileFunction,Legend,Top*%
%TF.FilePolarity,Positive*%
%FSLAX46Y46*%
G04 Gerber Fmt 4.6, Leading zero omitted, Abs format (unit mm)*
G04 Created by KiCad (PCBNEW 9.0.6) date 2025-12-16 14:31:59*
%MOMM*%
%LPD*%
G01*
G04 APERTURE LIST*
G04 Aperture macros list*
%AMRoundRect*
0 Rectangle with rounded corners*
0 $1 Rounding radius*
0 $2 $3 $4 $5 $6 $7 $8 $9 X,Y pos of 4 corners*
0 Add a 4 corners polygon primitive as box body*
4,1,4,$2,$3,$4,$5,$6,$7,$8,$9,$2,$3,0*
0 Add four circle primitives for the rounded corners*
1,1,$1+$1,$2,$3*
1,1,$1+$1,$4,$5*
1,1,$1+$1,$6,$7*
1,1,$1+$1,$8,$9*
0 Add four rect primitives between the rounded corners*
20,1,$1+$1,$2,$3,$4,$5,0*
20,1,$1+$1,$4,$5,$6,$7,0*
20,1,$1+$1,$6,$7,$8,$9,0*
20,1,$1+$1,$8,$9,$2,$3,0*%
%AMFreePoly0*
4,1,6,1.000000,0.000000,0.500000,-0.750000,-0.500000,-0.750000,-0.500000,0.750000,0.500000,0.750000,1.000000,0.000000,1.000000,0.000000,$1*%
%AMFreePoly1*
4,1,6,0.500000,-0.750000,-0.650000,-0.750000,-0.150000,0.000000,-0.650000,0.750000,0.500000,0.750000,0.500000,-0.750000,0.500000,-0.750000,$1*%
G04 Aperture macros list end*
%ADD10C,0.100000*%
%ADD11C,0.150000*%
%ADD12C,0.120000*%
%ADD13C,0.203200*%
%ADD14C,0.240000*%
%ADD15RoundRect,0.600000X-1.400000X1.400000X-1.400000X-1.400000X1.400000X-1.400000X1.400000X1.400000X0*%
%ADD16O,3.000000X3.000000*%
%ADD17C,2.000000*%
%ADD18RoundRect,0.285750X-0.666750X-1.714250X0.666750X-1.714250X0.666750X1.714250X-0.666750X1.714250X0*%
%ADD19FreePoly0,270.000000*%
%ADD20FreePoly1,270.000000*%
%ADD21C,2.200000*%
%ADD22RoundRect,0.300000X-1.200000X0.700000X-1.200000X-0.700000X1.200000X-0.700000X1.200000X0.700000X0*%
%ADD23FreePoly0,180.000000*%
%ADD24FreePoly1,180.000000*%
%ADD25RoundRect,0.250000X-0.450000X0.262500X-0.450000X-0.262500X0.450000X-0.262500X0.450000X0.262500X0*%
%ADD26RoundRect,0.250000X-0.650000X1.000000X-0.650000X-1.000000X0.650000X-1.000000X0.650000X1.000000X0*%
%ADD27RoundRect,0.250000X0.250000X0.475000X-0.250000X0.475000X-0.250000X-0.475000X0.250000X-0.475000X0*%
%ADD28RoundRect,0.250000X0.650000X-1.000000X0.650000X1.000000X-0.650000X1.000000X-0.650000X-1.000000X0*%
%ADD29RoundRect,0.250000X2.475000X-0.712500X2.475000X0.712500X-2.475000X0.712500X-2.475000X-0.712500X0*%
%ADD30RoundRect,0.250000X-0.325000X-0.650000X0.325000X-0.650000X0.325000X0.650000X-0.325000X0.650000X0*%
%ADD31RoundRect,0.175000X-0.175000X-0.325000X0.175000X-0.325000X0.175000X0.325000X-0.175000X0.325000X0*%
%ADD32RoundRect,0.150000X-0.200000X-0.150000X0.200000X-0.150000X0.200000X0.150000X-0.200000X0.150000X0*%
%ADD33RoundRect,0.102000X0.700000X-0.500000X0.700000X0.500000X-0.700000X0.500000X-0.700000X-0.500000X0*%
%ADD34RoundRect,0.150000X-0.587500X-0.150000X0.587500X-0.150000X0.587500X0.150000X-0.587500X0.150000X0*%
%ADD35R,0.250000X0.850000*%
%ADD36R,0.850000X0.250000*%
%ADD37R,2.600000X2.600000*%
%ADD38RoundRect,0.250000X-0.550000X-0.550000X0.550000X-0.550000X0.550000X0.550000X-0.550000X0.550000X0*%
%ADD39C,1.600000*%
G04 APERTURE END LIST*
D10*
X68738095Y-40207419D02*
X68738095Y-41016942D01*
X68738095Y-41016942D02*
X68785714Y-41112180D01*
X68785714Y-41112180D02*
X68833333Y-41159800D01*
X68833333Y-41159800D02*
X68928571Y-41207419D01*
X68928571Y-41207419D02*
X69119047Y-41207419D01*
X69119047Y-41207419D02*
X69214285Y-41159800D01*
X69214285Y-41159800D02*
X69261904Y-41112180D01*
X69261904Y-41112180D02*
X69309523Y-41016942D01*
X69309523Y-41016942D02*
X69309523Y-40207419D01*
X69738095Y-40302657D02*
X69785714Y-40255038D01*
X69785714Y-40255038D02*
X69880952Y-40207419D01*
X69880952Y-40207419D02*
X70119047Y-40207419D01*
X70119047Y-40207419D02*
X70214285Y-40255038D01*
X70214285Y-40255038D02*
X70261904Y-40302657D01*
X70261904Y-40302657D02*
X70309523Y-40397895D01*
X70309523Y-40397895D02*
X70309523Y-40493133D01*
X70309523Y-40493133D02*
X70261904Y-40635990D01*
X70261904Y-40635990D02*
X69690476Y-41207419D01*
X69690476Y-41207419D02*
X70309523Y-41207419D01*
X65920038Y-52672306D02*
X65872419Y-52767544D01*
X65872419Y-52767544D02*
X65872419Y-52910401D01*
X65872419Y-52910401D02*
X65920038Y-53053258D01*
X65920038Y-53053258D02*
X66015276Y-53148496D01*
X66015276Y-53148496D02*
X66110514Y-53196115D01*
X66110514Y-53196115D02*
X66300990Y-53243734D01*
X66300990Y-53243734D02*
X66443847Y-53243734D01*
X66443847Y-53243734D02*
X66634323Y-53196115D01*
X66634323Y-53196115D02*
X66729561Y-53148496D01*
X66729561Y-53148496D02*
X66824800Y-53053258D01*
X66824800Y-53053258D02*
X66872419Y-52910401D01*
X66872419Y-52910401D02*
X66872419Y-52815163D01*
X66872419Y-52815163D02*
X66824800Y-52672306D01*
X66824800Y-52672306D02*
X66777180Y-52624687D01*
X66777180Y-52624687D02*
X66443847Y-52624687D01*
X66443847Y-52624687D02*
X66443847Y-52815163D01*
X66872419Y-52196115D02*
X65872419Y-52196115D01*
X65872419Y-52196115D02*
X66872419Y-51624687D01*
X66872419Y-51624687D02*
X65872419Y-51624687D01*
X66872419Y-51148496D02*
X65872419Y-51148496D01*
X65872419Y-51148496D02*
X65872419Y-50910401D01*
X65872419Y-50910401D02*
X65920038Y-50767544D01*
X65920038Y-50767544D02*
X66015276Y-50672306D01*
X66015276Y-50672306D02*
X66110514Y-50624687D01*
X66110514Y-50624687D02*
X66300990Y-50577068D01*
X66300990Y-50577068D02*
X66443847Y-50577068D01*
X66443847Y-50577068D02*
X66634323Y-50624687D01*
X66634323Y-50624687D02*
X66729561Y-50672306D01*
X66729561Y-50672306D02*
X66824800Y-50767544D01*
X66824800Y-50767544D02*
X66872419Y-50910401D01*
X66872419Y-50910401D02*
X66872419Y-51148496D01*
X60872419Y-53338972D02*
X61872419Y-53005639D01*
X61872419Y-53005639D02*
X60872419Y-52672306D01*
X61777180Y-51767544D02*
X61824800Y-51815163D01*
X61824800Y-51815163D02*
X61872419Y-51958020D01*
X61872419Y-51958020D02*
X61872419Y-52053258D01*
X61872419Y-52053258D02*
X61824800Y-52196115D01*
X61824800Y-52196115D02*
X61729561Y-52291353D01*
X61729561Y-52291353D02*
X61634323Y-52338972D01*
X61634323Y-52338972D02*
X61443847Y-52386591D01*
X61443847Y-52386591D02*
X61300990Y-52386591D01*
X61300990Y-52386591D02*
X61110514Y-52338972D01*
X61110514Y-52338972D02*
X61015276Y-52291353D01*
X61015276Y-52291353D02*
X60920038Y-52196115D01*
X60920038Y-52196115D02*
X60872419Y-52053258D01*
X60872419Y-52053258D02*
X60872419Y-51958020D01*
X60872419Y-51958020D02*
X60920038Y-51815163D01*
X60920038Y-51815163D02*
X60967657Y-51767544D01*
X61777180Y-50767544D02*
X61824800Y-50815163D01*
X61824800Y-50815163D02*
X61872419Y-50958020D01*
X61872419Y-50958020D02*
X61872419Y-51053258D01*
X61872419Y-51053258D02*
X61824800Y-51196115D01*
X61824800Y-51196115D02*
X61729561Y-51291353D01*
X61729561Y-51291353D02*
X61634323Y-51338972D01*
X61634323Y-51338972D02*
X61443847Y-51386591D01*
X61443847Y-51386591D02*
X61300990Y-51386591D01*
X61300990Y-51386591D02*
X61110514Y-51338972D01*
X61110514Y-51338972D02*
X61015276Y-51291353D01*
X61015276Y-51291353D02*
X60920038Y-51196115D01*
X60920038Y-51196115D02*
X60872419Y-51053258D01*
X60872419Y-51053258D02*
X60872419Y-50958020D01*
X60872419Y-50958020D02*
X60920038Y-50815163D01*
X60920038Y-50815163D02*
X60967657Y-50767544D01*
X64372419Y-53696115D02*
X63372419Y-53696115D01*
X63372419Y-53696115D02*
X63372419Y-53458020D01*
X63372419Y-53458020D02*
X63420038Y-53315163D01*
X63420038Y-53315163D02*
X63515276Y-53219925D01*
X63515276Y-53219925D02*
X63610514Y-53172306D01*
X63610514Y-53172306D02*
X63800990Y-53124687D01*
X63800990Y-53124687D02*
X63943847Y-53124687D01*
X63943847Y-53124687D02*
X64134323Y-53172306D01*
X64134323Y-53172306D02*
X64229561Y-53219925D01*
X64229561Y-53219925D02*
X64324800Y-53315163D01*
X64324800Y-53315163D02*
X64372419Y-53458020D01*
X64372419Y-53458020D02*
X64372419Y-53696115D01*
X64086704Y-52743734D02*
X64086704Y-52267544D01*
X64372419Y-52838972D02*
X63372419Y-52505639D01*
X63372419Y-52505639D02*
X64372419Y-52172306D01*
X63372419Y-51981829D02*
X63372419Y-51410401D01*
X64372419Y-51696115D02*
X63372419Y-51696115D01*
X64086704Y-51124686D02*
X64086704Y-50648496D01*
X64372419Y-51219924D02*
X63372419Y-50886591D01*
X63372419Y-50886591D02*
X64372419Y-50553258D01*
D11*
X62254819Y-59833333D02*
X62969104Y-59833333D01*
X62969104Y-59833333D02*
X63111961Y-59880952D01*
X63111961Y-59880952D02*
X63207200Y-59976190D01*
X63207200Y-59976190D02*
X63254819Y-60119047D01*
X63254819Y-60119047D02*
X63254819Y-60214285D01*
X63254819Y-59357142D02*
X62254819Y-59357142D01*
X62254819Y-59357142D02*
X62254819Y-58976190D01*
X62254819Y-58976190D02*
X62302438Y-58880952D01*
X62302438Y-58880952D02*
X62350057Y-58833333D01*
X62350057Y-58833333D02*
X62445295Y-58785714D01*
X62445295Y-58785714D02*
X62588152Y-58785714D01*
X62588152Y-58785714D02*
X62683390Y-58833333D01*
X62683390Y-58833333D02*
X62731009Y-58880952D01*
X62731009Y-58880952D02*
X62778628Y-58976190D01*
X62778628Y-58976190D02*
X62778628Y-59357142D01*
X62254819Y-58452380D02*
X62254819Y-57833333D01*
X62254819Y-57833333D02*
X62635771Y-58166666D01*
X62635771Y-58166666D02*
X62635771Y-58023809D01*
X62635771Y-58023809D02*
X62683390Y-57928571D01*
X62683390Y-57928571D02*
X62731009Y-57880952D01*
X62731009Y-57880952D02*
X62826247Y-57833333D01*
X62826247Y-57833333D02*
X63064342Y-57833333D01*
X63064342Y-57833333D02*
X63159580Y-57880952D01*
X63159580Y-57880952D02*
X63207200Y-57928571D01*
X63207200Y-57928571D02*
X63254819Y-58023809D01*
X63254819Y-58023809D02*
X63254819Y-58309523D01*
X63254819Y-58309523D02*
X63207200Y-58404761D01*
X63207200Y-58404761D02*
X63159580Y-58452380D01*
X64916666Y-67979819D02*
X64916666Y-68694104D01*
X64916666Y-68694104D02*
X64869047Y-68836961D01*
X64869047Y-68836961D02*
X64773809Y-68932200D01*
X64773809Y-68932200D02*
X64630952Y-68979819D01*
X64630952Y-68979819D02*
X64535714Y-68979819D01*
X65392857Y-68979819D02*
X65392857Y-67979819D01*
X65392857Y-67979819D02*
X65773809Y-67979819D01*
X65773809Y-67979819D02*
X65869047Y-68027438D01*
X65869047Y-68027438D02*
X65916666Y-68075057D01*
X65916666Y-68075057D02*
X65964285Y-68170295D01*
X65964285Y-68170295D02*
X65964285Y-68313152D01*
X65964285Y-68313152D02*
X65916666Y-68408390D01*
X65916666Y-68408390D02*
X65869047Y-68456009D01*
X65869047Y-68456009D02*
X65773809Y-68503628D01*
X65773809Y-68503628D02*
X65392857Y-68503628D01*
X66345238Y-68075057D02*
X66392857Y-68027438D01*
X66392857Y-68027438D02*
X66488095Y-67979819D01*
X66488095Y-67979819D02*
X66726190Y-67979819D01*
X66726190Y-67979819D02*
X66821428Y-68027438D01*
X66821428Y-68027438D02*
X66869047Y-68075057D01*
X66869047Y-68075057D02*
X66916666Y-68170295D01*
X66916666Y-68170295D02*
X66916666Y-68265533D01*
X66916666Y-68265533D02*
X66869047Y-68408390D01*
X66869047Y-68408390D02*
X66297619Y-68979819D01*
X66297619Y-68979819D02*
X66916666Y-68979819D01*
X74104819Y-63095238D02*
X74104819Y-63666666D01*
X74104819Y-63380952D02*
X73104819Y-63380952D01*
X73104819Y-63380952D02*
X73247676Y-63476190D01*
X73247676Y-63476190D02*
X73342914Y-63571428D01*
X73342914Y-63571428D02*
X73390533Y-63666666D01*
X73104819Y-62476190D02*
X73104819Y-62380952D01*
X73104819Y-62380952D02*
X73152438Y-62285714D01*
X73152438Y-62285714D02*
X73200057Y-62238095D01*
X73200057Y-62238095D02*
X73295295Y-62190476D01*
X73295295Y-62190476D02*
X73485771Y-62142857D01*
X73485771Y-62142857D02*
X73723866Y-62142857D01*
X73723866Y-62142857D02*
X73914342Y-62190476D01*
X73914342Y-62190476D02*
X74009580Y-62238095D01*
X74009580Y-62238095D02*
X74057200Y-62285714D01*
X74057200Y-62285714D02*
X74104819Y-62380952D01*
X74104819Y-62380952D02*
X74104819Y-62476190D01*
X74104819Y-62476190D02*
X74057200Y-62571428D01*
X74057200Y-62571428D02*
X74009580Y-62619047D01*
X74009580Y-62619047D02*
X73914342Y-62666666D01*
X73914342Y-62666666D02*
X73723866Y-62714285D01*
X73723866Y-62714285D02*
X73485771Y-62714285D01*
X73485771Y-62714285D02*
X73295295Y-62666666D01*
X73295295Y-62666666D02*
X73200057Y-62619047D01*
X73200057Y-62619047D02*
X73152438Y-62571428D01*
X73152438Y-62571428D02*
X73104819Y-62476190D01*
X74104819Y-61714285D02*
X73104819Y-61714285D01*
X73723866Y-61619047D02*
X74104819Y-61333333D01*
X73438152Y-61333333D02*
X73819104Y-61714285D01*
X74104819Y-60333333D02*
X73628628Y-60666666D01*
X74104819Y-60904761D02*
X73104819Y-60904761D01*
X73104819Y-60904761D02*
X73104819Y-60523809D01*
X73104819Y-60523809D02*
X73152438Y-60428571D01*
X73152438Y-60428571D02*
X73200057Y-60380952D01*
X73200057Y-60380952D02*
X73295295Y-60333333D01*
X73295295Y-60333333D02*
X73438152Y-60333333D01*
X73438152Y-60333333D02*
X73533390Y-60380952D01*
X73533390Y-60380952D02*
X73581009Y-60428571D01*
X73581009Y-60428571D02*
X73628628Y-60523809D01*
X73628628Y-60523809D02*
X73628628Y-60904761D01*
X73907200Y-122785713D02*
X73954819Y-122642856D01*
X73954819Y-122642856D02*
X73954819Y-122404761D01*
X73954819Y-122404761D02*
X73907200Y-122309523D01*
X73907200Y-122309523D02*
X73859580Y-122261904D01*
X73859580Y-122261904D02*
X73764342Y-122214285D01*
X73764342Y-122214285D02*
X73669104Y-122214285D01*
X73669104Y-122214285D02*
X73573866Y-122261904D01*
X73573866Y-122261904D02*
X73526247Y-122309523D01*
X73526247Y-122309523D02*
X73478628Y-122404761D01*
X73478628Y-122404761D02*
X73431009Y-122595237D01*
X73431009Y-122595237D02*
X73383390Y-122690475D01*
X73383390Y-122690475D02*
X73335771Y-122738094D01*
X73335771Y-122738094D02*
X73240533Y-122785713D01*
X73240533Y-122785713D02*
X73145295Y-122785713D01*
X73145295Y-122785713D02*
X73050057Y-122738094D01*
X73050057Y-122738094D02*
X73002438Y-122690475D01*
X73002438Y-122690475D02*
X72954819Y-122595237D01*
X72954819Y-122595237D02*
X72954819Y-122357142D01*
X72954819Y-122357142D02*
X73002438Y-122214285D01*
X73954819Y-121785713D02*
X72954819Y-121785713D01*
X72954819Y-121785713D02*
X73669104Y-121452380D01*
X73669104Y-121452380D02*
X72954819Y-121119047D01*
X72954819Y-121119047D02*
X73954819Y-121119047D01*
X73669104Y-120690475D02*
X73669104Y-120214285D01*
X73954819Y-120785713D02*
X72954819Y-120452380D01*
X72954819Y-120452380D02*
X73954819Y-120119047D01*
X72954819Y-119499999D02*
X73669104Y-119499999D01*
X73669104Y-119499999D02*
X73811961Y-119547618D01*
X73811961Y-119547618D02*
X73907200Y-119642856D01*
X73907200Y-119642856D02*
X73954819Y-119785713D01*
X73954819Y-119785713D02*
X73954819Y-119880951D01*
X72954819Y-118595237D02*
X72954819Y-118785713D01*
X72954819Y-118785713D02*
X73002438Y-118880951D01*
X73002438Y-118880951D02*
X73050057Y-118928570D01*
X73050057Y-118928570D02*
X73192914Y-119023808D01*
X73192914Y-119023808D02*
X73383390Y-119071427D01*
X73383390Y-119071427D02*
X73764342Y-119071427D01*
X73764342Y-119071427D02*
X73859580Y-119023808D01*
X73859580Y-119023808D02*
X73907200Y-118976189D01*
X73907200Y-118976189D02*
X73954819Y-118880951D01*
X73954819Y-118880951D02*
X73954819Y-118690475D01*
X73954819Y-118690475D02*
X73907200Y-118595237D01*
X73907200Y-118595237D02*
X73859580Y-118547618D01*
X73859580Y-118547618D02*
X73764342Y-118499999D01*
X73764342Y-118499999D02*
X73526247Y-118499999D01*
X73526247Y-118499999D02*
X73431009Y-118547618D01*
X73431009Y-118547618D02*
X73383390Y-118595237D01*
X73383390Y-118595237D02*
X73335771Y-118690475D01*
X73335771Y-118690475D02*
X73335771Y-118880951D01*
X73335771Y-118880951D02*
X73383390Y-118976189D01*
X73383390Y-118976189D02*
X73431009Y-119023808D01*
X73431009Y-119023808D02*
X73526247Y-119071427D01*
X73859580Y-118071427D02*
X73907200Y-118023808D01*
X73907200Y-118023808D02*
X73954819Y-118071427D01*
X73954819Y-118071427D02*
X73907200Y-118119046D01*
X73907200Y-118119046D02*
X73859580Y-118071427D01*
X73859580Y-118071427D02*
X73954819Y-118071427D01*
X72954819Y-117404761D02*
X72954819Y-117309523D01*
X72954819Y-117309523D02*
X73002438Y-117214285D01*
X73002438Y-117214285D02*
X73050057Y-117166666D01*
X73050057Y-117166666D02*
X73145295Y-117119047D01*
X73145295Y-117119047D02*
X73335771Y-117071428D01*
X73335771Y-117071428D02*
X73573866Y-117071428D01*
X73573866Y-117071428D02*
X73764342Y-117119047D01*
X73764342Y-117119047D02*
X73859580Y-117166666D01*
X73859580Y-117166666D02*
X73907200Y-117214285D01*
X73907200Y-117214285D02*
X73954819Y-117309523D01*
X73954819Y-117309523D02*
X73954819Y-117404761D01*
X73954819Y-117404761D02*
X73907200Y-117499999D01*
X73907200Y-117499999D02*
X73859580Y-117547618D01*
X73859580Y-117547618D02*
X73764342Y-117595237D01*
X73764342Y-117595237D02*
X73573866Y-117642856D01*
X73573866Y-117642856D02*
X73335771Y-117642856D01*
X73335771Y-117642856D02*
X73145295Y-117595237D01*
X73145295Y-117595237D02*
X73050057Y-117547618D01*
X73050057Y-117547618D02*
X73002438Y-117499999D01*
X73002438Y-117499999D02*
X72954819Y-117404761D01*
X73859580Y-116071428D02*
X73907200Y-116119047D01*
X73907200Y-116119047D02*
X73954819Y-116261904D01*
X73954819Y-116261904D02*
X73954819Y-116357142D01*
X73954819Y-116357142D02*
X73907200Y-116499999D01*
X73907200Y-116499999D02*
X73811961Y-116595237D01*
X73811961Y-116595237D02*
X73716723Y-116642856D01*
X73716723Y-116642856D02*
X73526247Y-116690475D01*
X73526247Y-116690475D02*
X73383390Y-116690475D01*
X73383390Y-116690475D02*
X73192914Y-116642856D01*
X73192914Y-116642856D02*
X73097676Y-116595237D01*
X73097676Y-116595237D02*
X73002438Y-116499999D01*
X73002438Y-116499999D02*
X72954819Y-116357142D01*
X72954819Y-116357142D02*
X72954819Y-116261904D01*
X72954819Y-116261904D02*
X73002438Y-116119047D01*
X73002438Y-116119047D02*
X73050057Y-116071428D01*
X73669104Y-115690475D02*
X73669104Y-115214285D01*
X73954819Y-115785713D02*
X72954819Y-115452380D01*
X72954819Y-115452380D02*
X73954819Y-115119047D01*
X47978571Y-66454819D02*
X47407143Y-66454819D01*
X47692857Y-66454819D02*
X47692857Y-65454819D01*
X47692857Y-65454819D02*
X47597619Y-65597676D01*
X47597619Y-65597676D02*
X47502381Y-65692914D01*
X47502381Y-65692914D02*
X47407143Y-65740533D01*
X48597619Y-65454819D02*
X48692857Y-65454819D01*
X48692857Y-65454819D02*
X48788095Y-65502438D01*
X48788095Y-65502438D02*
X48835714Y-65550057D01*
X48835714Y-65550057D02*
X48883333Y-65645295D01*
X48883333Y-65645295D02*
X48930952Y-65835771D01*
X48930952Y-65835771D02*
X48930952Y-66073866D01*
X48930952Y-66073866D02*
X48883333Y-66264342D01*
X48883333Y-66264342D02*
X48835714Y-66359580D01*
X48835714Y-66359580D02*
X48788095Y-66407200D01*
X48788095Y-66407200D02*
X48692857Y-66454819D01*
X48692857Y-66454819D02*
X48597619Y-66454819D01*
X48597619Y-66454819D02*
X48502381Y-66407200D01*
X48502381Y-66407200D02*
X48454762Y-66359580D01*
X48454762Y-66359580D02*
X48407143Y-66264342D01*
X48407143Y-66264342D02*
X48359524Y-66073866D01*
X48359524Y-66073866D02*
X48359524Y-65835771D01*
X48359524Y-65835771D02*
X48407143Y-65645295D01*
X48407143Y-65645295D02*
X48454762Y-65550057D01*
X48454762Y-65550057D02*
X48502381Y-65502438D01*
X48502381Y-65502438D02*
X48597619Y-65454819D01*
X49359524Y-65788152D02*
X49359524Y-66454819D01*
X49359524Y-65883390D02*
X49407143Y-65835771D01*
X49407143Y-65835771D02*
X49502381Y-65788152D01*
X49502381Y-65788152D02*
X49645238Y-65788152D01*
X49645238Y-65788152D02*
X49740476Y-65835771D01*
X49740476Y-65835771D02*
X49788095Y-65931009D01*
X49788095Y-65931009D02*
X49788095Y-66454819D01*
X50597619Y-65931009D02*
X50264286Y-65931009D01*
X50264286Y-66454819D02*
X50264286Y-65454819D01*
X50264286Y-65454819D02*
X50740476Y-65454819D01*
X68907200Y-86785713D02*
X68954819Y-86642856D01*
X68954819Y-86642856D02*
X68954819Y-86404761D01*
X68954819Y-86404761D02*
X68907200Y-86309523D01*
X68907200Y-86309523D02*
X68859580Y-86261904D01*
X68859580Y-86261904D02*
X68764342Y-86214285D01*
X68764342Y-86214285D02*
X68669104Y-86214285D01*
X68669104Y-86214285D02*
X68573866Y-86261904D01*
X68573866Y-86261904D02*
X68526247Y-86309523D01*
X68526247Y-86309523D02*
X68478628Y-86404761D01*
X68478628Y-86404761D02*
X68431009Y-86595237D01*
X68431009Y-86595237D02*
X68383390Y-86690475D01*
X68383390Y-86690475D02*
X68335771Y-86738094D01*
X68335771Y-86738094D02*
X68240533Y-86785713D01*
X68240533Y-86785713D02*
X68145295Y-86785713D01*
X68145295Y-86785713D02*
X68050057Y-86738094D01*
X68050057Y-86738094D02*
X68002438Y-86690475D01*
X68002438Y-86690475D02*
X67954819Y-86595237D01*
X67954819Y-86595237D02*
X67954819Y-86357142D01*
X67954819Y-86357142D02*
X68002438Y-86214285D01*
X68954819Y-85785713D02*
X67954819Y-85785713D01*
X67954819Y-85785713D02*
X68669104Y-85452380D01*
X68669104Y-85452380D02*
X67954819Y-85119047D01*
X67954819Y-85119047D02*
X68954819Y-85119047D01*
X68669104Y-84690475D02*
X68669104Y-84214285D01*
X68954819Y-84785713D02*
X67954819Y-84452380D01*
X67954819Y-84452380D02*
X68954819Y-84119047D01*
X67954819Y-83499999D02*
X68669104Y-83499999D01*
X68669104Y-83499999D02*
X68811961Y-83547618D01*
X68811961Y-83547618D02*
X68907200Y-83642856D01*
X68907200Y-83642856D02*
X68954819Y-83785713D01*
X68954819Y-83785713D02*
X68954819Y-83880951D01*
X67954819Y-82595237D02*
X67954819Y-82785713D01*
X67954819Y-82785713D02*
X68002438Y-82880951D01*
X68002438Y-82880951D02*
X68050057Y-82928570D01*
X68050057Y-82928570D02*
X68192914Y-83023808D01*
X68192914Y-83023808D02*
X68383390Y-83071427D01*
X68383390Y-83071427D02*
X68764342Y-83071427D01*
X68764342Y-83071427D02*
X68859580Y-83023808D01*
X68859580Y-83023808D02*
X68907200Y-82976189D01*
X68907200Y-82976189D02*
X68954819Y-82880951D01*
X68954819Y-82880951D02*
X68954819Y-82690475D01*
X68954819Y-82690475D02*
X68907200Y-82595237D01*
X68907200Y-82595237D02*
X68859580Y-82547618D01*
X68859580Y-82547618D02*
X68764342Y-82499999D01*
X68764342Y-82499999D02*
X68526247Y-82499999D01*
X68526247Y-82499999D02*
X68431009Y-82547618D01*
X68431009Y-82547618D02*
X68383390Y-82595237D01*
X68383390Y-82595237D02*
X68335771Y-82690475D01*
X68335771Y-82690475D02*
X68335771Y-82880951D01*
X68335771Y-82880951D02*
X68383390Y-82976189D01*
X68383390Y-82976189D02*
X68431009Y-83023808D01*
X68431009Y-83023808D02*
X68526247Y-83071427D01*
X68859580Y-82071427D02*
X68907200Y-82023808D01*
X68907200Y-82023808D02*
X68954819Y-82071427D01*
X68954819Y-82071427D02*
X68907200Y-82119046D01*
X68907200Y-82119046D02*
X68859580Y-82071427D01*
X68859580Y-82071427D02*
X68954819Y-82071427D01*
X67954819Y-81404761D02*
X67954819Y-81309523D01*
X67954819Y-81309523D02*
X68002438Y-81214285D01*
X68002438Y-81214285D02*
X68050057Y-81166666D01*
X68050057Y-81166666D02*
X68145295Y-81119047D01*
X68145295Y-81119047D02*
X68335771Y-81071428D01*
X68335771Y-81071428D02*
X68573866Y-81071428D01*
X68573866Y-81071428D02*
X68764342Y-81119047D01*
X68764342Y-81119047D02*
X68859580Y-81166666D01*
X68859580Y-81166666D02*
X68907200Y-81214285D01*
X68907200Y-81214285D02*
X68954819Y-81309523D01*
X68954819Y-81309523D02*
X68954819Y-81404761D01*
X68954819Y-81404761D02*
X68907200Y-81499999D01*
X68907200Y-81499999D02*
X68859580Y-81547618D01*
X68859580Y-81547618D02*
X68764342Y-81595237D01*
X68764342Y-81595237D02*
X68573866Y-81642856D01*
X68573866Y-81642856D02*
X68335771Y-81642856D01*
X68335771Y-81642856D02*
X68145295Y-81595237D01*
X68145295Y-81595237D02*
X68050057Y-81547618D01*
X68050057Y-81547618D02*
X68002438Y-81499999D01*
X68002438Y-81499999D02*
X67954819Y-81404761D01*
X68859580Y-80071428D02*
X68907200Y-80119047D01*
X68907200Y-80119047D02*
X68954819Y-80261904D01*
X68954819Y-80261904D02*
X68954819Y-80357142D01*
X68954819Y-80357142D02*
X68907200Y-80499999D01*
X68907200Y-80499999D02*
X68811961Y-80595237D01*
X68811961Y-80595237D02*
X68716723Y-80642856D01*
X68716723Y-80642856D02*
X68526247Y-80690475D01*
X68526247Y-80690475D02*
X68383390Y-80690475D01*
X68383390Y-80690475D02*
X68192914Y-80642856D01*
X68192914Y-80642856D02*
X68097676Y-80595237D01*
X68097676Y-80595237D02*
X68002438Y-80499999D01*
X68002438Y-80499999D02*
X67954819Y-80357142D01*
X67954819Y-80357142D02*
X67954819Y-80261904D01*
X67954819Y-80261904D02*
X68002438Y-80119047D01*
X68002438Y-80119047D02*
X68050057Y-80071428D01*
X68669104Y-79690475D02*
X68669104Y-79214285D01*
X68954819Y-79785713D02*
X67954819Y-79452380D01*
X67954819Y-79452380D02*
X68954819Y-79119047D01*
X45251009Y-81333333D02*
X45251009Y-81666666D01*
X45774819Y-81666666D02*
X44774819Y-81666666D01*
X44774819Y-81666666D02*
X44774819Y-81190476D01*
X45774819Y-80285714D02*
X45774819Y-80857142D01*
X45774819Y-80571428D02*
X44774819Y-80571428D01*
X44774819Y-80571428D02*
X44917676Y-80666666D01*
X44917676Y-80666666D02*
X45012914Y-80761904D01*
X45012914Y-80761904D02*
X45060533Y-80857142D01*
X64954819Y-59738094D02*
X63954819Y-59738094D01*
X63954819Y-59738094D02*
X63954819Y-59499999D01*
X63954819Y-59499999D02*
X64002438Y-59357142D01*
X64002438Y-59357142D02*
X64097676Y-59261904D01*
X64097676Y-59261904D02*
X64192914Y-59214285D01*
X64192914Y-59214285D02*
X64383390Y-59166666D01*
X64383390Y-59166666D02*
X64526247Y-59166666D01*
X64526247Y-59166666D02*
X64716723Y-59214285D01*
X64716723Y-59214285D02*
X64811961Y-59261904D01*
X64811961Y-59261904D02*
X64907200Y-59357142D01*
X64907200Y-59357142D02*
X64954819Y-59499999D01*
X64954819Y-59499999D02*
X64954819Y-59738094D01*
X64954819Y-58214285D02*
X64954819Y-58785713D01*
X64954819Y-58499999D02*
X63954819Y-58499999D01*
X63954819Y-58499999D02*
X64097676Y-58595237D01*
X64097676Y-58595237D02*
X64192914Y-58690475D01*
X64192914Y-58690475D02*
X64240533Y-58785713D01*
X51702380Y-72454819D02*
X51130952Y-72454819D01*
X51416666Y-72454819D02*
X51416666Y-71454819D01*
X51416666Y-71454819D02*
X51321428Y-71597676D01*
X51321428Y-71597676D02*
X51226190Y-71692914D01*
X51226190Y-71692914D02*
X51130952Y-71740533D01*
X52321428Y-71454819D02*
X52416666Y-71454819D01*
X52416666Y-71454819D02*
X52511904Y-71502438D01*
X52511904Y-71502438D02*
X52559523Y-71550057D01*
X52559523Y-71550057D02*
X52607142Y-71645295D01*
X52607142Y-71645295D02*
X52654761Y-71835771D01*
X52654761Y-71835771D02*
X52654761Y-72073866D01*
X52654761Y-72073866D02*
X52607142Y-72264342D01*
X52607142Y-72264342D02*
X52559523Y-72359580D01*
X52559523Y-72359580D02*
X52511904Y-72407200D01*
X52511904Y-72407200D02*
X52416666Y-72454819D01*
X52416666Y-72454819D02*
X52321428Y-72454819D01*
X52321428Y-72454819D02*
X52226190Y-72407200D01*
X52226190Y-72407200D02*
X52178571Y-72359580D01*
X52178571Y-72359580D02*
X52130952Y-72264342D01*
X52130952Y-72264342D02*
X52083333Y-72073866D01*
X52083333Y-72073866D02*
X52083333Y-71835771D01*
X52083333Y-71835771D02*
X52130952Y-71645295D01*
X52130952Y-71645295D02*
X52178571Y-71550057D01*
X52178571Y-71550057D02*
X52226190Y-71502438D01*
X52226190Y-71502438D02*
X52321428Y-71454819D01*
X53273809Y-71454819D02*
X53369047Y-71454819D01*
X53369047Y-71454819D02*
X53464285Y-71502438D01*
X53464285Y-71502438D02*
X53511904Y-71550057D01*
X53511904Y-71550057D02*
X53559523Y-71645295D01*
X53559523Y-71645295D02*
X53607142Y-71835771D01*
X53607142Y-71835771D02*
X53607142Y-72073866D01*
X53607142Y-72073866D02*
X53559523Y-72264342D01*
X53559523Y-72264342D02*
X53511904Y-72359580D01*
X53511904Y-72359580D02*
X53464285Y-72407200D01*
X53464285Y-72407200D02*
X53369047Y-72454819D01*
X53369047Y-72454819D02*
X53273809Y-72454819D01*
X53273809Y-72454819D02*
X53178571Y-72407200D01*
X53178571Y-72407200D02*
X53130952Y-72359580D01*
X53130952Y-72359580D02*
X53083333Y-72264342D01*
X53083333Y-72264342D02*
X53035714Y-72073866D01*
X53035714Y-72073866D02*
X53035714Y-71835771D01*
X53035714Y-71835771D02*
X53083333Y-71645295D01*
X53083333Y-71645295D02*
X53130952Y-71550057D01*
X53130952Y-71550057D02*
X53178571Y-71502438D01*
X53178571Y-71502438D02*
X53273809Y-71454819D01*
X54464285Y-71788152D02*
X54464285Y-72454819D01*
X54035714Y-71788152D02*
X54035714Y-72311961D01*
X54035714Y-72311961D02*
X54083333Y-72407200D01*
X54083333Y-72407200D02*
X54178571Y-72454819D01*
X54178571Y-72454819D02*
X54321428Y-72454819D01*
X54321428Y-72454819D02*
X54416666Y-72407200D01*
X54416666Y-72407200D02*
X54464285Y-72359580D01*
X55273809Y-71931009D02*
X54940476Y-71931009D01*
X54940476Y-72454819D02*
X54940476Y-71454819D01*
X54940476Y-71454819D02*
X55416666Y-71454819D01*
X76438152Y-59102976D02*
X77104819Y-59102976D01*
X76057200Y-59341071D02*
X76771485Y-59579166D01*
X76771485Y-59579166D02*
X76771485Y-58960119D01*
X76104819Y-58674404D02*
X76104819Y-58007738D01*
X76104819Y-58007738D02*
X77104819Y-58436309D01*
X77104819Y-57626785D02*
X76104819Y-57626785D01*
X76723866Y-57531547D02*
X77104819Y-57245833D01*
X76438152Y-57245833D02*
X76819104Y-57626785D01*
X77104819Y-56245833D02*
X76628628Y-56579166D01*
X77104819Y-56817261D02*
X76104819Y-56817261D01*
X76104819Y-56817261D02*
X76104819Y-56436309D01*
X76104819Y-56436309D02*
X76152438Y-56341071D01*
X76152438Y-56341071D02*
X76200057Y-56293452D01*
X76200057Y-56293452D02*
X76295295Y-56245833D01*
X76295295Y-56245833D02*
X76438152Y-56245833D01*
X76438152Y-56245833D02*
X76533390Y-56293452D01*
X76533390Y-56293452D02*
X76581009Y-56341071D01*
X76581009Y-56341071D02*
X76628628Y-56436309D01*
X76628628Y-56436309D02*
X76628628Y-56817261D01*
X59104819Y-60095238D02*
X59104819Y-60666666D01*
X59104819Y-60380952D02*
X58104819Y-60380952D01*
X58104819Y-60380952D02*
X58247676Y-60476190D01*
X58247676Y-60476190D02*
X58342914Y-60571428D01*
X58342914Y-60571428D02*
X58390533Y-60666666D01*
X58104819Y-59476190D02*
X58104819Y-59380952D01*
X58104819Y-59380952D02*
X58152438Y-59285714D01*
X58152438Y-59285714D02*
X58200057Y-59238095D01*
X58200057Y-59238095D02*
X58295295Y-59190476D01*
X58295295Y-59190476D02*
X58485771Y-59142857D01*
X58485771Y-59142857D02*
X58723866Y-59142857D01*
X58723866Y-59142857D02*
X58914342Y-59190476D01*
X58914342Y-59190476D02*
X59009580Y-59238095D01*
X59009580Y-59238095D02*
X59057200Y-59285714D01*
X59057200Y-59285714D02*
X59104819Y-59380952D01*
X59104819Y-59380952D02*
X59104819Y-59476190D01*
X59104819Y-59476190D02*
X59057200Y-59571428D01*
X59057200Y-59571428D02*
X59009580Y-59619047D01*
X59009580Y-59619047D02*
X58914342Y-59666666D01*
X58914342Y-59666666D02*
X58723866Y-59714285D01*
X58723866Y-59714285D02*
X58485771Y-59714285D01*
X58485771Y-59714285D02*
X58295295Y-59666666D01*
X58295295Y-59666666D02*
X58200057Y-59619047D01*
X58200057Y-59619047D02*
X58152438Y-59571428D01*
X58152438Y-59571428D02*
X58104819Y-59476190D01*
X59104819Y-58714285D02*
X58104819Y-58714285D01*
X58723866Y-58619047D02*
X59104819Y-58333333D01*
X58438152Y-58333333D02*
X58819104Y-58714285D01*
X59104819Y-57333333D02*
X58628628Y-57666666D01*
X59104819Y-57904761D02*
X58104819Y-57904761D01*
X58104819Y-57904761D02*
X58104819Y-57523809D01*
X58104819Y-57523809D02*
X58152438Y-57428571D01*
X58152438Y-57428571D02*
X58200057Y-57380952D01*
X58200057Y-57380952D02*
X58295295Y-57333333D01*
X58295295Y-57333333D02*
X58438152Y-57333333D01*
X58438152Y-57333333D02*
X58533390Y-57380952D01*
X58533390Y-57380952D02*
X58581009Y-57428571D01*
X58581009Y-57428571D02*
X58628628Y-57523809D01*
X58628628Y-57523809D02*
X58628628Y-57904761D01*
X69805714Y-93754819D02*
X69805714Y-92754819D01*
X69805714Y-92754819D02*
X70043809Y-92754819D01*
X70043809Y-92754819D02*
X70186666Y-92802438D01*
X70186666Y-92802438D02*
X70281904Y-92897676D01*
X70281904Y-92897676D02*
X70329523Y-92992914D01*
X70329523Y-92992914D02*
X70377142Y-93183390D01*
X70377142Y-93183390D02*
X70377142Y-93326247D01*
X70377142Y-93326247D02*
X70329523Y-93516723D01*
X70329523Y-93516723D02*
X70281904Y-93611961D01*
X70281904Y-93611961D02*
X70186666Y-93707200D01*
X70186666Y-93707200D02*
X70043809Y-93754819D01*
X70043809Y-93754819D02*
X69805714Y-93754819D01*
X70758095Y-92850057D02*
X70805714Y-92802438D01*
X70805714Y-92802438D02*
X70900952Y-92754819D01*
X70900952Y-92754819D02*
X71139047Y-92754819D01*
X71139047Y-92754819D02*
X71234285Y-92802438D01*
X71234285Y-92802438D02*
X71281904Y-92850057D01*
X71281904Y-92850057D02*
X71329523Y-92945295D01*
X71329523Y-92945295D02*
X71329523Y-93040533D01*
X71329523Y-93040533D02*
X71281904Y-93183390D01*
X71281904Y-93183390D02*
X70710476Y-93754819D01*
X70710476Y-93754819D02*
X71329523Y-93754819D01*
X72281904Y-93754819D02*
X71710476Y-93754819D01*
X71996190Y-93754819D02*
X71996190Y-92754819D01*
X71996190Y-92754819D02*
X71900952Y-92897676D01*
X71900952Y-92897676D02*
X71805714Y-92992914D01*
X71805714Y-92992914D02*
X71710476Y-93040533D01*
X69805714Y-101754819D02*
X69805714Y-100754819D01*
X69805714Y-100754819D02*
X70043809Y-100754819D01*
X70043809Y-100754819D02*
X70186666Y-100802438D01*
X70186666Y-100802438D02*
X70281904Y-100897676D01*
X70281904Y-100897676D02*
X70329523Y-100992914D01*
X70329523Y-100992914D02*
X70377142Y-101183390D01*
X70377142Y-101183390D02*
X70377142Y-101326247D01*
X70377142Y-101326247D02*
X70329523Y-101516723D01*
X70329523Y-101516723D02*
X70281904Y-101611961D01*
X70281904Y-101611961D02*
X70186666Y-101707200D01*
X70186666Y-101707200D02*
X70043809Y-101754819D01*
X70043809Y-101754819D02*
X69805714Y-101754819D01*
X71329523Y-101754819D02*
X70758095Y-101754819D01*
X71043809Y-101754819D02*
X71043809Y-100754819D01*
X71043809Y-100754819D02*
X70948571Y-100897676D01*
X70948571Y-100897676D02*
X70853333Y-100992914D01*
X70853333Y-100992914D02*
X70758095Y-101040533D01*
X71900952Y-101183390D02*
X71805714Y-101135771D01*
X71805714Y-101135771D02*
X71758095Y-101088152D01*
X71758095Y-101088152D02*
X71710476Y-100992914D01*
X71710476Y-100992914D02*
X71710476Y-100945295D01*
X71710476Y-100945295D02*
X71758095Y-100850057D01*
X71758095Y-100850057D02*
X71805714Y-100802438D01*
X71805714Y-100802438D02*
X71900952Y-100754819D01*
X71900952Y-100754819D02*
X72091428Y-100754819D01*
X72091428Y-100754819D02*
X72186666Y-100802438D01*
X72186666Y-100802438D02*
X72234285Y-100850057D01*
X72234285Y-100850057D02*
X72281904Y-100945295D01*
X72281904Y-100945295D02*
X72281904Y-100992914D01*
X72281904Y-100992914D02*
X72234285Y-101088152D01*
X72234285Y-101088152D02*
X72186666Y-101135771D01*
X72186666Y-101135771D02*
X72091428Y-101183390D01*
X72091428Y-101183390D02*
X71900952Y-101183390D01*
X71900952Y-101183390D02*
X71805714Y-101231009D01*
X71805714Y-101231009D02*
X71758095Y-101278628D01*
X71758095Y-101278628D02*
X71710476Y-101373866D01*
X71710476Y-101373866D02*
X71710476Y-101564342D01*
X71710476Y-101564342D02*
X71758095Y-101659580D01*
X71758095Y-101659580D02*
X71805714Y-101707200D01*
X71805714Y-101707200D02*
X71900952Y-101754819D01*
X71900952Y-101754819D02*
X72091428Y-101754819D01*
X72091428Y-101754819D02*
X72186666Y-101707200D01*
X72186666Y-101707200D02*
X72234285Y-101659580D01*
X72234285Y-101659580D02*
X72281904Y-101564342D01*
X72281904Y-101564342D02*
X72281904Y-101373866D01*
X72281904Y-101373866D02*
X72234285Y-101278628D01*
X72234285Y-101278628D02*
X72186666Y-101231009D01*
X72186666Y-101231009D02*
X72091428Y-101183390D01*
X55104819Y-59873214D02*
X55104819Y-60444642D01*
X55104819Y-60158928D02*
X54104819Y-60158928D01*
X54104819Y-60158928D02*
X54247676Y-60254166D01*
X54247676Y-60254166D02*
X54342914Y-60349404D01*
X54342914Y-60349404D02*
X54390533Y-60444642D01*
X55104819Y-59444642D02*
X54104819Y-59444642D01*
X54104819Y-59444642D02*
X54819104Y-59111309D01*
X54819104Y-59111309D02*
X54104819Y-58777976D01*
X54104819Y-58777976D02*
X55104819Y-58777976D01*
X55104819Y-57730357D02*
X54628628Y-58063690D01*
X55104819Y-58301785D02*
X54104819Y-58301785D01*
X54104819Y-58301785D02*
X54104819Y-57920833D01*
X54104819Y-57920833D02*
X54152438Y-57825595D01*
X54152438Y-57825595D02*
X54200057Y-57777976D01*
X54200057Y-57777976D02*
X54295295Y-57730357D01*
X54295295Y-57730357D02*
X54438152Y-57730357D01*
X54438152Y-57730357D02*
X54533390Y-57777976D01*
X54533390Y-57777976D02*
X54581009Y-57825595D01*
X54581009Y-57825595D02*
X54628628Y-57920833D01*
X54628628Y-57920833D02*
X54628628Y-58301785D01*
X69039439Y-66626353D02*
X69001263Y-66702706D01*
X69001263Y-66702706D02*
X68924910Y-66779059D01*
X68924910Y-66779059D02*
X68810380Y-66893589D01*
X68810380Y-66893589D02*
X68772203Y-66969942D01*
X68772203Y-66969942D02*
X68772203Y-67046296D01*
X68963086Y-67008119D02*
X68924910Y-67084472D01*
X68924910Y-67084472D02*
X68848556Y-67160825D01*
X68848556Y-67160825D02*
X68695850Y-67199002D01*
X68695850Y-67199002D02*
X68428613Y-67199002D01*
X68428613Y-67199002D02*
X68275907Y-67160825D01*
X68275907Y-67160825D02*
X68199554Y-67084472D01*
X68199554Y-67084472D02*
X68161377Y-67008119D01*
X68161377Y-67008119D02*
X68161377Y-66855412D01*
X68161377Y-66855412D02*
X68199554Y-66779059D01*
X68199554Y-66779059D02*
X68275907Y-66702706D01*
X68275907Y-66702706D02*
X68428613Y-66664529D01*
X68428613Y-66664529D02*
X68695850Y-66664529D01*
X68695850Y-66664529D02*
X68848556Y-66702706D01*
X68848556Y-66702706D02*
X68924910Y-66779059D01*
X68924910Y-66779059D02*
X68963086Y-66855412D01*
X68963086Y-66855412D02*
X68963086Y-67008119D01*
X68963086Y-65900997D02*
X68963086Y-66359116D01*
X68963086Y-66130056D02*
X68161377Y-66130056D01*
X68161377Y-66130056D02*
X68275907Y-66206410D01*
X68275907Y-66206410D02*
X68352260Y-66282763D01*
X68352260Y-66282763D02*
X68390437Y-66359116D01*
X47848214Y-58054819D02*
X47848214Y-57054819D01*
X47848214Y-57054819D02*
X48086309Y-57054819D01*
X48086309Y-57054819D02*
X48229166Y-57102438D01*
X48229166Y-57102438D02*
X48324404Y-57197676D01*
X48324404Y-57197676D02*
X48372023Y-57292914D01*
X48372023Y-57292914D02*
X48419642Y-57483390D01*
X48419642Y-57483390D02*
X48419642Y-57626247D01*
X48419642Y-57626247D02*
X48372023Y-57816723D01*
X48372023Y-57816723D02*
X48324404Y-57911961D01*
X48324404Y-57911961D02*
X48229166Y-58007200D01*
X48229166Y-58007200D02*
X48086309Y-58054819D01*
X48086309Y-58054819D02*
X47848214Y-58054819D01*
X48800595Y-57150057D02*
X48848214Y-57102438D01*
X48848214Y-57102438D02*
X48943452Y-57054819D01*
X48943452Y-57054819D02*
X49181547Y-57054819D01*
X49181547Y-57054819D02*
X49276785Y-57102438D01*
X49276785Y-57102438D02*
X49324404Y-57150057D01*
X49324404Y-57150057D02*
X49372023Y-57245295D01*
X49372023Y-57245295D02*
X49372023Y-57340533D01*
X49372023Y-57340533D02*
X49324404Y-57483390D01*
X49324404Y-57483390D02*
X48752976Y-58054819D01*
X48752976Y-58054819D02*
X49372023Y-58054819D01*
X49991071Y-57054819D02*
X50086309Y-57054819D01*
X50086309Y-57054819D02*
X50181547Y-57102438D01*
X50181547Y-57102438D02*
X50229166Y-57150057D01*
X50229166Y-57150057D02*
X50276785Y-57245295D01*
X50276785Y-57245295D02*
X50324404Y-57435771D01*
X50324404Y-57435771D02*
X50324404Y-57673866D01*
X50324404Y-57673866D02*
X50276785Y-57864342D01*
X50276785Y-57864342D02*
X50229166Y-57959580D01*
X50229166Y-57959580D02*
X50181547Y-58007200D01*
X50181547Y-58007200D02*
X50086309Y-58054819D01*
X50086309Y-58054819D02*
X49991071Y-58054819D01*
X49991071Y-58054819D02*
X49895833Y-58007200D01*
X49895833Y-58007200D02*
X49848214Y-57959580D01*
X49848214Y-57959580D02*
X49800595Y-57864342D01*
X49800595Y-57864342D02*
X49752976Y-57673866D01*
X49752976Y-57673866D02*
X49752976Y-57435771D01*
X49752976Y-57435771D02*
X49800595Y-57245295D01*
X49800595Y-57245295D02*
X49848214Y-57150057D01*
X49848214Y-57150057D02*
X49895833Y-57102438D01*
X49895833Y-57102438D02*
X49991071Y-57054819D01*
X63879819Y-73511904D02*
X64689342Y-73511904D01*
X64689342Y-73511904D02*
X64784580Y-73464285D01*
X64784580Y-73464285D02*
X64832200Y-73416666D01*
X64832200Y-73416666D02*
X64879819Y-73321428D01*
X64879819Y-73321428D02*
X64879819Y-73130952D01*
X64879819Y-73130952D02*
X64832200Y-73035714D01*
X64832200Y-73035714D02*
X64784580Y-72988095D01*
X64784580Y-72988095D02*
X64689342Y-72940476D01*
X64689342Y-72940476D02*
X63879819Y-72940476D01*
X64879819Y-71940476D02*
X64879819Y-72511904D01*
X64879819Y-72226190D02*
X63879819Y-72226190D01*
X63879819Y-72226190D02*
X64022676Y-72321428D01*
X64022676Y-72321428D02*
X64117914Y-72416666D01*
X64117914Y-72416666D02*
X64165533Y-72511904D01*
X50666666Y-50454819D02*
X50666666Y-51169104D01*
X50666666Y-51169104D02*
X50619047Y-51311961D01*
X50619047Y-51311961D02*
X50523809Y-51407200D01*
X50523809Y-51407200D02*
X50380952Y-51454819D01*
X50380952Y-51454819D02*
X50285714Y-51454819D01*
X51619047Y-50454819D02*
X51142857Y-50454819D01*
X51142857Y-50454819D02*
X51095238Y-50931009D01*
X51095238Y-50931009D02*
X51142857Y-50883390D01*
X51142857Y-50883390D02*
X51238095Y-50835771D01*
X51238095Y-50835771D02*
X51476190Y-50835771D01*
X51476190Y-50835771D02*
X51571428Y-50883390D01*
X51571428Y-50883390D02*
X51619047Y-50931009D01*
X51619047Y-50931009D02*
X51666666Y-51026247D01*
X51666666Y-51026247D02*
X51666666Y-51264342D01*
X51666666Y-51264342D02*
X51619047Y-51359580D01*
X51619047Y-51359580D02*
X51571428Y-51407200D01*
X51571428Y-51407200D02*
X51476190Y-51454819D01*
X51476190Y-51454819D02*
X51238095Y-51454819D01*
X51238095Y-51454819D02*
X51142857Y-51407200D01*
X51142857Y-51407200D02*
X51095238Y-51359580D01*
D12*
%TO.C,JP3*%
X60000000Y-57600000D02*
X62000000Y-57600000D01*
X60000000Y-60400000D02*
X60000000Y-57600000D01*
X62000000Y-57600000D02*
X62000000Y-60400000D01*
X62000000Y-60400000D02*
X60000000Y-60400000D01*
%TO.C,JP2*%
X64350000Y-65725000D02*
X67150000Y-65725000D01*
X64350000Y-67725000D02*
X64350000Y-65725000D01*
X67150000Y-65725000D02*
X67150000Y-67725000D01*
X67150000Y-67725000D02*
X64350000Y-67725000D01*
%TO.C,10kR*%
X71265000Y-61772936D02*
X71265000Y-62227064D01*
X72735000Y-61772936D02*
X72735000Y-62227064D01*
%TO.C,SMAJ6.0CA*%
X69350000Y-115490000D02*
X69350000Y-121000000D01*
X72650000Y-115490000D02*
X69350000Y-115490000D01*
X72650000Y-115490000D02*
X72650000Y-121000000D01*
%TO.C,10nF*%
X49261252Y-63265000D02*
X48738748Y-63265000D01*
X49261252Y-64735000D02*
X48738748Y-64735000D01*
%TO.C,SMAJ6.0CA*%
X69350000Y-86510000D02*
X69350000Y-81000000D01*
X69350000Y-86510000D02*
X72650000Y-86510000D01*
X72650000Y-86510000D02*
X72650000Y-81000000D01*
%TO.C,F1*%
X46330000Y-83203752D02*
X46330000Y-78796248D01*
X51670000Y-83203752D02*
X51670000Y-78796248D01*
%TO.C,D1*%
X65350000Y-62510000D02*
X65350000Y-57000000D01*
X65350000Y-62510000D02*
X68650000Y-62510000D01*
X68650000Y-62510000D02*
X68650000Y-57000000D01*
%TO.C,100uF*%
X52288748Y-73090000D02*
X53711252Y-73090000D01*
X52288748Y-74910000D02*
X53711252Y-74910000D01*
%TO.C,47kR*%
X74265000Y-57685436D02*
X74265000Y-58139564D01*
X75735000Y-57685436D02*
X75735000Y-58139564D01*
%TO.C,10kR*%
X56265000Y-58772936D02*
X56265000Y-59227064D01*
X57735000Y-58772936D02*
X57735000Y-59227064D01*
%TO.C,D21*%
X70350000Y-97560000D02*
X71650000Y-97560000D01*
X71650000Y-94440000D02*
X70380000Y-94440000D01*
X70000000Y-94490000D02*
X69760000Y-94160000D01*
X70240000Y-94160000D01*
X70000000Y-94490000D01*
G36*
X70000000Y-94490000D02*
G01*
X69760000Y-94160000D01*
X70240000Y-94160000D01*
X70000000Y-94490000D01*
G37*
%TO.C,D18*%
X70350000Y-105560000D02*
X71650000Y-105560000D01*
X71650000Y-102440000D02*
X70380000Y-102440000D01*
X70000000Y-102490000D02*
X69760000Y-102160000D01*
X70240000Y-102160000D01*
X70000000Y-102490000D01*
G36*
X70000000Y-102490000D02*
G01*
X69760000Y-102160000D01*
X70240000Y-102160000D01*
X70000000Y-102490000D01*
G37*
%TO.C,1MR*%
X52265000Y-58860436D02*
X52265000Y-59314564D01*
X53735000Y-58860436D02*
X53735000Y-59314564D01*
D13*
%TO.C,Q1*%
X70839600Y-65077600D02*
X71652400Y-65077600D01*
X70839600Y-65736400D02*
X70839600Y-65077600D01*
X70839600Y-67922400D02*
X70839600Y-67263600D01*
X71652400Y-67922400D02*
X70839600Y-67922400D01*
D12*
%TO.C,D20*%
X48302500Y-58440000D02*
X49822500Y-58440000D01*
X48302500Y-58490000D02*
X48302500Y-58440000D01*
X48302500Y-60390000D02*
X48302500Y-59610000D01*
X48302500Y-61560000D02*
X48302500Y-61510000D01*
X49822500Y-58440000D02*
X49822500Y-59440000D01*
X49822500Y-60560000D02*
X49822500Y-61560000D01*
X49822500Y-61560000D02*
X48302500Y-61560000D01*
X48002500Y-59950000D02*
X47522500Y-59950000D01*
X47762500Y-59620000D01*
X48002500Y-59950000D01*
G36*
X48002500Y-59950000D02*
G01*
X47522500Y-59950000D01*
X47762500Y-59620000D01*
X48002500Y-59950000D01*
G37*
D11*
%TO.C,U1*%
X58843500Y-69844000D02*
X59369500Y-69844000D01*
X58843500Y-70369500D02*
X58843500Y-69844000D01*
X58843500Y-73621000D02*
X58843500Y-74144000D01*
X58843500Y-74144000D02*
X59369500Y-74144000D01*
X62773000Y-69835000D02*
X62646000Y-69835000D01*
X63133500Y-70194000D02*
X62773000Y-69835000D01*
X63133500Y-70364500D02*
X63133500Y-70194000D01*
X63144000Y-73621000D02*
X63144000Y-74144000D01*
X63144000Y-74144000D02*
X62620500Y-74144000D01*
D14*
X62910000Y-69402000D02*
G75*
G02*
X62670000Y-69402000I-120000J0D01*
G01*
X62670000Y-69402000D02*
G75*
G02*
X62910000Y-69402000I120000J0D01*
G01*
%TD*%
%LPC*%
%TO.C,JP3*%
G36*
X61750000Y-57775000D02*
G01*
X60250000Y-57775000D01*
X60250000Y-60225000D01*
X61750000Y-60225000D01*
X61750000Y-57775000D01*
G37*
%TO.C,JP2*%
G36*
X66975000Y-67475000D02*
G01*
X64525000Y-67475000D01*
X64525000Y-65975000D01*
X66975000Y-65975000D01*
X66975000Y-67475000D01*
G37*
%TD*%
D15*
%TO.C,J2*%
X77000000Y-81000000D03*
X77000000Y-89000000D03*
X77000000Y-97000000D03*
X77000000Y-105000000D03*
X77000000Y-113000000D03*
X77000000Y-121000000D03*
%TD*%
D16*
%TO.C,U2*%
X57000000Y-46000000D03*
D17*
X57000000Y-47500000D03*
D16*
X64000000Y-41000000D03*
D17*
X64000000Y-42500000D03*
D16*
X71000000Y-46000000D03*
D17*
X71000000Y-47500000D03*
D18*
X61460000Y-48000000D03*
X64000000Y-48000000D03*
X66540000Y-48000000D03*
%TD*%
D19*
%TO.C,JP3*%
X61000000Y-58275000D03*
D20*
X61000000Y-59725000D03*
%TD*%
D21*
%TO.C,REF\u002A\u002A*%
X77000000Y-43000000D03*
%TD*%
D22*
%TO.C,J3*%
X77000000Y-62750000D03*
X77000000Y-67000000D03*
X77000000Y-71250000D03*
%TD*%
D23*
%TO.C,JP2*%
X66475000Y-66725000D03*
D24*
X65025000Y-66725000D03*
%TD*%
D25*
%TO.C,10kR*%
X72000000Y-61087500D03*
X72000000Y-62912500D03*
%TD*%
D26*
%TO.C,SMAJ6.0CA*%
X71000000Y-117000000D03*
X71000000Y-121000000D03*
%TD*%
D27*
%TO.C,10nF*%
X49950000Y-64000000D03*
X48050000Y-64000000D03*
%TD*%
D28*
%TO.C,SMAJ6.0CA*%
X71000000Y-85000000D03*
X71000000Y-81000000D03*
%TD*%
D22*
%TO.C,J4*%
X40000000Y-62750000D03*
X40000000Y-67000000D03*
X40000000Y-71250000D03*
%TD*%
D29*
%TO.C,F1*%
X49000000Y-84387500D03*
X49000000Y-77612500D03*
%TD*%
D28*
%TO.C,D1*%
X67000000Y-61000000D03*
X67000000Y-57000000D03*
%TD*%
D21*
%TO.C,REF\u002A\u002A*%
X39000000Y-43000000D03*
%TD*%
D30*
%TO.C,100uF*%
X51525000Y-74000000D03*
X54475000Y-74000000D03*
%TD*%
D15*
%TO.C,J1*%
X40000000Y-81000000D03*
X40000000Y-89000000D03*
X40000000Y-97000000D03*
X40000000Y-105000000D03*
X40000000Y-113000000D03*
X40000000Y-121000000D03*
%TD*%
D25*
%TO.C,47kR*%
X75000000Y-57000000D03*
X75000000Y-58825000D03*
%TD*%
%TO.C,10kR*%
X57000000Y-58087500D03*
X57000000Y-59912500D03*
%TD*%
D31*
%TO.C,D21*%
X70000000Y-95250000D03*
D32*
X70000000Y-96950000D03*
X72000000Y-96950000D03*
X72000000Y-95050000D03*
%TD*%
D21*
%TO.C,REF\u002A\u002A*%
X58000000Y-113000000D03*
%TD*%
D31*
%TO.C,D18*%
X70000000Y-103250000D03*
D32*
X70000000Y-104950000D03*
X72000000Y-104950000D03*
X72000000Y-103050000D03*
%TD*%
D25*
%TO.C,1MR*%
X53000000Y-58175000D03*
X53000000Y-60000000D03*
%TD*%
D33*
%TO.C,Q1*%
X72600000Y-67450000D03*
X72600000Y-65550000D03*
X70400000Y-66500000D03*
%TD*%
D34*
%TO.C,D20*%
X48125000Y-59050000D03*
X48125000Y-60950000D03*
X50000000Y-60000000D03*
%TD*%
D35*
%TO.C,U1*%
X62250000Y-69975000D03*
X61750000Y-69975000D03*
X61250000Y-69975000D03*
X60750000Y-69975000D03*
X60250000Y-69975000D03*
X59750000Y-69975000D03*
D36*
X58975000Y-70750000D03*
X58975000Y-71250000D03*
X58975000Y-71750000D03*
X58975000Y-72250000D03*
X58975000Y-72750000D03*
X58975000Y-73250000D03*
D35*
X59750000Y-74025000D03*
X60250000Y-74025000D03*
X60750000Y-74025000D03*
X61250000Y-74025000D03*
X61750000Y-74025000D03*
X62250000Y-74025000D03*
D36*
X63025000Y-73250000D03*
X63025000Y-72750000D03*
X63025000Y-72250000D03*
X63025000Y-71750000D03*
X63025000Y-71250000D03*
X63025000Y-70750000D03*
D37*
X61000000Y-72000500D03*
%TD*%
D38*
%TO.C,J5*%
X49200000Y-53000000D03*
D39*
X52800000Y-53000000D03*
%TD*%
%LPD*%
M02*
