M48
; DRILL file {KiCad 9.0.6} date 2025-12-16T14:32:06+0100
; FORMAT={-:-/ absolute / metric / decimal}
; #@! TF.CreationDate,2025-12-16T14:32:06+01:00
; #@! TF.GenerationSoftware,Kicad,Pcbnew,9.0.6
; #@! TF.FileFunction,Plated,1,2,PTH
FMAT,2
METRIC
; #@! TA.AperFunction,Plated,PTH,ViaDrill
T1C0.300
; #@! TA.AperFunction,Plated,PTH,ComponentDrill
T2C0.600
%
G90
G05
T1
X42.25Y-71.25
X42.75Y-89.0
X42.75Y-113.0
X43.0Y-71.25
X43.5Y-89.0
X43.5Y-113.0
X43.75Y-71.25
X44.25Y-89.0
X44.25Y-113.0
X46.0Y-59.0
X46.0Y-64.0
X46.75Y-59.0
X46.75Y-64.0
X53.0Y-61.25
X55.75Y-73.25
X55.75Y-74.0
X55.75Y-74.75
X60.0Y-72.0
X61.0Y-71.0
X61.0Y-72.0
X61.0Y-73.0
X61.5Y-68.25
X61.5Y-69.0
X62.0Y-72.0
X68.0Y-47.25
X68.0Y-48.0
X68.0Y-48.75
X69.0Y-95.25
X69.0Y-103.25
X71.0Y-87.0
X71.0Y-87.75
X71.0Y-114.25
X71.0Y-115.0
X72.75Y-89.0
X72.75Y-113.0
X73.5Y-89.0
X73.5Y-113.0
X73.75Y-57.0
X74.25Y-89.0
X74.25Y-113.0
X77.0Y-73.0
X77.0Y-73.75
T2
X49.2Y-53.0
X52.8Y-53.0
M30
