%TF.GenerationSoftware,KiCad,Pcbnew,9.0.6*%
%TF.CreationDate,2025-12-16T14:31:59+01:00*%
%TF.ProjectId,target,74617267-6574-42e6-9b69-6361645f7063,rev?*%
%TF.SameCoordinates,Original*%
%TF.FileFunction,Soldermask,Top*%
%TF.FilePolarity,Negative*%
%FSLAX46Y46*%
G04 Gerber Fmt 4.6, Leading zero omitted, Abs format (unit mm)*
G04 Created by KiCad (PCBNEW 9.0.6) date 2025-12-16 14:31:59*
%MOMM*%
%LPD*%
G01*
G04 APERTURE LIST*
G04 Aperture macros list*
%AMRoundRect*
0 Rectangle with rounded corners*
0 $1 Rounding radius*
0 $2 $3 $4 $5 $6 $7 $8 $9 X,Y pos of 4 corners*
0 Add a 4 corners polygon primitive as box body*
4,1,4,$2,$3,$4,$5,$6,$7,$8,$9,$2,$3,0*
0 Add four circle primitives for the rounded corners*
1,1,$1+$1,$2,$3*
1,1,$1+$1,$4,$5*
1,1,$1+$1,$6,$7*
1,1,$1+$1,$8,$9*
0 Add four rect primitives between the rounded corners*
20,1,$1+$1,$2,$3,$4,$5,0*
20,1,$1+$1,$4,$5,$6,$7,0*
20,1,$1+$1,$6,$7,$8,$9,0*
20,1,$1+$1,$8,$9,$2,$3,0*%
%AMFreePoly0*
4,1,6,1.000000,0.000000,0.500000,-0.750000,-0.500000,-0.750000,-0.500000,0.750000,0.500000,0.750000,1.000000,0.000000,1.000000,0.000000,$1*%
%AMFreePoly1*
4,1,6,0.500000,-0.750000,-0.650000,-0.750000,-0.150000,0.000000,-0.650000,0.750000,0.500000,0.750000,0.500000,-0.750000,0.500000,-0.750000,$1*%
G04 Aperture macros list end*
%ADD10RoundRect,0.600000X-1.400000X1.400000X-1.400000X-1.400000X1.400000X-1.400000X1.400000X1.400000X0*%
%ADD11O,3.000000X3.000000*%
%ADD12C,2.000000*%
%ADD13RoundRect,0.285750X-0.666750X-1.714250X0.666750X-1.714250X0.666750X1.714250X-0.666750X1.714250X0*%
%ADD14FreePoly0,270.000000*%
%ADD15FreePoly1,270.000000*%
%ADD16C,2.200000*%
%ADD17RoundRect,0.300000X-1.200000X0.700000X-1.200000X-0.700000X1.200000X-0.700000X1.200000X0.700000X0*%
%ADD18FreePoly0,180.000000*%
%ADD19FreePoly1,180.000000*%
%ADD20RoundRect,0.250000X-0.450000X0.262500X-0.450000X-0.262500X0.450000X-0.262500X0.450000X0.262500X0*%
%ADD21RoundRect,0.250000X-0.650000X1.000000X-0.650000X-1.000000X0.650000X-1.000000X0.650000X1.000000X0*%
%ADD22RoundRect,0.250000X0.250000X0.475000X-0.250000X0.475000X-0.250000X-0.475000X0.250000X-0.475000X0*%
%ADD23RoundRect,0.250000X0.650000X-1.000000X0.650000X1.000000X-0.650000X1.000000X-0.650000X-1.000000X0*%
%ADD24RoundRect,0.250000X2.475000X-0.712500X2.475000X0.712500X-2.475000X0.712500X-2.475000X-0.712500X0*%
%ADD25RoundRect,0.250000X-0.325000X-0.650000X0.325000X-0.650000X0.325000X0.650000X-0.325000X0.650000X0*%
%ADD26RoundRect,0.175000X-0.175000X-0.325000X0.175000X-0.325000X0.175000X0.325000X-0.175000X0.325000X0*%
%ADD27RoundRect,0.150000X-0.200000X-0.150000X0.200000X-0.150000X0.200000X0.150000X-0.200000X0.150000X0*%
%ADD28RoundRect,0.102000X0.700000X-0.500000X0.700000X0.500000X-0.700000X0.500000X-0.700000X-0.500000X0*%
%ADD29RoundRect,0.150000X-0.587500X-0.150000X0.587500X-0.150000X0.587500X0.150000X-0.587500X0.150000X0*%
%ADD30R,0.250000X0.850000*%
%ADD31R,0.850000X0.250000*%
%ADD32R,2.600000X2.600000*%
%ADD33RoundRect,0.250000X-0.550000X-0.550000X0.550000X-0.550000X0.550000X0.550000X-0.550000X0.550000X0*%
%ADD34C,1.600000*%
G04 APERTURE END LIST*
%TO.C,JP3*%
G36*
X61750000Y-57775000D02*
G01*
X60250000Y-57775000D01*
X60250000Y-60225000D01*
X61750000Y-60225000D01*
X61750000Y-57775000D01*
G37*
%TO.C,JP2*%
G36*
X66975000Y-67475000D02*
G01*
X64525000Y-67475000D01*
X64525000Y-65975000D01*
X66975000Y-65975000D01*
X66975000Y-67475000D01*
G37*
%TD*%
D10*
%TO.C,J2*%
X77000000Y-81000000D03*
X77000000Y-89000000D03*
X77000000Y-97000000D03*
X77000000Y-105000000D03*
X77000000Y-113000000D03*
X77000000Y-121000000D03*
%TD*%
D11*
%TO.C,U2*%
X57000000Y-46000000D03*
D12*
X57000000Y-47500000D03*
D11*
X64000000Y-41000000D03*
D12*
X64000000Y-42500000D03*
D11*
X71000000Y-46000000D03*
D12*
X71000000Y-47500000D03*
D13*
X61460000Y-48000000D03*
X64000000Y-48000000D03*
X66540000Y-48000000D03*
%TD*%
D14*
%TO.C,JP3*%
X61000000Y-58275000D03*
D15*
X61000000Y-59725000D03*
%TD*%
D16*
%TO.C,REF\u002A\u002A*%
X77000000Y-43000000D03*
%TD*%
D17*
%TO.C,J3*%
X77000000Y-62750000D03*
X77000000Y-67000000D03*
X77000000Y-71250000D03*
%TD*%
D18*
%TO.C,JP2*%
X66475000Y-66725000D03*
D19*
X65025000Y-66725000D03*
%TD*%
D20*
%TO.C,10kR*%
X72000000Y-61087500D03*
X72000000Y-62912500D03*
%TD*%
D21*
%TO.C,SMAJ6.0CA*%
X71000000Y-117000000D03*
X71000000Y-121000000D03*
%TD*%
D22*
%TO.C,10nF*%
X49950000Y-64000000D03*
X48050000Y-64000000D03*
%TD*%
D23*
%TO.C,SMAJ6.0CA*%
X71000000Y-85000000D03*
X71000000Y-81000000D03*
%TD*%
D17*
%TO.C,J4*%
X40000000Y-62750000D03*
X40000000Y-67000000D03*
X40000000Y-71250000D03*
%TD*%
D24*
%TO.C,F1*%
X49000000Y-84387500D03*
X49000000Y-77612500D03*
%TD*%
D23*
%TO.C,D1*%
X67000000Y-61000000D03*
X67000000Y-57000000D03*
%TD*%
D16*
%TO.C,REF\u002A\u002A*%
X39000000Y-43000000D03*
%TD*%
D25*
%TO.C,100uF*%
X51525000Y-74000000D03*
X54475000Y-74000000D03*
%TD*%
D10*
%TO.C,J1*%
X40000000Y-81000000D03*
X40000000Y-89000000D03*
X40000000Y-97000000D03*
X40000000Y-105000000D03*
X40000000Y-113000000D03*
X40000000Y-121000000D03*
%TD*%
D20*
%TO.C,47kR*%
X75000000Y-57000000D03*
X75000000Y-58825000D03*
%TD*%
%TO.C,10kR*%
X57000000Y-58087500D03*
X57000000Y-59912500D03*
%TD*%
D26*
%TO.C,D21*%
X70000000Y-95250000D03*
D27*
X70000000Y-96950000D03*
X72000000Y-96950000D03*
X72000000Y-95050000D03*
%TD*%
D16*
%TO.C,REF\u002A\u002A*%
X58000000Y-113000000D03*
%TD*%
D26*
%TO.C,D18*%
X70000000Y-103250000D03*
D27*
X70000000Y-104950000D03*
X72000000Y-104950000D03*
X72000000Y-103050000D03*
%TD*%
D20*
%TO.C,1MR*%
X53000000Y-58175000D03*
X53000000Y-60000000D03*
%TD*%
D28*
%TO.C,Q1*%
X72600000Y-67450000D03*
X72600000Y-65550000D03*
X70400000Y-66500000D03*
%TD*%
D29*
%TO.C,D20*%
X48125000Y-59050000D03*
X48125000Y-60950000D03*
X50000000Y-60000000D03*
%TD*%
D30*
%TO.C,U1*%
X62250000Y-69975000D03*
X61750000Y-69975000D03*
X61250000Y-69975000D03*
X60750000Y-69975000D03*
X60250000Y-69975000D03*
X59750000Y-69975000D03*
D31*
X58975000Y-70750000D03*
X58975000Y-71250000D03*
X58975000Y-71750000D03*
X58975000Y-72250000D03*
X58975000Y-72750000D03*
X58975000Y-73250000D03*
D30*
X59750000Y-74025000D03*
X60250000Y-74025000D03*
X60750000Y-74025000D03*
X61250000Y-74025000D03*
X61750000Y-74025000D03*
X62250000Y-74025000D03*
D31*
X63025000Y-73250000D03*
X63025000Y-72750000D03*
X63025000Y-72250000D03*
X63025000Y-71750000D03*
X63025000Y-71250000D03*
X63025000Y-70750000D03*
D32*
X61000000Y-72000500D03*
%TD*%
D33*
%TO.C,J5*%
X49200000Y-53000000D03*
D34*
X52800000Y-53000000D03*
%TD*%
M02*
