%TF.GenerationSoftware,KiCad,Pcbnew,9.0.6*%
%TF.CreationDate,2025-12-16T14:31:59+01:00*%
%TF.ProjectId,target,74617267-6574-42e6-9b69-6361645f7063,rev?*%
%TF.SameCoordinates,Original*%
%TF.FileFunction,Copper,L1,Top*%
%TF.FilePolarity,Positive*%
%FSLAX46Y46*%
G04 Gerber Fmt 4.6, Leading zero omitted, Abs format (unit mm)*
G04 Created by KiCad (PCBNEW 9.0.6) date 2025-12-16 14:31:59*
%MOMM*%
%LPD*%
G01*
G04 APERTURE LIST*
G04 Aperture macros list*
%AMRoundRect*
0 Rectangle with rounded corners*
0 $1 Rounding radius*
0 $2 $3 $4 $5 $6 $7 $8 $9 X,Y pos of 4 corners*
0 Add a 4 corners polygon primitive as box body*
4,1,4,$2,$3,$4,$5,$6,$7,$8,$9,$2,$3,0*
0 Add four circle primitives for the rounded corners*
1,1,$1+$1,$2,$3*
1,1,$1+$1,$4,$5*
1,1,$1+$1,$6,$7*
1,1,$1+$1,$8,$9*
0 Add four rect primitives between the rounded corners*
20,1,$1+$1,$2,$3,$4,$5,0*
20,1,$1+$1,$4,$5,$6,$7,0*
20,1,$1+$1,$6,$7,$8,$9,0*
20,1,$1+$1,$8,$9,$2,$3,0*%
%AMFreePoly0*
4,1,6,1.000000,0.000000,0.500000,-0.750000,-0.500000,-0.750000,-0.500000,0.750000,0.500000,0.750000,1.000000,0.000000,1.000000,0.000000,$1*%
%AMFreePoly1*
4,1,6,0.500000,-0.750000,-0.650000,-0.750000,-0.150000,0.000000,-0.650000,0.750000,0.500000,0.750000,0.500000,-0.750000,0.500000,-0.750000,$1*%
G04 Aperture macros list end*
%ADD10C,0.300000*%
%TA.AperFunction,NonConductor*%
%ADD11C,0.300000*%
%TD*%
%TA.AperFunction,SMDPad,CuDef*%
%ADD12RoundRect,0.600000X-1.400000X1.400000X-1.400000X-1.400000X1.400000X-1.400000X1.400000X1.400000X0*%
%TD*%
%TA.AperFunction,SMDPad,CuDef*%
%ADD13RoundRect,0.285750X-0.666750X-1.714250X0.666750X-1.714250X0.666750X1.714250X-0.666750X1.714250X0*%
%TD*%
%TA.AperFunction,SMDPad,CuDef*%
%ADD14FreePoly0,270.000000*%
%TD*%
%TA.AperFunction,SMDPad,CuDef*%
%ADD15FreePoly1,270.000000*%
%TD*%
%TA.AperFunction,SMDPad,CuDef*%
%ADD16RoundRect,0.300000X-1.200000X0.700000X-1.200000X-0.700000X1.200000X-0.700000X1.200000X0.700000X0*%
%TD*%
%TA.AperFunction,SMDPad,CuDef*%
%ADD17FreePoly0,180.000000*%
%TD*%
%TA.AperFunction,SMDPad,CuDef*%
%ADD18FreePoly1,180.000000*%
%TD*%
%TA.AperFunction,SMDPad,CuDef*%
%ADD19RoundRect,0.250000X-0.450000X0.262500X-0.450000X-0.262500X0.450000X-0.262500X0.450000X0.262500X0*%
%TD*%
%TA.AperFunction,SMDPad,CuDef*%
%ADD20RoundRect,0.250000X-0.650000X1.000000X-0.650000X-1.000000X0.650000X-1.000000X0.650000X1.000000X0*%
%TD*%
%TA.AperFunction,SMDPad,CuDef*%
%ADD21RoundRect,0.250000X0.250000X0.475000X-0.250000X0.475000X-0.250000X-0.475000X0.250000X-0.475000X0*%
%TD*%
%TA.AperFunction,SMDPad,CuDef*%
%ADD22RoundRect,0.250000X0.650000X-1.000000X0.650000X1.000000X-0.650000X1.000000X-0.650000X-1.000000X0*%
%TD*%
%TA.AperFunction,SMDPad,CuDef*%
%ADD23RoundRect,0.250000X2.475000X-0.712500X2.475000X0.712500X-2.475000X0.712500X-2.475000X-0.712500X0*%
%TD*%
%TA.AperFunction,SMDPad,CuDef*%
%ADD24RoundRect,0.250000X-0.325000X-0.650000X0.325000X-0.650000X0.325000X0.650000X-0.325000X0.650000X0*%
%TD*%
%TA.AperFunction,SMDPad,CuDef*%
%ADD25RoundRect,0.175000X-0.175000X-0.325000X0.175000X-0.325000X0.175000X0.325000X-0.175000X0.325000X0*%
%TD*%
%TA.AperFunction,SMDPad,CuDef*%
%ADD26RoundRect,0.150000X-0.200000X-0.150000X0.200000X-0.150000X0.200000X0.150000X-0.200000X0.150000X0*%
%TD*%
%TA.AperFunction,SMDPad,CuDef*%
%ADD27R,1.400000X1.000000*%
%TD*%
%TA.AperFunction,SMDPad,CuDef*%
%ADD28RoundRect,0.150000X-0.587500X-0.150000X0.587500X-0.150000X0.587500X0.150000X-0.587500X0.150000X0*%
%TD*%
%TA.AperFunction,SMDPad,CuDef*%
%ADD29R,0.250000X0.850000*%
%TD*%
%TA.AperFunction,SMDPad,CuDef*%
%ADD30R,0.850000X0.250000*%
%TD*%
%TA.AperFunction,SMDPad,CuDef*%
%ADD31R,2.600000X2.600000*%
%TD*%
%TA.AperFunction,ComponentPad*%
%ADD32RoundRect,0.250000X-0.550000X-0.550000X0.550000X-0.550000X0.550000X0.550000X-0.550000X0.550000X0*%
%TD*%
%TA.AperFunction,ComponentPad*%
%ADD33C,1.600000*%
%TD*%
%TA.AperFunction,ViaPad*%
%ADD34C,0.600000*%
%TD*%
%TA.AperFunction,Conductor*%
%ADD35C,1.000000*%
%TD*%
%TA.AperFunction,Conductor*%
%ADD36C,0.400000*%
%TD*%
%TA.AperFunction,Conductor*%
%ADD37C,1.600000*%
%TD*%
%TA.AperFunction,Conductor*%
%ADD38C,0.500000*%
%TD*%
%TA.AperFunction,Conductor*%
%ADD39C,0.200000*%
%TD*%
G04 APERTURE END LIST*
D10*
D11*
X44554510Y-41800828D02*
X44554510Y-40300828D01*
X44554510Y-40300828D02*
X45054510Y-41372257D01*
X45054510Y-41372257D02*
X45554510Y-40300828D01*
X45554510Y-40300828D02*
X45554510Y-41800828D01*
X46268796Y-41229400D02*
X47411654Y-41229400D01*
X48125939Y-41800828D02*
X48125939Y-40300828D01*
X48125939Y-40300828D02*
X48625939Y-41372257D01*
X48625939Y-41372257D02*
X49125939Y-40300828D01*
X49125939Y-40300828D02*
X49125939Y-41800828D01*
X49840225Y-41800828D02*
X49840225Y-40800828D01*
X49840225Y-41086542D02*
X49911654Y-40943685D01*
X49911654Y-40943685D02*
X49983083Y-40872257D01*
X49983083Y-40872257D02*
X50125940Y-40800828D01*
X50125940Y-40800828D02*
X50268797Y-40800828D01*
X50768796Y-41800828D02*
X50768796Y-40300828D01*
X50911654Y-41229400D02*
X51340225Y-41800828D01*
X51340225Y-40800828D02*
X50768796Y-41372257D01*
D12*
%TO.P,J2,1,VCC*%
%TO.N,+5V Main*%
X77000000Y-81000000D03*
%TO.P,J2,2,GND*%
%TO.N,GND Main*%
X77000000Y-89000000D03*
%TO.P,J2,3,SDA*%
%TO.N,/ESD/SDA OUT*%
X77000000Y-97000000D03*
%TO.P,J2,4,SCL*%
%TO.N,/ESD/SCL OUT*%
X77000000Y-105000000D03*
%TO.P,J2,5,GND*%
%TO.N,GND Main*%
X77000000Y-113000000D03*
%TO.P,J2,6,VCC*%
%TO.N,+5V Main*%
X77000000Y-121000000D03*
%TD*%
D13*
%TO.P,U2,1,VCC*%
%TO.N,+5V UPDI*%
X61460000Y-48000000D03*
%TO.P,U2,2,UPDI*%
%TO.N,UPDI pin*%
X64000000Y-48000000D03*
%TO.P,U2,3,GND*%
%TO.N,GND Main*%
X66540000Y-48000000D03*
%TD*%
D14*
%TO.P,JP3,1,A*%
%TO.N,Net-(J5-OUT)*%
X61000000Y-58275000D03*
D15*
%TO.P,JP3,2,B*%
%TO.N,Piezo*%
X61000000Y-59725000D03*
%TD*%
D16*
%TO.P,J3,1,Pin_1*%
%TO.N,/LED Circle/VCC*%
X77000000Y-62750000D03*
%TO.P,J3,2,Pin_2*%
%TO.N,LED data*%
X77000000Y-67000000D03*
%TO.P,J3,3,Pin_3*%
%TO.N,GND Main*%
X77000000Y-71250000D03*
%TD*%
D17*
%TO.P,JP2,1,A*%
%TO.N,/LED Circle/VCC*%
X66475000Y-66725000D03*
D18*
%TO.P,JP2,2,B*%
%TO.N,+5V*%
X65025000Y-66725000D03*
%TD*%
D19*
%TO.P,10kR,1*%
%TO.N,+5V UPDI*%
X72000000Y-61087500D03*
%TO.P,10kR,2*%
%TO.N,Net-(Q1-Pad1)*%
X72000000Y-62912500D03*
%TD*%
D20*
%TO.P,SMAJ6.0CA,1,A1*%
%TO.N,GND Main*%
X71000000Y-117000000D03*
%TO.P,SMAJ6.0CA,2,A2*%
%TO.N,+5V Main*%
X71000000Y-121000000D03*
%TD*%
D21*
%TO.P,10nF,1*%
%TO.N,Piezo*%
X49950000Y-64000000D03*
%TO.P,10nF,2*%
%TO.N,GND Main*%
X48050000Y-64000000D03*
%TD*%
D22*
%TO.P,SMAJ6.0CA,1,A1*%
%TO.N,GND Main*%
X71000000Y-85000000D03*
%TO.P,SMAJ6.0CA,2,A2*%
%TO.N,+5V Main*%
X71000000Y-81000000D03*
%TD*%
D16*
%TO.P,J4,1,Pin_1*%
%TO.N,/LED Circle/VCC*%
X40000000Y-62750000D03*
%TO.P,J4,2,Pin_2*%
%TO.N,unconnected-(J4-Pin_2-Pad2)*%
X40000000Y-67000000D03*
%TO.P,J4,3,Pin_3*%
%TO.N,GND Main*%
X40000000Y-71250000D03*
%TD*%
D23*
%TO.P,F1,1*%
%TO.N,+5V Main*%
X49000000Y-84387500D03*
%TO.P,F1,2*%
%TO.N,+5V*%
X49000000Y-77612500D03*
%TD*%
D22*
%TO.P,D1,1,K*%
%TO.N,+5V*%
X67000000Y-61000000D03*
%TO.P,D1,2,A*%
%TO.N,+5V UPDI*%
X67000000Y-57000000D03*
%TD*%
D24*
%TO.P,100uF,1*%
%TO.N,+5V*%
X51525000Y-74000000D03*
%TO.P,100uF,2*%
%TO.N,GND Main*%
X54475000Y-74000000D03*
%TD*%
D12*
%TO.P,J1,1,VCC*%
%TO.N,+5V Main*%
X40000000Y-81000000D03*
%TO.P,J1,2,GND*%
%TO.N,GND Main*%
X40000000Y-89000000D03*
%TO.P,J1,3,SDA*%
%TO.N,SDA*%
X40000000Y-97000000D03*
%TO.P,J1,4,SCL*%
%TO.N,SCL*%
X40000000Y-105000000D03*
%TO.P,J1,5,GND*%
%TO.N,GND Main*%
X40000000Y-113000000D03*
%TO.P,J1,6,VCC*%
%TO.N,+5V Main*%
X40000000Y-121000000D03*
%TD*%
D19*
%TO.P,47kR,1*%
%TO.N,GND Main*%
X75000000Y-57000000D03*
%TO.P,47kR,2*%
%TO.N,Net-(Q1-Pad1)*%
X75000000Y-58825000D03*
%TD*%
%TO.P,10kR,1*%
%TO.N,Net-(J5-OUT)*%
X57000000Y-58087500D03*
%TO.P,10kR,2*%
%TO.N,Piezo*%
X57000000Y-59912500D03*
%TD*%
D25*
%TO.P,D21,1,GND*%
%TO.N,GND Main*%
X70000000Y-95250000D03*
D26*
%TO.P,D21,2,I/O1*%
%TO.N,SDA*%
X70000000Y-96950000D03*
%TO.P,D21,3,I/O2*%
%TO.N,/ESD/SDA OUT*%
X72000000Y-96950000D03*
%TO.P,D21,4,VCC*%
%TO.N,+5V Main*%
X72000000Y-95050000D03*
%TD*%
D25*
%TO.P,D18,1,GND*%
%TO.N,GND Main*%
X70000000Y-103250000D03*
D26*
%TO.P,D18,2,I/O1*%
%TO.N,SCL*%
X70000000Y-104950000D03*
%TO.P,D18,3,I/O2*%
%TO.N,/ESD/SCL OUT*%
X72000000Y-104950000D03*
%TO.P,D18,4,VCC*%
%TO.N,+5V Main*%
X72000000Y-103050000D03*
%TD*%
D19*
%TO.P,1MR,1*%
%TO.N,Net-(J5-OUT)*%
X53000000Y-58175000D03*
%TO.P,1MR,2*%
%TO.N,GND Main*%
X53000000Y-60000000D03*
%TD*%
D27*
%TO.P,Q1,1*%
%TO.N,Net-(Q1-Pad1)*%
X72600000Y-67450000D03*
%TO.P,Q1,2*%
%TO.N,+5V*%
X72600000Y-65550000D03*
%TO.P,Q1,3*%
%TO.N,/LED Circle/VCC*%
X70400000Y-66500000D03*
%TD*%
D28*
%TO.P,D20,1,A*%
%TO.N,GND Main*%
X48125000Y-59050000D03*
%TO.P,D20,2,K*%
%TO.N,+5V*%
X48125000Y-60950000D03*
%TO.P,D20,3,COM*%
%TO.N,Piezo*%
X50000000Y-60000000D03*
%TD*%
D29*
%TO.P,U1,1,PA2*%
%TO.N,unconnected-(U1-PA2-Pad1)*%
X62250000Y-69975000D03*
%TO.P,U1,2,EXTCLK/PA3*%
%TO.N,unconnected-(U1-EXTCLK{slash}PA3-Pad2)*%
X61750000Y-69975000D03*
%TO.P,U1,3,GND*%
%TO.N,GND Main*%
X61250000Y-69975000D03*
%TO.P,U1,4,VDD*%
%TO.N,+5V*%
X60750000Y-69975000D03*
%TO.P,U1,5,PA4*%
%TO.N,unconnected-(U1-PA4-Pad5)*%
X60250000Y-69975000D03*
%TO.P,U1,6,PA5*%
%TO.N,unconnected-(U1-PA5-Pad6)*%
X59750000Y-69975000D03*
D30*
%TO.P,U1,7,PA6*%
%TO.N,unconnected-(U1-PA6-Pad7)*%
X58975000Y-70750000D03*
%TO.P,U1,8,PA7*%
%TO.N,Piezo*%
X58975000Y-71250000D03*
%TO.P,U1,9,PB7*%
%TO.N,unconnected-(U1-PB7-Pad9)*%
X58975000Y-71750000D03*
%TO.P,U1,10,PB6*%
%TO.N,unconnected-(U1-PB6-Pad10)*%
X58975000Y-72250000D03*
%TO.P,U1,11,PB5*%
%TO.N,unconnected-(U1-PB5-Pad11)*%
X58975000Y-72750000D03*
%TO.P,U1,12,PB4*%
%TO.N,unconnected-(U1-PB4-Pad12)*%
X58975000Y-73250000D03*
D29*
%TO.P,U1,13,PB3/TOSC1*%
%TO.N,unconnected-(U1-PB3{slash}TOSC1-Pad13)*%
X59750000Y-74025000D03*
%TO.P,U1,14,PB2/TOSC2*%
%TO.N,unconnected-(U1-PB2{slash}TOSC2-Pad14)*%
X60250000Y-74025000D03*
%TO.P,U1,15,PB1*%
%TO.N,SDA*%
X60750000Y-74025000D03*
%TO.P,U1,16,PB0*%
%TO.N,SCL*%
X61250000Y-74025000D03*
%TO.P,U1,17,PC0*%
%TO.N,unconnected-(U1-PC0-Pad17)*%
X61750000Y-74025000D03*
%TO.P,U1,18,PC1*%
%TO.N,unconnected-(U1-PC1-Pad18)*%
X62250000Y-74025000D03*
D30*
%TO.P,U1,19,PC2*%
%TO.N,unconnected-(U1-PC2-Pad19)*%
X63025000Y-73250000D03*
%TO.P,U1,20,PC3*%
%TO.N,unconnected-(U1-PC3-Pad20)*%
X63025000Y-72750000D03*
%TO.P,U1,21,PC4*%
%TO.N,unconnected-(U1-PC4-Pad21)*%
X63025000Y-72250000D03*
%TO.P,U1,22,PC5*%
%TO.N,unconnected-(U1-PC5-Pad22)*%
X63025000Y-71750000D03*
%TO.P,U1,23,PA0/RESET#/UPDI*%
%TO.N,UPDI pin*%
X63025000Y-71250000D03*
%TO.P,U1,24,PA1*%
%TO.N,LED data*%
X63025000Y-70750000D03*
D31*
%TO.P,U1,25,GND*%
%TO.N,GND Main*%
X61000000Y-72000500D03*
%TD*%
D32*
%TO.P,J5,1,GND*%
%TO.N,GND Main*%
X49200000Y-53000000D03*
D33*
%TO.P,J5,2,OUT*%
%TO.N,Net-(J5-OUT)*%
X52800000Y-53000000D03*
%TD*%
D34*
%TO.N,GND Main*%
X74250000Y-89000000D03*
X61500000Y-68250000D03*
X74250000Y-113000000D03*
X55750000Y-73250000D03*
X43500000Y-89000000D03*
X71000000Y-114250000D03*
X43500000Y-113000000D03*
X68000000Y-48750000D03*
X43000000Y-71250000D03*
X55750000Y-74750000D03*
X43750000Y-71250000D03*
X60000000Y-72000000D03*
X42750000Y-89000000D03*
X71000000Y-87000000D03*
X68000000Y-48000000D03*
X61500000Y-69000000D03*
X46750000Y-64000000D03*
X73500000Y-89000000D03*
X55750000Y-74000000D03*
X46000000Y-59000000D03*
X71000000Y-87750000D03*
X44250000Y-89000000D03*
X72750000Y-89000000D03*
X46000000Y-64000000D03*
X69000000Y-95250000D03*
X61000000Y-73000000D03*
X68000000Y-47250000D03*
X73750000Y-57000000D03*
X61000000Y-71000000D03*
X69000000Y-103250000D03*
X62000000Y-72000000D03*
X77000000Y-73000000D03*
X42250000Y-71250000D03*
X42750000Y-113000000D03*
X46750000Y-59000000D03*
X72750000Y-113000000D03*
X77000000Y-73750000D03*
X44250000Y-113000000D03*
X71000000Y-115000000D03*
X53000000Y-61250000D03*
X61000000Y-72000000D03*
X73500000Y-113000000D03*
%TD*%
D35*
%TO.N,GND Main*%
X76250000Y-113750000D02*
X77000000Y-113000000D01*
D36*
X46000000Y-64000000D02*
X48050000Y-64000000D01*
D35*
X75500000Y-111500000D02*
X77000000Y-113000000D01*
D36*
X48075000Y-59000000D02*
X48125000Y-59050000D01*
D37*
X40000000Y-113000000D02*
X42750000Y-113000000D01*
X74250000Y-113000000D02*
X77000000Y-113000000D01*
D35*
X76250000Y-112250000D02*
X77000000Y-113000000D01*
X40750000Y-113750000D02*
X40000000Y-113000000D01*
D38*
X68000000Y-48000000D02*
X66540000Y-48000000D01*
D35*
X75500000Y-90500000D02*
X77000000Y-89000000D01*
D37*
X71000000Y-114250000D02*
X71000000Y-117000000D01*
X44250000Y-89000000D02*
X40000000Y-89000000D01*
X71000000Y-87750000D02*
X71000000Y-85000000D01*
X72750000Y-89000000D02*
X77000000Y-89000000D01*
D36*
X69000000Y-95250000D02*
X70000000Y-95250000D01*
D39*
X61250000Y-69250000D02*
X61250000Y-69975000D01*
D36*
X54475000Y-74000000D02*
X55750000Y-74000000D01*
D35*
X40750000Y-112250000D02*
X40000000Y-113000000D01*
X76250000Y-89750000D02*
X77000000Y-89000000D01*
D39*
X61500000Y-69000000D02*
X61250000Y-69250000D01*
D35*
X75500000Y-87500000D02*
X77000000Y-89000000D01*
D38*
X77000000Y-71250000D02*
X77000000Y-73750000D01*
D35*
X75500000Y-114500000D02*
X77000000Y-113000000D01*
D36*
X69000000Y-103250000D02*
X70000000Y-103250000D01*
D37*
X43500000Y-113000000D02*
X44250000Y-113000000D01*
D38*
X68000000Y-47250000D02*
X68000000Y-48750000D01*
D37*
X42750000Y-113000000D02*
X43500000Y-113000000D01*
D35*
X76250000Y-88250000D02*
X77000000Y-89000000D01*
D36*
X73750000Y-57000000D02*
X75000000Y-57000000D01*
D37*
X72750000Y-113000000D02*
X74250000Y-113000000D01*
D35*
X41500000Y-114500000D02*
X40000000Y-113000000D01*
D38*
X40000000Y-71250000D02*
X43750000Y-71250000D01*
D36*
X55750000Y-73250000D02*
X55750000Y-74750000D01*
X46000000Y-59000000D02*
X48075000Y-59000000D01*
D35*
X41500000Y-111500000D02*
X40000000Y-113000000D01*
D39*
X61500000Y-68250000D02*
X61500000Y-69000000D01*
D36*
X53000000Y-61250000D02*
X53000000Y-60000000D01*
%TO.N,+5V*%
X48125000Y-60950000D02*
X47049000Y-60950000D01*
D38*
X73751000Y-66701000D02*
X73751000Y-68401000D01*
X65025000Y-62975000D02*
X65025000Y-66725000D01*
X73751000Y-68401000D02*
X65151000Y-68401000D01*
X47250000Y-56000000D02*
X50500000Y-56000000D01*
X44999000Y-67474000D02*
X44999000Y-63338501D01*
X51525000Y-74000000D02*
X44999000Y-67474000D01*
X56749000Y-51499000D02*
X66250000Y-61000000D01*
X47049000Y-60950000D02*
X44999000Y-63000000D01*
X65019097Y-68269097D02*
X65019097Y-66725000D01*
X72600000Y-65550000D02*
X73751000Y-66701000D01*
X65151000Y-68401000D02*
X65019097Y-68269097D01*
D39*
X60750000Y-68150057D02*
X60750000Y-69975000D01*
D36*
X66250000Y-61000000D02*
X67000000Y-61000000D01*
D39*
X65025000Y-66725000D02*
X62175057Y-66725000D01*
D38*
X44999000Y-63000000D02*
X44999000Y-58251000D01*
X51251000Y-51499000D02*
X56749000Y-51499000D01*
X67000000Y-61000000D02*
X65025000Y-62975000D01*
X51000000Y-51750000D02*
X51251000Y-51499000D01*
X50500000Y-56000000D02*
X51000000Y-55500000D01*
X49000000Y-76525000D02*
X51525000Y-74000000D01*
X44999000Y-63338501D02*
X44999000Y-63000000D01*
X44999000Y-58251000D02*
X47250000Y-56000000D01*
D39*
X62175057Y-66725000D02*
X60750000Y-68150057D01*
D38*
X51000000Y-55500000D02*
X51000000Y-51750000D01*
X49000000Y-76525000D02*
X49000000Y-77612500D01*
%TO.N,+5V UPDI*%
X72000000Y-61087500D02*
X71087500Y-61087500D01*
X67000000Y-57000000D02*
X61460000Y-51460000D01*
X71087500Y-61087500D02*
X67000000Y-57000000D01*
X61460000Y-51460000D02*
X61460000Y-48000000D01*
D39*
%TO.N,Piezo*%
X50000000Y-60000000D02*
X52000000Y-62000000D01*
X49950000Y-64000000D02*
X57200000Y-71250000D01*
X57187500Y-59725000D02*
X57000000Y-59912500D01*
X50000000Y-63950000D02*
X49950000Y-64000000D01*
X57200000Y-71250000D02*
X58975000Y-71250000D01*
X54912500Y-62000000D02*
X57000000Y-59912500D01*
X50000000Y-60000000D02*
X50000000Y-63950000D01*
X52000000Y-62000000D02*
X54912500Y-62000000D01*
X61000000Y-59725000D02*
X57187500Y-59725000D01*
%TO.N,+5V Main*%
X71349000Y-103701000D02*
X71349000Y-109401000D01*
X72000000Y-103050000D02*
X71349000Y-103701000D01*
D37*
X63362500Y-84387500D02*
X66750000Y-81000000D01*
X77000000Y-81000000D02*
X68750000Y-81000000D01*
X63500000Y-121000000D02*
X40000000Y-121000000D01*
X77000000Y-121000000D02*
X63500000Y-121000000D01*
D39*
X71349000Y-109401000D02*
X63500000Y-117250000D01*
D37*
X66750000Y-81000000D02*
X40000000Y-81000000D01*
D39*
X72000000Y-95050000D02*
X72000000Y-95958032D01*
X36552000Y-99301000D02*
X36501000Y-99250000D01*
D37*
X43750000Y-93250000D02*
X49000000Y-88000000D01*
X36501000Y-99250000D02*
X36501000Y-94749000D01*
D39*
X63500000Y-117250000D02*
X63500000Y-121000000D01*
D37*
X49000000Y-84387500D02*
X63362500Y-84387500D01*
X49000000Y-88000000D02*
X49000000Y-84387500D01*
X36501000Y-117501000D02*
X36501000Y-99250000D01*
X38000000Y-93250000D02*
X43750000Y-93250000D01*
X36501000Y-94749000D02*
X38000000Y-93250000D01*
D39*
X72000000Y-95958032D02*
X68657032Y-99301000D01*
X68657032Y-99301000D02*
X36552000Y-99301000D01*
D37*
X68750000Y-81000000D02*
X66750000Y-81000000D01*
X40000000Y-121000000D02*
X36501000Y-117501000D01*
D39*
%TO.N,SCL*%
X61250000Y-74025000D02*
X61250000Y-74585000D01*
X80250000Y-78500000D02*
X80250000Y-97831528D01*
X65800000Y-104950000D02*
X66000000Y-104950000D01*
X61250000Y-74585000D02*
X62989000Y-76324000D01*
X78780528Y-99301000D02*
X71449000Y-99301000D01*
X54000000Y-105000000D02*
X40000000Y-105000000D01*
X71449000Y-99301000D02*
X65800000Y-104950000D01*
X62989000Y-76324000D02*
X78074000Y-76324000D01*
X66000000Y-104950000D02*
X70000000Y-104950000D01*
X54050000Y-104950000D02*
X65800000Y-104950000D01*
X78074000Y-76324000D02*
X80250000Y-78500000D01*
X54000000Y-105000000D02*
X54050000Y-104950000D01*
X80250000Y-97831528D02*
X78780528Y-99301000D01*
%TO.N,SDA*%
X71949000Y-93851000D02*
X76230528Y-93851000D01*
X79849000Y-90232528D02*
X79849000Y-83651000D01*
X62822900Y-76725000D02*
X77725000Y-76725000D01*
X71949000Y-93851000D02*
X70651000Y-95149000D01*
X76230528Y-93851000D02*
X79849000Y-90232528D01*
X60750000Y-74652100D02*
X62822900Y-76725000D01*
X79849000Y-78849000D02*
X79849000Y-83651000D01*
X70000000Y-96950000D02*
X40050000Y-96950000D01*
X77725000Y-76725000D02*
X79849000Y-78849000D01*
X40050000Y-96950000D02*
X40000000Y-97000000D01*
X70651000Y-95149000D02*
X70651000Y-96299000D01*
X70651000Y-96299000D02*
X70000000Y-96950000D01*
X60750000Y-74025000D02*
X60750000Y-74652100D01*
%TO.N,LED data*%
X77000000Y-67000000D02*
X73250000Y-70750000D01*
X73250000Y-70750000D02*
X63025000Y-70750000D01*
D38*
%TO.N,/LED Circle/VCC*%
X70175000Y-66725000D02*
X70400000Y-66500000D01*
X75874000Y-63876000D02*
X71252708Y-63876000D01*
X70400000Y-63817564D02*
X70400000Y-66500000D01*
X67709636Y-58701000D02*
X64942364Y-58701000D01*
X77000000Y-62750000D02*
X75874000Y-63876000D01*
X69750000Y-62373292D02*
X69750000Y-60741364D01*
X66475000Y-66725000D02*
X70175000Y-66725000D01*
X71252708Y-63876000D02*
X70797136Y-63420428D01*
X69750000Y-60741364D02*
X67709636Y-58701000D01*
X40000000Y-60101708D02*
X40000000Y-62750000D01*
X70797136Y-63420428D02*
X70400000Y-63817564D01*
X49303708Y-50798000D02*
X40000000Y-60101708D01*
X57039364Y-50798000D02*
X49303708Y-50798000D01*
X70797136Y-63420428D02*
X69750000Y-62373292D01*
X64942364Y-58701000D02*
X57039364Y-50798000D01*
D39*
%TO.N,Net-(J5-OUT)*%
X58100000Y-58275000D02*
X61000000Y-58275000D01*
X57000000Y-57200000D02*
X57000000Y-58087500D01*
X52800000Y-57975000D02*
X53000000Y-58175000D01*
X57912500Y-58087500D02*
X58100000Y-58275000D01*
X52800000Y-53000000D02*
X57000000Y-57200000D01*
X57000000Y-58087500D02*
X57912500Y-58087500D01*
X52800000Y-53000000D02*
X52800000Y-57975000D01*
%TO.N,Net-(Q1-Pad1)*%
X77999944Y-64500000D02*
X78801000Y-63698944D01*
D38*
X75000000Y-59912500D02*
X75000000Y-58825000D01*
D39*
X78801000Y-61801056D02*
X75824944Y-58825000D01*
X71599000Y-64901000D02*
X72000000Y-64500000D01*
X78801000Y-63698944D02*
X78801000Y-61801056D01*
D38*
X72000000Y-62912500D02*
X75000000Y-59912500D01*
D39*
X72600000Y-67450000D02*
X71599000Y-66449000D01*
X72000000Y-64500000D02*
X77999944Y-64500000D01*
X75824944Y-58825000D02*
X75000000Y-58825000D01*
X71599000Y-66449000D02*
X71599000Y-64901000D01*
%TO.N,UPDI pin*%
X76266100Y-68301000D02*
X78448944Y-68301000D01*
X73317100Y-71250000D02*
X76266100Y-68301000D01*
X79750000Y-66999944D02*
X79750000Y-58750000D01*
X71301000Y-50301000D02*
X65301000Y-50301000D01*
X79750000Y-58750000D02*
X71301000Y-50301000D01*
X78448944Y-68301000D02*
X79750000Y-66999944D01*
X63025000Y-71250000D02*
X73317100Y-71250000D01*
X65301000Y-50301000D02*
X64000000Y-49000000D01*
X64000000Y-49000000D02*
X64000000Y-48000000D01*
%TO.N,/ESD/SCL OUT*%
X76950000Y-104950000D02*
X77000000Y-105000000D01*
X72000000Y-104950000D02*
X76950000Y-104950000D01*
%TO.N,/ESD/SDA OUT*%
X76950000Y-96950000D02*
X77000000Y-97000000D01*
X72000000Y-96950000D02*
X76950000Y-96950000D01*
%TD*%
M02*
