%TF.GenerationSoftware,KiCad,Pcbnew,9.0.6*%
%TF.CreationDate,2025-12-16T14:32:06+01:00*%
%TF.ProjectId,target,74617267-6574-42e6-9b69-6361645f7063,rev?*%
%TF.SameCoordinates,Original*%
%TF.FileFunction,Drillmap*%
%TF.FilePolarity,Positive*%
%FSLAX45Y45*%
G04 Gerber Fmt 4.5, Leading zero omitted, Abs format (unit mm)*
G04 Created by KiCad (PCBNEW 9.0.6) date 2025-12-16 14:32:06*
%MOMM*%
%LPD*%
G01*
G04 APERTURE LIST*
%ADD10C,0.100000*%
%ADD11C,0.200000*%
%ADD12C,0.220000*%
%ADD13C,0.300000*%
G04 APERTURE END LIST*
D10*
X3500000Y-3825000D02*
X8100000Y-3825000D01*
X8100000Y-12400000D01*
X3500000Y-12400000D01*
X3500000Y-3825000D01*
D11*
X5600000Y-4650000D02*
X5800000Y-4850000D01*
X5800000Y-4650000D02*
X5600000Y-4850000D01*
D10*
X5600000Y-4700000D02*
X5600000Y-4800000D01*
X5800000Y-4800000D02*
G75*
G02*
X5600000Y-4800000I-100000J0D01*
G01*
X5800000Y-4800000D02*
X5800000Y-4700000D01*
X5800000Y-4700000D02*
G75*
G03*
X5600000Y-4700000I-100000J0D01*
G01*
D11*
X6300000Y-4150000D02*
X6500000Y-4350000D01*
X6500000Y-4150000D02*
X6300000Y-4350000D01*
D10*
X6300000Y-4200000D02*
X6300000Y-4300000D01*
X6500000Y-4300000D02*
G75*
G02*
X6300000Y-4300000I-100000J0D01*
G01*
X6500000Y-4300000D02*
X6500000Y-4200000D01*
X6500000Y-4200000D02*
G75*
G03*
X6300000Y-4200000I-100000J0D01*
G01*
D11*
X7000000Y-4650000D02*
X7200000Y-4850000D01*
X7200000Y-4650000D02*
X7000000Y-4850000D01*
D10*
X7000000Y-4700000D02*
X7000000Y-4800000D01*
X7200000Y-4800000D02*
G75*
G02*
X7000000Y-4800000I-100000J0D01*
G01*
X7200000Y-4800000D02*
X7200000Y-4700000D01*
X7200000Y-4700000D02*
G75*
G03*
X7000000Y-4700000I-100000J0D01*
G01*
D12*
X4010000Y-4300000D02*
G75*
G02*
X3790000Y-4300000I-110000J0D01*
G01*
X3790000Y-4300000D02*
G75*
G02*
X4010000Y-4300000I110000J0D01*
G01*
X5910000Y-11300000D02*
G75*
G02*
X5690000Y-11300000I-110000J0D01*
G01*
X5690000Y-11300000D02*
G75*
G02*
X5910000Y-11300000I110000J0D01*
G01*
X7810000Y-4300000D02*
G75*
G02*
X7590000Y-4300000I-110000J0D01*
G01*
X7590000Y-4300000D02*
G75*
G02*
X7810000Y-4300000I110000J0D01*
G01*
D13*
X5700000Y-4450000D02*
X5700000Y-4750000D01*
X5550000Y-4600000D02*
X5850000Y-4600000D01*
X6400000Y-3950000D02*
X6400000Y-4250000D01*
X6250000Y-4100000D02*
X6550000Y-4100000D01*
X7100000Y-4450000D02*
X7100000Y-4750000D01*
X6950000Y-4600000D02*
X7250000Y-4600000D01*
D11*
X3755777Y-12716484D02*
X3755777Y-12516484D01*
X3755777Y-12516484D02*
X3803396Y-12516484D01*
X3803396Y-12516484D02*
X3831967Y-12526008D01*
X3831967Y-12526008D02*
X3851015Y-12545055D01*
X3851015Y-12545055D02*
X3860539Y-12564103D01*
X3860539Y-12564103D02*
X3870062Y-12602198D01*
X3870062Y-12602198D02*
X3870062Y-12630769D01*
X3870062Y-12630769D02*
X3860539Y-12668865D01*
X3860539Y-12668865D02*
X3851015Y-12687912D01*
X3851015Y-12687912D02*
X3831967Y-12706960D01*
X3831967Y-12706960D02*
X3803396Y-12716484D01*
X3803396Y-12716484D02*
X3755777Y-12716484D01*
X3955777Y-12716484D02*
X3955777Y-12583150D01*
X3955777Y-12621246D02*
X3965301Y-12602198D01*
X3965301Y-12602198D02*
X3974824Y-12592674D01*
X3974824Y-12592674D02*
X3993872Y-12583150D01*
X3993872Y-12583150D02*
X4012920Y-12583150D01*
X4079586Y-12716484D02*
X4079586Y-12583150D01*
X4079586Y-12516484D02*
X4070062Y-12526008D01*
X4070062Y-12526008D02*
X4079586Y-12535531D01*
X4079586Y-12535531D02*
X4089110Y-12526008D01*
X4089110Y-12526008D02*
X4079586Y-12516484D01*
X4079586Y-12516484D02*
X4079586Y-12535531D01*
X4203396Y-12716484D02*
X4184348Y-12706960D01*
X4184348Y-12706960D02*
X4174824Y-12687912D01*
X4174824Y-12687912D02*
X4174824Y-12516484D01*
X4308158Y-12716484D02*
X4289110Y-12706960D01*
X4289110Y-12706960D02*
X4279586Y-12687912D01*
X4279586Y-12687912D02*
X4279586Y-12516484D01*
X4536729Y-12716484D02*
X4536729Y-12516484D01*
X4536729Y-12516484D02*
X4603396Y-12659341D01*
X4603396Y-12659341D02*
X4670063Y-12516484D01*
X4670063Y-12516484D02*
X4670063Y-12716484D01*
X4851015Y-12716484D02*
X4851015Y-12611722D01*
X4851015Y-12611722D02*
X4841491Y-12592674D01*
X4841491Y-12592674D02*
X4822444Y-12583150D01*
X4822444Y-12583150D02*
X4784348Y-12583150D01*
X4784348Y-12583150D02*
X4765301Y-12592674D01*
X4851015Y-12706960D02*
X4831967Y-12716484D01*
X4831967Y-12716484D02*
X4784348Y-12716484D01*
X4784348Y-12716484D02*
X4765301Y-12706960D01*
X4765301Y-12706960D02*
X4755777Y-12687912D01*
X4755777Y-12687912D02*
X4755777Y-12668865D01*
X4755777Y-12668865D02*
X4765301Y-12649817D01*
X4765301Y-12649817D02*
X4784348Y-12640293D01*
X4784348Y-12640293D02*
X4831967Y-12640293D01*
X4831967Y-12640293D02*
X4851015Y-12630769D01*
X4946253Y-12583150D02*
X4946253Y-12783150D01*
X4946253Y-12592674D02*
X4965301Y-12583150D01*
X4965301Y-12583150D02*
X5003396Y-12583150D01*
X5003396Y-12583150D02*
X5022444Y-12592674D01*
X5022444Y-12592674D02*
X5031967Y-12602198D01*
X5031967Y-12602198D02*
X5041491Y-12621246D01*
X5041491Y-12621246D02*
X5041491Y-12678388D01*
X5041491Y-12678388D02*
X5031967Y-12697436D01*
X5031967Y-12697436D02*
X5022444Y-12706960D01*
X5022444Y-12706960D02*
X5003396Y-12716484D01*
X5003396Y-12716484D02*
X4965301Y-12716484D01*
X4965301Y-12716484D02*
X4946253Y-12706960D01*
X5127205Y-12697436D02*
X5136729Y-12706960D01*
X5136729Y-12706960D02*
X5127205Y-12716484D01*
X5127205Y-12716484D02*
X5117682Y-12706960D01*
X5117682Y-12706960D02*
X5127205Y-12697436D01*
X5127205Y-12697436D02*
X5127205Y-12716484D01*
X5127205Y-12592674D02*
X5136729Y-12602198D01*
X5136729Y-12602198D02*
X5127205Y-12611722D01*
X5127205Y-12611722D02*
X5117682Y-12602198D01*
X5117682Y-12602198D02*
X5127205Y-12592674D01*
X5127205Y-12592674D02*
X5127205Y-12611722D01*
X3295000Y-12945000D02*
X3495000Y-13145000D01*
X3495000Y-12945000D02*
X3295000Y-13145000D01*
X3746253Y-12955531D02*
X3755777Y-12946008D01*
X3755777Y-12946008D02*
X3774824Y-12936484D01*
X3774824Y-12936484D02*
X3822443Y-12936484D01*
X3822443Y-12936484D02*
X3841491Y-12946008D01*
X3841491Y-12946008D02*
X3851015Y-12955531D01*
X3851015Y-12955531D02*
X3860539Y-12974579D01*
X3860539Y-12974579D02*
X3860539Y-12993627D01*
X3860539Y-12993627D02*
X3851015Y-13022198D01*
X3851015Y-13022198D02*
X3736729Y-13136484D01*
X3736729Y-13136484D02*
X3860539Y-13136484D01*
X3946253Y-13117436D02*
X3955777Y-13126960D01*
X3955777Y-13126960D02*
X3946253Y-13136484D01*
X3946253Y-13136484D02*
X3936729Y-13126960D01*
X3936729Y-13126960D02*
X3946253Y-13117436D01*
X3946253Y-13117436D02*
X3946253Y-13136484D01*
X4079586Y-12936484D02*
X4098634Y-12936484D01*
X4098634Y-12936484D02*
X4117682Y-12946008D01*
X4117682Y-12946008D02*
X4127205Y-12955531D01*
X4127205Y-12955531D02*
X4136729Y-12974579D01*
X4136729Y-12974579D02*
X4146253Y-13012674D01*
X4146253Y-13012674D02*
X4146253Y-13060293D01*
X4146253Y-13060293D02*
X4136729Y-13098388D01*
X4136729Y-13098388D02*
X4127205Y-13117436D01*
X4127205Y-13117436D02*
X4117682Y-13126960D01*
X4117682Y-13126960D02*
X4098634Y-13136484D01*
X4098634Y-13136484D02*
X4079586Y-13136484D01*
X4079586Y-13136484D02*
X4060539Y-13126960D01*
X4060539Y-13126960D02*
X4051015Y-13117436D01*
X4051015Y-13117436D02*
X4041491Y-13098388D01*
X4041491Y-13098388D02*
X4031967Y-13060293D01*
X4031967Y-13060293D02*
X4031967Y-13012674D01*
X4031967Y-13012674D02*
X4041491Y-12974579D01*
X4041491Y-12974579D02*
X4051015Y-12955531D01*
X4051015Y-12955531D02*
X4060539Y-12946008D01*
X4060539Y-12946008D02*
X4079586Y-12936484D01*
X4270063Y-12936484D02*
X4289110Y-12936484D01*
X4289110Y-12936484D02*
X4308158Y-12946008D01*
X4308158Y-12946008D02*
X4317682Y-12955531D01*
X4317682Y-12955531D02*
X4327205Y-12974579D01*
X4327205Y-12974579D02*
X4336729Y-13012674D01*
X4336729Y-13012674D02*
X4336729Y-13060293D01*
X4336729Y-13060293D02*
X4327205Y-13098388D01*
X4327205Y-13098388D02*
X4317682Y-13117436D01*
X4317682Y-13117436D02*
X4308158Y-13126960D01*
X4308158Y-13126960D02*
X4289110Y-13136484D01*
X4289110Y-13136484D02*
X4270063Y-13136484D01*
X4270063Y-13136484D02*
X4251015Y-13126960D01*
X4251015Y-13126960D02*
X4241491Y-13117436D01*
X4241491Y-13117436D02*
X4231967Y-13098388D01*
X4231967Y-13098388D02*
X4222444Y-13060293D01*
X4222444Y-13060293D02*
X4222444Y-13012674D01*
X4222444Y-13012674D02*
X4231967Y-12974579D01*
X4231967Y-12974579D02*
X4241491Y-12955531D01*
X4241491Y-12955531D02*
X4251015Y-12946008D01*
X4251015Y-12946008D02*
X4270063Y-12936484D01*
X4460539Y-12936484D02*
X4479586Y-12936484D01*
X4479586Y-12936484D02*
X4498634Y-12946008D01*
X4498634Y-12946008D02*
X4508158Y-12955531D01*
X4508158Y-12955531D02*
X4517682Y-12974579D01*
X4517682Y-12974579D02*
X4527205Y-13012674D01*
X4527205Y-13012674D02*
X4527205Y-13060293D01*
X4527205Y-13060293D02*
X4517682Y-13098388D01*
X4517682Y-13098388D02*
X4508158Y-13117436D01*
X4508158Y-13117436D02*
X4498634Y-13126960D01*
X4498634Y-13126960D02*
X4479586Y-13136484D01*
X4479586Y-13136484D02*
X4460539Y-13136484D01*
X4460539Y-13136484D02*
X4441491Y-13126960D01*
X4441491Y-13126960D02*
X4431967Y-13117436D01*
X4431967Y-13117436D02*
X4422444Y-13098388D01*
X4422444Y-13098388D02*
X4412920Y-13060293D01*
X4412920Y-13060293D02*
X4412920Y-13012674D01*
X4412920Y-13012674D02*
X4422444Y-12974579D01*
X4422444Y-12974579D02*
X4431967Y-12955531D01*
X4431967Y-12955531D02*
X4441491Y-12946008D01*
X4441491Y-12946008D02*
X4460539Y-12936484D01*
X4612920Y-13136484D02*
X4612920Y-13003150D01*
X4612920Y-13022198D02*
X4622444Y-13012674D01*
X4622444Y-13012674D02*
X4641491Y-13003150D01*
X4641491Y-13003150D02*
X4670063Y-13003150D01*
X4670063Y-13003150D02*
X4689110Y-13012674D01*
X4689110Y-13012674D02*
X4698634Y-13031722D01*
X4698634Y-13031722D02*
X4698634Y-13136484D01*
X4698634Y-13031722D02*
X4708158Y-13012674D01*
X4708158Y-13012674D02*
X4727205Y-13003150D01*
X4727205Y-13003150D02*
X4755777Y-13003150D01*
X4755777Y-13003150D02*
X4774825Y-13012674D01*
X4774825Y-13012674D02*
X4784348Y-13031722D01*
X4784348Y-13031722D02*
X4784348Y-13136484D01*
X4879586Y-13136484D02*
X4879586Y-13003150D01*
X4879586Y-13022198D02*
X4889110Y-13012674D01*
X4889110Y-13012674D02*
X4908158Y-13003150D01*
X4908158Y-13003150D02*
X4936729Y-13003150D01*
X4936729Y-13003150D02*
X4955777Y-13012674D01*
X4955777Y-13012674D02*
X4965301Y-13031722D01*
X4965301Y-13031722D02*
X4965301Y-13136484D01*
X4965301Y-13031722D02*
X4974825Y-13012674D01*
X4974825Y-13012674D02*
X4993872Y-13003150D01*
X4993872Y-13003150D02*
X5022444Y-13003150D01*
X5022444Y-13003150D02*
X5041491Y-13012674D01*
X5041491Y-13012674D02*
X5051015Y-13031722D01*
X5051015Y-13031722D02*
X5051015Y-13136484D01*
X5441491Y-12926960D02*
X5270063Y-13184103D01*
X5698634Y-12936484D02*
X5717682Y-12936484D01*
X5717682Y-12936484D02*
X5736729Y-12946008D01*
X5736729Y-12946008D02*
X5746253Y-12955531D01*
X5746253Y-12955531D02*
X5755777Y-12974579D01*
X5755777Y-12974579D02*
X5765301Y-13012674D01*
X5765301Y-13012674D02*
X5765301Y-13060293D01*
X5765301Y-13060293D02*
X5755777Y-13098388D01*
X5755777Y-13098388D02*
X5746253Y-13117436D01*
X5746253Y-13117436D02*
X5736729Y-13126960D01*
X5736729Y-13126960D02*
X5717682Y-13136484D01*
X5717682Y-13136484D02*
X5698634Y-13136484D01*
X5698634Y-13136484D02*
X5679586Y-13126960D01*
X5679586Y-13126960D02*
X5670063Y-13117436D01*
X5670063Y-13117436D02*
X5660539Y-13098388D01*
X5660539Y-13098388D02*
X5651015Y-13060293D01*
X5651015Y-13060293D02*
X5651015Y-13012674D01*
X5651015Y-13012674D02*
X5660539Y-12974579D01*
X5660539Y-12974579D02*
X5670063Y-12955531D01*
X5670063Y-12955531D02*
X5679586Y-12946008D01*
X5679586Y-12946008D02*
X5698634Y-12936484D01*
X5851015Y-13117436D02*
X5860539Y-13126960D01*
X5860539Y-13126960D02*
X5851015Y-13136484D01*
X5851015Y-13136484D02*
X5841491Y-13126960D01*
X5841491Y-13126960D02*
X5851015Y-13117436D01*
X5851015Y-13117436D02*
X5851015Y-13136484D01*
X5984348Y-12936484D02*
X6003396Y-12936484D01*
X6003396Y-12936484D02*
X6022444Y-12946008D01*
X6022444Y-12946008D02*
X6031967Y-12955531D01*
X6031967Y-12955531D02*
X6041491Y-12974579D01*
X6041491Y-12974579D02*
X6051015Y-13012674D01*
X6051015Y-13012674D02*
X6051015Y-13060293D01*
X6051015Y-13060293D02*
X6041491Y-13098388D01*
X6041491Y-13098388D02*
X6031967Y-13117436D01*
X6031967Y-13117436D02*
X6022444Y-13126960D01*
X6022444Y-13126960D02*
X6003396Y-13136484D01*
X6003396Y-13136484D02*
X5984348Y-13136484D01*
X5984348Y-13136484D02*
X5965301Y-13126960D01*
X5965301Y-13126960D02*
X5955777Y-13117436D01*
X5955777Y-13117436D02*
X5946253Y-13098388D01*
X5946253Y-13098388D02*
X5936729Y-13060293D01*
X5936729Y-13060293D02*
X5936729Y-13012674D01*
X5936729Y-13012674D02*
X5946253Y-12974579D01*
X5946253Y-12974579D02*
X5955777Y-12955531D01*
X5955777Y-12955531D02*
X5965301Y-12946008D01*
X5965301Y-12946008D02*
X5984348Y-12936484D01*
X6117682Y-12936484D02*
X6251015Y-12936484D01*
X6251015Y-12936484D02*
X6165301Y-13136484D01*
X6355777Y-13022198D02*
X6336729Y-13012674D01*
X6336729Y-13012674D02*
X6327206Y-13003150D01*
X6327206Y-13003150D02*
X6317682Y-12984103D01*
X6317682Y-12984103D02*
X6317682Y-12974579D01*
X6317682Y-12974579D02*
X6327206Y-12955531D01*
X6327206Y-12955531D02*
X6336729Y-12946008D01*
X6336729Y-12946008D02*
X6355777Y-12936484D01*
X6355777Y-12936484D02*
X6393872Y-12936484D01*
X6393872Y-12936484D02*
X6412920Y-12946008D01*
X6412920Y-12946008D02*
X6422444Y-12955531D01*
X6422444Y-12955531D02*
X6431967Y-12974579D01*
X6431967Y-12974579D02*
X6431967Y-12984103D01*
X6431967Y-12984103D02*
X6422444Y-13003150D01*
X6422444Y-13003150D02*
X6412920Y-13012674D01*
X6412920Y-13012674D02*
X6393872Y-13022198D01*
X6393872Y-13022198D02*
X6355777Y-13022198D01*
X6355777Y-13022198D02*
X6336729Y-13031722D01*
X6336729Y-13031722D02*
X6327206Y-13041246D01*
X6327206Y-13041246D02*
X6317682Y-13060293D01*
X6317682Y-13060293D02*
X6317682Y-13098388D01*
X6317682Y-13098388D02*
X6327206Y-13117436D01*
X6327206Y-13117436D02*
X6336729Y-13126960D01*
X6336729Y-13126960D02*
X6355777Y-13136484D01*
X6355777Y-13136484D02*
X6393872Y-13136484D01*
X6393872Y-13136484D02*
X6412920Y-13126960D01*
X6412920Y-13126960D02*
X6422444Y-13117436D01*
X6422444Y-13117436D02*
X6431967Y-13098388D01*
X6431967Y-13098388D02*
X6431967Y-13060293D01*
X6431967Y-13060293D02*
X6422444Y-13041246D01*
X6422444Y-13041246D02*
X6412920Y-13031722D01*
X6412920Y-13031722D02*
X6393872Y-13022198D01*
X6498634Y-12936484D02*
X6631967Y-12936484D01*
X6631967Y-12936484D02*
X6546253Y-13136484D01*
X6698634Y-12936484D02*
X6698634Y-12974579D01*
X6774825Y-12936484D02*
X6774825Y-12974579D01*
X7070063Y-13212674D02*
X7060539Y-13203150D01*
X7060539Y-13203150D02*
X7041491Y-13174579D01*
X7041491Y-13174579D02*
X7031968Y-13155531D01*
X7031968Y-13155531D02*
X7022444Y-13126960D01*
X7022444Y-13126960D02*
X7012920Y-13079341D01*
X7012920Y-13079341D02*
X7012920Y-13041246D01*
X7012920Y-13041246D02*
X7022444Y-12993627D01*
X7022444Y-12993627D02*
X7031968Y-12965055D01*
X7031968Y-12965055D02*
X7041491Y-12946008D01*
X7041491Y-12946008D02*
X7060539Y-12917436D01*
X7060539Y-12917436D02*
X7070063Y-12907912D01*
X7184348Y-12936484D02*
X7203396Y-12936484D01*
X7203396Y-12936484D02*
X7222444Y-12946008D01*
X7222444Y-12946008D02*
X7231968Y-12955531D01*
X7231968Y-12955531D02*
X7241491Y-12974579D01*
X7241491Y-12974579D02*
X7251015Y-13012674D01*
X7251015Y-13012674D02*
X7251015Y-13060293D01*
X7251015Y-13060293D02*
X7241491Y-13098388D01*
X7241491Y-13098388D02*
X7231968Y-13117436D01*
X7231968Y-13117436D02*
X7222444Y-13126960D01*
X7222444Y-13126960D02*
X7203396Y-13136484D01*
X7203396Y-13136484D02*
X7184348Y-13136484D01*
X7184348Y-13136484D02*
X7165301Y-13126960D01*
X7165301Y-13126960D02*
X7155777Y-13117436D01*
X7155777Y-13117436D02*
X7146253Y-13098388D01*
X7146253Y-13098388D02*
X7136729Y-13060293D01*
X7136729Y-13060293D02*
X7136729Y-13012674D01*
X7136729Y-13012674D02*
X7146253Y-12974579D01*
X7146253Y-12974579D02*
X7155777Y-12955531D01*
X7155777Y-12955531D02*
X7165301Y-12946008D01*
X7165301Y-12946008D02*
X7184348Y-12936484D01*
X7489110Y-13136484D02*
X7489110Y-12936484D01*
X7574825Y-13136484D02*
X7574825Y-13031722D01*
X7574825Y-13031722D02*
X7565301Y-13012674D01*
X7565301Y-13012674D02*
X7546253Y-13003150D01*
X7546253Y-13003150D02*
X7517682Y-13003150D01*
X7517682Y-13003150D02*
X7498634Y-13012674D01*
X7498634Y-13012674D02*
X7489110Y-13022198D01*
X7698634Y-13136484D02*
X7679587Y-13126960D01*
X7679587Y-13126960D02*
X7670063Y-13117436D01*
X7670063Y-13117436D02*
X7660539Y-13098388D01*
X7660539Y-13098388D02*
X7660539Y-13041246D01*
X7660539Y-13041246D02*
X7670063Y-13022198D01*
X7670063Y-13022198D02*
X7679587Y-13012674D01*
X7679587Y-13012674D02*
X7698634Y-13003150D01*
X7698634Y-13003150D02*
X7727206Y-13003150D01*
X7727206Y-13003150D02*
X7746253Y-13012674D01*
X7746253Y-13012674D02*
X7755777Y-13022198D01*
X7755777Y-13022198D02*
X7765301Y-13041246D01*
X7765301Y-13041246D02*
X7765301Y-13098388D01*
X7765301Y-13098388D02*
X7755777Y-13117436D01*
X7755777Y-13117436D02*
X7746253Y-13126960D01*
X7746253Y-13126960D02*
X7727206Y-13136484D01*
X7727206Y-13136484D02*
X7698634Y-13136484D01*
X7879587Y-13136484D02*
X7860539Y-13126960D01*
X7860539Y-13126960D02*
X7851015Y-13107912D01*
X7851015Y-13107912D02*
X7851015Y-12936484D01*
X8031968Y-13126960D02*
X8012920Y-13136484D01*
X8012920Y-13136484D02*
X7974825Y-13136484D01*
X7974825Y-13136484D02*
X7955777Y-13126960D01*
X7955777Y-13126960D02*
X7946253Y-13107912D01*
X7946253Y-13107912D02*
X7946253Y-13031722D01*
X7946253Y-13031722D02*
X7955777Y-13012674D01*
X7955777Y-13012674D02*
X7974825Y-13003150D01*
X7974825Y-13003150D02*
X8012920Y-13003150D01*
X8012920Y-13003150D02*
X8031968Y-13012674D01*
X8031968Y-13012674D02*
X8041491Y-13031722D01*
X8041491Y-13031722D02*
X8041491Y-13050769D01*
X8041491Y-13050769D02*
X7946253Y-13069817D01*
X8117682Y-13126960D02*
X8136730Y-13136484D01*
X8136730Y-13136484D02*
X8174825Y-13136484D01*
X8174825Y-13136484D02*
X8193872Y-13126960D01*
X8193872Y-13126960D02*
X8203396Y-13107912D01*
X8203396Y-13107912D02*
X8203396Y-13098388D01*
X8203396Y-13098388D02*
X8193872Y-13079341D01*
X8193872Y-13079341D02*
X8174825Y-13069817D01*
X8174825Y-13069817D02*
X8146253Y-13069817D01*
X8146253Y-13069817D02*
X8127206Y-13060293D01*
X8127206Y-13060293D02*
X8117682Y-13041246D01*
X8117682Y-13041246D02*
X8117682Y-13031722D01*
X8117682Y-13031722D02*
X8127206Y-13012674D01*
X8127206Y-13012674D02*
X8146253Y-13003150D01*
X8146253Y-13003150D02*
X8174825Y-13003150D01*
X8174825Y-13003150D02*
X8193872Y-13012674D01*
X8441492Y-13060293D02*
X8593873Y-13060293D01*
X8517682Y-13136484D02*
X8517682Y-12984103D01*
X8822444Y-12936484D02*
X8946254Y-12936484D01*
X8946254Y-12936484D02*
X8879587Y-13012674D01*
X8879587Y-13012674D02*
X8908158Y-13012674D01*
X8908158Y-13012674D02*
X8927206Y-13022198D01*
X8927206Y-13022198D02*
X8936730Y-13031722D01*
X8936730Y-13031722D02*
X8946254Y-13050769D01*
X8946254Y-13050769D02*
X8946254Y-13098388D01*
X8946254Y-13098388D02*
X8936730Y-13117436D01*
X8936730Y-13117436D02*
X8927206Y-13126960D01*
X8927206Y-13126960D02*
X8908158Y-13136484D01*
X8908158Y-13136484D02*
X8851015Y-13136484D01*
X8851015Y-13136484D02*
X8831968Y-13126960D01*
X8831968Y-13126960D02*
X8822444Y-13117436D01*
X9174825Y-13126960D02*
X9193873Y-13136484D01*
X9193873Y-13136484D02*
X9231968Y-13136484D01*
X9231968Y-13136484D02*
X9251016Y-13126960D01*
X9251016Y-13126960D02*
X9260539Y-13107912D01*
X9260539Y-13107912D02*
X9260539Y-13098388D01*
X9260539Y-13098388D02*
X9251016Y-13079341D01*
X9251016Y-13079341D02*
X9231968Y-13069817D01*
X9231968Y-13069817D02*
X9203396Y-13069817D01*
X9203396Y-13069817D02*
X9184349Y-13060293D01*
X9184349Y-13060293D02*
X9174825Y-13041246D01*
X9174825Y-13041246D02*
X9174825Y-13031722D01*
X9174825Y-13031722D02*
X9184349Y-13012674D01*
X9184349Y-13012674D02*
X9203396Y-13003150D01*
X9203396Y-13003150D02*
X9231968Y-13003150D01*
X9231968Y-13003150D02*
X9251016Y-13012674D01*
X9374825Y-13136484D02*
X9355777Y-13126960D01*
X9355777Y-13126960D02*
X9346254Y-13107912D01*
X9346254Y-13107912D02*
X9346254Y-12936484D01*
X9479587Y-13136484D02*
X9460539Y-13126960D01*
X9460539Y-13126960D02*
X9451016Y-13117436D01*
X9451016Y-13117436D02*
X9441492Y-13098388D01*
X9441492Y-13098388D02*
X9441492Y-13041246D01*
X9441492Y-13041246D02*
X9451016Y-13022198D01*
X9451016Y-13022198D02*
X9460539Y-13012674D01*
X9460539Y-13012674D02*
X9479587Y-13003150D01*
X9479587Y-13003150D02*
X9508158Y-13003150D01*
X9508158Y-13003150D02*
X9527206Y-13012674D01*
X9527206Y-13012674D02*
X9536730Y-13022198D01*
X9536730Y-13022198D02*
X9546254Y-13041246D01*
X9546254Y-13041246D02*
X9546254Y-13098388D01*
X9546254Y-13098388D02*
X9536730Y-13117436D01*
X9536730Y-13117436D02*
X9527206Y-13126960D01*
X9527206Y-13126960D02*
X9508158Y-13136484D01*
X9508158Y-13136484D02*
X9479587Y-13136484D01*
X9603397Y-13003150D02*
X9679587Y-13003150D01*
X9631968Y-12936484D02*
X9631968Y-13107912D01*
X9631968Y-13107912D02*
X9641492Y-13126960D01*
X9641492Y-13126960D02*
X9660539Y-13136484D01*
X9660539Y-13136484D02*
X9679587Y-13136484D01*
X9736730Y-13126960D02*
X9755777Y-13136484D01*
X9755777Y-13136484D02*
X9793873Y-13136484D01*
X9793873Y-13136484D02*
X9812920Y-13126960D01*
X9812920Y-13126960D02*
X9822444Y-13107912D01*
X9822444Y-13107912D02*
X9822444Y-13098388D01*
X9822444Y-13098388D02*
X9812920Y-13079341D01*
X9812920Y-13079341D02*
X9793873Y-13069817D01*
X9793873Y-13069817D02*
X9765301Y-13069817D01*
X9765301Y-13069817D02*
X9746254Y-13060293D01*
X9746254Y-13060293D02*
X9736730Y-13041246D01*
X9736730Y-13041246D02*
X9736730Y-13031722D01*
X9736730Y-13031722D02*
X9746254Y-13012674D01*
X9746254Y-13012674D02*
X9765301Y-13003150D01*
X9765301Y-13003150D02*
X9793873Y-13003150D01*
X9793873Y-13003150D02*
X9812920Y-13012674D01*
X9889111Y-13212674D02*
X9898635Y-13203150D01*
X9898635Y-13203150D02*
X9917682Y-13174579D01*
X9917682Y-13174579D02*
X9927206Y-13155531D01*
X9927206Y-13155531D02*
X9936730Y-13126960D01*
X9936730Y-13126960D02*
X9946254Y-13079341D01*
X9946254Y-13079341D02*
X9946254Y-13041246D01*
X9946254Y-13041246D02*
X9936730Y-12993627D01*
X9936730Y-12993627D02*
X9927206Y-12965055D01*
X9927206Y-12965055D02*
X9917682Y-12946008D01*
X9917682Y-12946008D02*
X9898635Y-12917436D01*
X9898635Y-12917436D02*
X9889111Y-12907912D01*
X10251016Y-13212674D02*
X10241492Y-13203150D01*
X10241492Y-13203150D02*
X10222444Y-13174579D01*
X10222444Y-13174579D02*
X10212920Y-13155531D01*
X10212920Y-13155531D02*
X10203397Y-13126960D01*
X10203397Y-13126960D02*
X10193873Y-13079341D01*
X10193873Y-13079341D02*
X10193873Y-13041246D01*
X10193873Y-13041246D02*
X10203397Y-12993627D01*
X10203397Y-12993627D02*
X10212920Y-12965055D01*
X10212920Y-12965055D02*
X10222444Y-12946008D01*
X10222444Y-12946008D02*
X10241492Y-12917436D01*
X10241492Y-12917436D02*
X10251016Y-12907912D01*
X10327206Y-13003150D02*
X10327206Y-13136484D01*
X10327206Y-13022198D02*
X10336730Y-13012674D01*
X10336730Y-13012674D02*
X10355777Y-13003150D01*
X10355777Y-13003150D02*
X10384349Y-13003150D01*
X10384349Y-13003150D02*
X10403397Y-13012674D01*
X10403397Y-13012674D02*
X10412920Y-13031722D01*
X10412920Y-13031722D02*
X10412920Y-13136484D01*
X10536730Y-13136484D02*
X10517682Y-13126960D01*
X10517682Y-13126960D02*
X10508158Y-13117436D01*
X10508158Y-13117436D02*
X10498635Y-13098388D01*
X10498635Y-13098388D02*
X10498635Y-13041246D01*
X10498635Y-13041246D02*
X10508158Y-13022198D01*
X10508158Y-13022198D02*
X10517682Y-13012674D01*
X10517682Y-13012674D02*
X10536730Y-13003150D01*
X10536730Y-13003150D02*
X10565301Y-13003150D01*
X10565301Y-13003150D02*
X10584349Y-13012674D01*
X10584349Y-13012674D02*
X10593873Y-13022198D01*
X10593873Y-13022198D02*
X10603397Y-13041246D01*
X10603397Y-13041246D02*
X10603397Y-13098388D01*
X10603397Y-13098388D02*
X10593873Y-13117436D01*
X10593873Y-13117436D02*
X10584349Y-13126960D01*
X10584349Y-13126960D02*
X10565301Y-13136484D01*
X10565301Y-13136484D02*
X10536730Y-13136484D01*
X10660539Y-13003150D02*
X10736730Y-13003150D01*
X10689111Y-12936484D02*
X10689111Y-13107912D01*
X10689111Y-13107912D02*
X10698635Y-13126960D01*
X10698635Y-13126960D02*
X10717682Y-13136484D01*
X10717682Y-13136484D02*
X10736730Y-13136484D01*
X10955778Y-13003150D02*
X10955778Y-13203150D01*
X10955778Y-13012674D02*
X10974825Y-13003150D01*
X10974825Y-13003150D02*
X11012920Y-13003150D01*
X11012920Y-13003150D02*
X11031968Y-13012674D01*
X11031968Y-13012674D02*
X11041492Y-13022198D01*
X11041492Y-13022198D02*
X11051016Y-13041246D01*
X11051016Y-13041246D02*
X11051016Y-13098388D01*
X11051016Y-13098388D02*
X11041492Y-13117436D01*
X11041492Y-13117436D02*
X11031968Y-13126960D01*
X11031968Y-13126960D02*
X11012920Y-13136484D01*
X11012920Y-13136484D02*
X10974825Y-13136484D01*
X10974825Y-13136484D02*
X10955778Y-13126960D01*
X11165301Y-13136484D02*
X11146254Y-13126960D01*
X11146254Y-13126960D02*
X11136730Y-13107912D01*
X11136730Y-13107912D02*
X11136730Y-12936484D01*
X11327206Y-13136484D02*
X11327206Y-13031722D01*
X11327206Y-13031722D02*
X11317682Y-13012674D01*
X11317682Y-13012674D02*
X11298635Y-13003150D01*
X11298635Y-13003150D02*
X11260539Y-13003150D01*
X11260539Y-13003150D02*
X11241492Y-13012674D01*
X11327206Y-13126960D02*
X11308158Y-13136484D01*
X11308158Y-13136484D02*
X11260539Y-13136484D01*
X11260539Y-13136484D02*
X11241492Y-13126960D01*
X11241492Y-13126960D02*
X11231968Y-13107912D01*
X11231968Y-13107912D02*
X11231968Y-13088865D01*
X11231968Y-13088865D02*
X11241492Y-13069817D01*
X11241492Y-13069817D02*
X11260539Y-13060293D01*
X11260539Y-13060293D02*
X11308158Y-13060293D01*
X11308158Y-13060293D02*
X11327206Y-13050769D01*
X11393873Y-13003150D02*
X11470063Y-13003150D01*
X11422444Y-12936484D02*
X11422444Y-13107912D01*
X11422444Y-13107912D02*
X11431968Y-13126960D01*
X11431968Y-13126960D02*
X11451016Y-13136484D01*
X11451016Y-13136484D02*
X11470063Y-13136484D01*
X11612920Y-13126960D02*
X11593873Y-13136484D01*
X11593873Y-13136484D02*
X11555777Y-13136484D01*
X11555777Y-13136484D02*
X11536730Y-13126960D01*
X11536730Y-13126960D02*
X11527206Y-13107912D01*
X11527206Y-13107912D02*
X11527206Y-13031722D01*
X11527206Y-13031722D02*
X11536730Y-13012674D01*
X11536730Y-13012674D02*
X11555777Y-13003150D01*
X11555777Y-13003150D02*
X11593873Y-13003150D01*
X11593873Y-13003150D02*
X11612920Y-13012674D01*
X11612920Y-13012674D02*
X11622444Y-13031722D01*
X11622444Y-13031722D02*
X11622444Y-13050769D01*
X11622444Y-13050769D02*
X11527206Y-13069817D01*
X11793873Y-13136484D02*
X11793873Y-12936484D01*
X11793873Y-13126960D02*
X11774825Y-13136484D01*
X11774825Y-13136484D02*
X11736730Y-13136484D01*
X11736730Y-13136484D02*
X11717682Y-13126960D01*
X11717682Y-13126960D02*
X11708158Y-13117436D01*
X11708158Y-13117436D02*
X11698635Y-13098388D01*
X11698635Y-13098388D02*
X11698635Y-13041246D01*
X11698635Y-13041246D02*
X11708158Y-13022198D01*
X11708158Y-13022198D02*
X11717682Y-13012674D01*
X11717682Y-13012674D02*
X11736730Y-13003150D01*
X11736730Y-13003150D02*
X11774825Y-13003150D01*
X11774825Y-13003150D02*
X11793873Y-13012674D01*
X11870063Y-13212674D02*
X11879587Y-13203150D01*
X11879587Y-13203150D02*
X11898635Y-13174579D01*
X11898635Y-13174579D02*
X11908158Y-13155531D01*
X11908158Y-13155531D02*
X11917682Y-13126960D01*
X11917682Y-13126960D02*
X11927206Y-13079341D01*
X11927206Y-13079341D02*
X11927206Y-13041246D01*
X11927206Y-13041246D02*
X11917682Y-12993627D01*
X11917682Y-12993627D02*
X11908158Y-12965055D01*
X11908158Y-12965055D02*
X11898635Y-12946008D01*
X11898635Y-12946008D02*
X11879587Y-12917436D01*
X11879587Y-12917436D02*
X11870063Y-12907912D01*
X3495000Y-13365000D02*
G75*
G02*
X3295000Y-13365000I-100000J0D01*
G01*
X3295000Y-13365000D02*
G75*
G02*
X3495000Y-13365000I100000J0D01*
G01*
X3746253Y-13275531D02*
X3755777Y-13266008D01*
X3755777Y-13266008D02*
X3774824Y-13256484D01*
X3774824Y-13256484D02*
X3822443Y-13256484D01*
X3822443Y-13256484D02*
X3841491Y-13266008D01*
X3841491Y-13266008D02*
X3851015Y-13275531D01*
X3851015Y-13275531D02*
X3860539Y-13294579D01*
X3860539Y-13294579D02*
X3860539Y-13313627D01*
X3860539Y-13313627D02*
X3851015Y-13342198D01*
X3851015Y-13342198D02*
X3736729Y-13456484D01*
X3736729Y-13456484D02*
X3860539Y-13456484D01*
X3946253Y-13437436D02*
X3955777Y-13446960D01*
X3955777Y-13446960D02*
X3946253Y-13456484D01*
X3946253Y-13456484D02*
X3936729Y-13446960D01*
X3936729Y-13446960D02*
X3946253Y-13437436D01*
X3946253Y-13437436D02*
X3946253Y-13456484D01*
X4031967Y-13275531D02*
X4041491Y-13266008D01*
X4041491Y-13266008D02*
X4060539Y-13256484D01*
X4060539Y-13256484D02*
X4108158Y-13256484D01*
X4108158Y-13256484D02*
X4127205Y-13266008D01*
X4127205Y-13266008D02*
X4136729Y-13275531D01*
X4136729Y-13275531D02*
X4146253Y-13294579D01*
X4146253Y-13294579D02*
X4146253Y-13313627D01*
X4146253Y-13313627D02*
X4136729Y-13342198D01*
X4136729Y-13342198D02*
X4022443Y-13456484D01*
X4022443Y-13456484D02*
X4146253Y-13456484D01*
X4270063Y-13256484D02*
X4289110Y-13256484D01*
X4289110Y-13256484D02*
X4308158Y-13266008D01*
X4308158Y-13266008D02*
X4317682Y-13275531D01*
X4317682Y-13275531D02*
X4327205Y-13294579D01*
X4327205Y-13294579D02*
X4336729Y-13332674D01*
X4336729Y-13332674D02*
X4336729Y-13380293D01*
X4336729Y-13380293D02*
X4327205Y-13418388D01*
X4327205Y-13418388D02*
X4317682Y-13437436D01*
X4317682Y-13437436D02*
X4308158Y-13446960D01*
X4308158Y-13446960D02*
X4289110Y-13456484D01*
X4289110Y-13456484D02*
X4270063Y-13456484D01*
X4270063Y-13456484D02*
X4251015Y-13446960D01*
X4251015Y-13446960D02*
X4241491Y-13437436D01*
X4241491Y-13437436D02*
X4231967Y-13418388D01*
X4231967Y-13418388D02*
X4222444Y-13380293D01*
X4222444Y-13380293D02*
X4222444Y-13332674D01*
X4222444Y-13332674D02*
X4231967Y-13294579D01*
X4231967Y-13294579D02*
X4241491Y-13275531D01*
X4241491Y-13275531D02*
X4251015Y-13266008D01*
X4251015Y-13266008D02*
X4270063Y-13256484D01*
X4460539Y-13256484D02*
X4479586Y-13256484D01*
X4479586Y-13256484D02*
X4498634Y-13266008D01*
X4498634Y-13266008D02*
X4508158Y-13275531D01*
X4508158Y-13275531D02*
X4517682Y-13294579D01*
X4517682Y-13294579D02*
X4527205Y-13332674D01*
X4527205Y-13332674D02*
X4527205Y-13380293D01*
X4527205Y-13380293D02*
X4517682Y-13418388D01*
X4517682Y-13418388D02*
X4508158Y-13437436D01*
X4508158Y-13437436D02*
X4498634Y-13446960D01*
X4498634Y-13446960D02*
X4479586Y-13456484D01*
X4479586Y-13456484D02*
X4460539Y-13456484D01*
X4460539Y-13456484D02*
X4441491Y-13446960D01*
X4441491Y-13446960D02*
X4431967Y-13437436D01*
X4431967Y-13437436D02*
X4422444Y-13418388D01*
X4422444Y-13418388D02*
X4412920Y-13380293D01*
X4412920Y-13380293D02*
X4412920Y-13332674D01*
X4412920Y-13332674D02*
X4422444Y-13294579D01*
X4422444Y-13294579D02*
X4431967Y-13275531D01*
X4431967Y-13275531D02*
X4441491Y-13266008D01*
X4441491Y-13266008D02*
X4460539Y-13256484D01*
X4612920Y-13456484D02*
X4612920Y-13323150D01*
X4612920Y-13342198D02*
X4622444Y-13332674D01*
X4622444Y-13332674D02*
X4641491Y-13323150D01*
X4641491Y-13323150D02*
X4670063Y-13323150D01*
X4670063Y-13323150D02*
X4689110Y-13332674D01*
X4689110Y-13332674D02*
X4698634Y-13351722D01*
X4698634Y-13351722D02*
X4698634Y-13456484D01*
X4698634Y-13351722D02*
X4708158Y-13332674D01*
X4708158Y-13332674D02*
X4727205Y-13323150D01*
X4727205Y-13323150D02*
X4755777Y-13323150D01*
X4755777Y-13323150D02*
X4774825Y-13332674D01*
X4774825Y-13332674D02*
X4784348Y-13351722D01*
X4784348Y-13351722D02*
X4784348Y-13456484D01*
X4879586Y-13456484D02*
X4879586Y-13323150D01*
X4879586Y-13342198D02*
X4889110Y-13332674D01*
X4889110Y-13332674D02*
X4908158Y-13323150D01*
X4908158Y-13323150D02*
X4936729Y-13323150D01*
X4936729Y-13323150D02*
X4955777Y-13332674D01*
X4955777Y-13332674D02*
X4965301Y-13351722D01*
X4965301Y-13351722D02*
X4965301Y-13456484D01*
X4965301Y-13351722D02*
X4974825Y-13332674D01*
X4974825Y-13332674D02*
X4993872Y-13323150D01*
X4993872Y-13323150D02*
X5022444Y-13323150D01*
X5022444Y-13323150D02*
X5041491Y-13332674D01*
X5041491Y-13332674D02*
X5051015Y-13351722D01*
X5051015Y-13351722D02*
X5051015Y-13456484D01*
X5441491Y-13246960D02*
X5270063Y-13504103D01*
X5698634Y-13256484D02*
X5717682Y-13256484D01*
X5717682Y-13256484D02*
X5736729Y-13266008D01*
X5736729Y-13266008D02*
X5746253Y-13275531D01*
X5746253Y-13275531D02*
X5755777Y-13294579D01*
X5755777Y-13294579D02*
X5765301Y-13332674D01*
X5765301Y-13332674D02*
X5765301Y-13380293D01*
X5765301Y-13380293D02*
X5755777Y-13418388D01*
X5755777Y-13418388D02*
X5746253Y-13437436D01*
X5746253Y-13437436D02*
X5736729Y-13446960D01*
X5736729Y-13446960D02*
X5717682Y-13456484D01*
X5717682Y-13456484D02*
X5698634Y-13456484D01*
X5698634Y-13456484D02*
X5679586Y-13446960D01*
X5679586Y-13446960D02*
X5670063Y-13437436D01*
X5670063Y-13437436D02*
X5660539Y-13418388D01*
X5660539Y-13418388D02*
X5651015Y-13380293D01*
X5651015Y-13380293D02*
X5651015Y-13332674D01*
X5651015Y-13332674D02*
X5660539Y-13294579D01*
X5660539Y-13294579D02*
X5670063Y-13275531D01*
X5670063Y-13275531D02*
X5679586Y-13266008D01*
X5679586Y-13266008D02*
X5698634Y-13256484D01*
X5851015Y-13437436D02*
X5860539Y-13446960D01*
X5860539Y-13446960D02*
X5851015Y-13456484D01*
X5851015Y-13456484D02*
X5841491Y-13446960D01*
X5841491Y-13446960D02*
X5851015Y-13437436D01*
X5851015Y-13437436D02*
X5851015Y-13456484D01*
X5984348Y-13256484D02*
X6003396Y-13256484D01*
X6003396Y-13256484D02*
X6022444Y-13266008D01*
X6022444Y-13266008D02*
X6031967Y-13275531D01*
X6031967Y-13275531D02*
X6041491Y-13294579D01*
X6041491Y-13294579D02*
X6051015Y-13332674D01*
X6051015Y-13332674D02*
X6051015Y-13380293D01*
X6051015Y-13380293D02*
X6041491Y-13418388D01*
X6041491Y-13418388D02*
X6031967Y-13437436D01*
X6031967Y-13437436D02*
X6022444Y-13446960D01*
X6022444Y-13446960D02*
X6003396Y-13456484D01*
X6003396Y-13456484D02*
X5984348Y-13456484D01*
X5984348Y-13456484D02*
X5965301Y-13446960D01*
X5965301Y-13446960D02*
X5955777Y-13437436D01*
X5955777Y-13437436D02*
X5946253Y-13418388D01*
X5946253Y-13418388D02*
X5936729Y-13380293D01*
X5936729Y-13380293D02*
X5936729Y-13332674D01*
X5936729Y-13332674D02*
X5946253Y-13294579D01*
X5946253Y-13294579D02*
X5955777Y-13275531D01*
X5955777Y-13275531D02*
X5965301Y-13266008D01*
X5965301Y-13266008D02*
X5984348Y-13256484D01*
X6165301Y-13342198D02*
X6146253Y-13332674D01*
X6146253Y-13332674D02*
X6136729Y-13323150D01*
X6136729Y-13323150D02*
X6127206Y-13304103D01*
X6127206Y-13304103D02*
X6127206Y-13294579D01*
X6127206Y-13294579D02*
X6136729Y-13275531D01*
X6136729Y-13275531D02*
X6146253Y-13266008D01*
X6146253Y-13266008D02*
X6165301Y-13256484D01*
X6165301Y-13256484D02*
X6203396Y-13256484D01*
X6203396Y-13256484D02*
X6222444Y-13266008D01*
X6222444Y-13266008D02*
X6231967Y-13275531D01*
X6231967Y-13275531D02*
X6241491Y-13294579D01*
X6241491Y-13294579D02*
X6241491Y-13304103D01*
X6241491Y-13304103D02*
X6231967Y-13323150D01*
X6231967Y-13323150D02*
X6222444Y-13332674D01*
X6222444Y-13332674D02*
X6203396Y-13342198D01*
X6203396Y-13342198D02*
X6165301Y-13342198D01*
X6165301Y-13342198D02*
X6146253Y-13351722D01*
X6146253Y-13351722D02*
X6136729Y-13361246D01*
X6136729Y-13361246D02*
X6127206Y-13380293D01*
X6127206Y-13380293D02*
X6127206Y-13418388D01*
X6127206Y-13418388D02*
X6136729Y-13437436D01*
X6136729Y-13437436D02*
X6146253Y-13446960D01*
X6146253Y-13446960D02*
X6165301Y-13456484D01*
X6165301Y-13456484D02*
X6203396Y-13456484D01*
X6203396Y-13456484D02*
X6222444Y-13446960D01*
X6222444Y-13446960D02*
X6231967Y-13437436D01*
X6231967Y-13437436D02*
X6241491Y-13418388D01*
X6241491Y-13418388D02*
X6241491Y-13380293D01*
X6241491Y-13380293D02*
X6231967Y-13361246D01*
X6231967Y-13361246D02*
X6222444Y-13351722D01*
X6222444Y-13351722D02*
X6203396Y-13342198D01*
X6412920Y-13256484D02*
X6374825Y-13256484D01*
X6374825Y-13256484D02*
X6355777Y-13266008D01*
X6355777Y-13266008D02*
X6346253Y-13275531D01*
X6346253Y-13275531D02*
X6327206Y-13304103D01*
X6327206Y-13304103D02*
X6317682Y-13342198D01*
X6317682Y-13342198D02*
X6317682Y-13418388D01*
X6317682Y-13418388D02*
X6327206Y-13437436D01*
X6327206Y-13437436D02*
X6336729Y-13446960D01*
X6336729Y-13446960D02*
X6355777Y-13456484D01*
X6355777Y-13456484D02*
X6393872Y-13456484D01*
X6393872Y-13456484D02*
X6412920Y-13446960D01*
X6412920Y-13446960D02*
X6422444Y-13437436D01*
X6422444Y-13437436D02*
X6431967Y-13418388D01*
X6431967Y-13418388D02*
X6431967Y-13370769D01*
X6431967Y-13370769D02*
X6422444Y-13351722D01*
X6422444Y-13351722D02*
X6412920Y-13342198D01*
X6412920Y-13342198D02*
X6393872Y-13332674D01*
X6393872Y-13332674D02*
X6355777Y-13332674D01*
X6355777Y-13332674D02*
X6336729Y-13342198D01*
X6336729Y-13342198D02*
X6327206Y-13351722D01*
X6327206Y-13351722D02*
X6317682Y-13370769D01*
X6603396Y-13256484D02*
X6565301Y-13256484D01*
X6565301Y-13256484D02*
X6546253Y-13266008D01*
X6546253Y-13266008D02*
X6536729Y-13275531D01*
X6536729Y-13275531D02*
X6517682Y-13304103D01*
X6517682Y-13304103D02*
X6508158Y-13342198D01*
X6508158Y-13342198D02*
X6508158Y-13418388D01*
X6508158Y-13418388D02*
X6517682Y-13437436D01*
X6517682Y-13437436D02*
X6527206Y-13446960D01*
X6527206Y-13446960D02*
X6546253Y-13456484D01*
X6546253Y-13456484D02*
X6584348Y-13456484D01*
X6584348Y-13456484D02*
X6603396Y-13446960D01*
X6603396Y-13446960D02*
X6612920Y-13437436D01*
X6612920Y-13437436D02*
X6622444Y-13418388D01*
X6622444Y-13418388D02*
X6622444Y-13370769D01*
X6622444Y-13370769D02*
X6612920Y-13351722D01*
X6612920Y-13351722D02*
X6603396Y-13342198D01*
X6603396Y-13342198D02*
X6584348Y-13332674D01*
X6584348Y-13332674D02*
X6546253Y-13332674D01*
X6546253Y-13332674D02*
X6527206Y-13342198D01*
X6527206Y-13342198D02*
X6517682Y-13351722D01*
X6517682Y-13351722D02*
X6508158Y-13370769D01*
X6698634Y-13256484D02*
X6698634Y-13294579D01*
X6774825Y-13256484D02*
X6774825Y-13294579D01*
X7070063Y-13532674D02*
X7060539Y-13523150D01*
X7060539Y-13523150D02*
X7041491Y-13494579D01*
X7041491Y-13494579D02*
X7031968Y-13475531D01*
X7031968Y-13475531D02*
X7022444Y-13446960D01*
X7022444Y-13446960D02*
X7012920Y-13399341D01*
X7012920Y-13399341D02*
X7012920Y-13361246D01*
X7012920Y-13361246D02*
X7022444Y-13313627D01*
X7022444Y-13313627D02*
X7031968Y-13285055D01*
X7031968Y-13285055D02*
X7041491Y-13266008D01*
X7041491Y-13266008D02*
X7060539Y-13237436D01*
X7060539Y-13237436D02*
X7070063Y-13227912D01*
X7127206Y-13256484D02*
X7251015Y-13256484D01*
X7251015Y-13256484D02*
X7184348Y-13332674D01*
X7184348Y-13332674D02*
X7212920Y-13332674D01*
X7212920Y-13332674D02*
X7231968Y-13342198D01*
X7231968Y-13342198D02*
X7241491Y-13351722D01*
X7241491Y-13351722D02*
X7251015Y-13370769D01*
X7251015Y-13370769D02*
X7251015Y-13418388D01*
X7251015Y-13418388D02*
X7241491Y-13437436D01*
X7241491Y-13437436D02*
X7231968Y-13446960D01*
X7231968Y-13446960D02*
X7212920Y-13456484D01*
X7212920Y-13456484D02*
X7155777Y-13456484D01*
X7155777Y-13456484D02*
X7136729Y-13446960D01*
X7136729Y-13446960D02*
X7127206Y-13437436D01*
X7489110Y-13456484D02*
X7489110Y-13256484D01*
X7574825Y-13456484D02*
X7574825Y-13351722D01*
X7574825Y-13351722D02*
X7565301Y-13332674D01*
X7565301Y-13332674D02*
X7546253Y-13323150D01*
X7546253Y-13323150D02*
X7517682Y-13323150D01*
X7517682Y-13323150D02*
X7498634Y-13332674D01*
X7498634Y-13332674D02*
X7489110Y-13342198D01*
X7698634Y-13456484D02*
X7679587Y-13446960D01*
X7679587Y-13446960D02*
X7670063Y-13437436D01*
X7670063Y-13437436D02*
X7660539Y-13418388D01*
X7660539Y-13418388D02*
X7660539Y-13361246D01*
X7660539Y-13361246D02*
X7670063Y-13342198D01*
X7670063Y-13342198D02*
X7679587Y-13332674D01*
X7679587Y-13332674D02*
X7698634Y-13323150D01*
X7698634Y-13323150D02*
X7727206Y-13323150D01*
X7727206Y-13323150D02*
X7746253Y-13332674D01*
X7746253Y-13332674D02*
X7755777Y-13342198D01*
X7755777Y-13342198D02*
X7765301Y-13361246D01*
X7765301Y-13361246D02*
X7765301Y-13418388D01*
X7765301Y-13418388D02*
X7755777Y-13437436D01*
X7755777Y-13437436D02*
X7746253Y-13446960D01*
X7746253Y-13446960D02*
X7727206Y-13456484D01*
X7727206Y-13456484D02*
X7698634Y-13456484D01*
X7879587Y-13456484D02*
X7860539Y-13446960D01*
X7860539Y-13446960D02*
X7851015Y-13427912D01*
X7851015Y-13427912D02*
X7851015Y-13256484D01*
X8031968Y-13446960D02*
X8012920Y-13456484D01*
X8012920Y-13456484D02*
X7974825Y-13456484D01*
X7974825Y-13456484D02*
X7955777Y-13446960D01*
X7955777Y-13446960D02*
X7946253Y-13427912D01*
X7946253Y-13427912D02*
X7946253Y-13351722D01*
X7946253Y-13351722D02*
X7955777Y-13332674D01*
X7955777Y-13332674D02*
X7974825Y-13323150D01*
X7974825Y-13323150D02*
X8012920Y-13323150D01*
X8012920Y-13323150D02*
X8031968Y-13332674D01*
X8031968Y-13332674D02*
X8041491Y-13351722D01*
X8041491Y-13351722D02*
X8041491Y-13370769D01*
X8041491Y-13370769D02*
X7946253Y-13389817D01*
X8117682Y-13446960D02*
X8136730Y-13456484D01*
X8136730Y-13456484D02*
X8174825Y-13456484D01*
X8174825Y-13456484D02*
X8193872Y-13446960D01*
X8193872Y-13446960D02*
X8203396Y-13427912D01*
X8203396Y-13427912D02*
X8203396Y-13418388D01*
X8203396Y-13418388D02*
X8193872Y-13399341D01*
X8193872Y-13399341D02*
X8174825Y-13389817D01*
X8174825Y-13389817D02*
X8146253Y-13389817D01*
X8146253Y-13389817D02*
X8127206Y-13380293D01*
X8127206Y-13380293D02*
X8117682Y-13361246D01*
X8117682Y-13361246D02*
X8117682Y-13351722D01*
X8117682Y-13351722D02*
X8127206Y-13332674D01*
X8127206Y-13332674D02*
X8146253Y-13323150D01*
X8146253Y-13323150D02*
X8174825Y-13323150D01*
X8174825Y-13323150D02*
X8193872Y-13332674D01*
X8270063Y-13532674D02*
X8279587Y-13523150D01*
X8279587Y-13523150D02*
X8298634Y-13494579D01*
X8298634Y-13494579D02*
X8308158Y-13475531D01*
X8308158Y-13475531D02*
X8317682Y-13446960D01*
X8317682Y-13446960D02*
X8327206Y-13399341D01*
X8327206Y-13399341D02*
X8327206Y-13361246D01*
X8327206Y-13361246D02*
X8317682Y-13313627D01*
X8317682Y-13313627D02*
X8308158Y-13285055D01*
X8308158Y-13285055D02*
X8298634Y-13266008D01*
X8298634Y-13266008D02*
X8279587Y-13237436D01*
X8279587Y-13237436D02*
X8270063Y-13227912D01*
X8631968Y-13532674D02*
X8622444Y-13523150D01*
X8622444Y-13523150D02*
X8603396Y-13494579D01*
X8603396Y-13494579D02*
X8593873Y-13475531D01*
X8593873Y-13475531D02*
X8584349Y-13446960D01*
X8584349Y-13446960D02*
X8574825Y-13399341D01*
X8574825Y-13399341D02*
X8574825Y-13361246D01*
X8574825Y-13361246D02*
X8584349Y-13313627D01*
X8584349Y-13313627D02*
X8593873Y-13285055D01*
X8593873Y-13285055D02*
X8603396Y-13266008D01*
X8603396Y-13266008D02*
X8622444Y-13237436D01*
X8622444Y-13237436D02*
X8631968Y-13227912D01*
X8708158Y-13323150D02*
X8708158Y-13456484D01*
X8708158Y-13342198D02*
X8717682Y-13332674D01*
X8717682Y-13332674D02*
X8736730Y-13323150D01*
X8736730Y-13323150D02*
X8765301Y-13323150D01*
X8765301Y-13323150D02*
X8784349Y-13332674D01*
X8784349Y-13332674D02*
X8793873Y-13351722D01*
X8793873Y-13351722D02*
X8793873Y-13456484D01*
X8917682Y-13456484D02*
X8898634Y-13446960D01*
X8898634Y-13446960D02*
X8889111Y-13437436D01*
X8889111Y-13437436D02*
X8879587Y-13418388D01*
X8879587Y-13418388D02*
X8879587Y-13361246D01*
X8879587Y-13361246D02*
X8889111Y-13342198D01*
X8889111Y-13342198D02*
X8898634Y-13332674D01*
X8898634Y-13332674D02*
X8917682Y-13323150D01*
X8917682Y-13323150D02*
X8946254Y-13323150D01*
X8946254Y-13323150D02*
X8965301Y-13332674D01*
X8965301Y-13332674D02*
X8974825Y-13342198D01*
X8974825Y-13342198D02*
X8984349Y-13361246D01*
X8984349Y-13361246D02*
X8984349Y-13418388D01*
X8984349Y-13418388D02*
X8974825Y-13437436D01*
X8974825Y-13437436D02*
X8965301Y-13446960D01*
X8965301Y-13446960D02*
X8946254Y-13456484D01*
X8946254Y-13456484D02*
X8917682Y-13456484D01*
X9041492Y-13323150D02*
X9117682Y-13323150D01*
X9070063Y-13256484D02*
X9070063Y-13427912D01*
X9070063Y-13427912D02*
X9079587Y-13446960D01*
X9079587Y-13446960D02*
X9098634Y-13456484D01*
X9098634Y-13456484D02*
X9117682Y-13456484D01*
X9336730Y-13323150D02*
X9336730Y-13523150D01*
X9336730Y-13332674D02*
X9355777Y-13323150D01*
X9355777Y-13323150D02*
X9393873Y-13323150D01*
X9393873Y-13323150D02*
X9412920Y-13332674D01*
X9412920Y-13332674D02*
X9422444Y-13342198D01*
X9422444Y-13342198D02*
X9431968Y-13361246D01*
X9431968Y-13361246D02*
X9431968Y-13418388D01*
X9431968Y-13418388D02*
X9422444Y-13437436D01*
X9422444Y-13437436D02*
X9412920Y-13446960D01*
X9412920Y-13446960D02*
X9393873Y-13456484D01*
X9393873Y-13456484D02*
X9355777Y-13456484D01*
X9355777Y-13456484D02*
X9336730Y-13446960D01*
X9546254Y-13456484D02*
X9527206Y-13446960D01*
X9527206Y-13446960D02*
X9517682Y-13427912D01*
X9517682Y-13427912D02*
X9517682Y-13256484D01*
X9708158Y-13456484D02*
X9708158Y-13351722D01*
X9708158Y-13351722D02*
X9698635Y-13332674D01*
X9698635Y-13332674D02*
X9679587Y-13323150D01*
X9679587Y-13323150D02*
X9641492Y-13323150D01*
X9641492Y-13323150D02*
X9622444Y-13332674D01*
X9708158Y-13446960D02*
X9689111Y-13456484D01*
X9689111Y-13456484D02*
X9641492Y-13456484D01*
X9641492Y-13456484D02*
X9622444Y-13446960D01*
X9622444Y-13446960D02*
X9612920Y-13427912D01*
X9612920Y-13427912D02*
X9612920Y-13408865D01*
X9612920Y-13408865D02*
X9622444Y-13389817D01*
X9622444Y-13389817D02*
X9641492Y-13380293D01*
X9641492Y-13380293D02*
X9689111Y-13380293D01*
X9689111Y-13380293D02*
X9708158Y-13370769D01*
X9774825Y-13323150D02*
X9851015Y-13323150D01*
X9803396Y-13256484D02*
X9803396Y-13427912D01*
X9803396Y-13427912D02*
X9812920Y-13446960D01*
X9812920Y-13446960D02*
X9831968Y-13456484D01*
X9831968Y-13456484D02*
X9851015Y-13456484D01*
X9993873Y-13446960D02*
X9974825Y-13456484D01*
X9974825Y-13456484D02*
X9936730Y-13456484D01*
X9936730Y-13456484D02*
X9917682Y-13446960D01*
X9917682Y-13446960D02*
X9908158Y-13427912D01*
X9908158Y-13427912D02*
X9908158Y-13351722D01*
X9908158Y-13351722D02*
X9917682Y-13332674D01*
X9917682Y-13332674D02*
X9936730Y-13323150D01*
X9936730Y-13323150D02*
X9974825Y-13323150D01*
X9974825Y-13323150D02*
X9993873Y-13332674D01*
X9993873Y-13332674D02*
X10003396Y-13351722D01*
X10003396Y-13351722D02*
X10003396Y-13370769D01*
X10003396Y-13370769D02*
X9908158Y-13389817D01*
X10174825Y-13456484D02*
X10174825Y-13256484D01*
X10174825Y-13446960D02*
X10155777Y-13456484D01*
X10155777Y-13456484D02*
X10117682Y-13456484D01*
X10117682Y-13456484D02*
X10098635Y-13446960D01*
X10098635Y-13446960D02*
X10089111Y-13437436D01*
X10089111Y-13437436D02*
X10079587Y-13418388D01*
X10079587Y-13418388D02*
X10079587Y-13361246D01*
X10079587Y-13361246D02*
X10089111Y-13342198D01*
X10089111Y-13342198D02*
X10098635Y-13332674D01*
X10098635Y-13332674D02*
X10117682Y-13323150D01*
X10117682Y-13323150D02*
X10155777Y-13323150D01*
X10155777Y-13323150D02*
X10174825Y-13332674D01*
X10251016Y-13532674D02*
X10260539Y-13523150D01*
X10260539Y-13523150D02*
X10279587Y-13494579D01*
X10279587Y-13494579D02*
X10289111Y-13475531D01*
X10289111Y-13475531D02*
X10298635Y-13446960D01*
X10298635Y-13446960D02*
X10308158Y-13399341D01*
X10308158Y-13399341D02*
X10308158Y-13361246D01*
X10308158Y-13361246D02*
X10298635Y-13313627D01*
X10298635Y-13313627D02*
X10289111Y-13285055D01*
X10289111Y-13285055D02*
X10279587Y-13266008D01*
X10279587Y-13266008D02*
X10260539Y-13237436D01*
X10260539Y-13237436D02*
X10251016Y-13227912D01*
X3395000Y-13585000D02*
X3395000Y-13785000D01*
X3295000Y-13685000D02*
X3495000Y-13685000D01*
X3736729Y-13576484D02*
X3860539Y-13576484D01*
X3860539Y-13576484D02*
X3793872Y-13652674D01*
X3793872Y-13652674D02*
X3822443Y-13652674D01*
X3822443Y-13652674D02*
X3841491Y-13662198D01*
X3841491Y-13662198D02*
X3851015Y-13671722D01*
X3851015Y-13671722D02*
X3860539Y-13690769D01*
X3860539Y-13690769D02*
X3860539Y-13738388D01*
X3860539Y-13738388D02*
X3851015Y-13757436D01*
X3851015Y-13757436D02*
X3841491Y-13766960D01*
X3841491Y-13766960D02*
X3822443Y-13776484D01*
X3822443Y-13776484D02*
X3765301Y-13776484D01*
X3765301Y-13776484D02*
X3746253Y-13766960D01*
X3746253Y-13766960D02*
X3736729Y-13757436D01*
X3946253Y-13757436D02*
X3955777Y-13766960D01*
X3955777Y-13766960D02*
X3946253Y-13776484D01*
X3946253Y-13776484D02*
X3936729Y-13766960D01*
X3936729Y-13766960D02*
X3946253Y-13757436D01*
X3946253Y-13757436D02*
X3946253Y-13776484D01*
X4079586Y-13576484D02*
X4098634Y-13576484D01*
X4098634Y-13576484D02*
X4117682Y-13586008D01*
X4117682Y-13586008D02*
X4127205Y-13595531D01*
X4127205Y-13595531D02*
X4136729Y-13614579D01*
X4136729Y-13614579D02*
X4146253Y-13652674D01*
X4146253Y-13652674D02*
X4146253Y-13700293D01*
X4146253Y-13700293D02*
X4136729Y-13738388D01*
X4136729Y-13738388D02*
X4127205Y-13757436D01*
X4127205Y-13757436D02*
X4117682Y-13766960D01*
X4117682Y-13766960D02*
X4098634Y-13776484D01*
X4098634Y-13776484D02*
X4079586Y-13776484D01*
X4079586Y-13776484D02*
X4060539Y-13766960D01*
X4060539Y-13766960D02*
X4051015Y-13757436D01*
X4051015Y-13757436D02*
X4041491Y-13738388D01*
X4041491Y-13738388D02*
X4031967Y-13700293D01*
X4031967Y-13700293D02*
X4031967Y-13652674D01*
X4031967Y-13652674D02*
X4041491Y-13614579D01*
X4041491Y-13614579D02*
X4051015Y-13595531D01*
X4051015Y-13595531D02*
X4060539Y-13586008D01*
X4060539Y-13586008D02*
X4079586Y-13576484D01*
X4270063Y-13576484D02*
X4289110Y-13576484D01*
X4289110Y-13576484D02*
X4308158Y-13586008D01*
X4308158Y-13586008D02*
X4317682Y-13595531D01*
X4317682Y-13595531D02*
X4327205Y-13614579D01*
X4327205Y-13614579D02*
X4336729Y-13652674D01*
X4336729Y-13652674D02*
X4336729Y-13700293D01*
X4336729Y-13700293D02*
X4327205Y-13738388D01*
X4327205Y-13738388D02*
X4317682Y-13757436D01*
X4317682Y-13757436D02*
X4308158Y-13766960D01*
X4308158Y-13766960D02*
X4289110Y-13776484D01*
X4289110Y-13776484D02*
X4270063Y-13776484D01*
X4270063Y-13776484D02*
X4251015Y-13766960D01*
X4251015Y-13766960D02*
X4241491Y-13757436D01*
X4241491Y-13757436D02*
X4231967Y-13738388D01*
X4231967Y-13738388D02*
X4222444Y-13700293D01*
X4222444Y-13700293D02*
X4222444Y-13652674D01*
X4222444Y-13652674D02*
X4231967Y-13614579D01*
X4231967Y-13614579D02*
X4241491Y-13595531D01*
X4241491Y-13595531D02*
X4251015Y-13586008D01*
X4251015Y-13586008D02*
X4270063Y-13576484D01*
X4460539Y-13576484D02*
X4479586Y-13576484D01*
X4479586Y-13576484D02*
X4498634Y-13586008D01*
X4498634Y-13586008D02*
X4508158Y-13595531D01*
X4508158Y-13595531D02*
X4517682Y-13614579D01*
X4517682Y-13614579D02*
X4527205Y-13652674D01*
X4527205Y-13652674D02*
X4527205Y-13700293D01*
X4527205Y-13700293D02*
X4517682Y-13738388D01*
X4517682Y-13738388D02*
X4508158Y-13757436D01*
X4508158Y-13757436D02*
X4498634Y-13766960D01*
X4498634Y-13766960D02*
X4479586Y-13776484D01*
X4479586Y-13776484D02*
X4460539Y-13776484D01*
X4460539Y-13776484D02*
X4441491Y-13766960D01*
X4441491Y-13766960D02*
X4431967Y-13757436D01*
X4431967Y-13757436D02*
X4422444Y-13738388D01*
X4422444Y-13738388D02*
X4412920Y-13700293D01*
X4412920Y-13700293D02*
X4412920Y-13652674D01*
X4412920Y-13652674D02*
X4422444Y-13614579D01*
X4422444Y-13614579D02*
X4431967Y-13595531D01*
X4431967Y-13595531D02*
X4441491Y-13586008D01*
X4441491Y-13586008D02*
X4460539Y-13576484D01*
X4612920Y-13776484D02*
X4612920Y-13643150D01*
X4612920Y-13662198D02*
X4622444Y-13652674D01*
X4622444Y-13652674D02*
X4641491Y-13643150D01*
X4641491Y-13643150D02*
X4670063Y-13643150D01*
X4670063Y-13643150D02*
X4689110Y-13652674D01*
X4689110Y-13652674D02*
X4698634Y-13671722D01*
X4698634Y-13671722D02*
X4698634Y-13776484D01*
X4698634Y-13671722D02*
X4708158Y-13652674D01*
X4708158Y-13652674D02*
X4727205Y-13643150D01*
X4727205Y-13643150D02*
X4755777Y-13643150D01*
X4755777Y-13643150D02*
X4774825Y-13652674D01*
X4774825Y-13652674D02*
X4784348Y-13671722D01*
X4784348Y-13671722D02*
X4784348Y-13776484D01*
X4879586Y-13776484D02*
X4879586Y-13643150D01*
X4879586Y-13662198D02*
X4889110Y-13652674D01*
X4889110Y-13652674D02*
X4908158Y-13643150D01*
X4908158Y-13643150D02*
X4936729Y-13643150D01*
X4936729Y-13643150D02*
X4955777Y-13652674D01*
X4955777Y-13652674D02*
X4965301Y-13671722D01*
X4965301Y-13671722D02*
X4965301Y-13776484D01*
X4965301Y-13671722D02*
X4974825Y-13652674D01*
X4974825Y-13652674D02*
X4993872Y-13643150D01*
X4993872Y-13643150D02*
X5022444Y-13643150D01*
X5022444Y-13643150D02*
X5041491Y-13652674D01*
X5041491Y-13652674D02*
X5051015Y-13671722D01*
X5051015Y-13671722D02*
X5051015Y-13776484D01*
X5441491Y-13566960D02*
X5270063Y-13824103D01*
X5698634Y-13576484D02*
X5717682Y-13576484D01*
X5717682Y-13576484D02*
X5736729Y-13586008D01*
X5736729Y-13586008D02*
X5746253Y-13595531D01*
X5746253Y-13595531D02*
X5755777Y-13614579D01*
X5755777Y-13614579D02*
X5765301Y-13652674D01*
X5765301Y-13652674D02*
X5765301Y-13700293D01*
X5765301Y-13700293D02*
X5755777Y-13738388D01*
X5755777Y-13738388D02*
X5746253Y-13757436D01*
X5746253Y-13757436D02*
X5736729Y-13766960D01*
X5736729Y-13766960D02*
X5717682Y-13776484D01*
X5717682Y-13776484D02*
X5698634Y-13776484D01*
X5698634Y-13776484D02*
X5679586Y-13766960D01*
X5679586Y-13766960D02*
X5670063Y-13757436D01*
X5670063Y-13757436D02*
X5660539Y-13738388D01*
X5660539Y-13738388D02*
X5651015Y-13700293D01*
X5651015Y-13700293D02*
X5651015Y-13652674D01*
X5651015Y-13652674D02*
X5660539Y-13614579D01*
X5660539Y-13614579D02*
X5670063Y-13595531D01*
X5670063Y-13595531D02*
X5679586Y-13586008D01*
X5679586Y-13586008D02*
X5698634Y-13576484D01*
X5851015Y-13757436D02*
X5860539Y-13766960D01*
X5860539Y-13766960D02*
X5851015Y-13776484D01*
X5851015Y-13776484D02*
X5841491Y-13766960D01*
X5841491Y-13766960D02*
X5851015Y-13757436D01*
X5851015Y-13757436D02*
X5851015Y-13776484D01*
X6051015Y-13776484D02*
X5936729Y-13776484D01*
X5993872Y-13776484D02*
X5993872Y-13576484D01*
X5993872Y-13576484D02*
X5974825Y-13605055D01*
X5974825Y-13605055D02*
X5955777Y-13624103D01*
X5955777Y-13624103D02*
X5936729Y-13633627D01*
X6241491Y-13776484D02*
X6127206Y-13776484D01*
X6184348Y-13776484D02*
X6184348Y-13576484D01*
X6184348Y-13576484D02*
X6165301Y-13605055D01*
X6165301Y-13605055D02*
X6146253Y-13624103D01*
X6146253Y-13624103D02*
X6127206Y-13633627D01*
X6355777Y-13662198D02*
X6336729Y-13652674D01*
X6336729Y-13652674D02*
X6327206Y-13643150D01*
X6327206Y-13643150D02*
X6317682Y-13624103D01*
X6317682Y-13624103D02*
X6317682Y-13614579D01*
X6317682Y-13614579D02*
X6327206Y-13595531D01*
X6327206Y-13595531D02*
X6336729Y-13586008D01*
X6336729Y-13586008D02*
X6355777Y-13576484D01*
X6355777Y-13576484D02*
X6393872Y-13576484D01*
X6393872Y-13576484D02*
X6412920Y-13586008D01*
X6412920Y-13586008D02*
X6422444Y-13595531D01*
X6422444Y-13595531D02*
X6431967Y-13614579D01*
X6431967Y-13614579D02*
X6431967Y-13624103D01*
X6431967Y-13624103D02*
X6422444Y-13643150D01*
X6422444Y-13643150D02*
X6412920Y-13652674D01*
X6412920Y-13652674D02*
X6393872Y-13662198D01*
X6393872Y-13662198D02*
X6355777Y-13662198D01*
X6355777Y-13662198D02*
X6336729Y-13671722D01*
X6336729Y-13671722D02*
X6327206Y-13681246D01*
X6327206Y-13681246D02*
X6317682Y-13700293D01*
X6317682Y-13700293D02*
X6317682Y-13738388D01*
X6317682Y-13738388D02*
X6327206Y-13757436D01*
X6327206Y-13757436D02*
X6336729Y-13766960D01*
X6336729Y-13766960D02*
X6355777Y-13776484D01*
X6355777Y-13776484D02*
X6393872Y-13776484D01*
X6393872Y-13776484D02*
X6412920Y-13766960D01*
X6412920Y-13766960D02*
X6422444Y-13757436D01*
X6422444Y-13757436D02*
X6431967Y-13738388D01*
X6431967Y-13738388D02*
X6431967Y-13700293D01*
X6431967Y-13700293D02*
X6422444Y-13681246D01*
X6422444Y-13681246D02*
X6412920Y-13671722D01*
X6412920Y-13671722D02*
X6393872Y-13662198D01*
X6622444Y-13776484D02*
X6508158Y-13776484D01*
X6565301Y-13776484D02*
X6565301Y-13576484D01*
X6565301Y-13576484D02*
X6546253Y-13605055D01*
X6546253Y-13605055D02*
X6527206Y-13624103D01*
X6527206Y-13624103D02*
X6508158Y-13633627D01*
X6698634Y-13576484D02*
X6698634Y-13614579D01*
X6774825Y-13576484D02*
X6774825Y-13614579D01*
X7070063Y-13852674D02*
X7060539Y-13843150D01*
X7060539Y-13843150D02*
X7041491Y-13814579D01*
X7041491Y-13814579D02*
X7031968Y-13795531D01*
X7031968Y-13795531D02*
X7022444Y-13766960D01*
X7022444Y-13766960D02*
X7012920Y-13719341D01*
X7012920Y-13719341D02*
X7012920Y-13681246D01*
X7012920Y-13681246D02*
X7022444Y-13633627D01*
X7022444Y-13633627D02*
X7031968Y-13605055D01*
X7031968Y-13605055D02*
X7041491Y-13586008D01*
X7041491Y-13586008D02*
X7060539Y-13557436D01*
X7060539Y-13557436D02*
X7070063Y-13547912D01*
X7127206Y-13576484D02*
X7251015Y-13576484D01*
X7251015Y-13576484D02*
X7184348Y-13652674D01*
X7184348Y-13652674D02*
X7212920Y-13652674D01*
X7212920Y-13652674D02*
X7231968Y-13662198D01*
X7231968Y-13662198D02*
X7241491Y-13671722D01*
X7241491Y-13671722D02*
X7251015Y-13690769D01*
X7251015Y-13690769D02*
X7251015Y-13738388D01*
X7251015Y-13738388D02*
X7241491Y-13757436D01*
X7241491Y-13757436D02*
X7231968Y-13766960D01*
X7231968Y-13766960D02*
X7212920Y-13776484D01*
X7212920Y-13776484D02*
X7155777Y-13776484D01*
X7155777Y-13776484D02*
X7136729Y-13766960D01*
X7136729Y-13766960D02*
X7127206Y-13757436D01*
X7489110Y-13776484D02*
X7489110Y-13576484D01*
X7574825Y-13776484D02*
X7574825Y-13671722D01*
X7574825Y-13671722D02*
X7565301Y-13652674D01*
X7565301Y-13652674D02*
X7546253Y-13643150D01*
X7546253Y-13643150D02*
X7517682Y-13643150D01*
X7517682Y-13643150D02*
X7498634Y-13652674D01*
X7498634Y-13652674D02*
X7489110Y-13662198D01*
X7698634Y-13776484D02*
X7679587Y-13766960D01*
X7679587Y-13766960D02*
X7670063Y-13757436D01*
X7670063Y-13757436D02*
X7660539Y-13738388D01*
X7660539Y-13738388D02*
X7660539Y-13681246D01*
X7660539Y-13681246D02*
X7670063Y-13662198D01*
X7670063Y-13662198D02*
X7679587Y-13652674D01*
X7679587Y-13652674D02*
X7698634Y-13643150D01*
X7698634Y-13643150D02*
X7727206Y-13643150D01*
X7727206Y-13643150D02*
X7746253Y-13652674D01*
X7746253Y-13652674D02*
X7755777Y-13662198D01*
X7755777Y-13662198D02*
X7765301Y-13681246D01*
X7765301Y-13681246D02*
X7765301Y-13738388D01*
X7765301Y-13738388D02*
X7755777Y-13757436D01*
X7755777Y-13757436D02*
X7746253Y-13766960D01*
X7746253Y-13766960D02*
X7727206Y-13776484D01*
X7727206Y-13776484D02*
X7698634Y-13776484D01*
X7879587Y-13776484D02*
X7860539Y-13766960D01*
X7860539Y-13766960D02*
X7851015Y-13747912D01*
X7851015Y-13747912D02*
X7851015Y-13576484D01*
X8031968Y-13766960D02*
X8012920Y-13776484D01*
X8012920Y-13776484D02*
X7974825Y-13776484D01*
X7974825Y-13776484D02*
X7955777Y-13766960D01*
X7955777Y-13766960D02*
X7946253Y-13747912D01*
X7946253Y-13747912D02*
X7946253Y-13671722D01*
X7946253Y-13671722D02*
X7955777Y-13652674D01*
X7955777Y-13652674D02*
X7974825Y-13643150D01*
X7974825Y-13643150D02*
X8012920Y-13643150D01*
X8012920Y-13643150D02*
X8031968Y-13652674D01*
X8031968Y-13652674D02*
X8041491Y-13671722D01*
X8041491Y-13671722D02*
X8041491Y-13690769D01*
X8041491Y-13690769D02*
X7946253Y-13709817D01*
X8117682Y-13766960D02*
X8136730Y-13776484D01*
X8136730Y-13776484D02*
X8174825Y-13776484D01*
X8174825Y-13776484D02*
X8193872Y-13766960D01*
X8193872Y-13766960D02*
X8203396Y-13747912D01*
X8203396Y-13747912D02*
X8203396Y-13738388D01*
X8203396Y-13738388D02*
X8193872Y-13719341D01*
X8193872Y-13719341D02*
X8174825Y-13709817D01*
X8174825Y-13709817D02*
X8146253Y-13709817D01*
X8146253Y-13709817D02*
X8127206Y-13700293D01*
X8127206Y-13700293D02*
X8117682Y-13681246D01*
X8117682Y-13681246D02*
X8117682Y-13671722D01*
X8117682Y-13671722D02*
X8127206Y-13652674D01*
X8127206Y-13652674D02*
X8146253Y-13643150D01*
X8146253Y-13643150D02*
X8174825Y-13643150D01*
X8174825Y-13643150D02*
X8193872Y-13652674D01*
X8270063Y-13852674D02*
X8279587Y-13843150D01*
X8279587Y-13843150D02*
X8298634Y-13814579D01*
X8298634Y-13814579D02*
X8308158Y-13795531D01*
X8308158Y-13795531D02*
X8317682Y-13766960D01*
X8317682Y-13766960D02*
X8327206Y-13719341D01*
X8327206Y-13719341D02*
X8327206Y-13681246D01*
X8327206Y-13681246D02*
X8317682Y-13633627D01*
X8317682Y-13633627D02*
X8308158Y-13605055D01*
X8308158Y-13605055D02*
X8298634Y-13586008D01*
X8298634Y-13586008D02*
X8279587Y-13557436D01*
X8279587Y-13557436D02*
X8270063Y-13547912D01*
X8631968Y-13852674D02*
X8622444Y-13843150D01*
X8622444Y-13843150D02*
X8603396Y-13814579D01*
X8603396Y-13814579D02*
X8593873Y-13795531D01*
X8593873Y-13795531D02*
X8584349Y-13766960D01*
X8584349Y-13766960D02*
X8574825Y-13719341D01*
X8574825Y-13719341D02*
X8574825Y-13681246D01*
X8574825Y-13681246D02*
X8584349Y-13633627D01*
X8584349Y-13633627D02*
X8593873Y-13605055D01*
X8593873Y-13605055D02*
X8603396Y-13586008D01*
X8603396Y-13586008D02*
X8622444Y-13557436D01*
X8622444Y-13557436D02*
X8631968Y-13547912D01*
X8708158Y-13643150D02*
X8708158Y-13776484D01*
X8708158Y-13662198D02*
X8717682Y-13652674D01*
X8717682Y-13652674D02*
X8736730Y-13643150D01*
X8736730Y-13643150D02*
X8765301Y-13643150D01*
X8765301Y-13643150D02*
X8784349Y-13652674D01*
X8784349Y-13652674D02*
X8793873Y-13671722D01*
X8793873Y-13671722D02*
X8793873Y-13776484D01*
X8917682Y-13776484D02*
X8898634Y-13766960D01*
X8898634Y-13766960D02*
X8889111Y-13757436D01*
X8889111Y-13757436D02*
X8879587Y-13738388D01*
X8879587Y-13738388D02*
X8879587Y-13681246D01*
X8879587Y-13681246D02*
X8889111Y-13662198D01*
X8889111Y-13662198D02*
X8898634Y-13652674D01*
X8898634Y-13652674D02*
X8917682Y-13643150D01*
X8917682Y-13643150D02*
X8946254Y-13643150D01*
X8946254Y-13643150D02*
X8965301Y-13652674D01*
X8965301Y-13652674D02*
X8974825Y-13662198D01*
X8974825Y-13662198D02*
X8984349Y-13681246D01*
X8984349Y-13681246D02*
X8984349Y-13738388D01*
X8984349Y-13738388D02*
X8974825Y-13757436D01*
X8974825Y-13757436D02*
X8965301Y-13766960D01*
X8965301Y-13766960D02*
X8946254Y-13776484D01*
X8946254Y-13776484D02*
X8917682Y-13776484D01*
X9041492Y-13643150D02*
X9117682Y-13643150D01*
X9070063Y-13576484D02*
X9070063Y-13747912D01*
X9070063Y-13747912D02*
X9079587Y-13766960D01*
X9079587Y-13766960D02*
X9098634Y-13776484D01*
X9098634Y-13776484D02*
X9117682Y-13776484D01*
X9336730Y-13643150D02*
X9336730Y-13843150D01*
X9336730Y-13652674D02*
X9355777Y-13643150D01*
X9355777Y-13643150D02*
X9393873Y-13643150D01*
X9393873Y-13643150D02*
X9412920Y-13652674D01*
X9412920Y-13652674D02*
X9422444Y-13662198D01*
X9422444Y-13662198D02*
X9431968Y-13681246D01*
X9431968Y-13681246D02*
X9431968Y-13738388D01*
X9431968Y-13738388D02*
X9422444Y-13757436D01*
X9422444Y-13757436D02*
X9412920Y-13766960D01*
X9412920Y-13766960D02*
X9393873Y-13776484D01*
X9393873Y-13776484D02*
X9355777Y-13776484D01*
X9355777Y-13776484D02*
X9336730Y-13766960D01*
X9546254Y-13776484D02*
X9527206Y-13766960D01*
X9527206Y-13766960D02*
X9517682Y-13747912D01*
X9517682Y-13747912D02*
X9517682Y-13576484D01*
X9708158Y-13776484D02*
X9708158Y-13671722D01*
X9708158Y-13671722D02*
X9698635Y-13652674D01*
X9698635Y-13652674D02*
X9679587Y-13643150D01*
X9679587Y-13643150D02*
X9641492Y-13643150D01*
X9641492Y-13643150D02*
X9622444Y-13652674D01*
X9708158Y-13766960D02*
X9689111Y-13776484D01*
X9689111Y-13776484D02*
X9641492Y-13776484D01*
X9641492Y-13776484D02*
X9622444Y-13766960D01*
X9622444Y-13766960D02*
X9612920Y-13747912D01*
X9612920Y-13747912D02*
X9612920Y-13728865D01*
X9612920Y-13728865D02*
X9622444Y-13709817D01*
X9622444Y-13709817D02*
X9641492Y-13700293D01*
X9641492Y-13700293D02*
X9689111Y-13700293D01*
X9689111Y-13700293D02*
X9708158Y-13690769D01*
X9774825Y-13643150D02*
X9851015Y-13643150D01*
X9803396Y-13576484D02*
X9803396Y-13747912D01*
X9803396Y-13747912D02*
X9812920Y-13766960D01*
X9812920Y-13766960D02*
X9831968Y-13776484D01*
X9831968Y-13776484D02*
X9851015Y-13776484D01*
X9993873Y-13766960D02*
X9974825Y-13776484D01*
X9974825Y-13776484D02*
X9936730Y-13776484D01*
X9936730Y-13776484D02*
X9917682Y-13766960D01*
X9917682Y-13766960D02*
X9908158Y-13747912D01*
X9908158Y-13747912D02*
X9908158Y-13671722D01*
X9908158Y-13671722D02*
X9917682Y-13652674D01*
X9917682Y-13652674D02*
X9936730Y-13643150D01*
X9936730Y-13643150D02*
X9974825Y-13643150D01*
X9974825Y-13643150D02*
X9993873Y-13652674D01*
X9993873Y-13652674D02*
X10003396Y-13671722D01*
X10003396Y-13671722D02*
X10003396Y-13690769D01*
X10003396Y-13690769D02*
X9908158Y-13709817D01*
X10174825Y-13776484D02*
X10174825Y-13576484D01*
X10174825Y-13766960D02*
X10155777Y-13776484D01*
X10155777Y-13776484D02*
X10117682Y-13776484D01*
X10117682Y-13776484D02*
X10098635Y-13766960D01*
X10098635Y-13766960D02*
X10089111Y-13757436D01*
X10089111Y-13757436D02*
X10079587Y-13738388D01*
X10079587Y-13738388D02*
X10079587Y-13681246D01*
X10079587Y-13681246D02*
X10089111Y-13662198D01*
X10089111Y-13662198D02*
X10098635Y-13652674D01*
X10098635Y-13652674D02*
X10117682Y-13643150D01*
X10117682Y-13643150D02*
X10155777Y-13643150D01*
X10155777Y-13643150D02*
X10174825Y-13652674D01*
X10251016Y-13852674D02*
X10260539Y-13843150D01*
X10260539Y-13843150D02*
X10279587Y-13814579D01*
X10279587Y-13814579D02*
X10289111Y-13795531D01*
X10289111Y-13795531D02*
X10298635Y-13766960D01*
X10298635Y-13766960D02*
X10308158Y-13719341D01*
X10308158Y-13719341D02*
X10308158Y-13681246D01*
X10308158Y-13681246D02*
X10298635Y-13633627D01*
X10298635Y-13633627D02*
X10289111Y-13605055D01*
X10289111Y-13605055D02*
X10279587Y-13586008D01*
X10279587Y-13586008D02*
X10260539Y-13557436D01*
X10260539Y-13557436D02*
X10251016Y-13547912D01*
M02*
