%TF.GenerationSoftware,KiCad,Pcbnew,9.0.6*%
%TF.CreationDate,2025-12-16T14:31:59+01:00*%
%TF.ProjectId,target,74617267-6574-42e6-9b69-6361645f7063,rev?*%
%TF.SameCoordinates,Original*%
%TF.FileFunction,Paste,Top*%
%TF.FilePolarity,Positive*%
%FSLAX46Y46*%
G04 Gerber Fmt 4.6, Leading zero omitted, Abs format (unit mm)*
G04 Created by KiCad (PCBNEW 9.0.6) date 2025-12-16 14:31:59*
%MOMM*%
%LPD*%
G01*
G04 APERTURE LIST*
G04 Aperture macros list*
%AMRoundRect*
0 Rectangle with rounded corners*
0 $1 Rounding radius*
0 $2 $3 $4 $5 $6 $7 $8 $9 X,Y pos of 4 corners*
0 Add a 4 corners polygon primitive as box body*
4,1,4,$2,$3,$4,$5,$6,$7,$8,$9,$2,$3,0*
0 Add four circle primitives for the rounded corners*
1,1,$1+$1,$2,$3*
1,1,$1+$1,$4,$5*
1,1,$1+$1,$6,$7*
1,1,$1+$1,$8,$9*
0 Add four rect primitives between the rounded corners*
20,1,$1+$1,$2,$3,$4,$5,0*
20,1,$1+$1,$4,$5,$6,$7,0*
20,1,$1+$1,$6,$7,$8,$9,0*
20,1,$1+$1,$8,$9,$2,$3,0*%
G04 Aperture macros list end*
%ADD10C,0.000000*%
%ADD11RoundRect,0.600000X-1.400000X1.400000X-1.400000X-1.400000X1.400000X-1.400000X1.400000X1.400000X0*%
%ADD12RoundRect,0.285750X-0.666750X-1.714250X0.666750X-1.714250X0.666750X1.714250X-0.666750X1.714250X0*%
%ADD13RoundRect,0.300000X-1.200000X0.700000X-1.200000X-0.700000X1.200000X-0.700000X1.200000X0.700000X0*%
%ADD14RoundRect,0.250000X-0.450000X0.262500X-0.450000X-0.262500X0.450000X-0.262500X0.450000X0.262500X0*%
%ADD15RoundRect,0.250000X-0.650000X1.000000X-0.650000X-1.000000X0.650000X-1.000000X0.650000X1.000000X0*%
%ADD16RoundRect,0.250000X0.250000X0.475000X-0.250000X0.475000X-0.250000X-0.475000X0.250000X-0.475000X0*%
%ADD17RoundRect,0.250000X0.650000X-1.000000X0.650000X1.000000X-0.650000X1.000000X-0.650000X-1.000000X0*%
%ADD18RoundRect,0.250000X2.475000X-0.712500X2.475000X0.712500X-2.475000X0.712500X-2.475000X-0.712500X0*%
%ADD19RoundRect,0.250000X-0.325000X-0.650000X0.325000X-0.650000X0.325000X0.650000X-0.325000X0.650000X0*%
%ADD20RoundRect,0.175000X-0.175000X-0.325000X0.175000X-0.325000X0.175000X0.325000X-0.175000X0.325000X0*%
%ADD21RoundRect,0.150000X-0.200000X-0.150000X0.200000X-0.150000X0.200000X0.150000X-0.200000X0.150000X0*%
%ADD22R,1.400000X1.000000*%
%ADD23RoundRect,0.150000X-0.587500X-0.150000X0.587500X-0.150000X0.587500X0.150000X-0.587500X0.150000X0*%
%ADD24R,0.250000X0.850000*%
%ADD25R,0.850000X0.250000*%
%ADD26R,2.600000X2.600000*%
G04 APERTURE END LIST*
D10*
%TO.C,U1*%
G36*
X59400000Y-70875000D02*
G01*
X58550000Y-70875000D01*
X58550000Y-70625000D01*
X59400000Y-70625000D01*
X59400000Y-70875000D01*
G37*
G36*
X59400000Y-71375000D02*
G01*
X58550000Y-71375000D01*
X58550000Y-71125000D01*
X59400000Y-71125000D01*
X59400000Y-71375000D01*
G37*
G36*
X59400000Y-71875000D02*
G01*
X58550000Y-71875000D01*
X58550000Y-71625000D01*
X59400000Y-71625000D01*
X59400000Y-71875000D01*
G37*
G36*
X59400000Y-72375000D02*
G01*
X58550000Y-72375000D01*
X58550000Y-72125000D01*
X59400000Y-72125000D01*
X59400000Y-72375000D01*
G37*
G36*
X59400000Y-72875000D02*
G01*
X58550000Y-72875000D01*
X58550000Y-72625000D01*
X59400000Y-72625000D01*
X59400000Y-72875000D01*
G37*
G36*
X59400000Y-73375000D02*
G01*
X58550000Y-73375000D01*
X58550000Y-73125000D01*
X59400000Y-73125000D01*
X59400000Y-73375000D01*
G37*
G36*
X59875000Y-74450000D02*
G01*
X59625000Y-74450000D01*
X59625000Y-73600000D01*
X59875000Y-73600000D01*
X59875000Y-74450000D01*
G37*
G36*
X59875000Y-70400000D02*
G01*
X59625000Y-70400000D01*
X59625000Y-69550000D01*
X59875000Y-69550000D01*
X59875000Y-70400000D01*
G37*
G36*
X62040000Y-73040000D02*
G01*
X59960000Y-73040000D01*
X59960000Y-70960000D01*
X62040000Y-70960000D01*
X62040000Y-73040000D01*
G37*
G36*
X60375000Y-70400000D02*
G01*
X60125000Y-70400000D01*
X60125000Y-69550000D01*
X60375000Y-69550000D01*
X60375000Y-70400000D01*
G37*
G36*
X60375000Y-74450000D02*
G01*
X60125000Y-74450000D01*
X60125000Y-73600000D01*
X60375000Y-73600000D01*
X60375000Y-74450000D01*
G37*
G36*
X60875000Y-70400000D02*
G01*
X60625000Y-70400000D01*
X60625000Y-69550000D01*
X60875000Y-69550000D01*
X60875000Y-70400000D01*
G37*
G36*
X60875000Y-74450000D02*
G01*
X60625000Y-74450000D01*
X60625000Y-73600000D01*
X60875000Y-73600000D01*
X60875000Y-74450000D01*
G37*
G36*
X61375000Y-70400000D02*
G01*
X61125000Y-70400000D01*
X61125000Y-69550000D01*
X61375000Y-69550000D01*
X61375000Y-70400000D01*
G37*
G36*
X61375000Y-74450000D02*
G01*
X61125000Y-74450000D01*
X61125000Y-73600000D01*
X61375000Y-73600000D01*
X61375000Y-74450000D01*
G37*
G36*
X61875000Y-70400000D02*
G01*
X61625000Y-70400000D01*
X61625000Y-69550000D01*
X61875000Y-69550000D01*
X61875000Y-70400000D01*
G37*
G36*
X61875000Y-74450000D02*
G01*
X61625000Y-74450000D01*
X61625000Y-73600000D01*
X61875000Y-73600000D01*
X61875000Y-74450000D01*
G37*
G36*
X62375000Y-74450000D02*
G01*
X62125000Y-74450000D01*
X62125000Y-73600000D01*
X62375000Y-73600000D01*
X62375000Y-74450000D01*
G37*
G36*
X62375000Y-70400000D02*
G01*
X62125000Y-70400000D01*
X62125000Y-69550000D01*
X62375000Y-69550000D01*
X62375000Y-70400000D01*
G37*
G36*
X63450000Y-72375000D02*
G01*
X62600000Y-72375000D01*
X62600000Y-72125000D01*
X63450000Y-72125000D01*
X63450000Y-72375000D01*
G37*
G36*
X63450000Y-72875000D02*
G01*
X62600000Y-72875000D01*
X62600000Y-72625000D01*
X63450000Y-72625000D01*
X63450000Y-72875000D01*
G37*
G36*
X63450000Y-70875000D02*
G01*
X62600000Y-70875000D01*
X62600000Y-70625000D01*
X63450000Y-70625000D01*
X63450000Y-70875000D01*
G37*
G36*
X63450000Y-71375000D02*
G01*
X62600000Y-71375000D01*
X62600000Y-71125000D01*
X63450000Y-71125000D01*
X63450000Y-71375000D01*
G37*
G36*
X63450000Y-71875000D02*
G01*
X62600000Y-71875000D01*
X62600000Y-71625000D01*
X63450000Y-71625000D01*
X63450000Y-71875000D01*
G37*
G36*
X63450000Y-73375000D02*
G01*
X62600000Y-73375000D01*
X62600000Y-73125000D01*
X63450000Y-73125000D01*
X63450000Y-73375000D01*
G37*
%TD*%
D11*
%TO.C,J2*%
X77000000Y-81000000D03*
X77000000Y-89000000D03*
X77000000Y-97000000D03*
X77000000Y-105000000D03*
X77000000Y-113000000D03*
X77000000Y-121000000D03*
%TD*%
D12*
%TO.C,U2*%
X61460000Y-48000000D03*
X64000000Y-48000000D03*
X66540000Y-48000000D03*
%TD*%
D13*
%TO.C,J3*%
X77000000Y-62750000D03*
X77000000Y-67000000D03*
X77000000Y-71250000D03*
%TD*%
D14*
%TO.C,10kR*%
X72000000Y-61087500D03*
X72000000Y-62912500D03*
%TD*%
D15*
%TO.C,SMAJ6.0CA*%
X71000000Y-117000000D03*
X71000000Y-121000000D03*
%TD*%
D16*
%TO.C,10nF*%
X49950000Y-64000000D03*
X48050000Y-64000000D03*
%TD*%
D17*
%TO.C,SMAJ6.0CA*%
X71000000Y-85000000D03*
X71000000Y-81000000D03*
%TD*%
D13*
%TO.C,J4*%
X40000000Y-62750000D03*
X40000000Y-67000000D03*
X40000000Y-71250000D03*
%TD*%
D18*
%TO.C,F1*%
X49000000Y-84387500D03*
X49000000Y-77612500D03*
%TD*%
D17*
%TO.C,D1*%
X67000000Y-61000000D03*
X67000000Y-57000000D03*
%TD*%
D19*
%TO.C,100uF*%
X51525000Y-74000000D03*
X54475000Y-74000000D03*
%TD*%
D11*
%TO.C,J1*%
X40000000Y-81000000D03*
X40000000Y-89000000D03*
X40000000Y-97000000D03*
X40000000Y-105000000D03*
X40000000Y-113000000D03*
X40000000Y-121000000D03*
%TD*%
D14*
%TO.C,47kR*%
X75000000Y-57000000D03*
X75000000Y-58825000D03*
%TD*%
%TO.C,10kR*%
X57000000Y-58087500D03*
X57000000Y-59912500D03*
%TD*%
D20*
%TO.C,D21*%
X70000000Y-95250000D03*
D21*
X70000000Y-96950000D03*
X72000000Y-96950000D03*
X72000000Y-95050000D03*
%TD*%
D20*
%TO.C,D18*%
X70000000Y-103250000D03*
D21*
X70000000Y-104950000D03*
X72000000Y-104950000D03*
X72000000Y-103050000D03*
%TD*%
D14*
%TO.C,1MR*%
X53000000Y-58175000D03*
X53000000Y-60000000D03*
%TD*%
D22*
%TO.C,Q1*%
X72600000Y-67450000D03*
X72600000Y-65550000D03*
X70400000Y-66500000D03*
%TD*%
D23*
%TO.C,D20*%
X48125000Y-59050000D03*
X48125000Y-60950000D03*
X50000000Y-60000000D03*
%TD*%
D24*
%TO.C,U1*%
X62250000Y-69975000D03*
X61750000Y-69975000D03*
X61250000Y-69975000D03*
X60750000Y-69975000D03*
X60250000Y-69975000D03*
X59750000Y-69975000D03*
D25*
X58975000Y-70750000D03*
X58975000Y-71250000D03*
X58975000Y-71750000D03*
X58975000Y-72250000D03*
X58975000Y-72750000D03*
X58975000Y-73250000D03*
D24*
X59750000Y-74025000D03*
X60250000Y-74025000D03*
X60750000Y-74025000D03*
X61250000Y-74025000D03*
X61750000Y-74025000D03*
X62250000Y-74025000D03*
D25*
X63025000Y-73250000D03*
X63025000Y-72750000D03*
X63025000Y-72250000D03*
X63025000Y-71750000D03*
X63025000Y-71250000D03*
X63025000Y-70750000D03*
D26*
X61000000Y-72000500D03*
%TD*%
M02*
