%TF.GenerationSoftware,KiCad,Pcbnew,9.0.6*%
%TF.CreationDate,2025-12-16T14:31:59+01:00*%
%TF.ProjectId,target,74617267-6574-42e6-9b69-6361645f7063,rev?*%
%TF.SameCoordinates,Original*%
%TF.FileFunction,Legend,Bot*%
%TF.FilePolarity,Positive*%
%FSLAX46Y46*%
G04 Gerber Fmt 4.6, Leading zero omitted, Abs format (unit mm)*
G04 Created by KiCad (PCBNEW 9.0.6) date 2025-12-16 14:31:59*
%MOMM*%
%LPD*%
G01*
G04 APERTURE LIST*
G04 Aperture macros list*
%AMRoundRect*
0 Rectangle with rounded corners*
0 $1 Rounding radius*
0 $2 $3 $4 $5 $6 $7 $8 $9 X,Y pos of 4 corners*
0 Add a 4 corners polygon primitive as box body*
4,1,4,$2,$3,$4,$5,$6,$7,$8,$9,$2,$3,0*
0 Add four circle primitives for the rounded corners*
1,1,$1+$1,$2,$3*
1,1,$1+$1,$4,$5*
1,1,$1+$1,$6,$7*
1,1,$1+$1,$8,$9*
0 Add four rect primitives between the rounded corners*
20,1,$1+$1,$2,$3,$4,$5,0*
20,1,$1+$1,$4,$5,$6,$7,0*
20,1,$1+$1,$6,$7,$8,$9,0*
20,1,$1+$1,$8,$9,$2,$3,0*%
G04 Aperture macros list end*
%ADD10C,0.000000*%
%ADD11O,3.000000X3.000000*%
%ADD12C,2.000000*%
%ADD13C,2.200000*%
%ADD14RoundRect,0.250000X-0.550000X-0.550000X0.550000X-0.550000X0.550000X0.550000X-0.550000X0.550000X0*%
%ADD15C,1.600000*%
G04 APERTURE END LIST*
D10*
G36*
X59280222Y-68711781D02*
G01*
X59677217Y-68728531D01*
X60071322Y-68756262D01*
X60462388Y-68794820D01*
X60850268Y-68844054D01*
X61234812Y-68903811D01*
X61615872Y-68973939D01*
X61993300Y-69054285D01*
X62366947Y-69144697D01*
X62736664Y-69245022D01*
X63102304Y-69355109D01*
X63463718Y-69474804D01*
X63820757Y-69603956D01*
X64173272Y-69742412D01*
X64521116Y-69890019D01*
X64864140Y-70046625D01*
X64864140Y-70415779D01*
X64864140Y-71584912D01*
X63889781Y-72559271D01*
X63604111Y-72423172D01*
X63314157Y-72294855D01*
X63020053Y-72174459D01*
X62721935Y-72062120D01*
X62419937Y-71957977D01*
X62114195Y-71862167D01*
X61804843Y-71774828D01*
X61492015Y-71696098D01*
X61175848Y-71626115D01*
X60856476Y-71565016D01*
X60534033Y-71512938D01*
X60208655Y-71470021D01*
X59880476Y-71436401D01*
X59549632Y-71412216D01*
X59216257Y-71397604D01*
X58880486Y-71392703D01*
X58296956Y-71407508D01*
X57720986Y-71451447D01*
X57153295Y-71523798D01*
X56594601Y-71623844D01*
X56045623Y-71750865D01*
X55507082Y-71904142D01*
X54979696Y-72082956D01*
X54464183Y-72286587D01*
X53961264Y-72514318D01*
X53471657Y-72765428D01*
X52996082Y-73039198D01*
X52535257Y-73334910D01*
X52089901Y-73651844D01*
X51660734Y-73989281D01*
X51248475Y-74346503D01*
X50853842Y-74722789D01*
X50477556Y-75117422D01*
X50120334Y-75529681D01*
X49782897Y-75958848D01*
X49465963Y-76404204D01*
X49170251Y-76865029D01*
X48896481Y-77340605D01*
X48645371Y-77830212D01*
X48417641Y-78333131D01*
X48214009Y-78848643D01*
X48035195Y-79376030D01*
X47881918Y-79914571D01*
X47754897Y-80463548D01*
X47654852Y-81022242D01*
X47582500Y-81589934D01*
X47538562Y-82165904D01*
X47523756Y-82749434D01*
X47538562Y-83332963D01*
X47582500Y-83908933D01*
X47654852Y-84476625D01*
X47754897Y-85035319D01*
X47881918Y-85584296D01*
X48035195Y-86122837D01*
X48214009Y-86650224D01*
X48417641Y-87165736D01*
X48645371Y-87668655D01*
X48896481Y-88158262D01*
X49170251Y-88633838D01*
X49465963Y-89094663D01*
X49782897Y-89540019D01*
X50120334Y-89969186D01*
X50477556Y-90381445D01*
X50853842Y-90776077D01*
X51248475Y-91152364D01*
X51660734Y-91509586D01*
X52089901Y-91847023D01*
X52535257Y-92163957D01*
X52996082Y-92459669D01*
X53471657Y-92733439D01*
X53961264Y-92984549D01*
X54464183Y-93212280D01*
X54979696Y-93415911D01*
X55507082Y-93594725D01*
X56045623Y-93748002D01*
X56594601Y-93875023D01*
X57153295Y-93975069D01*
X57720986Y-94047420D01*
X58296956Y-94091359D01*
X58880486Y-94106165D01*
X59464016Y-94091359D01*
X60039986Y-94047420D01*
X60607678Y-93975069D01*
X61166372Y-93875023D01*
X61715349Y-93748002D01*
X62253890Y-93594725D01*
X62781277Y-93415911D01*
X63296789Y-93212280D01*
X63799708Y-92984549D01*
X64289315Y-92733439D01*
X64764891Y-92459669D01*
X65225716Y-92163957D01*
X65671072Y-91847023D01*
X66100239Y-91509586D01*
X66512498Y-91152364D01*
X66907131Y-90776077D01*
X67283417Y-90381445D01*
X67640638Y-89969186D01*
X67978076Y-89540019D01*
X68295010Y-89094663D01*
X68590722Y-88633838D01*
X68864492Y-88158262D01*
X69115602Y-87668655D01*
X69343332Y-87165736D01*
X69546964Y-86650224D01*
X69725778Y-86122837D01*
X69879055Y-85584296D01*
X70006075Y-85035319D01*
X70106121Y-84476625D01*
X70178473Y-83908933D01*
X70222411Y-83332963D01*
X70237217Y-82749434D01*
X70232316Y-82413641D01*
X70217704Y-82080247D01*
X70193520Y-81749386D01*
X70159901Y-81421194D01*
X70116985Y-81095804D01*
X70064910Y-80773351D01*
X70003815Y-80453971D01*
X69933836Y-80137797D01*
X69855113Y-79824965D01*
X69767782Y-79515609D01*
X69671982Y-79209864D01*
X69567851Y-78907865D01*
X69455526Y-78609745D01*
X69335146Y-78315641D01*
X69206848Y-78025686D01*
X69070771Y-77740016D01*
X70045007Y-76765779D01*
X71214139Y-76765779D01*
X71583294Y-76765779D01*
X71739900Y-77108803D01*
X71887508Y-77456648D01*
X72025963Y-77809163D01*
X72155115Y-78166202D01*
X72274811Y-78527616D01*
X72384897Y-78893256D01*
X72485223Y-79262974D01*
X72575635Y-79636621D01*
X72655980Y-80014049D01*
X72726108Y-80395109D01*
X72785865Y-80779653D01*
X72835099Y-81167532D01*
X72873657Y-81558598D01*
X72901387Y-81952703D01*
X72918137Y-82349697D01*
X72923754Y-82749434D01*
X72905446Y-83471005D01*
X72851114Y-84183229D01*
X72761647Y-84885215D01*
X72637935Y-85576075D01*
X72480867Y-86254919D01*
X72291332Y-86920858D01*
X72070219Y-87573004D01*
X71818417Y-88210466D01*
X71536816Y-88832355D01*
X71226305Y-89437784D01*
X70887773Y-90025861D01*
X70522108Y-90595698D01*
X70130202Y-91146407D01*
X69712941Y-91677097D01*
X69271217Y-92186879D01*
X68805917Y-92674865D01*
X68317931Y-93140164D01*
X67808149Y-93581889D01*
X67277459Y-93999149D01*
X66726751Y-94391056D01*
X66156913Y-94756720D01*
X65568836Y-95095253D01*
X64963408Y-95405764D01*
X64341518Y-95687365D01*
X63704056Y-95939167D01*
X63051910Y-96160280D01*
X62385971Y-96349815D01*
X61707127Y-96506883D01*
X61016267Y-96630595D01*
X60314281Y-96720062D01*
X59602057Y-96774394D01*
X58880486Y-96792702D01*
X58158914Y-96774394D01*
X57446691Y-96720062D01*
X56744705Y-96630595D01*
X56053845Y-96506883D01*
X55375001Y-96349815D01*
X54709061Y-96160280D01*
X54056916Y-95939167D01*
X53419454Y-95687365D01*
X52797564Y-95405764D01*
X52192136Y-95095253D01*
X51604059Y-94756720D01*
X51034221Y-94391056D01*
X50483513Y-93999149D01*
X49952823Y-93581889D01*
X49443041Y-93140164D01*
X48955055Y-92674865D01*
X48489755Y-92186879D01*
X48048031Y-91677097D01*
X47630770Y-91146407D01*
X47238863Y-90595698D01*
X46873199Y-90025861D01*
X46534667Y-89437784D01*
X46224155Y-88832355D01*
X45942554Y-88210466D01*
X45690753Y-87573004D01*
X45469640Y-86920858D01*
X45280105Y-86254919D01*
X45123036Y-85576075D01*
X44999324Y-84885215D01*
X44909858Y-84183229D01*
X44855526Y-83471005D01*
X44837217Y-82749434D01*
X44855526Y-82027862D01*
X44909858Y-81315639D01*
X44999324Y-80613652D01*
X45123036Y-79922792D01*
X45280105Y-79243948D01*
X45469640Y-78578009D01*
X45690753Y-77925864D01*
X45942554Y-77288401D01*
X46224155Y-76666512D01*
X46534667Y-76061083D01*
X46873199Y-75473006D01*
X47238863Y-74903169D01*
X47630770Y-74352460D01*
X48048030Y-73821770D01*
X48489755Y-73311988D01*
X48955055Y-72824002D01*
X49443041Y-72358702D01*
X49952823Y-71916978D01*
X50483513Y-71499717D01*
X51034221Y-71107810D01*
X51604058Y-70742146D01*
X52192136Y-70403614D01*
X52797564Y-70093102D01*
X53419454Y-69811501D01*
X54056916Y-69559700D01*
X54709061Y-69338587D01*
X55375001Y-69149051D01*
X56053845Y-68991983D01*
X56744705Y-68868271D01*
X57446691Y-68778805D01*
X58158914Y-68724473D01*
X58880486Y-68706164D01*
X59280222Y-68711781D01*
G37*
G36*
X72191062Y-69438857D02*
G01*
X76098755Y-69438857D01*
X71214139Y-74323472D01*
X69033525Y-74323472D01*
X61532465Y-81824286D01*
X61568228Y-81933934D01*
X61599602Y-82045480D01*
X61626472Y-82158828D01*
X61648720Y-82273885D01*
X61666228Y-82390556D01*
X61678879Y-82508747D01*
X61683346Y-82568383D01*
X61686556Y-82628363D01*
X61688492Y-82688676D01*
X61689141Y-82749310D01*
X61685486Y-82893848D01*
X61674640Y-83036488D01*
X61656780Y-83177053D01*
X61632081Y-83315368D01*
X61600720Y-83451255D01*
X61562874Y-83584538D01*
X61518718Y-83715041D01*
X61468430Y-83842588D01*
X61412186Y-83967002D01*
X61350162Y-84088106D01*
X61282535Y-84205724D01*
X61209481Y-84319679D01*
X61131177Y-84429796D01*
X61047798Y-84535897D01*
X60959523Y-84637807D01*
X60866526Y-84735349D01*
X60768984Y-84828346D01*
X60667074Y-84916622D01*
X60560973Y-85000000D01*
X60450856Y-85078304D01*
X60336900Y-85151358D01*
X60219282Y-85218985D01*
X60098178Y-85281009D01*
X59973765Y-85337253D01*
X59846218Y-85387541D01*
X59715715Y-85431697D01*
X59582431Y-85469543D01*
X59446544Y-85500904D01*
X59308229Y-85525603D01*
X59167664Y-85543464D01*
X59025024Y-85554309D01*
X58880486Y-85557964D01*
X58735948Y-85554309D01*
X58593308Y-85543464D01*
X58452743Y-85525603D01*
X58314428Y-85500904D01*
X58178541Y-85469543D01*
X58045258Y-85431697D01*
X57914754Y-85387541D01*
X57787208Y-85337253D01*
X57662794Y-85281009D01*
X57541690Y-85218985D01*
X57424072Y-85151358D01*
X57310117Y-85078304D01*
X57200000Y-85000000D01*
X57093898Y-84916622D01*
X56991989Y-84828346D01*
X56894447Y-84735349D01*
X56801450Y-84637807D01*
X56713174Y-84535897D01*
X56629796Y-84429796D01*
X56551492Y-84319679D01*
X56478438Y-84205724D01*
X56410810Y-84088106D01*
X56348787Y-83967002D01*
X56292542Y-83842588D01*
X56242254Y-83715041D01*
X56198099Y-83584538D01*
X56160253Y-83451255D01*
X56128892Y-83315368D01*
X56104193Y-83177053D01*
X56086332Y-83036488D01*
X56075487Y-82893848D01*
X56071832Y-82749310D01*
X56075487Y-82604772D01*
X56086332Y-82462133D01*
X56104193Y-82321568D01*
X56128892Y-82183253D01*
X56160253Y-82047366D01*
X56198099Y-81914083D01*
X56242254Y-81783580D01*
X56292542Y-81656033D01*
X56348787Y-81531620D01*
X56410810Y-81410516D01*
X56478438Y-81292898D01*
X56551492Y-81178942D01*
X56629796Y-81068825D01*
X56713174Y-80962724D01*
X56801450Y-80860814D01*
X56894447Y-80763273D01*
X56991989Y-80670276D01*
X57093898Y-80582000D01*
X57200000Y-80498622D01*
X57310117Y-80420317D01*
X57424072Y-80347263D01*
X57541690Y-80279636D01*
X57662794Y-80217612D01*
X57787208Y-80161368D01*
X57914754Y-80111080D01*
X58045258Y-80066924D01*
X58178541Y-80029078D01*
X58314428Y-79997717D01*
X58452743Y-79973018D01*
X58593308Y-79955158D01*
X58735948Y-79944312D01*
X58880486Y-79940658D01*
X58941120Y-79941306D01*
X59001433Y-79943242D01*
X59061414Y-79946452D01*
X59121050Y-79950919D01*
X59180329Y-79956630D01*
X59239241Y-79963570D01*
X59297772Y-79971724D01*
X59355912Y-79981078D01*
X59413648Y-79991616D01*
X59470969Y-80003325D01*
X59527862Y-80016189D01*
X59584317Y-80030195D01*
X59695862Y-80061569D01*
X59805509Y-80097332D01*
X67306447Y-72596394D01*
X67306447Y-70415779D01*
X72191062Y-65531164D01*
X72191062Y-69438857D01*
G37*
G36*
X59062213Y-74325425D02*
G01*
X59242994Y-74331254D01*
X59422793Y-74340915D01*
X59601572Y-74354362D01*
X59779296Y-74371550D01*
X59955928Y-74392435D01*
X60131431Y-74416971D01*
X60305771Y-74445114D01*
X60478910Y-74476819D01*
X60650812Y-74512041D01*
X60821441Y-74550736D01*
X60990760Y-74592857D01*
X61325325Y-74687201D01*
X61654216Y-74794715D01*
X59413276Y-77035655D01*
X59281275Y-77024796D01*
X59214979Y-77020403D01*
X59148484Y-77016742D01*
X59081789Y-77013842D01*
X59014892Y-77011733D01*
X58947791Y-77010446D01*
X58880486Y-77010010D01*
X58585581Y-77017492D01*
X58294496Y-77039697D01*
X58007596Y-77076262D01*
X57725243Y-77126822D01*
X57447801Y-77191014D01*
X57175634Y-77268476D01*
X56909104Y-77358843D01*
X56648576Y-77461753D01*
X56394412Y-77576841D01*
X56146976Y-77703745D01*
X55906631Y-77842101D01*
X55673741Y-77991546D01*
X55448670Y-78151716D01*
X55231779Y-78322248D01*
X55023434Y-78502778D01*
X54823997Y-78692943D01*
X54633832Y-78892381D01*
X54453301Y-79100726D01*
X54282770Y-79317616D01*
X54122600Y-79542688D01*
X53973155Y-79775578D01*
X53834799Y-80015923D01*
X53707895Y-80263359D01*
X53592807Y-80517523D01*
X53489897Y-80778052D01*
X53399530Y-81044581D01*
X53322068Y-81316749D01*
X53257876Y-81594191D01*
X53207316Y-81876543D01*
X53170751Y-82163444D01*
X53148546Y-82454528D01*
X53141064Y-82749434D01*
X53148546Y-83044339D01*
X53170751Y-83335423D01*
X53207316Y-83622324D01*
X53257876Y-83904676D01*
X53322068Y-84182118D01*
X53399530Y-84454285D01*
X53489897Y-84720815D01*
X53592807Y-84981343D01*
X53707895Y-85235507D01*
X53834799Y-85482943D01*
X53973155Y-85723288D01*
X54122600Y-85956178D01*
X54282770Y-86181250D01*
X54453301Y-86398140D01*
X54633832Y-86606485D01*
X54823997Y-86805922D01*
X55023434Y-86996088D01*
X55231779Y-87176618D01*
X55448670Y-87347150D01*
X55673741Y-87507320D01*
X55906631Y-87656764D01*
X56146976Y-87795120D01*
X56394412Y-87922024D01*
X56648576Y-88037112D01*
X56909104Y-88140022D01*
X57175634Y-88230389D01*
X57447801Y-88307851D01*
X57725243Y-88372043D01*
X58007596Y-88422603D01*
X58294496Y-88459168D01*
X58585581Y-88481373D01*
X58880486Y-88488855D01*
X59175391Y-88481373D01*
X59466476Y-88459168D01*
X59753376Y-88422603D01*
X60035729Y-88372043D01*
X60313171Y-88307851D01*
X60585338Y-88230389D01*
X60851868Y-88140022D01*
X61112396Y-88037112D01*
X61366560Y-87922024D01*
X61613997Y-87795120D01*
X61854341Y-87656764D01*
X62087231Y-87507320D01*
X62312303Y-87347150D01*
X62529194Y-87176618D01*
X62737539Y-86996088D01*
X62936976Y-86805922D01*
X63127142Y-86606485D01*
X63307672Y-86398140D01*
X63478204Y-86181250D01*
X63638374Y-85956178D01*
X63787818Y-85723288D01*
X63926174Y-85482943D01*
X64053078Y-85235507D01*
X64168167Y-84981343D01*
X64271076Y-84720815D01*
X64361443Y-84454285D01*
X64438905Y-84182118D01*
X64503098Y-83904676D01*
X64553658Y-83622324D01*
X64590222Y-83335423D01*
X64612427Y-83044339D01*
X64619910Y-82749434D01*
X64619474Y-82682128D01*
X64618189Y-82615026D01*
X64616085Y-82548125D01*
X64613193Y-82481421D01*
X64609547Y-82414911D01*
X64605176Y-82348594D01*
X64594387Y-82216522D01*
X66835204Y-79975704D01*
X66942719Y-80304594D01*
X67037063Y-80639159D01*
X67117878Y-80979107D01*
X67184805Y-81324148D01*
X67237485Y-81673992D01*
X67275558Y-82028348D01*
X67289004Y-82207127D01*
X67298665Y-82386925D01*
X67304494Y-82567706D01*
X67306447Y-82749434D01*
X67295462Y-83182381D01*
X67262863Y-83609719D01*
X67209184Y-84030914D01*
X67134957Y-84445432D01*
X67040718Y-84852741D01*
X66926998Y-85252307D01*
X66794331Y-85643595D01*
X66643252Y-86026074D01*
X66474292Y-86399208D01*
X66287987Y-86762465D01*
X66084869Y-87115312D01*
X65865472Y-87457214D01*
X65630330Y-87787638D01*
X65379975Y-88106052D01*
X65114941Y-88411920D01*
X64835763Y-88704711D01*
X64542972Y-88983889D01*
X64237104Y-89248923D01*
X63918691Y-89499277D01*
X63588266Y-89734420D01*
X63246364Y-89953817D01*
X62893518Y-90156935D01*
X62530260Y-90343240D01*
X62157126Y-90512199D01*
X61774647Y-90663279D01*
X61383359Y-90795945D01*
X60983793Y-90909665D01*
X60576485Y-91003905D01*
X60161966Y-91078132D01*
X59740771Y-91131811D01*
X59313433Y-91164410D01*
X58880486Y-91175395D01*
X58447539Y-91164410D01*
X58020201Y-91131811D01*
X57599006Y-91078132D01*
X57184487Y-91003905D01*
X56777179Y-90909665D01*
X56377613Y-90795945D01*
X55986325Y-90663279D01*
X55603846Y-90512199D01*
X55230712Y-90343240D01*
X54867455Y-90156935D01*
X54514608Y-89953817D01*
X54172706Y-89734420D01*
X53842282Y-89499277D01*
X53523868Y-89248923D01*
X53218000Y-88983889D01*
X52925209Y-88704711D01*
X52646031Y-88411920D01*
X52380997Y-88106052D01*
X52130642Y-87787638D01*
X51895500Y-87457214D01*
X51676103Y-87115312D01*
X51472985Y-86762465D01*
X51286680Y-86399208D01*
X51117720Y-86026074D01*
X50966641Y-85643595D01*
X50833974Y-85252307D01*
X50720254Y-84852741D01*
X50626014Y-84445432D01*
X50551788Y-84030914D01*
X50498109Y-83609719D01*
X50465510Y-83182381D01*
X50454525Y-82749434D01*
X50465510Y-82316486D01*
X50498109Y-81889149D01*
X50551788Y-81467953D01*
X50626014Y-81053435D01*
X50720254Y-80646126D01*
X50833974Y-80246561D01*
X50966641Y-79855272D01*
X51117720Y-79472794D01*
X51286680Y-79099659D01*
X51472985Y-78736402D01*
X51676103Y-78383555D01*
X51895500Y-78041653D01*
X52130642Y-77711229D01*
X52380997Y-77392815D01*
X52646031Y-77086947D01*
X52925209Y-76794156D01*
X53218000Y-76514978D01*
X53523868Y-76249944D01*
X53842282Y-75999589D01*
X54172706Y-75764447D01*
X54514608Y-75545050D01*
X54867455Y-75341932D01*
X55230712Y-75155627D01*
X55603846Y-74986667D01*
X55986325Y-74835588D01*
X56377613Y-74702921D01*
X56777179Y-74589201D01*
X57184487Y-74494961D01*
X57599006Y-74420735D01*
X58020201Y-74367056D01*
X58447539Y-74334457D01*
X58880486Y-74323472D01*
X59062213Y-74325425D01*
G37*
%LPC*%
D11*
%TO.C,U2*%
X57000000Y-46000000D03*
D12*
X57000000Y-47500000D03*
D11*
X64000000Y-41000000D03*
D12*
X64000000Y-42500000D03*
D11*
X71000000Y-46000000D03*
D12*
X71000000Y-47500000D03*
%TD*%
D13*
%TO.C,REF\u002A\u002A*%
X77000000Y-43000000D03*
%TD*%
%TO.C,REF\u002A\u002A*%
X39000000Y-43000000D03*
%TD*%
%TO.C,REF\u002A\u002A*%
X58000000Y-113000000D03*
%TD*%
D14*
%TO.C,J5*%
X49200000Y-53000000D03*
D15*
X52800000Y-53000000D03*
%TD*%
%LPD*%
M02*
