%TF.GenerationSoftware,KiCad,Pcbnew,9.0.6*%
%TF.CreationDate,2025-12-16T14:16:18+01:00*%
%TF.ProjectId,controller,636f6e74-726f-46c6-9c65-722e6b696361,1*%
%TF.SameCoordinates,Original*%
%TF.FileFunction,Copper,L1,Top*%
%TF.FilePolarity,Positive*%
%FSLAX46Y46*%
G04 Gerber Fmt 4.6, Leading zero omitted, Abs format (unit mm)*
G04 Created by KiCad (PCBNEW 9.0.6) date 2025-12-16 14:16:18*
%MOMM*%
%LPD*%
G01*
G04 APERTURE LIST*
G04 Aperture macros list*
%AMRoundRect*
0 Rectangle with rounded corners*
0 $1 Rounding radius*
0 $2 $3 $4 $5 $6 $7 $8 $9 X,Y pos of 4 corners*
0 Add a 4 corners polygon primitive as box body*
4,1,4,$2,$3,$4,$5,$6,$7,$8,$9,$2,$3,0*
0 Add four circle primitives for the rounded corners*
1,1,$1+$1,$2,$3*
1,1,$1+$1,$4,$5*
1,1,$1+$1,$6,$7*
1,1,$1+$1,$8,$9*
0 Add four rect primitives between the rounded corners*
20,1,$1+$1,$2,$3,$4,$5,0*
20,1,$1+$1,$4,$5,$6,$7,0*
20,1,$1+$1,$6,$7,$8,$9,0*
20,1,$1+$1,$8,$9,$2,$3,0*%
G04 Aperture macros list end*
%TA.AperFunction,SMDPad,CuDef*%
%ADD10RoundRect,0.150000X0.687500X0.150000X-0.687500X0.150000X-0.687500X-0.150000X0.687500X-0.150000X0*%
%TD*%
%TA.AperFunction,HeatsinkPad*%
%ADD11C,0.810000*%
%TD*%
%TA.AperFunction,HeatsinkPad*%
%ADD12R,2.100000X3.300000*%
%TD*%
%TA.AperFunction,ComponentPad*%
%ADD13R,1.800000X1.800000*%
%TD*%
%TA.AperFunction,ComponentPad*%
%ADD14C,1.800000*%
%TD*%
%TA.AperFunction,ComponentPad*%
%ADD15O,6.000000X3.000000*%
%TD*%
%TA.AperFunction,SMDPad,CuDef*%
%ADD16RoundRect,0.250000X-0.262500X-0.450000X0.262500X-0.450000X0.262500X0.450000X-0.262500X0.450000X0*%
%TD*%
%TA.AperFunction,SMDPad,CuDef*%
%ADD17RoundRect,0.200000X0.200000X0.275000X-0.200000X0.275000X-0.200000X-0.275000X0.200000X-0.275000X0*%
%TD*%
%TA.AperFunction,ComponentPad*%
%ADD18R,1.875000X1.875000*%
%TD*%
%TA.AperFunction,ComponentPad*%
%ADD19C,1.875000*%
%TD*%
%TA.AperFunction,SMDPad,CuDef*%
%ADD20R,0.600000X1.240000*%
%TD*%
%TA.AperFunction,SMDPad,CuDef*%
%ADD21R,0.300000X1.240000*%
%TD*%
%TA.AperFunction,HeatsinkPad*%
%ADD22O,1.000000X2.100000*%
%TD*%
%TA.AperFunction,HeatsinkPad*%
%ADD23O,1.000000X1.800000*%
%TD*%
%TA.AperFunction,SMDPad,CuDef*%
%ADD24RoundRect,0.250000X0.450000X-0.262500X0.450000X0.262500X-0.450000X0.262500X-0.450000X-0.262500X0*%
%TD*%
%TA.AperFunction,SMDPad,CuDef*%
%ADD25RoundRect,0.250000X1.000000X0.650000X-1.000000X0.650000X-1.000000X-0.650000X1.000000X-0.650000X0*%
%TD*%
%TA.AperFunction,SMDPad,CuDef*%
%ADD26RoundRect,0.250000X-0.625000X0.312500X-0.625000X-0.312500X0.625000X-0.312500X0.625000X0.312500X0*%
%TD*%
%TA.AperFunction,SMDPad,CuDef*%
%ADD27RoundRect,0.250000X0.650000X-0.325000X0.650000X0.325000X-0.650000X0.325000X-0.650000X-0.325000X0*%
%TD*%
%TA.AperFunction,SMDPad,CuDef*%
%ADD28RoundRect,0.250000X0.262500X0.450000X-0.262500X0.450000X-0.262500X-0.450000X0.262500X-0.450000X0*%
%TD*%
%TA.AperFunction,SMDPad,CuDef*%
%ADD29R,1.000000X1.500000*%
%TD*%
%TA.AperFunction,SMDPad,CuDef*%
%ADD30R,2.047500X2.241000*%
%TD*%
%TA.AperFunction,SMDPad,CuDef*%
%ADD31RoundRect,0.150000X-0.150000X0.587500X-0.150000X-0.587500X0.150000X-0.587500X0.150000X0.587500X0*%
%TD*%
%TA.AperFunction,SMDPad,CuDef*%
%ADD32RoundRect,0.250000X-1.100000X0.325000X-1.100000X-0.325000X1.100000X-0.325000X1.100000X0.325000X0*%
%TD*%
%TA.AperFunction,SMDPad,CuDef*%
%ADD33RoundRect,0.250000X-0.475000X0.250000X-0.475000X-0.250000X0.475000X-0.250000X0.475000X0.250000X0*%
%TD*%
%TA.AperFunction,SMDPad,CuDef*%
%ADD34RoundRect,0.250000X-0.250000X-0.475000X0.250000X-0.475000X0.250000X0.475000X-0.250000X0.475000X0*%
%TD*%
%TA.AperFunction,SMDPad,CuDef*%
%ADD35RoundRect,0.600000X-1.400000X-1.400000X1.400000X-1.400000X1.400000X1.400000X-1.400000X1.400000X0*%
%TD*%
%TA.AperFunction,SMDPad,CuDef*%
%ADD36RoundRect,0.218750X0.218750X0.256250X-0.218750X0.256250X-0.218750X-0.256250X0.218750X-0.256250X0*%
%TD*%
%TA.AperFunction,SMDPad,CuDef*%
%ADD37RoundRect,0.175000X0.325000X-0.175000X0.325000X0.175000X-0.325000X0.175000X-0.325000X-0.175000X0*%
%TD*%
%TA.AperFunction,SMDPad,CuDef*%
%ADD38RoundRect,0.150000X0.150000X-0.200000X0.150000X0.200000X-0.150000X0.200000X-0.150000X-0.200000X0*%
%TD*%
%TA.AperFunction,SMDPad,CuDef*%
%ADD39RoundRect,0.200000X0.275000X-0.200000X0.275000X0.200000X-0.275000X0.200000X-0.275000X-0.200000X0*%
%TD*%
%TA.AperFunction,SMDPad,CuDef*%
%ADD40R,1.500000X1.000000*%
%TD*%
%TA.AperFunction,SMDPad,CuDef*%
%ADD41RoundRect,0.250000X0.625000X-0.312500X0.625000X0.312500X-0.625000X0.312500X-0.625000X-0.312500X0*%
%TD*%
%TA.AperFunction,SMDPad,CuDef*%
%ADD42RoundRect,0.250000X0.475000X-0.250000X0.475000X0.250000X-0.475000X0.250000X-0.475000X-0.250000X0*%
%TD*%
%TA.AperFunction,SMDPad,CuDef*%
%ADD43R,3.200000X2.400000*%
%TD*%
%TA.AperFunction,SMDPad,CuDef*%
%ADD44RoundRect,0.225000X-0.225000X-0.250000X0.225000X-0.250000X0.225000X0.250000X-0.225000X0.250000X0*%
%TD*%
%TA.AperFunction,SMDPad,CuDef*%
%ADD45RoundRect,0.250000X-0.450000X0.262500X-0.450000X-0.262500X0.450000X-0.262500X0.450000X0.262500X0*%
%TD*%
%TA.AperFunction,ComponentPad*%
%ADD46RoundRect,0.250002X-1.699998X-1.699998X1.699998X-1.699998X1.699998X1.699998X-1.699998X1.699998X0*%
%TD*%
%TA.AperFunction,ComponentPad*%
%ADD47C,3.900000*%
%TD*%
%TA.AperFunction,ComponentPad*%
%ADD48R,1.600000X1.600000*%
%TD*%
%TA.AperFunction,ComponentPad*%
%ADD49C,1.600000*%
%TD*%
%TA.AperFunction,SMDPad,CuDef*%
%ADD50RoundRect,0.375000X0.375000X-0.625000X0.375000X0.625000X-0.375000X0.625000X-0.375000X-0.625000X0*%
%TD*%
%TA.AperFunction,SMDPad,CuDef*%
%ADD51RoundRect,0.500000X1.400000X-0.500000X1.400000X0.500000X-1.400000X0.500000X-1.400000X-0.500000X0*%
%TD*%
%TA.AperFunction,SMDPad,CuDef*%
%ADD52RoundRect,0.500000X0.500000X-0.875000X0.500000X0.875000X-0.500000X0.875000X-0.500000X-0.875000X0*%
%TD*%
%TA.AperFunction,SMDPad,CuDef*%
%ADD53RoundRect,0.275000X-0.975000X-0.275000X0.975000X-0.275000X0.975000X0.275000X-0.975000X0.275000X0*%
%TD*%
%TA.AperFunction,SMDPad,CuDef*%
%ADD54C,1.700000*%
%TD*%
%TA.AperFunction,SMDPad,CuDef*%
%ADD55R,0.500000X2.200000*%
%TD*%
%TA.AperFunction,SMDPad,CuDef*%
%ADD56RoundRect,0.025000X0.225000X-1.075000X0.225000X1.075000X-0.225000X1.075000X-0.225000X-1.075000X0*%
%TD*%
%TA.AperFunction,SMDPad,CuDef*%
%ADD57R,4.900000X2.950000*%
%TD*%
%TA.AperFunction,ComponentPad*%
%ADD58C,0.600000*%
%TD*%
%TA.AperFunction,SMDPad,CuDef*%
%ADD59RoundRect,0.051000X-0.049000X0.249000X-0.049000X-0.249000X0.049000X-0.249000X0.049000X0.249000X0*%
%TD*%
%TA.AperFunction,SMDPad,CuDef*%
%ADD60RoundRect,0.051000X-0.249000X0.049000X-0.249000X-0.049000X0.249000X-0.049000X0.249000X0.049000X0*%
%TD*%
%TA.AperFunction,SMDPad,CuDef*%
%ADD61RoundRect,0.056000X-1.244000X0.744000X-1.244000X-0.744000X1.244000X-0.744000X1.244000X0.744000X0*%
%TD*%
%TA.AperFunction,ComponentPad*%
%ADD62C,0.500000*%
%TD*%
%TA.AperFunction,SMDPad,CuDef*%
%ADD63RoundRect,0.250000X0.250000X0.475000X-0.250000X0.475000X-0.250000X-0.475000X0.250000X-0.475000X0*%
%TD*%
%TA.AperFunction,SMDPad,CuDef*%
%ADD64R,0.200000X0.565000*%
%TD*%
%TA.AperFunction,SMDPad,CuDef*%
%ADD65R,0.400000X0.565000*%
%TD*%
%TA.AperFunction,SMDPad,CuDef*%
%ADD66RoundRect,0.150000X-0.587500X-0.150000X0.587500X-0.150000X0.587500X0.150000X-0.587500X0.150000X0*%
%TD*%
%TA.AperFunction,SMDPad,CuDef*%
%ADD67RoundRect,0.218750X0.256250X-0.218750X0.256250X0.218750X-0.256250X0.218750X-0.256250X-0.218750X0*%
%TD*%
%TA.AperFunction,ComponentPad*%
%ADD68RoundRect,0.250000X0.825000X-0.825000X0.825000X0.825000X-0.825000X0.825000X-0.825000X-0.825000X0*%
%TD*%
%TA.AperFunction,ComponentPad*%
%ADD69C,2.150000*%
%TD*%
%TA.AperFunction,ViaPad*%
%ADD70C,0.600000*%
%TD*%
%TA.AperFunction,Conductor*%
%ADD71C,0.350000*%
%TD*%
%TA.AperFunction,Conductor*%
%ADD72C,0.700000*%
%TD*%
%TA.AperFunction,Conductor*%
%ADD73C,1.600000*%
%TD*%
%TA.AperFunction,Conductor*%
%ADD74C,0.200000*%
%TD*%
%TA.AperFunction,Conductor*%
%ADD75C,0.300000*%
%TD*%
%TA.AperFunction,Conductor*%
%ADD76C,1.000000*%
%TD*%
%TA.AperFunction,Conductor*%
%ADD77C,0.600000*%
%TD*%
G04 APERTURE END LIST*
D10*
%TO.P,U2,1,VDD*%
%TO.N,Net-(JP1-A)*%
X271825000Y-147900000D03*
%TO.P,U2,2,CFG2*%
%TO.N,unconnected-(U2-CFG2-Pad2)*%
X271825000Y-146900000D03*
%TO.P,U2,3,CFG3*%
%TO.N,unconnected-(U2-CFG3-Pad3)*%
X271825000Y-145900000D03*
%TO.P,U2,4,DP*%
%TO.N,unconnected-(U2-DP-Pad4)*%
X271825000Y-144900000D03*
%TO.P,U2,5,DM*%
%TO.N,unconnected-(U2-DM-Pad5)*%
X271825000Y-143900000D03*
%TO.P,U2,6,CC2*%
%TO.N,Net-(D7-D1-)*%
X266550000Y-143900000D03*
%TO.P,U2,7,CC1*%
%TO.N,Net-(D7-D1+)*%
X266550000Y-144900000D03*
%TO.P,U2,8,VBUS*%
%TO.N,Net-(U2-VBUS)*%
X266550000Y-145900000D03*
%TO.P,U2,9,CFG1*%
%TO.N,Net-(U2-CFG1)*%
X266550000Y-146900000D03*
%TO.P,U2,10,PG*%
%TO.N,Net-(D2-K)*%
X266550000Y-147900000D03*
D11*
%TO.P,U2,11,GND*%
%TO.N,GND*%
X269187500Y-146535000D03*
D12*
X269187500Y-145900000D03*
D11*
X269187500Y-145265000D03*
%TD*%
D13*
%TO.P,S1,1*%
%TO.N,GND*%
X199100000Y-152600000D03*
D14*
%TO.P,S1,2*%
%TO.N,/Inputs/SW4*%
X199100000Y-157600000D03*
%TO.P,S1,A,CHANNEL_A*%
%TO.N,/Inputs/RE_A*%
X184600000Y-152600000D03*
%TO.P,S1,B,CHANNEL_B*%
%TO.N,/Inputs/RE_B*%
X184600000Y-157600000D03*
%TO.P,S1,C,COMMON*%
%TO.N,GND*%
X184600000Y-155100000D03*
D15*
%TO.P,S1,SH1,SHIELD*%
X192100000Y-149500000D03*
%TO.P,S1,SH2,SHIELD*%
X192100000Y-160700000D03*
%TD*%
D16*
%TO.P,R1,1*%
%TO.N,/Power Input/Buck/VIN*%
X268637500Y-139900000D03*
%TO.P,R1,2*%
%TO.N,Net-(U3-EN)*%
X270462500Y-139900000D03*
%TD*%
D17*
%TO.P,R8,1*%
%TO.N,Net-(JP1-A)*%
X263975000Y-142300000D03*
%TO.P,R8,2*%
%TO.N,Net-(D2-A)*%
X262325000Y-142300000D03*
%TD*%
D16*
%TO.P,R14,1*%
%TO.N,/Power Input/Buck/VOUT*%
X266237500Y-107900000D03*
%TO.P,R14,2*%
%TO.N,Net-(U5-EN{slash}UVLO)*%
X268062500Y-107900000D03*
%TD*%
D18*
%TO.P,SW2,1,1*%
%TO.N,GND*%
X224812500Y-153000000D03*
D19*
%TO.P,SW2,2,2*%
%TO.N,/Inputs/SW2*%
X237312500Y-153000000D03*
%TO.P,SW2,3*%
%TO.N,N/C*%
X224812500Y-158000000D03*
%TO.P,SW2,4*%
X237312500Y-158000000D03*
%TD*%
D16*
%TO.P,R15,1*%
%TO.N,Net-(U5-EN{slash}UVLO)*%
X270637500Y-107900000D03*
%TO.P,R15,2*%
%TO.N,Net-(U5-OVP)*%
X272462500Y-107900000D03*
%TD*%
D20*
%TO.P,J3,A1,GND*%
%TO.N,GND*%
X265430000Y-156300000D03*
%TO.P,J3,A4,VBUS*%
%TO.N,/Power Input/Buck/VIN*%
X266230000Y-156300000D03*
D21*
%TO.P,J3,A5,CC1*%
%TO.N,Net-(D7-D1+)*%
X267380000Y-156300000D03*
%TO.P,J3,A6,D+*%
%TO.N,unconnected-(J3-D+-PadA6)*%
X268380000Y-156300000D03*
%TO.P,J3,A7,D-*%
%TO.N,unconnected-(J3-D--PadA7)*%
X268880000Y-156300000D03*
%TO.P,J3,A8,SBU1*%
%TO.N,unconnected-(J3-SBU1-PadA8)*%
X269880000Y-156300000D03*
D20*
%TO.P,J3,A9,VBUS*%
%TO.N,/Power Input/Buck/VIN*%
X271030000Y-156300000D03*
%TO.P,J3,A12,GND*%
%TO.N,GND*%
X271830000Y-156300000D03*
%TO.P,J3,B1,GND*%
X271830000Y-156300000D03*
%TO.P,J3,B4,VBUS*%
%TO.N,/Power Input/Buck/VIN*%
X271030000Y-156300000D03*
D21*
%TO.P,J3,B5,CC2*%
%TO.N,Net-(D7-D1-)*%
X270380000Y-156300000D03*
%TO.P,J3,B6,D+*%
%TO.N,unconnected-(J3-D+-PadB6)*%
X269380000Y-156300000D03*
%TO.P,J3,B7,D-*%
%TO.N,unconnected-(J3-D--PadB7)*%
X267880000Y-156300000D03*
%TO.P,J3,B8,SBU2*%
%TO.N,unconnected-(J3-SBU2-PadB8)*%
X266880000Y-156300000D03*
D20*
%TO.P,J3,B9,VBUS*%
%TO.N,/Power Input/Buck/VIN*%
X266230000Y-156300000D03*
%TO.P,J3,B12,GND*%
%TO.N,GND*%
X265430000Y-156300000D03*
D22*
%TO.P,J3,S1,SHIELD*%
%TO.N,Net-(J3-SHIELD)*%
X264310000Y-156900000D03*
D23*
X264310000Y-161100000D03*
D22*
X272950000Y-156900000D03*
D23*
X272950000Y-161100000D03*
%TD*%
D24*
%TO.P,R9,1*%
%TO.N,Net-(U3-EN)*%
X272950000Y-140012500D03*
%TO.P,R9,2*%
%TO.N,GND*%
X272950000Y-138187500D03*
%TD*%
D25*
%TO.P,D1,1,K*%
%TO.N,Net-(D1-K)*%
X263350000Y-127100000D03*
%TO.P,D1,2,A*%
%TO.N,GND*%
X259350000Y-127100000D03*
%TD*%
D26*
%TO.P,R22,1*%
%TO.N,+5V*%
X240600000Y-92637500D03*
%TO.P,R22,2*%
%TO.N,/Target Interface/Level Shifter1/HC*%
X240600000Y-95562500D03*
%TD*%
D27*
%TO.P,C10,1*%
%TO.N,Net-(U3-BOOT)*%
X264350000Y-133175000D03*
%TO.P,C10,2*%
%TO.N,Net-(D1-K)*%
X264350000Y-130225000D03*
%TD*%
D28*
%TO.P,R12,1*%
%TO.N,Net-(R11-Pad2)*%
X272375000Y-116450000D03*
%TO.P,R12,2*%
%TO.N,Net-(U3-VSENSE)*%
X270550000Y-116450000D03*
%TD*%
D24*
%TO.P,R6,1*%
%TO.N,Net-(J3-SHIELD)*%
X277150000Y-157525000D03*
%TO.P,R6,2*%
%TO.N,GND*%
X277150000Y-155700000D03*
%TD*%
D27*
%TO.P,C3,1*%
%TO.N,/Power Input/Buck/VIN*%
X260550000Y-138175000D03*
%TO.P,C3,2*%
%TO.N,GND*%
X260550000Y-135225000D03*
%TD*%
D28*
%TO.P,R7,1*%
%TO.N,Net-(U2-VBUS)*%
X264062500Y-144900000D03*
%TO.P,R7,2*%
%TO.N,/Power Input/Buck/VIN*%
X262237500Y-144900000D03*
%TD*%
D29*
%TO.P,JP1,1,A*%
%TO.N,Net-(JP1-A)*%
X278900000Y-138750000D03*
%TO.P,JP1,2,B*%
%TO.N,/Power Input/Buck/VIN*%
X280200000Y-138750000D03*
%TD*%
D30*
%TO.P,D6,1,1*%
%TO.N,/Power Input/Buck/VIN*%
X264690000Y-151500000D03*
%TO.P,D6,2,2*%
%TO.N,GND*%
X259610000Y-151500000D03*
%TD*%
D31*
%TO.P,Q1,1,G*%
%TO.N,+3.3V*%
X228550000Y-97362500D03*
%TO.P,Q1,2,S*%
%TO.N,SDA*%
X226650000Y-97362500D03*
%TO.P,Q1,3,D*%
%TO.N,/Target Interface/Level Shifter/HC*%
X227600000Y-99237500D03*
%TD*%
D32*
%TO.P,C1,1*%
%TO.N,Net-(JP1-A)*%
X277750000Y-150025000D03*
%TO.P,C1,2*%
%TO.N,GND*%
X277750000Y-152975000D03*
%TD*%
D33*
%TO.P,C11,1*%
%TO.N,/Power Input/Buck/VIN*%
X281550000Y-150000000D03*
%TO.P,C11,2*%
%TO.N,GND*%
X281550000Y-151900000D03*
%TD*%
D34*
%TO.P,C6,1*%
%TO.N,Net-(U3-COMP)*%
X269000000Y-128100000D03*
%TO.P,C6,2*%
%TO.N,Net-(C6-Pad2)*%
X270900000Y-128100000D03*
%TD*%
D27*
%TO.P,C2,1*%
%TO.N,/Power Input/Buck/VIN*%
X258000000Y-138175000D03*
%TO.P,C2,2*%
%TO.N,GND*%
X258000000Y-135225000D03*
%TD*%
D35*
%TO.P,J2,1,VCC*%
%TO.N,+5V*%
X213600000Y-89100000D03*
%TO.P,J2,2,GND*%
%TO.N,GND*%
X221600000Y-89100000D03*
%TO.P,J2,3,SDA*%
%TO.N,Net-(D5-I{slash}O2)*%
X229600000Y-89100000D03*
%TO.P,J2,4,SCL*%
%TO.N,Net-(D4-I{slash}O2)*%
X237600000Y-89100000D03*
%TO.P,J2,5,GND*%
%TO.N,GND*%
X245600000Y-89100000D03*
%TO.P,J2,6,VCC*%
%TO.N,+5V*%
X253600000Y-89100000D03*
%TD*%
D36*
%TO.P,D2,1,K*%
%TO.N,Net-(D2-K)*%
X263737500Y-148600000D03*
%TO.P,D2,2,A*%
%TO.N,Net-(D2-A)*%
X262162500Y-148600000D03*
%TD*%
D37*
%TO.P,D4,1,GND*%
%TO.N,GND*%
X236050000Y-94900000D03*
D38*
%TO.P,D4,2,I/O1*%
%TO.N,/Target Interface/Level Shifter1/HC*%
X237750000Y-94900000D03*
%TO.P,D4,3,I/O2*%
%TO.N,Net-(D4-I{slash}O2)*%
X237750000Y-92900000D03*
%TO.P,D4,4,VCC*%
%TO.N,+5V*%
X235850000Y-92900000D03*
%TD*%
D39*
%TO.P,R21,1*%
%TO.N,/Power Input/Buck/VOUT*%
X274000000Y-97825000D03*
%TO.P,R21,2*%
%TO.N,Net-(D3-A)*%
X274000000Y-96175000D03*
%TD*%
D16*
%TO.P,R20,1*%
%TO.N,Imon*%
X272575000Y-94250000D03*
%TO.P,R20,2*%
%TO.N,GND*%
X274400000Y-94250000D03*
%TD*%
D40*
%TO.P,JP2,1,A*%
%TO.N,/Power Input/Buck/VOUT*%
X262500000Y-100750000D03*
%TO.P,JP2,2,B*%
%TO.N,+5V*%
X262500000Y-99450000D03*
%TD*%
D41*
%TO.P,R2,1*%
%TO.N,+3.3V*%
X224200000Y-99962500D03*
%TO.P,R2,2*%
%TO.N,SDA*%
X224200000Y-97037500D03*
%TD*%
D42*
%TO.P,C4,1*%
%TO.N,/Power Input/Buck/VIN*%
X263000000Y-138250000D03*
%TO.P,C4,2*%
%TO.N,GND*%
X263000000Y-136350000D03*
%TD*%
D43*
%TO.P,L1,1,1*%
%TO.N,Net-(D1-K)*%
X264350000Y-123900000D03*
%TO.P,L1,2,2*%
%TO.N,/Power Input/Buck/VOUT*%
X264350000Y-117900000D03*
%TD*%
D16*
%TO.P,R16,1*%
%TO.N,Net-(U5-OVP)*%
X274837500Y-107900000D03*
%TO.P,R16,2*%
%TO.N,GND*%
X276662500Y-107900000D03*
%TD*%
%TO.P,R11,1*%
%TO.N,/Power Input/Buck/VOUT*%
X270550000Y-113500000D03*
%TO.P,R11,2*%
%TO.N,Net-(R11-Pad2)*%
X272375000Y-113500000D03*
%TD*%
D34*
%TO.P,C9,1*%
%TO.N,/Power Input/Buck/VOUT*%
X265800000Y-114910000D03*
%TO.P,C9,2*%
%TO.N,GND*%
X267700000Y-114910000D03*
%TD*%
D44*
%TO.P,C7,1*%
%TO.N,Net-(U3-COMP)*%
X269175000Y-125900000D03*
%TO.P,C7,2*%
%TO.N,GND*%
X270725000Y-125900000D03*
%TD*%
D45*
%TO.P,R13,1*%
%TO.N,Net-(U3-VSENSE)*%
X274150000Y-118587500D03*
%TO.P,R13,2*%
%TO.N,GND*%
X274150000Y-120412500D03*
%TD*%
D18*
%TO.P,SW3,1,1*%
%TO.N,GND*%
X240712500Y-153000000D03*
D19*
%TO.P,SW3,2,2*%
%TO.N,/Inputs/SW3*%
X253212500Y-153000000D03*
%TO.P,SW3,3*%
%TO.N,N/C*%
X240712500Y-158000000D03*
%TO.P,SW3,4*%
X253212500Y-158000000D03*
%TD*%
D46*
%TO.P,J1,1,Pin_1*%
%TO.N,+5V*%
X214125000Y-82925000D03*
D47*
%TO.P,J1,2,Pin_2*%
%TO.N,GND*%
X221925000Y-82925000D03*
%TO.P,J1,3,Pin_3*%
%TO.N,Net-(D5-I{slash}O2)*%
X229725000Y-82925000D03*
%TO.P,J1,4,Pin_4*%
%TO.N,Net-(D4-I{slash}O2)*%
X237525000Y-82925000D03*
%TO.P,J1,5,Pin_5*%
%TO.N,GND*%
X245325000Y-82925000D03*
%TO.P,J1,6,Pin_6*%
%TO.N,+5V*%
X253125000Y-82925000D03*
%TD*%
D16*
%TO.P,R10,1*%
%TO.N,Net-(C6-Pad2)*%
X272750000Y-128100000D03*
%TO.P,R10,2*%
%TO.N,GND*%
X274575000Y-128100000D03*
%TD*%
D48*
%TO.P,LCD1,1,GND*%
%TO.N,GND*%
X253500000Y-119290000D03*
D49*
%TO.P,LCD1,2,VCC*%
%TO.N,+3.3V*%
X253500000Y-121830000D03*
%TO.P,LCD1,3,SCL*%
%TO.N,SCL*%
X253500000Y-124370000D03*
%TO.P,LCD1,4,SDA*%
%TO.N,SDA*%
X253500000Y-126910000D03*
%TD*%
D34*
%TO.P,C12,1*%
%TO.N,Net-(U5-DVDT)*%
X272200000Y-100950000D03*
%TO.P,C12,2*%
%TO.N,GND*%
X274100000Y-100950000D03*
%TD*%
D50*
%TO.P,U4,1,GND*%
%TO.N,GND*%
X275650000Y-147850000D03*
%TO.P,U4,2,VO*%
%TO.N,Net-(JP1-A)*%
X277950000Y-147850000D03*
D51*
X277950000Y-141550000D03*
D50*
%TO.P,U4,3,VI*%
%TO.N,/Power Input/Buck/VIN*%
X280250000Y-147850000D03*
%TD*%
D25*
%TO.P,D8,1,A1*%
%TO.N,GND*%
X216200000Y-93300000D03*
%TO.P,D8,2,A2*%
%TO.N,+5V*%
X212200000Y-93300000D03*
%TD*%
D16*
%TO.P,R18,1*%
%TO.N,+5V*%
X266775000Y-96300000D03*
%TO.P,R18,2*%
%TO.N,Net-(U5-PGTH)*%
X268600000Y-96300000D03*
%TD*%
D25*
%TO.P,D9,1,A1*%
%TO.N,+5V*%
X251500000Y-93300000D03*
%TO.P,D9,2,A2*%
%TO.N,GND*%
X247500000Y-93300000D03*
%TD*%
D52*
%TO.P,U1,1,GPIO0_A0_D0*%
%TO.N,/Inputs/SW1*%
X186160000Y-98665000D03*
%TO.P,U1,2,GPIO1_A1_D1*%
%TO.N,/Inputs/SW2*%
X188700000Y-98665000D03*
%TO.P,U1,3,GPIO2_A2_D2*%
%TO.N,Imon*%
X191240000Y-98665000D03*
%TO.P,U1,4,GPIO21_D3*%
%TO.N,/Inputs/SW3*%
X193780000Y-98665000D03*
%TO.P,U1,5,GPIO22_D4_SDA*%
%TO.N,SDA*%
X196320000Y-98665000D03*
%TO.P,U1,6,GPIO23_D5_SCL*%
%TO.N,SCL*%
X198860000Y-98665000D03*
%TO.P,U1,7,GPIO16_D6_TX*%
%TO.N,unconnected-(U1-GPIO16_D6_TX-Pad7)*%
X201400000Y-98665000D03*
%TO.P,U1,8,GPIO17_D7_RX*%
%TO.N,unconnected-(U1-GPIO17_D7_RX-Pad8)*%
X201400000Y-82500000D03*
%TO.P,U1,9,GPIO19_D8_SCK*%
%TO.N,/Inputs/SW4*%
X198860000Y-82500000D03*
%TO.P,U1,10,GPIO20_D9_MISO*%
%TO.N,/Inputs/RE_B*%
X196320000Y-82500000D03*
%TO.P,U1,11,GPIO18_D10_MOSI*%
%TO.N,/Inputs/RE_A*%
X193780000Y-82500000D03*
%TO.P,U1,12,3V3*%
%TO.N,+3.3V*%
X191240000Y-82500000D03*
%TO.P,U1,13,GND*%
%TO.N,GND*%
X188700000Y-82500000D03*
%TO.P,U1,14,5V*%
%TO.N,+5V*%
X186160000Y-82500000D03*
D53*
%TO.P,U1,15,BAT*%
%TO.N,unconnected-(U1-BAT-Pad15)*%
X199311700Y-92391400D03*
%TO.P,U1,16,GND*%
%TO.N,GND*%
X199311700Y-89851400D03*
D54*
%TO.P,U1,17,MTDI*%
%TO.N,unconnected-(U1-MTDI-Pad17)*%
X185138500Y-91883400D03*
%TO.P,U1,18,MTDO*%
%TO.N,unconnected-(U1-MTDO-Pad18)*%
X185138500Y-89343400D03*
%TO.P,U1,19,CHIP_EN*%
%TO.N,unconnected-(U1-CHIP_EN-Pad19)*%
X187678500Y-91883400D03*
%TO.P,U1,20,GND*%
%TO.N,GND*%
X187678500Y-89343400D03*
%TO.P,U1,21,MTMS*%
%TO.N,unconnected-(U1-MTMS-Pad21)*%
X190218500Y-91883400D03*
%TO.P,U1,22,MTCK*%
%TO.N,unconnected-(U1-MTCK-Pad22)*%
X190218500Y-89343400D03*
%TO.P,U1,23,BOOT*%
%TO.N,unconnected-(U1-BOOT-Pad23)*%
X192758500Y-91883400D03*
%TO.P,U1,24,3V3_1*%
%TO.N,+3.3V*%
X192701700Y-89436000D03*
%TD*%
D55*
%TO.P,U3,1,BOOT*%
%TO.N,Net-(U3-BOOT)*%
X266345000Y-137125000D03*
%TO.P,U3,2,VIN*%
%TO.N,/Power Input/Buck/VIN*%
X267615000Y-137125000D03*
%TO.P,U3,3,EN*%
%TO.N,Net-(U3-EN)*%
X268885000Y-137125000D03*
%TO.P,U3,4,SS*%
%TO.N,Net-(U3-SS)*%
X270155000Y-137125000D03*
D56*
%TO.P,U3,5,VSENSE*%
%TO.N,Net-(U3-VSENSE)*%
X270155000Y-131375000D03*
%TO.P,U3,6,COMP*%
%TO.N,Net-(U3-COMP)*%
X268885000Y-131375000D03*
%TO.P,U3,7,GND*%
%TO.N,GND*%
X267615000Y-131375000D03*
%TO.P,U3,8,PH*%
%TO.N,Net-(D1-K)*%
X266345000Y-131375000D03*
D57*
%TO.P,U3,9,POWERPAD*%
%TO.N,GND*%
X268250000Y-134250000D03*
D58*
%TO.P,U3,10*%
X266950000Y-134900000D03*
X268250000Y-134900000D03*
X269550000Y-134900000D03*
X266950000Y-133600000D03*
X268250000Y-133600000D03*
X269550000Y-133600000D03*
%TD*%
D26*
%TO.P,R4,1*%
%TO.N,+3.3V*%
X230800000Y-94837500D03*
%TO.P,R4,2*%
%TO.N,SCL*%
X230800000Y-97762500D03*
%TD*%
D16*
%TO.P,R17,1*%
%TO.N,Net-(U5-ILIM)*%
X272237500Y-103050000D03*
%TO.P,R17,2*%
%TO.N,GND*%
X274062500Y-103050000D03*
%TD*%
D18*
%TO.P,SW1,1,1*%
%TO.N,GND*%
X208912500Y-152950000D03*
D19*
%TO.P,SW1,2,2*%
%TO.N,/Inputs/SW1*%
X221412500Y-152950000D03*
%TO.P,SW1,3*%
%TO.N,N/C*%
X208912500Y-157950000D03*
%TO.P,SW1,4*%
X221412500Y-157950000D03*
%TD*%
D59*
%TO.P,U5,1,DMODE*%
%TO.N,unconnected-(U5-DMODE-Pad1)*%
X269200000Y-99400000D03*
%TO.P,U5,2,PGOOD*%
%TO.N,unconnected-(U5-PGOOD-Pad2)*%
X268700000Y-99400000D03*
%TO.P,U5,3,PGTH*%
%TO.N,Net-(U5-PGTH)*%
X268200000Y-99400000D03*
%TO.P,U5,4,OUT*%
%TO.N,+5V*%
X267700000Y-99400000D03*
%TO.P,U5,5,OUT*%
X267200000Y-99400000D03*
%TO.P,U5,6,OUT*%
X266700000Y-99400000D03*
D60*
%TO.P,U5,7,OUT*%
X266050000Y-100050000D03*
%TO.P,U5,8,OUT*%
X266050000Y-100550000D03*
%TO.P,U5,9,IN*%
%TO.N,/Power Input/Buck/VOUT*%
X266050000Y-101050000D03*
%TO.P,U5,10,IN*%
X266050000Y-101550000D03*
D59*
%TO.P,U5,11,IN*%
X266700000Y-102200000D03*
%TO.P,U5,12,IN*%
X267200000Y-102200000D03*
%TO.P,U5,13,IN*%
X267700000Y-102200000D03*
%TO.P,U5,14,EN/UVLO*%
%TO.N,Net-(U5-EN{slash}UVLO)*%
X268200000Y-102200000D03*
%TO.P,U5,15,OVP*%
%TO.N,Net-(U5-OVP)*%
X268700000Y-102200000D03*
%TO.P,U5,16,GND*%
%TO.N,GND*%
X269200000Y-102200000D03*
D60*
%TO.P,U5,17,ILIM*%
%TO.N,Net-(U5-ILIM)*%
X269850000Y-101550000D03*
%TO.P,U5,18,DVDT*%
%TO.N,Net-(U5-DVDT)*%
X269850000Y-101050000D03*
%TO.P,U5,19,IMON*%
%TO.N,Imon*%
X269850000Y-100550000D03*
%TO.P,U5,20,~{FLT}*%
%TO.N,Net-(D3-K)*%
X269850000Y-100050000D03*
D61*
%TO.P,U5,21,EP*%
%TO.N,GND*%
X267950000Y-100800000D03*
D62*
%TO.P,U5,25*%
X268950000Y-100300000D03*
X267950000Y-100300000D03*
X266950000Y-100300000D03*
X268950000Y-101300000D03*
X267950000Y-101300000D03*
X266950000Y-101300000D03*
%TD*%
D63*
%TO.P,C5,1*%
%TO.N,GND*%
X273750000Y-136300000D03*
%TO.P,C5,2*%
%TO.N,Net-(U3-SS)*%
X271850000Y-136300000D03*
%TD*%
D16*
%TO.P,R19,1*%
%TO.N,Net-(U5-PGTH)*%
X268737500Y-94300000D03*
%TO.P,R19,2*%
%TO.N,GND*%
X270562500Y-94300000D03*
%TD*%
D37*
%TO.P,D5,1,GND*%
%TO.N,GND*%
X226450000Y-95100000D03*
D38*
%TO.P,D5,2,I/O1*%
%TO.N,/Target Interface/Level Shifter/HC*%
X228150000Y-95100000D03*
%TO.P,D5,3,I/O2*%
%TO.N,Net-(D5-I{slash}O2)*%
X228150000Y-93100000D03*
%TO.P,D5,4,VCC*%
%TO.N,+5V*%
X226250000Y-93100000D03*
%TD*%
D28*
%TO.P,R5,1*%
%TO.N,Net-(U2-CFG1)*%
X264062500Y-146900000D03*
%TO.P,R5,2*%
%TO.N,GND*%
X262237500Y-146900000D03*
%TD*%
D64*
%TO.P,D7,1,D1+*%
%TO.N,Net-(D7-D1+)*%
X267950000Y-154100000D03*
%TO.P,D7,2,D1-*%
%TO.N,Net-(D7-D1-)*%
X268450000Y-154100000D03*
D65*
%TO.P,D7,3,GND*%
%TO.N,GND*%
X268950000Y-154100000D03*
D64*
%TO.P,D7,4,D2+*%
%TO.N,unconnected-(D7-D2+-Pad4)*%
X269450000Y-154100000D03*
%TO.P,D7,5,D2-*%
%TO.N,unconnected-(D7-D2--Pad5)*%
X269950000Y-154100000D03*
%TO.P,D7,6,NC*%
%TO.N,unconnected-(D7-NC-Pad6)*%
X269950000Y-153300000D03*
%TO.P,D7,7,NC*%
%TO.N,unconnected-(D7-NC-Pad7)*%
X269450000Y-153300000D03*
D65*
%TO.P,D7,8,GND*%
%TO.N,GND*%
X268950000Y-153300000D03*
D64*
%TO.P,D7,9,NC*%
%TO.N,Net-(D7-D1-)*%
X268450000Y-153300000D03*
%TO.P,D7,10,NC*%
%TO.N,Net-(D7-D1+)*%
X267950000Y-153300000D03*
%TD*%
D66*
%TO.P,Q2,1,G*%
%TO.N,+3.3V*%
X233062500Y-95350000D03*
%TO.P,Q2,2,S*%
%TO.N,SCL*%
X233062500Y-97250000D03*
%TO.P,Q2,3,D*%
%TO.N,/Target Interface/Level Shifter1/HC*%
X234937500Y-96300000D03*
%TD*%
D67*
%TO.P,FLT,1,K*%
%TO.N,Net-(D3-K)*%
X271150000Y-97887500D03*
%TO.P,FLT,2,A*%
%TO.N,Net-(D3-A)*%
X271150000Y-96312500D03*
%TD*%
D34*
%TO.P,C8,1*%
%TO.N,/Power Input/Buck/VOUT*%
X265800000Y-110400000D03*
%TO.P,C8,2*%
%TO.N,GND*%
X267700000Y-110400000D03*
%TD*%
D26*
%TO.P,R3,1*%
%TO.N,+5V*%
X222600000Y-92237500D03*
%TO.P,R3,2*%
%TO.N,/Target Interface/Level Shifter/HC*%
X222600000Y-95162500D03*
%TD*%
D68*
%TO.P,J5,1,Pin_1*%
%TO.N,SDA*%
X207800000Y-99200000D03*
D69*
%TO.P,J5,2,Pin_2*%
%TO.N,SCL*%
X207800000Y-94600000D03*
%TO.P,J5,3,Pin_3*%
%TO.N,+3.3V*%
X207800000Y-90000000D03*
%TO.P,J5,4,Pin_4*%
%TO.N,GND*%
X207800000Y-85400000D03*
%TD*%
D70*
%TO.N,GND*%
X187600000Y-88000000D03*
X274150000Y-99600000D03*
X257950000Y-134000000D03*
X273300000Y-154700000D03*
X257950000Y-152200000D03*
X275550000Y-93400000D03*
X262950000Y-135200000D03*
X260300000Y-128500000D03*
X274050000Y-104300000D03*
X257950000Y-150800000D03*
X275750000Y-153000000D03*
X267700000Y-109300000D03*
X272600000Y-154000000D03*
X270050000Y-95500000D03*
X275650000Y-128100000D03*
X269200000Y-152200000D03*
X277650000Y-107300000D03*
X269350000Y-103200000D03*
X258500000Y-128500000D03*
X272600000Y-154700000D03*
X188200000Y-80600000D03*
X275600000Y-146200000D03*
X201200000Y-89800000D03*
X277650000Y-108500000D03*
X267650000Y-129700000D03*
X189400000Y-80600000D03*
X281550000Y-153000000D03*
X257950000Y-151500000D03*
X271650000Y-138200000D03*
X262050000Y-135100000D03*
X267700000Y-116000000D03*
X261150000Y-146900000D03*
X265400000Y-154500000D03*
X225200000Y-95100000D03*
X234800000Y-94900000D03*
X264800000Y-154100000D03*
X271900000Y-154700000D03*
X273750000Y-134900000D03*
X264800000Y-154800000D03*
X277650000Y-107900000D03*
X273300000Y-154000000D03*
X271750000Y-125900000D03*
X273550000Y-121500000D03*
X274750000Y-121500000D03*
X275850000Y-155700000D03*
X274150000Y-121500000D03*
X264100000Y-154100000D03*
X264100000Y-154800000D03*
%TD*%
D71*
%TO.N,GND*%
X265400000Y-154500000D02*
X265400000Y-154840000D01*
X265400000Y-154840000D02*
X265430000Y-154870000D01*
X265430000Y-154870000D02*
X265430000Y-156300000D01*
D72*
%TO.N,Net-(U3-VSENSE)*%
X274150000Y-118587500D02*
X274850000Y-118587500D01*
X274850000Y-118587500D02*
X276551000Y-120288500D01*
X276551000Y-120288500D02*
X276551000Y-129109603D01*
X276551000Y-129109603D02*
X274285603Y-131375000D01*
X270550000Y-116450000D02*
X270550000Y-117150000D01*
X270550000Y-117150000D02*
X271987500Y-118587500D01*
X271987500Y-118587500D02*
X274150000Y-118587500D01*
X270155000Y-131375000D02*
X274285603Y-131375000D01*
%TO.N,Net-(D1-K)*%
X266345000Y-131375000D02*
X265500000Y-131375000D01*
X265500000Y-131375000D02*
X264350000Y-130225000D01*
D73*
X264350000Y-130225000D02*
X264350000Y-129600000D01*
D72*
X266345000Y-131375000D02*
X266345000Y-129745000D01*
X266345000Y-129745000D02*
X266200000Y-129600000D01*
X266200000Y-129600000D02*
X264350000Y-129600000D01*
D74*
%TO.N,Net-(JP1-A)*%
X278825000Y-140675000D02*
X277950000Y-141550000D01*
D71*
X272662499Y-147900000D02*
X271825000Y-147900000D01*
D75*
X277750000Y-148050000D02*
X277950000Y-147850000D01*
X277950000Y-149825000D02*
X277750000Y-150025000D01*
X277750000Y-150025000D02*
X277750000Y-148050000D01*
D71*
X273038500Y-143527966D02*
X273038500Y-147523999D01*
X273038500Y-147523999D02*
X272662499Y-147900000D01*
D75*
X273950000Y-150025000D02*
X271825000Y-147900000D01*
D71*
X263975000Y-142300000D02*
X271810534Y-142300000D01*
X278900000Y-138750000D02*
X278900000Y-140600000D01*
X271810534Y-142300000D02*
X273038500Y-143527966D01*
X277950000Y-141550000D02*
X277950000Y-147850000D01*
X278900000Y-140600000D02*
X277950000Y-141550000D01*
D75*
X277750000Y-150025000D02*
X273950000Y-150025000D01*
D74*
%TO.N,GND*%
X270562500Y-94300000D02*
X270562500Y-94987500D01*
X201200000Y-89800000D02*
X199363100Y-89800000D01*
D76*
X245600000Y-89100000D02*
X245600000Y-83200000D01*
D72*
X267650000Y-129700000D02*
X267650000Y-131340000D01*
D74*
X269200000Y-103050000D02*
X269350000Y-103200000D01*
D71*
X277262500Y-107300000D02*
X276662500Y-107900000D01*
D72*
X259350000Y-127550000D02*
X260300000Y-128500000D01*
D74*
X269200000Y-102200000D02*
X269200000Y-103050000D01*
D72*
X274750000Y-121012500D02*
X274150000Y-120412500D01*
X273550000Y-121500000D02*
X273550000Y-121012500D01*
D76*
X247500000Y-93300000D02*
X247500000Y-91000000D01*
D72*
X259350000Y-127650000D02*
X258500000Y-128500000D01*
D74*
X187600000Y-89264900D02*
X187678500Y-89343400D01*
D71*
X265430000Y-155430000D02*
X265430000Y-156300000D01*
D74*
X275600000Y-147800000D02*
X275650000Y-147850000D01*
X269200000Y-152200000D02*
X268950000Y-152450000D01*
X189400000Y-80600000D02*
X188700000Y-81300000D01*
X274100000Y-99650000D02*
X274150000Y-99600000D01*
D72*
X277750000Y-152975000D02*
X275775000Y-152975000D01*
D76*
X245600000Y-83200000D02*
X245325000Y-82925000D01*
X221600000Y-89100000D02*
X221600000Y-83250000D01*
D74*
X267700000Y-115950000D02*
X267700000Y-116000000D01*
D71*
X271830000Y-156170000D02*
X273300000Y-154700000D01*
D72*
X260550000Y-135225000D02*
X261925000Y-135225000D01*
X259350000Y-127100000D02*
X259350000Y-127650000D01*
D71*
X271830000Y-156300000D02*
X271830000Y-154770000D01*
D72*
X277150000Y-155700000D02*
X275850000Y-155700000D01*
D76*
X247500000Y-91000000D02*
X245600000Y-89100000D01*
D74*
X199363100Y-89800000D02*
X199311700Y-89851400D01*
D71*
X277262500Y-108500000D02*
X276662500Y-107900000D01*
D74*
X257950000Y-135175000D02*
X258000000Y-135225000D01*
D71*
X273300000Y-154700000D02*
X273300000Y-154000000D01*
D74*
X261150000Y-146900000D02*
X262237500Y-146900000D01*
X188700000Y-81300000D02*
X188700000Y-82500000D01*
D71*
X264800000Y-154100000D02*
X264800000Y-154800000D01*
D74*
X275250000Y-93400000D02*
X274400000Y-94250000D01*
D71*
X277650000Y-108500000D02*
X277262500Y-108500000D01*
D74*
X274100000Y-100950000D02*
X274100000Y-99650000D01*
D75*
X268950000Y-154100000D02*
X268950000Y-153300000D01*
D72*
X274150000Y-121500000D02*
X274150000Y-120412500D01*
X262950000Y-135200000D02*
X262950000Y-136300000D01*
D71*
X272600000Y-154700000D02*
X272600000Y-154000000D01*
D74*
X225200000Y-95100000D02*
X226450000Y-95100000D01*
D76*
X216200000Y-93300000D02*
X217400000Y-93300000D01*
D74*
X267650000Y-131340000D02*
X267615000Y-131375000D01*
X188200000Y-80600000D02*
X188700000Y-81100000D01*
D72*
X258650000Y-151500000D02*
X257950000Y-150800000D01*
D71*
X271830000Y-156300000D02*
X271830000Y-155470000D01*
D72*
X259350000Y-127100000D02*
X259350000Y-127550000D01*
D71*
X276662500Y-107900000D02*
X277650000Y-107900000D01*
D74*
X188700000Y-81100000D02*
X188700000Y-82500000D01*
X261925000Y-135225000D02*
X262050000Y-135100000D01*
D71*
X264800000Y-154800000D02*
X265430000Y-155430000D01*
D72*
X258650000Y-151500000D02*
X257950000Y-152200000D01*
D74*
X268950000Y-152450000D02*
X268950000Y-153300000D01*
D71*
X271830000Y-155470000D02*
X272600000Y-154700000D01*
X264100000Y-154800000D02*
X265430000Y-156130000D01*
D74*
X274062500Y-104287500D02*
X274050000Y-104300000D01*
D71*
X265430000Y-156130000D02*
X265430000Y-156300000D01*
D72*
X271750000Y-125900000D02*
X270725000Y-125900000D01*
X257950000Y-134000000D02*
X257950000Y-135175000D01*
D71*
X264100000Y-154100000D02*
X264100000Y-154800000D01*
D72*
X259610000Y-151500000D02*
X258650000Y-151500000D01*
X275650000Y-147850000D02*
X275650000Y-146250000D01*
D71*
X271830000Y-156300000D02*
X271830000Y-156170000D01*
D72*
X259610000Y-151500000D02*
X257950000Y-151500000D01*
D76*
X221600000Y-83250000D02*
X221925000Y-82925000D01*
D72*
X275650000Y-146250000D02*
X275600000Y-146200000D01*
D71*
X267700000Y-114910000D02*
X267700000Y-116000000D01*
X267700000Y-109300000D02*
X267700000Y-110400000D01*
X277650000Y-107300000D02*
X277262500Y-107300000D01*
D74*
X187600000Y-88000000D02*
X187600000Y-89264900D01*
D71*
X271830000Y-154770000D02*
X271900000Y-154700000D01*
D72*
X273750000Y-136300000D02*
X273750000Y-134900000D01*
X275775000Y-152975000D02*
X275750000Y-153000000D01*
D74*
X274062500Y-103050000D02*
X274062500Y-104287500D01*
D72*
X273550000Y-121012500D02*
X274150000Y-120412500D01*
D74*
X270562500Y-94987500D02*
X270050000Y-95500000D01*
X262950000Y-136300000D02*
X263000000Y-136350000D01*
D72*
X281550000Y-151900000D02*
X281550000Y-153000000D01*
D74*
X275550000Y-93400000D02*
X275250000Y-93400000D01*
D72*
X272950000Y-138187500D02*
X271662500Y-138187500D01*
X275650000Y-128100000D02*
X274575000Y-128100000D01*
X274750000Y-121500000D02*
X274750000Y-121012500D01*
D74*
X271662500Y-138187500D02*
X271650000Y-138200000D01*
X234800000Y-94900000D02*
X236050000Y-94900000D01*
D76*
X217400000Y-93300000D02*
X221600000Y-89100000D01*
D72*
%TO.N,/Power Input/Buck/VIN*%
X260625000Y-138250000D02*
X260550000Y-138175000D01*
D77*
X266230000Y-156300000D02*
X266230000Y-153040000D01*
D74*
X270831000Y-156499000D02*
X271030000Y-156300000D01*
D72*
X264690000Y-151500000D02*
X263300000Y-151500000D01*
X279951000Y-137449000D02*
X277365712Y-137449000D01*
X271030000Y-154366504D02*
X271030000Y-155129000D01*
X263526000Y-138776000D02*
X267146000Y-138776000D01*
X269188500Y-141151000D02*
X268637500Y-140600000D01*
D74*
X266429000Y-156499000D02*
X266429000Y-157221000D01*
D72*
X268270000Y-139900000D02*
X267146000Y-138776000D01*
X260550000Y-139748000D02*
X260550000Y-138175000D01*
X273663712Y-141151000D02*
X269188500Y-141151000D01*
D74*
X266230000Y-156300000D02*
X266429000Y-156499000D01*
D72*
X260299000Y-146326000D02*
X261725000Y-144900000D01*
X263300000Y-151500000D02*
X260299000Y-148499000D01*
X263000000Y-138250000D02*
X260625000Y-138250000D01*
X263000000Y-138250000D02*
X263526000Y-138776000D01*
D74*
X270831000Y-157221000D02*
X270831000Y-156499000D01*
D72*
X260299000Y-139999000D02*
X260550000Y-139748000D01*
X267146000Y-138776000D02*
X267615000Y-138307000D01*
X280200000Y-138750000D02*
X280800000Y-139350000D01*
D74*
X266429000Y-157221000D02*
X270831000Y-157221000D01*
D72*
X260299000Y-148499000D02*
X260299000Y-146326000D01*
X266230000Y-153040000D02*
X264690000Y-151500000D01*
X261725000Y-144900000D02*
X262237500Y-144900000D01*
X280250000Y-147850000D02*
X280250000Y-148700000D01*
X273547504Y-151849000D02*
X271030000Y-154366504D01*
X280200000Y-137698000D02*
X279951000Y-137449000D01*
X280250000Y-148700000D02*
X281550000Y-150000000D01*
X281550000Y-150000000D02*
X279701000Y-151849000D01*
X280800000Y-147300000D02*
X280250000Y-147850000D01*
X279701000Y-151849000D02*
X273547504Y-151849000D01*
X260299000Y-146326000D02*
X260299000Y-140474000D01*
X280800000Y-139350000D02*
X280800000Y-147300000D01*
X267615000Y-138307000D02*
X267615000Y-137125000D01*
X277365712Y-137449000D02*
X273663712Y-141151000D01*
X260299000Y-140474000D02*
X260299000Y-139999000D01*
X260299000Y-140474000D02*
X258000000Y-138175000D01*
X268637500Y-139900000D02*
X268270000Y-139900000D01*
X268637500Y-140600000D02*
X268637500Y-139900000D01*
D77*
X271030000Y-156300000D02*
X271030000Y-155129000D01*
D72*
X280200000Y-138750000D02*
X280200000Y-137698000D01*
D75*
%TO.N,Net-(U3-SS)*%
X271025000Y-137125000D02*
X271850000Y-136300000D01*
X270155000Y-137125000D02*
X271025000Y-137125000D01*
%TO.N,Net-(C6-Pad2)*%
X270900000Y-128100000D02*
X272750000Y-128100000D01*
%TO.N,Net-(U3-COMP)*%
X269000000Y-126275000D02*
X269175000Y-126100000D01*
X269000000Y-128300000D02*
X269000000Y-126275000D01*
X268885000Y-131375000D02*
X268885000Y-128415000D01*
X268885000Y-128415000D02*
X269000000Y-128300000D01*
D73*
%TO.N,/Power Input/Buck/VOUT*%
X265649000Y-102449000D02*
X265649000Y-101651000D01*
D71*
X274683452Y-109658774D02*
X270058452Y-109658774D01*
D73*
X266237500Y-103037500D02*
X265649000Y-102449000D01*
D71*
X270058452Y-109658774D02*
X267817226Y-111900000D01*
D73*
X266237500Y-103412500D02*
X266237500Y-103037500D01*
D72*
X267400000Y-113500000D02*
X265800000Y-111900000D01*
D73*
X263200000Y-101651000D02*
X262500000Y-100951000D01*
X264350000Y-116360000D02*
X265800000Y-114910000D01*
X264350000Y-117900000D02*
X264350000Y-116360000D01*
D71*
X274000000Y-97825000D02*
X275726000Y-99551000D01*
D73*
X265800000Y-114910000D02*
X265800000Y-111900000D01*
D72*
X270550000Y-113500000D02*
X267400000Y-113500000D01*
D73*
X266237500Y-107900000D02*
X266237500Y-103412500D01*
X265800000Y-108337500D02*
X266237500Y-107900000D01*
X265800000Y-114910000D02*
X265800000Y-108337500D01*
X265649000Y-101651000D02*
X263200000Y-101651000D01*
D71*
X275726000Y-108616226D02*
X274683452Y-109658774D01*
X267817226Y-111900000D02*
X265800000Y-111900000D01*
X275726000Y-99551000D02*
X275726000Y-108616226D01*
D73*
X266237500Y-103412500D02*
X267049000Y-102601000D01*
%TO.N,Net-(D1-K)*%
X264350000Y-130225000D02*
X264350000Y-123900000D01*
X264350000Y-129600000D02*
X264350000Y-128100000D01*
D76*
%TO.N,Net-(U3-BOOT)*%
X264550000Y-135877000D02*
X265798000Y-137125000D01*
X265798000Y-137125000D02*
X266345000Y-137125000D01*
X264350000Y-133175000D02*
X264550000Y-133375000D01*
X264550000Y-133375000D02*
X264550000Y-135877000D01*
D75*
%TO.N,Net-(U5-DVDT)*%
X272100000Y-101050000D02*
X272200000Y-100950000D01*
X269850000Y-101050000D02*
X272100000Y-101050000D01*
D74*
%TO.N,Net-(D2-K)*%
X265850000Y-148600000D02*
X266550000Y-147900000D01*
X263737500Y-148600000D02*
X265850000Y-148600000D01*
%TO.N,Net-(D2-A)*%
X263051000Y-143026000D02*
X262325000Y-142300000D01*
X263051000Y-147711500D02*
X263051000Y-143026000D01*
X262162500Y-148600000D02*
X263051000Y-147711500D01*
%TO.N,Net-(D3-A)*%
X274000000Y-96175000D02*
X271287500Y-96175000D01*
X271287500Y-96175000D02*
X271150000Y-96312500D01*
D75*
%TO.N,Net-(D3-K)*%
X271150000Y-97887500D02*
X271150000Y-98750000D01*
X271150000Y-98750000D02*
X269850000Y-100050000D01*
D74*
%TO.N,/Target Interface/Level Shifter1/HC*%
X236350000Y-96300000D02*
X237750000Y-94900000D01*
X234937500Y-96300000D02*
X236350000Y-96300000D01*
D75*
X238412500Y-95562500D02*
X237750000Y-94900000D01*
X240600000Y-95562500D02*
X238412500Y-95562500D01*
D74*
%TO.N,Net-(D4-I{slash}O2)*%
X237600000Y-89100000D02*
X237600000Y-92750000D01*
X237600000Y-89100000D02*
X237600000Y-83000000D01*
X237600000Y-83000000D02*
X237525000Y-82925000D01*
X237600000Y-92750000D02*
X237750000Y-92900000D01*
D73*
%TO.N,+5V*%
X264050000Y-93850000D02*
X253125000Y-82925000D01*
D71*
X210499000Y-79299000D02*
X187661108Y-79299000D01*
X266050000Y-100050000D02*
X266775000Y-99325000D01*
D75*
X239636500Y-93601000D02*
X236551000Y-93601000D01*
D73*
X264325000Y-93850000D02*
X266775000Y-96300000D01*
D71*
X214125000Y-82925000D02*
X210499000Y-79299000D01*
D75*
X234949000Y-93801000D02*
X235850000Y-92900000D01*
D73*
X214125000Y-88575000D02*
X213600000Y-89100000D01*
D71*
X266775000Y-99325000D02*
X266775000Y-98725000D01*
D75*
X226951000Y-93801000D02*
X234949000Y-93801000D01*
D71*
X186160000Y-80800108D02*
X186160000Y-82500000D01*
D73*
X253600000Y-89100000D02*
X253600000Y-91200000D01*
X214125000Y-82925000D02*
X214125000Y-88575000D01*
D75*
X250249000Y-94551000D02*
X251500000Y-93300000D01*
D71*
X266050000Y-100050000D02*
X266050000Y-100475000D01*
D73*
X213600000Y-89100000D02*
X213600000Y-91900000D01*
X253600000Y-91200000D02*
X251500000Y-93300000D01*
X253125000Y-88625000D02*
X253600000Y-89100000D01*
D75*
X240600000Y-92637500D02*
X242513500Y-94551000D01*
D73*
X264050000Y-93850000D02*
X250174000Y-79974000D01*
D71*
X187661108Y-79299000D02*
X186160000Y-80800108D01*
D73*
X250174000Y-79974000D02*
X217076000Y-79974000D01*
X262500000Y-98600000D02*
X262500000Y-95400000D01*
X266775000Y-98725000D02*
X267049000Y-98999000D01*
X213600000Y-91900000D02*
X212200000Y-93300000D01*
D75*
X240600000Y-92637500D02*
X239636500Y-93601000D01*
D76*
X262500000Y-99450000D02*
X262500000Y-98600000D01*
D73*
X217076000Y-79974000D02*
X214125000Y-82925000D01*
X262500000Y-95400000D02*
X264050000Y-93850000D01*
X264050000Y-93850000D02*
X264325000Y-93850000D01*
D71*
X265450000Y-99450000D02*
X262500000Y-99450000D01*
D75*
X236551000Y-93601000D02*
X235850000Y-92900000D01*
X225387500Y-92237500D02*
X226250000Y-93100000D01*
X226250000Y-93100000D02*
X226951000Y-93801000D01*
X222600000Y-92237500D02*
X225387500Y-92237500D01*
D73*
X266775000Y-96300000D02*
X266775000Y-98725000D01*
D75*
X242513500Y-94551000D02*
X250249000Y-94551000D01*
D73*
X253125000Y-82925000D02*
X253125000Y-88625000D01*
D71*
X266050000Y-100050000D02*
X265450000Y-99450000D01*
D74*
%TO.N,Net-(D5-I{slash}O2)*%
X229600000Y-88850000D02*
X229725000Y-88725000D01*
X229600000Y-89100000D02*
X229600000Y-88850000D01*
X229725000Y-88725000D02*
X229725000Y-82925000D01*
X229600000Y-91650000D02*
X228150000Y-93100000D01*
X229600000Y-89100000D02*
X229600000Y-91650000D01*
D75*
%TO.N,/Target Interface/Level Shifter/HC*%
X227449000Y-95801000D02*
X228150000Y-95100000D01*
X222600000Y-95162500D02*
X223238500Y-95801000D01*
X227301000Y-95949000D02*
X227449000Y-95801000D01*
X227600000Y-99237500D02*
X227301000Y-98938500D01*
X223238500Y-95801000D02*
X227449000Y-95801000D01*
X227301000Y-98938500D02*
X227301000Y-95949000D01*
D74*
%TO.N,Net-(D7-D1-)*%
X270550000Y-143960500D02*
X270550000Y-148850000D01*
X269200000Y-150200000D02*
X269200000Y-151065500D01*
X269200000Y-151065500D02*
X268450000Y-151815500D01*
X266550000Y-143900000D02*
X266750000Y-143700000D01*
X270550000Y-148850000D02*
X269200000Y-150200000D01*
X270289500Y-143700000D02*
X270550000Y-143960500D01*
X270380000Y-155428000D02*
X270380000Y-156300000D01*
X266750000Y-143700000D02*
X270289500Y-143700000D01*
X268450000Y-154100000D02*
X268450000Y-154600000D01*
X268950000Y-155100000D02*
X270052000Y-155100000D01*
X268450000Y-151815500D02*
X268450000Y-153300000D01*
X270052000Y-155100000D02*
X270380000Y-155428000D01*
X268450000Y-154600000D02*
X268950000Y-155100000D01*
X268450000Y-154100000D02*
X268450000Y-153300000D01*
%TO.N,Net-(D7-D1+)*%
X267380000Y-156300000D02*
X267380000Y-155428000D01*
X267380000Y-155428000D02*
X267950000Y-154858000D01*
X267836500Y-145349001D02*
X267836500Y-153186500D01*
X267950000Y-154100000D02*
X267950000Y-153300000D01*
X267387499Y-144900000D02*
X267836500Y-145349001D01*
X267836500Y-153186500D02*
X267950000Y-153300000D01*
X266550000Y-144900000D02*
X267387499Y-144900000D01*
X267950000Y-154858000D02*
X267950000Y-154100000D01*
%TO.N,Net-(J3-SHIELD)*%
X276525000Y-156900000D02*
X277150000Y-157525000D01*
X264310000Y-156900000D02*
X264310000Y-157450000D01*
X272950000Y-156900000D02*
X276525000Y-156900000D01*
X264310000Y-161100000D02*
X272950000Y-161100000D01*
X264956000Y-158096000D02*
X271800008Y-158096000D01*
X276525000Y-157525000D02*
X277150000Y-157525000D01*
X271800008Y-158096000D02*
X272950000Y-156946008D01*
X272950000Y-161100000D02*
X276525000Y-157525000D01*
X264310000Y-157450000D02*
X264956000Y-158096000D01*
X272950000Y-156946008D02*
X272950000Y-156900000D01*
%TO.N,+3.3V*%
X191240000Y-87974300D02*
X191240000Y-82500000D01*
X234101000Y-102431000D02*
X234101000Y-96842968D01*
X221739840Y-94299000D02*
X228340968Y-94299000D01*
X192701700Y-89436000D02*
X191240000Y-87974300D01*
X234101000Y-96842968D02*
X233062500Y-95804468D01*
X203400000Y-81984942D02*
X202239058Y-80824000D01*
X207800000Y-91336160D02*
X207800000Y-90000000D01*
D75*
X230800000Y-95112500D02*
X230800000Y-94837500D01*
D74*
X202239058Y-80824000D02*
X192916000Y-80824000D01*
X221424000Y-94614840D02*
X211078680Y-94614840D01*
X203400000Y-85600000D02*
X207800000Y-90000000D01*
X192916000Y-80824000D02*
X191240000Y-82500000D01*
X224762500Y-100525000D02*
X227691968Y-100525000D01*
X228550000Y-99666968D02*
X228550000Y-97362500D01*
X227691968Y-100525000D02*
X228550000Y-99666968D01*
X228340968Y-94299000D02*
X228879468Y-94837500D01*
X228550000Y-97362500D02*
X230800000Y-95112500D01*
X233062500Y-95804468D02*
X233062500Y-95350000D01*
X228879468Y-94837500D02*
X230800000Y-94837500D01*
X253500000Y-121830000D02*
X234101000Y-102431000D01*
X232550000Y-94837500D02*
X233062500Y-95350000D01*
X211078680Y-94614840D02*
X207800000Y-91336160D01*
X230800000Y-94837500D02*
X232550000Y-94837500D01*
X221424000Y-94614840D02*
X221739840Y-94299000D01*
X224200000Y-99962500D02*
X224762500Y-100525000D01*
X203400000Y-81984942D02*
X203400000Y-85600000D01*
%TO.N,SDA*%
X214100000Y-102400000D02*
X238610000Y-126910000D01*
X198055000Y-100400000D02*
X204400000Y-100400000D01*
X202785000Y-92200000D02*
X208000000Y-92200000D01*
X205600000Y-101600000D02*
X206800000Y-101600000D01*
X207800000Y-100600000D02*
X207800000Y-99200000D01*
X212837500Y-97037500D02*
X224200000Y-97037500D01*
X204400000Y-100400000D02*
X205600000Y-101600000D01*
X207600000Y-101600000D02*
X208400000Y-102400000D01*
X208000000Y-92200000D02*
X212837500Y-97037500D01*
X196320000Y-98665000D02*
X202785000Y-92200000D01*
D75*
X226650000Y-97362500D02*
X224525000Y-97362500D01*
D74*
X196320000Y-98665000D02*
X198055000Y-100400000D01*
X206800000Y-101600000D02*
X207800000Y-100600000D01*
X238610000Y-126910000D02*
X253500000Y-126910000D01*
X206800000Y-101600000D02*
X207600000Y-101600000D01*
X208400000Y-102400000D02*
X214100000Y-102400000D01*
D75*
X224525000Y-97362500D02*
X224200000Y-97037500D01*
D74*
%TO.N,SCL*%
X237800000Y-109800000D02*
X237800000Y-114600000D01*
X198860000Y-98665000D02*
X200725000Y-96800000D01*
X237800000Y-114600000D02*
X247570000Y-124370000D01*
X212726000Y-100926000D02*
X228400000Y-100926000D01*
X200725000Y-96800000D02*
X207200000Y-96800000D01*
X207200000Y-96800000D02*
X207800000Y-96200000D01*
X230800000Y-97762500D02*
X230800000Y-98526000D01*
X228400000Y-100926000D02*
X228926000Y-100926000D01*
X207200000Y-96800000D02*
X208600000Y-96800000D01*
X230800000Y-98526000D02*
X228400000Y-100926000D01*
X228926000Y-100926000D02*
X237800000Y-109800000D01*
X230800000Y-97762500D02*
X232550000Y-97762500D01*
X247570000Y-124370000D02*
X253500000Y-124370000D01*
X207800000Y-96200000D02*
X207800000Y-94600000D01*
X208600000Y-96800000D02*
X212726000Y-100926000D01*
X232550000Y-97762500D02*
X233062500Y-97250000D01*
D75*
%TO.N,Net-(U3-EN)*%
X268885000Y-138322500D02*
X268885000Y-137125000D01*
X270462500Y-139900000D02*
X268885000Y-138322500D01*
X272837500Y-139900000D02*
X272950000Y-140012500D01*
X270462500Y-139900000D02*
X272837500Y-139900000D01*
D74*
%TO.N,Net-(U2-CFG1)*%
X264062500Y-146900000D02*
X266550000Y-146900000D01*
%TO.N,Net-(U2-VBUS)*%
X265062500Y-145900000D02*
X266550000Y-145900000D01*
X264062500Y-144900000D02*
X265062500Y-145900000D01*
D73*
%TO.N,Net-(R11-Pad2)*%
X272464500Y-116360500D02*
X272464500Y-113500000D01*
X272375000Y-116450000D02*
X272464500Y-116360500D01*
D75*
%TO.N,Net-(U5-EN{slash}UVLO)*%
X268200000Y-107762500D02*
X268062500Y-107900000D01*
D76*
X268062500Y-107900000D02*
X270637500Y-107900000D01*
D75*
X268200000Y-102200000D02*
X268200000Y-107762500D01*
D76*
%TO.N,Net-(U5-OVP)*%
X272462500Y-107900000D02*
X274837500Y-107900000D01*
D75*
X268700000Y-104137500D02*
X272462500Y-107900000D01*
X268700000Y-102200000D02*
X268700000Y-104137500D01*
%TO.N,Net-(U5-ILIM)*%
X272237500Y-103050000D02*
X272100000Y-103050000D01*
X270600000Y-101550000D02*
X269850000Y-101550000D01*
X272100000Y-103050000D02*
X270600000Y-101550000D01*
%TO.N,Net-(U5-PGTH)*%
X268600000Y-96300000D02*
X268200000Y-96700000D01*
X268200000Y-96700000D02*
X268200000Y-99400000D01*
X268600000Y-94437500D02*
X268737500Y-94300000D01*
X268600000Y-96300000D02*
X268600000Y-94437500D01*
D74*
%TO.N,Imon*%
X272976340Y-111400000D02*
X271363500Y-113012840D01*
X278251000Y-108937500D02*
X275800000Y-111388500D01*
X271047660Y-114501000D02*
X270899000Y-114501000D01*
X272575000Y-94250000D02*
X273576000Y-95251000D01*
X273799000Y-95474000D02*
X274488064Y-95474000D01*
X270250000Y-100550000D02*
X269850000Y-100550000D01*
X261500000Y-120900000D02*
X256800000Y-125600000D01*
X272575000Y-94250000D02*
X273799000Y-95474000D01*
X273576000Y-95251000D02*
X274265064Y-95251000D01*
X247975000Y-155400000D02*
X191240000Y-98665000D01*
X271363500Y-114185160D02*
X271047660Y-114501000D01*
X254200000Y-155400000D02*
X247975000Y-155400000D01*
X278251000Y-99236936D02*
X278251000Y-108937500D01*
X274265064Y-95251000D02*
X278251000Y-99236936D01*
X268800000Y-116600000D02*
X268800000Y-118500000D01*
X274476000Y-97124000D02*
X273476000Y-97124000D01*
X274488064Y-95474000D02*
X274800000Y-95785936D01*
X274800000Y-95785936D02*
X274800000Y-96800000D01*
X256800000Y-152800000D02*
X254200000Y-155400000D01*
X270451000Y-100149000D02*
X270451000Y-100349000D01*
X270451000Y-100349000D02*
X270250000Y-100550000D01*
X266400000Y-120900000D02*
X261500000Y-120900000D01*
X273476000Y-97124000D02*
X270451000Y-100149000D01*
X274800000Y-96800000D02*
X274476000Y-97124000D01*
X271363500Y-113012840D02*
X271363500Y-114185160D01*
X270899000Y-114501000D02*
X268800000Y-116600000D01*
X256800000Y-125600000D02*
X256800000Y-152800000D01*
X268800000Y-118500000D02*
X266400000Y-120900000D01*
X275800000Y-111400000D02*
X272976340Y-111400000D01*
X275800000Y-111388500D02*
X275800000Y-111400000D01*
%TO.N,/Inputs/SW4*%
X189847760Y-96989000D02*
X185320942Y-96989000D01*
X185320942Y-100341000D02*
X187141000Y-100341000D01*
X198860000Y-87976760D02*
X189847760Y-96989000D01*
X187141000Y-100341000D02*
X197899000Y-111099000D01*
X197899000Y-111099000D02*
X197899000Y-156399000D01*
X184859000Y-97450942D02*
X184859000Y-99879058D01*
X185320942Y-96989000D02*
X184859000Y-97450942D01*
X197899000Y-156399000D02*
X199100000Y-157600000D01*
X184859000Y-99879058D02*
X185320942Y-100341000D01*
X198860000Y-82500000D02*
X198860000Y-87976760D01*
%TO.N,/Inputs/RE_B*%
X185012842Y-100600000D02*
X185154842Y-100742000D01*
X184682228Y-100600000D02*
X185012842Y-100600000D01*
X185200000Y-96200000D02*
X184400000Y-97000000D01*
X188600000Y-153600000D02*
X184600000Y-157600000D01*
X184400000Y-97000000D02*
X184400000Y-100317772D01*
X196320000Y-89949660D02*
X190069660Y-96200000D01*
X185154842Y-100742000D02*
X186974900Y-100742000D01*
X188600000Y-102367100D02*
X188600000Y-153600000D01*
X184400000Y-100317772D02*
X184682228Y-100600000D01*
X186974900Y-100742000D02*
X188600000Y-102367100D01*
X196320000Y-82500000D02*
X196320000Y-89949660D01*
X190069660Y-96200000D02*
X185200000Y-96200000D01*
%TO.N,/Inputs/RE_A*%
X183987500Y-92360160D02*
X183987500Y-91406640D01*
X183987500Y-88866640D02*
X186791460Y-86062680D01*
X184600000Y-152600000D02*
X184000000Y-152000000D01*
X191550700Y-89912760D02*
X192224940Y-90587000D01*
X193178460Y-90587000D02*
X193852700Y-89912760D01*
X183853778Y-143913994D02*
X183853778Y-142136006D01*
X184000000Y-152000000D02*
X184000000Y-144060216D01*
X193852700Y-82572700D02*
X193780000Y-82500000D01*
X183987500Y-89820160D02*
X183987500Y-88866640D01*
X183800000Y-92547660D02*
X183987500Y-92360160D01*
X183987500Y-91406640D02*
X184000000Y-91394140D01*
X184000000Y-144060216D02*
X183853778Y-143913994D01*
X193852700Y-89912760D02*
X193852700Y-82572700D01*
X184000000Y-89832660D02*
X183987500Y-89820160D01*
X184000000Y-91394140D02*
X184000000Y-89832660D01*
X188654140Y-86062680D02*
X191550700Y-88959240D01*
X192224940Y-90587000D02*
X193178460Y-90587000D01*
X186791460Y-86062680D02*
X188654140Y-86062680D01*
X183853778Y-142136006D02*
X183800000Y-142082228D01*
X183800000Y-142082228D02*
X183800000Y-92547660D01*
X191550700Y-88959240D02*
X191550700Y-89912760D01*
%TO.N,/Inputs/SW1*%
X186160000Y-98665000D02*
X221412500Y-133917500D01*
X221412500Y-133917500D02*
X221412500Y-152950000D01*
%TO.N,/Inputs/SW2*%
X188700000Y-100500000D02*
X188700000Y-98665000D01*
X237312500Y-149112500D02*
X188700000Y-100500000D01*
X237312500Y-153000000D02*
X237312500Y-149112500D01*
%TO.N,/Inputs/SW3*%
X220021000Y-124821000D02*
X231000000Y-135800000D01*
X193780000Y-98665000D02*
X219936000Y-124821000D01*
X219936000Y-124821000D02*
X220021000Y-124821000D01*
X231000000Y-135800000D02*
X236012500Y-135800000D01*
X236012500Y-135800000D02*
X253212500Y-153000000D01*
%TD*%
M02*
