%TF.GenerationSoftware,KiCad,Pcbnew,9.0.6*%
%TF.CreationDate,2025-12-16T14:16:24+01:00*%
%TF.ProjectId,controller,636f6e74-726f-46c6-9c65-722e6b696361,1*%
%TF.SameCoordinates,Original*%
%TF.FileFunction,Drillmap*%
%TF.FilePolarity,Positive*%
%FSLAX45Y45*%
G04 Gerber Fmt 4.5, Leading zero omitted, Abs format (unit mm)*
G04 Created by KiCad (PCBNEW 9.0.6) date 2025-12-16 14:16:24*
%MOMM*%
%LPD*%
G01*
G04 APERTURE LIST*
%ADD10C,0.200000*%
%ADD11C,0.000000*%
%ADD12C,0.100000*%
%ADD13C,0.115000*%
%ADD14C,0.120000*%
%ADD15C,0.125000*%
%ADD16C,0.175000*%
G04 APERTURE END LIST*
D10*
X18285000Y-7860000D02*
X28265000Y-7860000D01*
X28265000Y-16310000D01*
X18285000Y-16310000D01*
X18285000Y-7860000D01*
D11*
G36*
X18636184Y-10166783D02*
G01*
X18659316Y-10174299D01*
X18680987Y-10185341D01*
X18700664Y-10199637D01*
X18717863Y-10216836D01*
X18732159Y-10236513D01*
X18743201Y-10258184D01*
X18750717Y-10281316D01*
X18754522Y-10305339D01*
X18754522Y-10329661D01*
X18750717Y-10353684D01*
X18743201Y-10376816D01*
X18732159Y-10398487D01*
X18717863Y-10418164D01*
X18700664Y-10435363D01*
X18680987Y-10449659D01*
X18659316Y-10460701D01*
X18636184Y-10468217D01*
X18612161Y-10472022D01*
X18587839Y-10472022D01*
X18563816Y-10468217D01*
X18540684Y-10460701D01*
X18519013Y-10449659D01*
X18499336Y-10435363D01*
X18482137Y-10418164D01*
X18467841Y-10398487D01*
X18456799Y-10376816D01*
X18449283Y-10353684D01*
X18445478Y-10329661D01*
X18445478Y-10305339D01*
X18449283Y-10281316D01*
X18456799Y-10258184D01*
X18467841Y-10236513D01*
X18482137Y-10216836D01*
X18499336Y-10199637D01*
X18519013Y-10185341D01*
X18540684Y-10174299D01*
X18563816Y-10166783D01*
X18587839Y-10162978D01*
X18612161Y-10162978D01*
X18636184Y-10166783D01*
G37*
G36*
X18636184Y-14151783D02*
G01*
X18659316Y-14159299D01*
X18680987Y-14170341D01*
X18700664Y-14184637D01*
X18717863Y-14201836D01*
X18732159Y-14221513D01*
X18743201Y-14243184D01*
X18750717Y-14266316D01*
X18754522Y-14290339D01*
X18754522Y-14314661D01*
X18750717Y-14338684D01*
X18743201Y-14361816D01*
X18732159Y-14383487D01*
X18717863Y-14403164D01*
X18700664Y-14420363D01*
X18680987Y-14434659D01*
X18659316Y-14445701D01*
X18636184Y-14453217D01*
X18612161Y-14457022D01*
X18587839Y-14457022D01*
X18563816Y-14453217D01*
X18540684Y-14445701D01*
X18519013Y-14434659D01*
X18499336Y-14420363D01*
X18482137Y-14403164D01*
X18467841Y-14383487D01*
X18456799Y-14361816D01*
X18449283Y-14338684D01*
X18445478Y-14314661D01*
X18445478Y-14290339D01*
X18449283Y-14266316D01*
X18456799Y-14243184D01*
X18467841Y-14221513D01*
X18482137Y-14201836D01*
X18499336Y-14184637D01*
X18519013Y-14170341D01*
X18540684Y-14159299D01*
X18563816Y-14151783D01*
X18587839Y-14147978D01*
X18612161Y-14147978D01*
X18636184Y-14151783D01*
G37*
G36*
X25436184Y-10166783D02*
G01*
X25459316Y-10174299D01*
X25480987Y-10185341D01*
X25500664Y-10199637D01*
X25517863Y-10216836D01*
X25532159Y-10236513D01*
X25543201Y-10258184D01*
X25550717Y-10281316D01*
X25554522Y-10305339D01*
X25554522Y-10329661D01*
X25550717Y-10353684D01*
X25543201Y-10376816D01*
X25532159Y-10398487D01*
X25517863Y-10418164D01*
X25500664Y-10435363D01*
X25480987Y-10449659D01*
X25459316Y-10460701D01*
X25436184Y-10468217D01*
X25412161Y-10472022D01*
X25387839Y-10472022D01*
X25363816Y-10468217D01*
X25340684Y-10460701D01*
X25319013Y-10449659D01*
X25299336Y-10435363D01*
X25282137Y-10418164D01*
X25267841Y-10398487D01*
X25256799Y-10376816D01*
X25249283Y-10353684D01*
X25245478Y-10329661D01*
X25245478Y-10305339D01*
X25249283Y-10281316D01*
X25256799Y-10258184D01*
X25267841Y-10236513D01*
X25282137Y-10216836D01*
X25299336Y-10199637D01*
X25319013Y-10185341D01*
X25340684Y-10174299D01*
X25363816Y-10166783D01*
X25387839Y-10162978D01*
X25412161Y-10162978D01*
X25436184Y-10166783D01*
G37*
G36*
X25436184Y-14151783D02*
G01*
X25459316Y-14159299D01*
X25480987Y-14170341D01*
X25500664Y-14184637D01*
X25517863Y-14201836D01*
X25532159Y-14221513D01*
X25543201Y-14243184D01*
X25550717Y-14266316D01*
X25554522Y-14290339D01*
X25554522Y-14314661D01*
X25550717Y-14338684D01*
X25543201Y-14361816D01*
X25532159Y-14383487D01*
X25517863Y-14403164D01*
X25500664Y-14420363D01*
X25480987Y-14434659D01*
X25459316Y-14445701D01*
X25436184Y-14453217D01*
X25412161Y-14457022D01*
X25387839Y-14457022D01*
X25363816Y-14453217D01*
X25340684Y-14445701D01*
X25319013Y-14434659D01*
X25299336Y-14420363D01*
X25282137Y-14403164D01*
X25267841Y-14383487D01*
X25256799Y-14361816D01*
X25249283Y-14338684D01*
X25245478Y-14314661D01*
X25245478Y-14290339D01*
X25249283Y-14266316D01*
X25256799Y-14243184D01*
X25267841Y-14221513D01*
X25282137Y-14201836D01*
X25299336Y-14184637D01*
X25319013Y-14170341D01*
X25340684Y-14159299D01*
X25363816Y-14151783D01*
X25387839Y-14147978D01*
X25412161Y-14147978D01*
X25436184Y-14151783D01*
G37*
D10*
D12*
X26685000Y-10020000D02*
X26705000Y-10040000D01*
X26705000Y-10020000D02*
X26685000Y-10040000D01*
X26685000Y-10120000D02*
X26705000Y-10140000D01*
X26705000Y-10120000D02*
X26685000Y-10140000D01*
X26785000Y-10020000D02*
X26805000Y-10040000D01*
X26805000Y-10020000D02*
X26785000Y-10040000D01*
X26785000Y-10120000D02*
X26805000Y-10140000D01*
X26805000Y-10120000D02*
X26785000Y-10140000D01*
X26885000Y-10020000D02*
X26905000Y-10040000D01*
X26905000Y-10020000D02*
X26885000Y-10040000D01*
X26885000Y-10120000D02*
X26905000Y-10140000D01*
X26905000Y-10120000D02*
X26885000Y-10140000D01*
X18775000Y-8800000D02*
G75*
G02*
X18745000Y-8800000I-15000J0D01*
G01*
X18745000Y-8800000D02*
G75*
G02*
X18775000Y-8800000I15000J0D01*
G01*
X18835000Y-8060000D02*
G75*
G02*
X18805000Y-8060000I-15000J0D01*
G01*
X18805000Y-8060000D02*
G75*
G02*
X18835000Y-8060000I15000J0D01*
G01*
X18955000Y-8060000D02*
G75*
G02*
X18925000Y-8060000I-15000J0D01*
G01*
X18925000Y-8060000D02*
G75*
G02*
X18955000Y-8060000I15000J0D01*
G01*
X20135000Y-8980000D02*
G75*
G02*
X20105000Y-8980000I-15000J0D01*
G01*
X20105000Y-8980000D02*
G75*
G02*
X20135000Y-8980000I15000J0D01*
G01*
X22535000Y-9510000D02*
G75*
G02*
X22505000Y-9510000I-15000J0D01*
G01*
X22505000Y-9510000D02*
G75*
G02*
X22535000Y-9510000I15000J0D01*
G01*
X23495000Y-9490000D02*
G75*
G02*
X23465000Y-9490000I-15000J0D01*
G01*
X23465000Y-9490000D02*
G75*
G02*
X23495000Y-9490000I15000J0D01*
G01*
X25810000Y-13400000D02*
G75*
G02*
X25780000Y-13400000I-15000J0D01*
G01*
X25780000Y-13400000D02*
G75*
G02*
X25810000Y-13400000I15000J0D01*
G01*
X25810000Y-15080000D02*
G75*
G02*
X25780000Y-15080000I-15000J0D01*
G01*
X25780000Y-15080000D02*
G75*
G02*
X25810000Y-15080000I15000J0D01*
G01*
X25810000Y-15150000D02*
G75*
G02*
X25780000Y-15150000I-15000J0D01*
G01*
X25780000Y-15150000D02*
G75*
G02*
X25810000Y-15150000I15000J0D01*
G01*
X25810000Y-15220000D02*
G75*
G02*
X25780000Y-15220000I-15000J0D01*
G01*
X25780000Y-15220000D02*
G75*
G02*
X25810000Y-15220000I15000J0D01*
G01*
X25865000Y-12850000D02*
G75*
G02*
X25835000Y-12850000I-15000J0D01*
G01*
X25835000Y-12850000D02*
G75*
G02*
X25865000Y-12850000I15000J0D01*
G01*
X26045000Y-12850000D02*
G75*
G02*
X26015000Y-12850000I-15000J0D01*
G01*
X26015000Y-12850000D02*
G75*
G02*
X26045000Y-12850000I15000J0D01*
G01*
X26130000Y-14690000D02*
G75*
G02*
X26100000Y-14690000I-15000J0D01*
G01*
X26100000Y-14690000D02*
G75*
G02*
X26130000Y-14690000I15000J0D01*
G01*
X26220000Y-13510000D02*
G75*
G02*
X26190000Y-13510000I-15000J0D01*
G01*
X26190000Y-13510000D02*
G75*
G02*
X26220000Y-13510000I15000J0D01*
G01*
X26310000Y-13520000D02*
G75*
G02*
X26280000Y-13520000I-15000J0D01*
G01*
X26280000Y-13520000D02*
G75*
G02*
X26310000Y-13520000I15000J0D01*
G01*
X26425000Y-15410000D02*
G75*
G02*
X26395000Y-15410000I-15000J0D01*
G01*
X26395000Y-15410000D02*
G75*
G02*
X26425000Y-15410000I15000J0D01*
G01*
X26425000Y-15480000D02*
G75*
G02*
X26395000Y-15480000I-15000J0D01*
G01*
X26395000Y-15480000D02*
G75*
G02*
X26425000Y-15480000I15000J0D01*
G01*
X26495000Y-15410000D02*
G75*
G02*
X26465000Y-15410000I-15000J0D01*
G01*
X26465000Y-15410000D02*
G75*
G02*
X26495000Y-15410000I15000J0D01*
G01*
X26495000Y-15480000D02*
G75*
G02*
X26465000Y-15480000I-15000J0D01*
G01*
X26465000Y-15480000D02*
G75*
G02*
X26495000Y-15480000I15000J0D01*
G01*
X26555000Y-15450000D02*
G75*
G02*
X26525000Y-15450000I-15000J0D01*
G01*
X26525000Y-15450000D02*
G75*
G02*
X26555000Y-15450000I15000J0D01*
G01*
X26780000Y-12970000D02*
G75*
G02*
X26750000Y-12970000I-15000J0D01*
G01*
X26750000Y-12970000D02*
G75*
G02*
X26780000Y-12970000I15000J0D01*
G01*
X26785000Y-10930000D02*
G75*
G02*
X26755000Y-10930000I-15000J0D01*
G01*
X26755000Y-10930000D02*
G75*
G02*
X26785000Y-10930000I15000J0D01*
G01*
X26785000Y-11600000D02*
G75*
G02*
X26755000Y-11600000I-15000J0D01*
G01*
X26755000Y-11600000D02*
G75*
G02*
X26785000Y-11600000I15000J0D01*
G01*
X26935000Y-15220000D02*
G75*
G02*
X26905000Y-15220000I-15000J0D01*
G01*
X26905000Y-15220000D02*
G75*
G02*
X26935000Y-15220000I15000J0D01*
G01*
X26950000Y-10320000D02*
G75*
G02*
X26920000Y-10320000I-15000J0D01*
G01*
X26920000Y-10320000D02*
G75*
G02*
X26950000Y-10320000I15000J0D01*
G01*
X27020000Y-9550000D02*
G75*
G02*
X26990000Y-9550000I-15000J0D01*
G01*
X26990000Y-9550000D02*
G75*
G02*
X27020000Y-9550000I15000J0D01*
G01*
X27180000Y-13820000D02*
G75*
G02*
X27150000Y-13820000I-15000J0D01*
G01*
X27150000Y-13820000D02*
G75*
G02*
X27180000Y-13820000I15000J0D01*
G01*
X27190000Y-12590000D02*
G75*
G02*
X27160000Y-12590000I-15000J0D01*
G01*
X27160000Y-12590000D02*
G75*
G02*
X27190000Y-12590000I15000J0D01*
G01*
X27205000Y-15470000D02*
G75*
G02*
X27175000Y-15470000I-15000J0D01*
G01*
X27175000Y-15470000D02*
G75*
G02*
X27205000Y-15470000I15000J0D01*
G01*
X27275000Y-15400000D02*
G75*
G02*
X27245000Y-15400000I-15000J0D01*
G01*
X27245000Y-15400000D02*
G75*
G02*
X27275000Y-15400000I15000J0D01*
G01*
X27275000Y-15470000D02*
G75*
G02*
X27245000Y-15470000I-15000J0D01*
G01*
X27245000Y-15470000D02*
G75*
G02*
X27275000Y-15470000I15000J0D01*
G01*
X27345000Y-15400000D02*
G75*
G02*
X27315000Y-15400000I-15000J0D01*
G01*
X27315000Y-15400000D02*
G75*
G02*
X27345000Y-15400000I15000J0D01*
G01*
X27345000Y-15470000D02*
G75*
G02*
X27315000Y-15470000I-15000J0D01*
G01*
X27315000Y-15470000D02*
G75*
G02*
X27345000Y-15470000I15000J0D01*
G01*
X27370000Y-12150000D02*
G75*
G02*
X27340000Y-12150000I-15000J0D01*
G01*
X27340000Y-12150000D02*
G75*
G02*
X27370000Y-12150000I15000J0D01*
G01*
X27390000Y-13490000D02*
G75*
G02*
X27360000Y-13490000I-15000J0D01*
G01*
X27360000Y-13490000D02*
G75*
G02*
X27390000Y-13490000I15000J0D01*
G01*
X27420000Y-10430000D02*
G75*
G02*
X27390000Y-10430000I-15000J0D01*
G01*
X27390000Y-10430000D02*
G75*
G02*
X27420000Y-10430000I15000J0D01*
G01*
X27430000Y-9960000D02*
G75*
G02*
X27400000Y-9960000I-15000J0D01*
G01*
X27400000Y-9960000D02*
G75*
G02*
X27430000Y-9960000I15000J0D01*
G01*
X27430000Y-12150000D02*
G75*
G02*
X27400000Y-12150000I-15000J0D01*
G01*
X27400000Y-12150000D02*
G75*
G02*
X27430000Y-12150000I15000J0D01*
G01*
X27490000Y-12150000D02*
G75*
G02*
X27460000Y-12150000I-15000J0D01*
G01*
X27460000Y-12150000D02*
G75*
G02*
X27490000Y-12150000I15000J0D01*
G01*
X27570000Y-9340000D02*
G75*
G02*
X27540000Y-9340000I-15000J0D01*
G01*
X27540000Y-9340000D02*
G75*
G02*
X27570000Y-9340000I15000J0D01*
G01*
X27575000Y-14620000D02*
G75*
G02*
X27545000Y-14620000I-15000J0D01*
G01*
X27545000Y-14620000D02*
G75*
G02*
X27575000Y-14620000I15000J0D01*
G01*
X27580000Y-12810000D02*
G75*
G02*
X27550000Y-12810000I-15000J0D01*
G01*
X27550000Y-12810000D02*
G75*
G02*
X27580000Y-12810000I15000J0D01*
G01*
X27590000Y-15300000D02*
G75*
G02*
X27560000Y-15300000I-15000J0D01*
G01*
X27560000Y-15300000D02*
G75*
G02*
X27590000Y-15300000I15000J0D01*
G01*
X27600000Y-15570000D02*
G75*
G02*
X27570000Y-15570000I-15000J0D01*
G01*
X27570000Y-15570000D02*
G75*
G02*
X27600000Y-15570000I15000J0D01*
G01*
X27780000Y-10730000D02*
G75*
G02*
X27750000Y-10730000I-15000J0D01*
G01*
X27750000Y-10730000D02*
G75*
G02*
X27780000Y-10730000I15000J0D01*
G01*
X27780000Y-10790000D02*
G75*
G02*
X27750000Y-10790000I-15000J0D01*
G01*
X27750000Y-10790000D02*
G75*
G02*
X27780000Y-10790000I15000J0D01*
G01*
X27780000Y-10850000D02*
G75*
G02*
X27750000Y-10850000I-15000J0D01*
G01*
X27750000Y-10850000D02*
G75*
G02*
X27780000Y-10850000I15000J0D01*
G01*
X28170000Y-15300000D02*
G75*
G02*
X28140000Y-15300000I-15000J0D01*
G01*
X28140000Y-15300000D02*
G75*
G02*
X28170000Y-15300000I15000J0D01*
G01*
X26695000Y-13340000D02*
X26695000Y-13380000D01*
X26675000Y-13360000D02*
X26715000Y-13360000D01*
X26695000Y-13470000D02*
X26695000Y-13510000D01*
X26675000Y-13490000D02*
X26715000Y-13490000D01*
X26825000Y-13340000D02*
X26825000Y-13380000D01*
X26805000Y-13360000D02*
X26845000Y-13360000D01*
X26825000Y-13470000D02*
X26825000Y-13510000D01*
X26805000Y-13490000D02*
X26845000Y-13490000D01*
X26955000Y-13340000D02*
X26955000Y-13380000D01*
X26935000Y-13360000D02*
X26975000Y-13360000D01*
X26955000Y-13470000D02*
X26955000Y-13510000D01*
X26935000Y-13490000D02*
X26975000Y-13490000D01*
X26936781Y-14544531D02*
X26936781Y-14508469D01*
X26900719Y-14508469D01*
X26900719Y-14544531D01*
X26936781Y-14544531D01*
X26936781Y-14671531D02*
X26936781Y-14635469D01*
X26900719Y-14635469D01*
X26900719Y-14671531D01*
X26936781Y-14671531D01*
X26431000Y-15720000D02*
X26461000Y-15690000D01*
X26431000Y-15660000D01*
X26401000Y-15690000D01*
X26431000Y-15720000D01*
X26401000Y-15635000D02*
X26401000Y-15745000D01*
X26461000Y-15745000D02*
G75*
G02*
X26401000Y-15745000I-30000J0D01*
G01*
X26461000Y-15745000D02*
X26461000Y-15635000D01*
X26461000Y-15635000D02*
G75*
G03*
X26401000Y-15635000I-30000J0D01*
G01*
X26431000Y-16140000D02*
X26461000Y-16110000D01*
X26431000Y-16080000D01*
X26401000Y-16110000D01*
X26431000Y-16140000D01*
X26401000Y-16070000D02*
X26401000Y-16150000D01*
X26461000Y-16150000D02*
G75*
G02*
X26401000Y-16150000I-30000J0D01*
G01*
X26461000Y-16150000D02*
X26461000Y-16070000D01*
X26461000Y-16070000D02*
G75*
G03*
X26401000Y-16070000I-30000J0D01*
G01*
X27295000Y-15720000D02*
X27325000Y-15690000D01*
X27295000Y-15660000D01*
X27265000Y-15690000D01*
X27295000Y-15720000D01*
X27265000Y-15635000D02*
X27265000Y-15745000D01*
X27325000Y-15745000D02*
G75*
G02*
X27265000Y-15745000I-30000J0D01*
G01*
X27325000Y-15745000D02*
X27325000Y-15635000D01*
X27325000Y-15635000D02*
G75*
G03*
X27265000Y-15635000I-30000J0D01*
G01*
X27295000Y-16140000D02*
X27325000Y-16110000D01*
X27295000Y-16080000D01*
X27265000Y-16110000D01*
X27295000Y-16140000D01*
X27265000Y-16070000D02*
X27265000Y-16150000D01*
X27325000Y-16150000D02*
G75*
G02*
X27265000Y-16150000I-30000J0D01*
G01*
X27325000Y-16150000D02*
X27325000Y-16070000D01*
X27325000Y-16070000D02*
G75*
G03*
X27265000Y-16070000I-30000J0D01*
G01*
X25300000Y-11879000D02*
X25400000Y-11979000D01*
X25400000Y-11879000D02*
X25300000Y-11979000D01*
X25400000Y-11929000D02*
G75*
G02*
X25300000Y-11929000I-50000J0D01*
G01*
X25300000Y-11929000D02*
G75*
G02*
X25400000Y-11929000I50000J0D01*
G01*
X25300000Y-12133000D02*
X25400000Y-12233000D01*
X25400000Y-12133000D02*
X25300000Y-12233000D01*
X25400000Y-12183000D02*
G75*
G02*
X25300000Y-12183000I-50000J0D01*
G01*
X25300000Y-12183000D02*
G75*
G02*
X25400000Y-12183000I50000J0D01*
G01*
X25300000Y-12387000D02*
X25400000Y-12487000D01*
X25400000Y-12387000D02*
X25300000Y-12487000D01*
X25400000Y-12437000D02*
G75*
G02*
X25300000Y-12437000I-50000J0D01*
G01*
X25300000Y-12437000D02*
G75*
G02*
X25400000Y-12437000I50000J0D01*
G01*
X25300000Y-12641000D02*
X25400000Y-12741000D01*
X25400000Y-12641000D02*
X25300000Y-12741000D01*
X25400000Y-12691000D02*
G75*
G02*
X25300000Y-12691000I-50000J0D01*
G01*
X25300000Y-12691000D02*
G75*
G02*
X25400000Y-12691000I50000J0D01*
G01*
D13*
X20722500Y-8482500D02*
X20837500Y-8597500D01*
X20837500Y-8482500D02*
X20722500Y-8597500D01*
X20780000Y-8482500D02*
X20780000Y-8597500D01*
X20722500Y-8540000D02*
X20837500Y-8540000D01*
X20722500Y-8942500D02*
X20837500Y-9057500D01*
X20837500Y-8942500D02*
X20722500Y-9057500D01*
X20780000Y-8942500D02*
X20780000Y-9057500D01*
X20722500Y-9000000D02*
X20837500Y-9000000D01*
X20722500Y-9402500D02*
X20837500Y-9517500D01*
X20837500Y-9402500D02*
X20722500Y-9517500D01*
X20780000Y-9402500D02*
X20780000Y-9517500D01*
X20722500Y-9460000D02*
X20837500Y-9460000D01*
X20722500Y-9862500D02*
X20837500Y-9977500D01*
X20837500Y-9862500D02*
X20722500Y-9977500D01*
X20780000Y-9862500D02*
X20780000Y-9977500D01*
X20722500Y-9920000D02*
X20837500Y-9920000D01*
D14*
X18400000Y-15200000D02*
X18520000Y-15320000D01*
X18520000Y-15200000D02*
X18400000Y-15320000D01*
X18502427Y-15302427D02*
X18502427Y-15217573D01*
X18417573Y-15217573D01*
X18417573Y-15302427D01*
X18502427Y-15302427D01*
X18400000Y-15450000D02*
X18520000Y-15570000D01*
X18520000Y-15450000D02*
X18400000Y-15570000D01*
X18502427Y-15552427D02*
X18502427Y-15467573D01*
X18417573Y-15467573D01*
X18417573Y-15552427D01*
X18502427Y-15552427D01*
X18400000Y-15700000D02*
X18520000Y-15820000D01*
X18520000Y-15700000D02*
X18400000Y-15820000D01*
X18502427Y-15802427D02*
X18502427Y-15717573D01*
X18417573Y-15717573D01*
X18417573Y-15802427D01*
X18502427Y-15802427D01*
X19850000Y-15200000D02*
X19970000Y-15320000D01*
X19970000Y-15200000D02*
X19850000Y-15320000D01*
X19952427Y-15302427D02*
X19952427Y-15217573D01*
X19867573Y-15217573D01*
X19867573Y-15302427D01*
X19952427Y-15302427D01*
X19850000Y-15700000D02*
X19970000Y-15820000D01*
X19970000Y-15700000D02*
X19850000Y-15820000D01*
X19952427Y-15802427D02*
X19952427Y-15717573D01*
X19867573Y-15717573D01*
X19867573Y-15802427D01*
X19952427Y-15802427D01*
D15*
X20828750Y-15232500D02*
X20953750Y-15357500D01*
X20953750Y-15232500D02*
X20828750Y-15357500D01*
X20891250Y-15357500D02*
X20953750Y-15295000D01*
X20891250Y-15232500D01*
X20828750Y-15295000D01*
X20891250Y-15357500D01*
X20828750Y-15732500D02*
X20953750Y-15857500D01*
X20953750Y-15732500D02*
X20828750Y-15857500D01*
X20891250Y-15857500D02*
X20953750Y-15795000D01*
X20891250Y-15732500D01*
X20828750Y-15795000D01*
X20891250Y-15857500D01*
X22078750Y-15232500D02*
X22203750Y-15357500D01*
X22203750Y-15232500D02*
X22078750Y-15357500D01*
X22141250Y-15357500D02*
X22203750Y-15295000D01*
X22141250Y-15232500D01*
X22078750Y-15295000D01*
X22141250Y-15357500D01*
X22078750Y-15732500D02*
X22203750Y-15857500D01*
X22203750Y-15732500D02*
X22078750Y-15857500D01*
X22141250Y-15857500D02*
X22203750Y-15795000D01*
X22141250Y-15732500D01*
X22078750Y-15795000D01*
X22141250Y-15857500D01*
X22418750Y-15237500D02*
X22543750Y-15362500D01*
X22543750Y-15237500D02*
X22418750Y-15362500D01*
X22481250Y-15362500D02*
X22543750Y-15300000D01*
X22481250Y-15237500D01*
X22418750Y-15300000D01*
X22481250Y-15362500D01*
X22418750Y-15737500D02*
X22543750Y-15862500D01*
X22543750Y-15737500D02*
X22418750Y-15862500D01*
X22481250Y-15862500D02*
X22543750Y-15800000D01*
X22481250Y-15737500D01*
X22418750Y-15800000D01*
X22481250Y-15862500D01*
X23668750Y-15237500D02*
X23793750Y-15362500D01*
X23793750Y-15237500D02*
X23668750Y-15362500D01*
X23731250Y-15362500D02*
X23793750Y-15300000D01*
X23731250Y-15237500D01*
X23668750Y-15300000D01*
X23731250Y-15362500D01*
X23668750Y-15737500D02*
X23793750Y-15862500D01*
X23793750Y-15737500D02*
X23668750Y-15862500D01*
X23731250Y-15862500D02*
X23793750Y-15800000D01*
X23731250Y-15737500D01*
X23668750Y-15800000D01*
X23731250Y-15862500D01*
X24008750Y-15237500D02*
X24133750Y-15362500D01*
X24133750Y-15237500D02*
X24008750Y-15362500D01*
X24071250Y-15362500D02*
X24133750Y-15300000D01*
X24071250Y-15237500D01*
X24008750Y-15300000D01*
X24071250Y-15362500D01*
X24008750Y-15737500D02*
X24133750Y-15862500D01*
X24133750Y-15737500D02*
X24008750Y-15862500D01*
X24071250Y-15862500D02*
X24133750Y-15800000D01*
X24071250Y-15737500D01*
X24008750Y-15800000D01*
X24071250Y-15862500D01*
X25258750Y-15237500D02*
X25383750Y-15362500D01*
X25383750Y-15237500D02*
X25258750Y-15362500D01*
X25321250Y-15362500D02*
X25383750Y-15300000D01*
X25321250Y-15237500D01*
X25258750Y-15300000D01*
X25321250Y-15362500D01*
X25258750Y-15737500D02*
X25383750Y-15862500D01*
X25383750Y-15737500D02*
X25258750Y-15862500D01*
X25321250Y-15862500D02*
X25383750Y-15800000D01*
X25321250Y-15737500D01*
X25258750Y-15800000D01*
X25321250Y-15862500D01*
D16*
X21412500Y-8205000D02*
X21412500Y-8380000D01*
X21325000Y-8292500D02*
X21500000Y-8292500D01*
X21500000Y-8292500D02*
G75*
G02*
X21325000Y-8292500I-87500J0D01*
G01*
X21325000Y-8292500D02*
G75*
G02*
X21500000Y-8292500I87500J0D01*
G01*
X22192500Y-8205000D02*
X22192500Y-8380000D01*
X22105000Y-8292500D02*
X22280000Y-8292500D01*
X22280000Y-8292500D02*
G75*
G02*
X22105000Y-8292500I-87500J0D01*
G01*
X22105000Y-8292500D02*
G75*
G02*
X22280000Y-8292500I87500J0D01*
G01*
X22972500Y-8205000D02*
X22972500Y-8380000D01*
X22885000Y-8292500D02*
X23060000Y-8292500D01*
X23060000Y-8292500D02*
G75*
G02*
X22885000Y-8292500I-87500J0D01*
G01*
X22885000Y-8292500D02*
G75*
G02*
X23060000Y-8292500I87500J0D01*
G01*
X23752500Y-8205000D02*
X23752500Y-8380000D01*
X23665000Y-8292500D02*
X23840000Y-8292500D01*
X23840000Y-8292500D02*
G75*
G02*
X23665000Y-8292500I-87500J0D01*
G01*
X23665000Y-8292500D02*
G75*
G02*
X23840000Y-8292500I87500J0D01*
G01*
X24532500Y-8205000D02*
X24532500Y-8380000D01*
X24445000Y-8292500D02*
X24620000Y-8292500D01*
X24620000Y-8292500D02*
G75*
G02*
X24445000Y-8292500I-87500J0D01*
G01*
X24445000Y-8292500D02*
G75*
G02*
X24620000Y-8292500I87500J0D01*
G01*
X25312500Y-8205000D02*
X25312500Y-8380000D01*
X25225000Y-8292500D02*
X25400000Y-8292500D01*
X25400000Y-8292500D02*
G75*
G02*
X25225000Y-8292500I-87500J0D01*
G01*
X25225000Y-8292500D02*
G75*
G02*
X25400000Y-8292500I87500J0D01*
G01*
D10*
X19280711Y-15020711D02*
X19280711Y-14879289D01*
X19139289Y-14879289D01*
X19139289Y-15020711D01*
X19280711Y-15020711D01*
X19310000Y-14950000D02*
G75*
G02*
X19110000Y-14950000I-100000J0D01*
G01*
X19110000Y-14950000D02*
G75*
G02*
X19310000Y-14950000I100000J0D01*
G01*
D12*
X19225000Y-14850000D02*
X19195000Y-14850000D01*
X19195000Y-15050000D02*
G75*
G02*
X19195000Y-14850000I0J100000D01*
G01*
X19195000Y-15050000D02*
X19225000Y-15050000D01*
X19225000Y-15050000D02*
G75*
G03*
X19225000Y-14850000I0J100000D01*
G01*
D10*
X19280711Y-16140711D02*
X19280711Y-15999289D01*
X19139289Y-15999289D01*
X19139289Y-16140711D01*
X19280711Y-16140711D01*
X19310000Y-16070000D02*
G75*
G02*
X19110000Y-16070000I-100000J0D01*
G01*
X19110000Y-16070000D02*
G75*
G02*
X19310000Y-16070000I100000J0D01*
G01*
D12*
X19225000Y-15970000D02*
X19195000Y-15970000D01*
X19195000Y-16170000D02*
G75*
G02*
X19195000Y-15970000I0J100000D01*
G01*
X19195000Y-16170000D02*
X19225000Y-16170000D01*
X19225000Y-16170000D02*
G75*
G03*
X19225000Y-15970000I0J100000D01*
G01*
D10*
X18535777Y-16631484D02*
X18535777Y-16431484D01*
X18535777Y-16431484D02*
X18583396Y-16431484D01*
X18583396Y-16431484D02*
X18611967Y-16441008D01*
X18611967Y-16441008D02*
X18631015Y-16460055D01*
X18631015Y-16460055D02*
X18640539Y-16479103D01*
X18640539Y-16479103D02*
X18650063Y-16517198D01*
X18650063Y-16517198D02*
X18650063Y-16545769D01*
X18650063Y-16545769D02*
X18640539Y-16583865D01*
X18640539Y-16583865D02*
X18631015Y-16602912D01*
X18631015Y-16602912D02*
X18611967Y-16621960D01*
X18611967Y-16621960D02*
X18583396Y-16631484D01*
X18583396Y-16631484D02*
X18535777Y-16631484D01*
X18735777Y-16631484D02*
X18735777Y-16498150D01*
X18735777Y-16536246D02*
X18745301Y-16517198D01*
X18745301Y-16517198D02*
X18754824Y-16507674D01*
X18754824Y-16507674D02*
X18773872Y-16498150D01*
X18773872Y-16498150D02*
X18792920Y-16498150D01*
X18859586Y-16631484D02*
X18859586Y-16498150D01*
X18859586Y-16431484D02*
X18850063Y-16441008D01*
X18850063Y-16441008D02*
X18859586Y-16450531D01*
X18859586Y-16450531D02*
X18869110Y-16441008D01*
X18869110Y-16441008D02*
X18859586Y-16431484D01*
X18859586Y-16431484D02*
X18859586Y-16450531D01*
X18983396Y-16631484D02*
X18964348Y-16621960D01*
X18964348Y-16621960D02*
X18954824Y-16602912D01*
X18954824Y-16602912D02*
X18954824Y-16431484D01*
X19088158Y-16631484D02*
X19069110Y-16621960D01*
X19069110Y-16621960D02*
X19059586Y-16602912D01*
X19059586Y-16602912D02*
X19059586Y-16431484D01*
X19316729Y-16631484D02*
X19316729Y-16431484D01*
X19316729Y-16431484D02*
X19383396Y-16574341D01*
X19383396Y-16574341D02*
X19450063Y-16431484D01*
X19450063Y-16431484D02*
X19450063Y-16631484D01*
X19631015Y-16631484D02*
X19631015Y-16526722D01*
X19631015Y-16526722D02*
X19621491Y-16507674D01*
X19621491Y-16507674D02*
X19602444Y-16498150D01*
X19602444Y-16498150D02*
X19564348Y-16498150D01*
X19564348Y-16498150D02*
X19545301Y-16507674D01*
X19631015Y-16621960D02*
X19611967Y-16631484D01*
X19611967Y-16631484D02*
X19564348Y-16631484D01*
X19564348Y-16631484D02*
X19545301Y-16621960D01*
X19545301Y-16621960D02*
X19535777Y-16602912D01*
X19535777Y-16602912D02*
X19535777Y-16583865D01*
X19535777Y-16583865D02*
X19545301Y-16564817D01*
X19545301Y-16564817D02*
X19564348Y-16555293D01*
X19564348Y-16555293D02*
X19611967Y-16555293D01*
X19611967Y-16555293D02*
X19631015Y-16545769D01*
X19726253Y-16498150D02*
X19726253Y-16698150D01*
X19726253Y-16507674D02*
X19745301Y-16498150D01*
X19745301Y-16498150D02*
X19783396Y-16498150D01*
X19783396Y-16498150D02*
X19802444Y-16507674D01*
X19802444Y-16507674D02*
X19811967Y-16517198D01*
X19811967Y-16517198D02*
X19821491Y-16536246D01*
X19821491Y-16536246D02*
X19821491Y-16593388D01*
X19821491Y-16593388D02*
X19811967Y-16612436D01*
X19811967Y-16612436D02*
X19802444Y-16621960D01*
X19802444Y-16621960D02*
X19783396Y-16631484D01*
X19783396Y-16631484D02*
X19745301Y-16631484D01*
X19745301Y-16631484D02*
X19726253Y-16621960D01*
X19907205Y-16612436D02*
X19916729Y-16621960D01*
X19916729Y-16621960D02*
X19907205Y-16631484D01*
X19907205Y-16631484D02*
X19897682Y-16621960D01*
X19897682Y-16621960D02*
X19907205Y-16612436D01*
X19907205Y-16612436D02*
X19907205Y-16631484D01*
X19907205Y-16507674D02*
X19916729Y-16517198D01*
X19916729Y-16517198D02*
X19907205Y-16526722D01*
X19907205Y-16526722D02*
X19897682Y-16517198D01*
X19897682Y-16517198D02*
X19907205Y-16507674D01*
X19907205Y-16507674D02*
X19907205Y-16526722D01*
D12*
X18255000Y-16950000D02*
X18275000Y-16970000D01*
X18275000Y-16950000D02*
X18255000Y-16970000D01*
D10*
X18573872Y-16851484D02*
X18592920Y-16851484D01*
X18592920Y-16851484D02*
X18611967Y-16861008D01*
X18611967Y-16861008D02*
X18621491Y-16870531D01*
X18621491Y-16870531D02*
X18631015Y-16889579D01*
X18631015Y-16889579D02*
X18640539Y-16927674D01*
X18640539Y-16927674D02*
X18640539Y-16975293D01*
X18640539Y-16975293D02*
X18631015Y-17013389D01*
X18631015Y-17013389D02*
X18621491Y-17032436D01*
X18621491Y-17032436D02*
X18611967Y-17041960D01*
X18611967Y-17041960D02*
X18592920Y-17051484D01*
X18592920Y-17051484D02*
X18573872Y-17051484D01*
X18573872Y-17051484D02*
X18554824Y-17041960D01*
X18554824Y-17041960D02*
X18545301Y-17032436D01*
X18545301Y-17032436D02*
X18535777Y-17013389D01*
X18535777Y-17013389D02*
X18526253Y-16975293D01*
X18526253Y-16975293D02*
X18526253Y-16927674D01*
X18526253Y-16927674D02*
X18535777Y-16889579D01*
X18535777Y-16889579D02*
X18545301Y-16870531D01*
X18545301Y-16870531D02*
X18554824Y-16861008D01*
X18554824Y-16861008D02*
X18573872Y-16851484D01*
X18726253Y-17032436D02*
X18735777Y-17041960D01*
X18735777Y-17041960D02*
X18726253Y-17051484D01*
X18726253Y-17051484D02*
X18716729Y-17041960D01*
X18716729Y-17041960D02*
X18726253Y-17032436D01*
X18726253Y-17032436D02*
X18726253Y-17051484D01*
X18811967Y-16870531D02*
X18821491Y-16861008D01*
X18821491Y-16861008D02*
X18840539Y-16851484D01*
X18840539Y-16851484D02*
X18888158Y-16851484D01*
X18888158Y-16851484D02*
X18907205Y-16861008D01*
X18907205Y-16861008D02*
X18916729Y-16870531D01*
X18916729Y-16870531D02*
X18926253Y-16889579D01*
X18926253Y-16889579D02*
X18926253Y-16908627D01*
X18926253Y-16908627D02*
X18916729Y-16937198D01*
X18916729Y-16937198D02*
X18802444Y-17051484D01*
X18802444Y-17051484D02*
X18926253Y-17051484D01*
X19050063Y-16851484D02*
X19069110Y-16851484D01*
X19069110Y-16851484D02*
X19088158Y-16861008D01*
X19088158Y-16861008D02*
X19097682Y-16870531D01*
X19097682Y-16870531D02*
X19107205Y-16889579D01*
X19107205Y-16889579D02*
X19116729Y-16927674D01*
X19116729Y-16927674D02*
X19116729Y-16975293D01*
X19116729Y-16975293D02*
X19107205Y-17013389D01*
X19107205Y-17013389D02*
X19097682Y-17032436D01*
X19097682Y-17032436D02*
X19088158Y-17041960D01*
X19088158Y-17041960D02*
X19069110Y-17051484D01*
X19069110Y-17051484D02*
X19050063Y-17051484D01*
X19050063Y-17051484D02*
X19031015Y-17041960D01*
X19031015Y-17041960D02*
X19021491Y-17032436D01*
X19021491Y-17032436D02*
X19011967Y-17013389D01*
X19011967Y-17013389D02*
X19002444Y-16975293D01*
X19002444Y-16975293D02*
X19002444Y-16927674D01*
X19002444Y-16927674D02*
X19011967Y-16889579D01*
X19011967Y-16889579D02*
X19021491Y-16870531D01*
X19021491Y-16870531D02*
X19031015Y-16861008D01*
X19031015Y-16861008D02*
X19050063Y-16851484D01*
X19240539Y-16851484D02*
X19259586Y-16851484D01*
X19259586Y-16851484D02*
X19278634Y-16861008D01*
X19278634Y-16861008D02*
X19288158Y-16870531D01*
X19288158Y-16870531D02*
X19297682Y-16889579D01*
X19297682Y-16889579D02*
X19307205Y-16927674D01*
X19307205Y-16927674D02*
X19307205Y-16975293D01*
X19307205Y-16975293D02*
X19297682Y-17013389D01*
X19297682Y-17013389D02*
X19288158Y-17032436D01*
X19288158Y-17032436D02*
X19278634Y-17041960D01*
X19278634Y-17041960D02*
X19259586Y-17051484D01*
X19259586Y-17051484D02*
X19240539Y-17051484D01*
X19240539Y-17051484D02*
X19221491Y-17041960D01*
X19221491Y-17041960D02*
X19211967Y-17032436D01*
X19211967Y-17032436D02*
X19202444Y-17013389D01*
X19202444Y-17013389D02*
X19192920Y-16975293D01*
X19192920Y-16975293D02*
X19192920Y-16927674D01*
X19192920Y-16927674D02*
X19202444Y-16889579D01*
X19202444Y-16889579D02*
X19211967Y-16870531D01*
X19211967Y-16870531D02*
X19221491Y-16861008D01*
X19221491Y-16861008D02*
X19240539Y-16851484D01*
X19392920Y-17051484D02*
X19392920Y-16918150D01*
X19392920Y-16937198D02*
X19402444Y-16927674D01*
X19402444Y-16927674D02*
X19421491Y-16918150D01*
X19421491Y-16918150D02*
X19450063Y-16918150D01*
X19450063Y-16918150D02*
X19469110Y-16927674D01*
X19469110Y-16927674D02*
X19478634Y-16946722D01*
X19478634Y-16946722D02*
X19478634Y-17051484D01*
X19478634Y-16946722D02*
X19488158Y-16927674D01*
X19488158Y-16927674D02*
X19507205Y-16918150D01*
X19507205Y-16918150D02*
X19535777Y-16918150D01*
X19535777Y-16918150D02*
X19554825Y-16927674D01*
X19554825Y-16927674D02*
X19564348Y-16946722D01*
X19564348Y-16946722D02*
X19564348Y-17051484D01*
X19659586Y-17051484D02*
X19659586Y-16918150D01*
X19659586Y-16937198D02*
X19669110Y-16927674D01*
X19669110Y-16927674D02*
X19688158Y-16918150D01*
X19688158Y-16918150D02*
X19716729Y-16918150D01*
X19716729Y-16918150D02*
X19735777Y-16927674D01*
X19735777Y-16927674D02*
X19745301Y-16946722D01*
X19745301Y-16946722D02*
X19745301Y-17051484D01*
X19745301Y-16946722D02*
X19754825Y-16927674D01*
X19754825Y-16927674D02*
X19773872Y-16918150D01*
X19773872Y-16918150D02*
X19802444Y-16918150D01*
X19802444Y-16918150D02*
X19821491Y-16927674D01*
X19821491Y-16927674D02*
X19831015Y-16946722D01*
X19831015Y-16946722D02*
X19831015Y-17051484D01*
X20221491Y-16841960D02*
X20050063Y-17099103D01*
X20478634Y-16851484D02*
X20497682Y-16851484D01*
X20497682Y-16851484D02*
X20516729Y-16861008D01*
X20516729Y-16861008D02*
X20526253Y-16870531D01*
X20526253Y-16870531D02*
X20535777Y-16889579D01*
X20535777Y-16889579D02*
X20545301Y-16927674D01*
X20545301Y-16927674D02*
X20545301Y-16975293D01*
X20545301Y-16975293D02*
X20535777Y-17013389D01*
X20535777Y-17013389D02*
X20526253Y-17032436D01*
X20526253Y-17032436D02*
X20516729Y-17041960D01*
X20516729Y-17041960D02*
X20497682Y-17051484D01*
X20497682Y-17051484D02*
X20478634Y-17051484D01*
X20478634Y-17051484D02*
X20459587Y-17041960D01*
X20459587Y-17041960D02*
X20450063Y-17032436D01*
X20450063Y-17032436D02*
X20440539Y-17013389D01*
X20440539Y-17013389D02*
X20431015Y-16975293D01*
X20431015Y-16975293D02*
X20431015Y-16927674D01*
X20431015Y-16927674D02*
X20440539Y-16889579D01*
X20440539Y-16889579D02*
X20450063Y-16870531D01*
X20450063Y-16870531D02*
X20459587Y-16861008D01*
X20459587Y-16861008D02*
X20478634Y-16851484D01*
X20631015Y-17032436D02*
X20640539Y-17041960D01*
X20640539Y-17041960D02*
X20631015Y-17051484D01*
X20631015Y-17051484D02*
X20621491Y-17041960D01*
X20621491Y-17041960D02*
X20631015Y-17032436D01*
X20631015Y-17032436D02*
X20631015Y-17051484D01*
X20764348Y-16851484D02*
X20783396Y-16851484D01*
X20783396Y-16851484D02*
X20802444Y-16861008D01*
X20802444Y-16861008D02*
X20811968Y-16870531D01*
X20811968Y-16870531D02*
X20821491Y-16889579D01*
X20821491Y-16889579D02*
X20831015Y-16927674D01*
X20831015Y-16927674D02*
X20831015Y-16975293D01*
X20831015Y-16975293D02*
X20821491Y-17013389D01*
X20821491Y-17013389D02*
X20811968Y-17032436D01*
X20811968Y-17032436D02*
X20802444Y-17041960D01*
X20802444Y-17041960D02*
X20783396Y-17051484D01*
X20783396Y-17051484D02*
X20764348Y-17051484D01*
X20764348Y-17051484D02*
X20745301Y-17041960D01*
X20745301Y-17041960D02*
X20735777Y-17032436D01*
X20735777Y-17032436D02*
X20726253Y-17013389D01*
X20726253Y-17013389D02*
X20716729Y-16975293D01*
X20716729Y-16975293D02*
X20716729Y-16927674D01*
X20716729Y-16927674D02*
X20726253Y-16889579D01*
X20726253Y-16889579D02*
X20735777Y-16870531D01*
X20735777Y-16870531D02*
X20745301Y-16861008D01*
X20745301Y-16861008D02*
X20764348Y-16851484D01*
X20954825Y-16851484D02*
X20973872Y-16851484D01*
X20973872Y-16851484D02*
X20992920Y-16861008D01*
X20992920Y-16861008D02*
X21002444Y-16870531D01*
X21002444Y-16870531D02*
X21011968Y-16889579D01*
X21011968Y-16889579D02*
X21021491Y-16927674D01*
X21021491Y-16927674D02*
X21021491Y-16975293D01*
X21021491Y-16975293D02*
X21011968Y-17013389D01*
X21011968Y-17013389D02*
X21002444Y-17032436D01*
X21002444Y-17032436D02*
X20992920Y-17041960D01*
X20992920Y-17041960D02*
X20973872Y-17051484D01*
X20973872Y-17051484D02*
X20954825Y-17051484D01*
X20954825Y-17051484D02*
X20935777Y-17041960D01*
X20935777Y-17041960D02*
X20926253Y-17032436D01*
X20926253Y-17032436D02*
X20916729Y-17013389D01*
X20916729Y-17013389D02*
X20907206Y-16975293D01*
X20907206Y-16975293D02*
X20907206Y-16927674D01*
X20907206Y-16927674D02*
X20916729Y-16889579D01*
X20916729Y-16889579D02*
X20926253Y-16870531D01*
X20926253Y-16870531D02*
X20935777Y-16861008D01*
X20935777Y-16861008D02*
X20954825Y-16851484D01*
X21088158Y-16851484D02*
X21221491Y-16851484D01*
X21221491Y-16851484D02*
X21135777Y-17051484D01*
X21307206Y-17051484D02*
X21345301Y-17051484D01*
X21345301Y-17051484D02*
X21364349Y-17041960D01*
X21364349Y-17041960D02*
X21373872Y-17032436D01*
X21373872Y-17032436D02*
X21392920Y-17003865D01*
X21392920Y-17003865D02*
X21402444Y-16965770D01*
X21402444Y-16965770D02*
X21402444Y-16889579D01*
X21402444Y-16889579D02*
X21392920Y-16870531D01*
X21392920Y-16870531D02*
X21383396Y-16861008D01*
X21383396Y-16861008D02*
X21364349Y-16851484D01*
X21364349Y-16851484D02*
X21326253Y-16851484D01*
X21326253Y-16851484D02*
X21307206Y-16861008D01*
X21307206Y-16861008D02*
X21297682Y-16870531D01*
X21297682Y-16870531D02*
X21288158Y-16889579D01*
X21288158Y-16889579D02*
X21288158Y-16937198D01*
X21288158Y-16937198D02*
X21297682Y-16956246D01*
X21297682Y-16956246D02*
X21307206Y-16965770D01*
X21307206Y-16965770D02*
X21326253Y-16975293D01*
X21326253Y-16975293D02*
X21364349Y-16975293D01*
X21364349Y-16975293D02*
X21383396Y-16965770D01*
X21383396Y-16965770D02*
X21392920Y-16956246D01*
X21392920Y-16956246D02*
X21402444Y-16937198D01*
X21478634Y-16851484D02*
X21478634Y-16889579D01*
X21554825Y-16851484D02*
X21554825Y-16889579D01*
X21850063Y-17127674D02*
X21840539Y-17118150D01*
X21840539Y-17118150D02*
X21821491Y-17089579D01*
X21821491Y-17089579D02*
X21811968Y-17070531D01*
X21811968Y-17070531D02*
X21802444Y-17041960D01*
X21802444Y-17041960D02*
X21792920Y-16994341D01*
X21792920Y-16994341D02*
X21792920Y-16956246D01*
X21792920Y-16956246D02*
X21802444Y-16908627D01*
X21802444Y-16908627D02*
X21811968Y-16880055D01*
X21811968Y-16880055D02*
X21821491Y-16861008D01*
X21821491Y-16861008D02*
X21840539Y-16832436D01*
X21840539Y-16832436D02*
X21850063Y-16822912D01*
X22011968Y-16851484D02*
X21973872Y-16851484D01*
X21973872Y-16851484D02*
X21954825Y-16861008D01*
X21954825Y-16861008D02*
X21945301Y-16870531D01*
X21945301Y-16870531D02*
X21926253Y-16899103D01*
X21926253Y-16899103D02*
X21916730Y-16937198D01*
X21916730Y-16937198D02*
X21916730Y-17013389D01*
X21916730Y-17013389D02*
X21926253Y-17032436D01*
X21926253Y-17032436D02*
X21935777Y-17041960D01*
X21935777Y-17041960D02*
X21954825Y-17051484D01*
X21954825Y-17051484D02*
X21992920Y-17051484D01*
X21992920Y-17051484D02*
X22011968Y-17041960D01*
X22011968Y-17041960D02*
X22021491Y-17032436D01*
X22021491Y-17032436D02*
X22031015Y-17013389D01*
X22031015Y-17013389D02*
X22031015Y-16965770D01*
X22031015Y-16965770D02*
X22021491Y-16946722D01*
X22021491Y-16946722D02*
X22011968Y-16937198D01*
X22011968Y-16937198D02*
X21992920Y-16927674D01*
X21992920Y-16927674D02*
X21954825Y-16927674D01*
X21954825Y-16927674D02*
X21935777Y-16937198D01*
X21935777Y-16937198D02*
X21926253Y-16946722D01*
X21926253Y-16946722D02*
X21916730Y-16965770D01*
X22269111Y-17051484D02*
X22269111Y-16851484D01*
X22354825Y-17051484D02*
X22354825Y-16946722D01*
X22354825Y-16946722D02*
X22345301Y-16927674D01*
X22345301Y-16927674D02*
X22326253Y-16918150D01*
X22326253Y-16918150D02*
X22297682Y-16918150D01*
X22297682Y-16918150D02*
X22278634Y-16927674D01*
X22278634Y-16927674D02*
X22269111Y-16937198D01*
X22478634Y-17051484D02*
X22459587Y-17041960D01*
X22459587Y-17041960D02*
X22450063Y-17032436D01*
X22450063Y-17032436D02*
X22440539Y-17013389D01*
X22440539Y-17013389D02*
X22440539Y-16956246D01*
X22440539Y-16956246D02*
X22450063Y-16937198D01*
X22450063Y-16937198D02*
X22459587Y-16927674D01*
X22459587Y-16927674D02*
X22478634Y-16918150D01*
X22478634Y-16918150D02*
X22507206Y-16918150D01*
X22507206Y-16918150D02*
X22526253Y-16927674D01*
X22526253Y-16927674D02*
X22535777Y-16937198D01*
X22535777Y-16937198D02*
X22545301Y-16956246D01*
X22545301Y-16956246D02*
X22545301Y-17013389D01*
X22545301Y-17013389D02*
X22535777Y-17032436D01*
X22535777Y-17032436D02*
X22526253Y-17041960D01*
X22526253Y-17041960D02*
X22507206Y-17051484D01*
X22507206Y-17051484D02*
X22478634Y-17051484D01*
X22659587Y-17051484D02*
X22640539Y-17041960D01*
X22640539Y-17041960D02*
X22631015Y-17022912D01*
X22631015Y-17022912D02*
X22631015Y-16851484D01*
X22811968Y-17041960D02*
X22792920Y-17051484D01*
X22792920Y-17051484D02*
X22754825Y-17051484D01*
X22754825Y-17051484D02*
X22735777Y-17041960D01*
X22735777Y-17041960D02*
X22726253Y-17022912D01*
X22726253Y-17022912D02*
X22726253Y-16946722D01*
X22726253Y-16946722D02*
X22735777Y-16927674D01*
X22735777Y-16927674D02*
X22754825Y-16918150D01*
X22754825Y-16918150D02*
X22792920Y-16918150D01*
X22792920Y-16918150D02*
X22811968Y-16927674D01*
X22811968Y-16927674D02*
X22821491Y-16946722D01*
X22821491Y-16946722D02*
X22821491Y-16965770D01*
X22821491Y-16965770D02*
X22726253Y-16984817D01*
X22897682Y-17041960D02*
X22916730Y-17051484D01*
X22916730Y-17051484D02*
X22954825Y-17051484D01*
X22954825Y-17051484D02*
X22973872Y-17041960D01*
X22973872Y-17041960D02*
X22983396Y-17022912D01*
X22983396Y-17022912D02*
X22983396Y-17013389D01*
X22983396Y-17013389D02*
X22973872Y-16994341D01*
X22973872Y-16994341D02*
X22954825Y-16984817D01*
X22954825Y-16984817D02*
X22926253Y-16984817D01*
X22926253Y-16984817D02*
X22907206Y-16975293D01*
X22907206Y-16975293D02*
X22897682Y-16956246D01*
X22897682Y-16956246D02*
X22897682Y-16946722D01*
X22897682Y-16946722D02*
X22907206Y-16927674D01*
X22907206Y-16927674D02*
X22926253Y-16918150D01*
X22926253Y-16918150D02*
X22954825Y-16918150D01*
X22954825Y-16918150D02*
X22973872Y-16927674D01*
X23050063Y-17127674D02*
X23059587Y-17118150D01*
X23059587Y-17118150D02*
X23078634Y-17089579D01*
X23078634Y-17089579D02*
X23088158Y-17070531D01*
X23088158Y-17070531D02*
X23097682Y-17041960D01*
X23097682Y-17041960D02*
X23107206Y-16994341D01*
X23107206Y-16994341D02*
X23107206Y-16956246D01*
X23107206Y-16956246D02*
X23097682Y-16908627D01*
X23097682Y-16908627D02*
X23088158Y-16880055D01*
X23088158Y-16880055D02*
X23078634Y-16861008D01*
X23078634Y-16861008D02*
X23059587Y-16832436D01*
X23059587Y-16832436D02*
X23050063Y-16822912D01*
D12*
X18275000Y-17224000D02*
G75*
G02*
X18245000Y-17224000I-15000J0D01*
G01*
X18245000Y-17224000D02*
G75*
G02*
X18275000Y-17224000I15000J0D01*
G01*
D10*
X18573872Y-17115484D02*
X18592920Y-17115484D01*
X18592920Y-17115484D02*
X18611967Y-17125008D01*
X18611967Y-17125008D02*
X18621491Y-17134531D01*
X18621491Y-17134531D02*
X18631015Y-17153579D01*
X18631015Y-17153579D02*
X18640539Y-17191674D01*
X18640539Y-17191674D02*
X18640539Y-17239293D01*
X18640539Y-17239293D02*
X18631015Y-17277389D01*
X18631015Y-17277389D02*
X18621491Y-17296436D01*
X18621491Y-17296436D02*
X18611967Y-17305960D01*
X18611967Y-17305960D02*
X18592920Y-17315484D01*
X18592920Y-17315484D02*
X18573872Y-17315484D01*
X18573872Y-17315484D02*
X18554824Y-17305960D01*
X18554824Y-17305960D02*
X18545301Y-17296436D01*
X18545301Y-17296436D02*
X18535777Y-17277389D01*
X18535777Y-17277389D02*
X18526253Y-17239293D01*
X18526253Y-17239293D02*
X18526253Y-17191674D01*
X18526253Y-17191674D02*
X18535777Y-17153579D01*
X18535777Y-17153579D02*
X18545301Y-17134531D01*
X18545301Y-17134531D02*
X18554824Y-17125008D01*
X18554824Y-17125008D02*
X18573872Y-17115484D01*
X18726253Y-17296436D02*
X18735777Y-17305960D01*
X18735777Y-17305960D02*
X18726253Y-17315484D01*
X18726253Y-17315484D02*
X18716729Y-17305960D01*
X18716729Y-17305960D02*
X18726253Y-17296436D01*
X18726253Y-17296436D02*
X18726253Y-17315484D01*
X18802444Y-17115484D02*
X18926253Y-17115484D01*
X18926253Y-17115484D02*
X18859586Y-17191674D01*
X18859586Y-17191674D02*
X18888158Y-17191674D01*
X18888158Y-17191674D02*
X18907205Y-17201198D01*
X18907205Y-17201198D02*
X18916729Y-17210722D01*
X18916729Y-17210722D02*
X18926253Y-17229770D01*
X18926253Y-17229770D02*
X18926253Y-17277389D01*
X18926253Y-17277389D02*
X18916729Y-17296436D01*
X18916729Y-17296436D02*
X18907205Y-17305960D01*
X18907205Y-17305960D02*
X18888158Y-17315484D01*
X18888158Y-17315484D02*
X18831015Y-17315484D01*
X18831015Y-17315484D02*
X18811967Y-17305960D01*
X18811967Y-17305960D02*
X18802444Y-17296436D01*
X19050063Y-17115484D02*
X19069110Y-17115484D01*
X19069110Y-17115484D02*
X19088158Y-17125008D01*
X19088158Y-17125008D02*
X19097682Y-17134531D01*
X19097682Y-17134531D02*
X19107205Y-17153579D01*
X19107205Y-17153579D02*
X19116729Y-17191674D01*
X19116729Y-17191674D02*
X19116729Y-17239293D01*
X19116729Y-17239293D02*
X19107205Y-17277389D01*
X19107205Y-17277389D02*
X19097682Y-17296436D01*
X19097682Y-17296436D02*
X19088158Y-17305960D01*
X19088158Y-17305960D02*
X19069110Y-17315484D01*
X19069110Y-17315484D02*
X19050063Y-17315484D01*
X19050063Y-17315484D02*
X19031015Y-17305960D01*
X19031015Y-17305960D02*
X19021491Y-17296436D01*
X19021491Y-17296436D02*
X19011967Y-17277389D01*
X19011967Y-17277389D02*
X19002444Y-17239293D01*
X19002444Y-17239293D02*
X19002444Y-17191674D01*
X19002444Y-17191674D02*
X19011967Y-17153579D01*
X19011967Y-17153579D02*
X19021491Y-17134531D01*
X19021491Y-17134531D02*
X19031015Y-17125008D01*
X19031015Y-17125008D02*
X19050063Y-17115484D01*
X19240539Y-17115484D02*
X19259586Y-17115484D01*
X19259586Y-17115484D02*
X19278634Y-17125008D01*
X19278634Y-17125008D02*
X19288158Y-17134531D01*
X19288158Y-17134531D02*
X19297682Y-17153579D01*
X19297682Y-17153579D02*
X19307205Y-17191674D01*
X19307205Y-17191674D02*
X19307205Y-17239293D01*
X19307205Y-17239293D02*
X19297682Y-17277389D01*
X19297682Y-17277389D02*
X19288158Y-17296436D01*
X19288158Y-17296436D02*
X19278634Y-17305960D01*
X19278634Y-17305960D02*
X19259586Y-17315484D01*
X19259586Y-17315484D02*
X19240539Y-17315484D01*
X19240539Y-17315484D02*
X19221491Y-17305960D01*
X19221491Y-17305960D02*
X19211967Y-17296436D01*
X19211967Y-17296436D02*
X19202444Y-17277389D01*
X19202444Y-17277389D02*
X19192920Y-17239293D01*
X19192920Y-17239293D02*
X19192920Y-17191674D01*
X19192920Y-17191674D02*
X19202444Y-17153579D01*
X19202444Y-17153579D02*
X19211967Y-17134531D01*
X19211967Y-17134531D02*
X19221491Y-17125008D01*
X19221491Y-17125008D02*
X19240539Y-17115484D01*
X19392920Y-17315484D02*
X19392920Y-17182150D01*
X19392920Y-17201198D02*
X19402444Y-17191674D01*
X19402444Y-17191674D02*
X19421491Y-17182150D01*
X19421491Y-17182150D02*
X19450063Y-17182150D01*
X19450063Y-17182150D02*
X19469110Y-17191674D01*
X19469110Y-17191674D02*
X19478634Y-17210722D01*
X19478634Y-17210722D02*
X19478634Y-17315484D01*
X19478634Y-17210722D02*
X19488158Y-17191674D01*
X19488158Y-17191674D02*
X19507205Y-17182150D01*
X19507205Y-17182150D02*
X19535777Y-17182150D01*
X19535777Y-17182150D02*
X19554825Y-17191674D01*
X19554825Y-17191674D02*
X19564348Y-17210722D01*
X19564348Y-17210722D02*
X19564348Y-17315484D01*
X19659586Y-17315484D02*
X19659586Y-17182150D01*
X19659586Y-17201198D02*
X19669110Y-17191674D01*
X19669110Y-17191674D02*
X19688158Y-17182150D01*
X19688158Y-17182150D02*
X19716729Y-17182150D01*
X19716729Y-17182150D02*
X19735777Y-17191674D01*
X19735777Y-17191674D02*
X19745301Y-17210722D01*
X19745301Y-17210722D02*
X19745301Y-17315484D01*
X19745301Y-17210722D02*
X19754825Y-17191674D01*
X19754825Y-17191674D02*
X19773872Y-17182150D01*
X19773872Y-17182150D02*
X19802444Y-17182150D01*
X19802444Y-17182150D02*
X19821491Y-17191674D01*
X19821491Y-17191674D02*
X19831015Y-17210722D01*
X19831015Y-17210722D02*
X19831015Y-17315484D01*
X20221491Y-17105960D02*
X20050063Y-17363103D01*
X20478634Y-17115484D02*
X20497682Y-17115484D01*
X20497682Y-17115484D02*
X20516729Y-17125008D01*
X20516729Y-17125008D02*
X20526253Y-17134531D01*
X20526253Y-17134531D02*
X20535777Y-17153579D01*
X20535777Y-17153579D02*
X20545301Y-17191674D01*
X20545301Y-17191674D02*
X20545301Y-17239293D01*
X20545301Y-17239293D02*
X20535777Y-17277389D01*
X20535777Y-17277389D02*
X20526253Y-17296436D01*
X20526253Y-17296436D02*
X20516729Y-17305960D01*
X20516729Y-17305960D02*
X20497682Y-17315484D01*
X20497682Y-17315484D02*
X20478634Y-17315484D01*
X20478634Y-17315484D02*
X20459587Y-17305960D01*
X20459587Y-17305960D02*
X20450063Y-17296436D01*
X20450063Y-17296436D02*
X20440539Y-17277389D01*
X20440539Y-17277389D02*
X20431015Y-17239293D01*
X20431015Y-17239293D02*
X20431015Y-17191674D01*
X20431015Y-17191674D02*
X20440539Y-17153579D01*
X20440539Y-17153579D02*
X20450063Y-17134531D01*
X20450063Y-17134531D02*
X20459587Y-17125008D01*
X20459587Y-17125008D02*
X20478634Y-17115484D01*
X20631015Y-17296436D02*
X20640539Y-17305960D01*
X20640539Y-17305960D02*
X20631015Y-17315484D01*
X20631015Y-17315484D02*
X20621491Y-17305960D01*
X20621491Y-17305960D02*
X20631015Y-17296436D01*
X20631015Y-17296436D02*
X20631015Y-17315484D01*
X20764348Y-17115484D02*
X20783396Y-17115484D01*
X20783396Y-17115484D02*
X20802444Y-17125008D01*
X20802444Y-17125008D02*
X20811968Y-17134531D01*
X20811968Y-17134531D02*
X20821491Y-17153579D01*
X20821491Y-17153579D02*
X20831015Y-17191674D01*
X20831015Y-17191674D02*
X20831015Y-17239293D01*
X20831015Y-17239293D02*
X20821491Y-17277389D01*
X20821491Y-17277389D02*
X20811968Y-17296436D01*
X20811968Y-17296436D02*
X20802444Y-17305960D01*
X20802444Y-17305960D02*
X20783396Y-17315484D01*
X20783396Y-17315484D02*
X20764348Y-17315484D01*
X20764348Y-17315484D02*
X20745301Y-17305960D01*
X20745301Y-17305960D02*
X20735777Y-17296436D01*
X20735777Y-17296436D02*
X20726253Y-17277389D01*
X20726253Y-17277389D02*
X20716729Y-17239293D01*
X20716729Y-17239293D02*
X20716729Y-17191674D01*
X20716729Y-17191674D02*
X20726253Y-17153579D01*
X20726253Y-17153579D02*
X20735777Y-17134531D01*
X20735777Y-17134531D02*
X20745301Y-17125008D01*
X20745301Y-17125008D02*
X20764348Y-17115484D01*
X21021491Y-17315484D02*
X20907206Y-17315484D01*
X20964348Y-17315484D02*
X20964348Y-17115484D01*
X20964348Y-17115484D02*
X20945301Y-17144055D01*
X20945301Y-17144055D02*
X20926253Y-17163103D01*
X20926253Y-17163103D02*
X20907206Y-17172627D01*
X21211968Y-17315484D02*
X21097682Y-17315484D01*
X21154825Y-17315484D02*
X21154825Y-17115484D01*
X21154825Y-17115484D02*
X21135777Y-17144055D01*
X21135777Y-17144055D02*
X21116729Y-17163103D01*
X21116729Y-17163103D02*
X21097682Y-17172627D01*
X21326253Y-17201198D02*
X21307206Y-17191674D01*
X21307206Y-17191674D02*
X21297682Y-17182150D01*
X21297682Y-17182150D02*
X21288158Y-17163103D01*
X21288158Y-17163103D02*
X21288158Y-17153579D01*
X21288158Y-17153579D02*
X21297682Y-17134531D01*
X21297682Y-17134531D02*
X21307206Y-17125008D01*
X21307206Y-17125008D02*
X21326253Y-17115484D01*
X21326253Y-17115484D02*
X21364349Y-17115484D01*
X21364349Y-17115484D02*
X21383396Y-17125008D01*
X21383396Y-17125008D02*
X21392920Y-17134531D01*
X21392920Y-17134531D02*
X21402444Y-17153579D01*
X21402444Y-17153579D02*
X21402444Y-17163103D01*
X21402444Y-17163103D02*
X21392920Y-17182150D01*
X21392920Y-17182150D02*
X21383396Y-17191674D01*
X21383396Y-17191674D02*
X21364349Y-17201198D01*
X21364349Y-17201198D02*
X21326253Y-17201198D01*
X21326253Y-17201198D02*
X21307206Y-17210722D01*
X21307206Y-17210722D02*
X21297682Y-17220246D01*
X21297682Y-17220246D02*
X21288158Y-17239293D01*
X21288158Y-17239293D02*
X21288158Y-17277389D01*
X21288158Y-17277389D02*
X21297682Y-17296436D01*
X21297682Y-17296436D02*
X21307206Y-17305960D01*
X21307206Y-17305960D02*
X21326253Y-17315484D01*
X21326253Y-17315484D02*
X21364349Y-17315484D01*
X21364349Y-17315484D02*
X21383396Y-17305960D01*
X21383396Y-17305960D02*
X21392920Y-17296436D01*
X21392920Y-17296436D02*
X21402444Y-17277389D01*
X21402444Y-17277389D02*
X21402444Y-17239293D01*
X21402444Y-17239293D02*
X21392920Y-17220246D01*
X21392920Y-17220246D02*
X21383396Y-17210722D01*
X21383396Y-17210722D02*
X21364349Y-17201198D01*
X21478634Y-17115484D02*
X21478634Y-17153579D01*
X21554825Y-17115484D02*
X21554825Y-17153579D01*
X21850063Y-17391674D02*
X21840539Y-17382150D01*
X21840539Y-17382150D02*
X21821491Y-17353579D01*
X21821491Y-17353579D02*
X21811968Y-17334531D01*
X21811968Y-17334531D02*
X21802444Y-17305960D01*
X21802444Y-17305960D02*
X21792920Y-17258341D01*
X21792920Y-17258341D02*
X21792920Y-17220246D01*
X21792920Y-17220246D02*
X21802444Y-17172627D01*
X21802444Y-17172627D02*
X21811968Y-17144055D01*
X21811968Y-17144055D02*
X21821491Y-17125008D01*
X21821491Y-17125008D02*
X21840539Y-17096436D01*
X21840539Y-17096436D02*
X21850063Y-17086912D01*
X22011968Y-17182150D02*
X22011968Y-17315484D01*
X21964349Y-17105960D02*
X21916730Y-17248817D01*
X21916730Y-17248817D02*
X22040539Y-17248817D01*
X22145301Y-17201198D02*
X22126253Y-17191674D01*
X22126253Y-17191674D02*
X22116730Y-17182150D01*
X22116730Y-17182150D02*
X22107206Y-17163103D01*
X22107206Y-17163103D02*
X22107206Y-17153579D01*
X22107206Y-17153579D02*
X22116730Y-17134531D01*
X22116730Y-17134531D02*
X22126253Y-17125008D01*
X22126253Y-17125008D02*
X22145301Y-17115484D01*
X22145301Y-17115484D02*
X22183396Y-17115484D01*
X22183396Y-17115484D02*
X22202444Y-17125008D01*
X22202444Y-17125008D02*
X22211968Y-17134531D01*
X22211968Y-17134531D02*
X22221491Y-17153579D01*
X22221491Y-17153579D02*
X22221491Y-17163103D01*
X22221491Y-17163103D02*
X22211968Y-17182150D01*
X22211968Y-17182150D02*
X22202444Y-17191674D01*
X22202444Y-17191674D02*
X22183396Y-17201198D01*
X22183396Y-17201198D02*
X22145301Y-17201198D01*
X22145301Y-17201198D02*
X22126253Y-17210722D01*
X22126253Y-17210722D02*
X22116730Y-17220246D01*
X22116730Y-17220246D02*
X22107206Y-17239293D01*
X22107206Y-17239293D02*
X22107206Y-17277389D01*
X22107206Y-17277389D02*
X22116730Y-17296436D01*
X22116730Y-17296436D02*
X22126253Y-17305960D01*
X22126253Y-17305960D02*
X22145301Y-17315484D01*
X22145301Y-17315484D02*
X22183396Y-17315484D01*
X22183396Y-17315484D02*
X22202444Y-17305960D01*
X22202444Y-17305960D02*
X22211968Y-17296436D01*
X22211968Y-17296436D02*
X22221491Y-17277389D01*
X22221491Y-17277389D02*
X22221491Y-17239293D01*
X22221491Y-17239293D02*
X22211968Y-17220246D01*
X22211968Y-17220246D02*
X22202444Y-17210722D01*
X22202444Y-17210722D02*
X22183396Y-17201198D01*
X22459587Y-17315484D02*
X22459587Y-17115484D01*
X22545301Y-17315484D02*
X22545301Y-17210722D01*
X22545301Y-17210722D02*
X22535777Y-17191674D01*
X22535777Y-17191674D02*
X22516730Y-17182150D01*
X22516730Y-17182150D02*
X22488158Y-17182150D01*
X22488158Y-17182150D02*
X22469110Y-17191674D01*
X22469110Y-17191674D02*
X22459587Y-17201198D01*
X22669110Y-17315484D02*
X22650063Y-17305960D01*
X22650063Y-17305960D02*
X22640539Y-17296436D01*
X22640539Y-17296436D02*
X22631015Y-17277389D01*
X22631015Y-17277389D02*
X22631015Y-17220246D01*
X22631015Y-17220246D02*
X22640539Y-17201198D01*
X22640539Y-17201198D02*
X22650063Y-17191674D01*
X22650063Y-17191674D02*
X22669110Y-17182150D01*
X22669110Y-17182150D02*
X22697682Y-17182150D01*
X22697682Y-17182150D02*
X22716730Y-17191674D01*
X22716730Y-17191674D02*
X22726253Y-17201198D01*
X22726253Y-17201198D02*
X22735777Y-17220246D01*
X22735777Y-17220246D02*
X22735777Y-17277389D01*
X22735777Y-17277389D02*
X22726253Y-17296436D01*
X22726253Y-17296436D02*
X22716730Y-17305960D01*
X22716730Y-17305960D02*
X22697682Y-17315484D01*
X22697682Y-17315484D02*
X22669110Y-17315484D01*
X22850063Y-17315484D02*
X22831015Y-17305960D01*
X22831015Y-17305960D02*
X22821491Y-17286912D01*
X22821491Y-17286912D02*
X22821491Y-17115484D01*
X23002444Y-17305960D02*
X22983396Y-17315484D01*
X22983396Y-17315484D02*
X22945301Y-17315484D01*
X22945301Y-17315484D02*
X22926253Y-17305960D01*
X22926253Y-17305960D02*
X22916730Y-17286912D01*
X22916730Y-17286912D02*
X22916730Y-17210722D01*
X22916730Y-17210722D02*
X22926253Y-17191674D01*
X22926253Y-17191674D02*
X22945301Y-17182150D01*
X22945301Y-17182150D02*
X22983396Y-17182150D01*
X22983396Y-17182150D02*
X23002444Y-17191674D01*
X23002444Y-17191674D02*
X23011968Y-17210722D01*
X23011968Y-17210722D02*
X23011968Y-17229770D01*
X23011968Y-17229770D02*
X22916730Y-17248817D01*
X23088158Y-17305960D02*
X23107206Y-17315484D01*
X23107206Y-17315484D02*
X23145301Y-17315484D01*
X23145301Y-17315484D02*
X23164349Y-17305960D01*
X23164349Y-17305960D02*
X23173872Y-17286912D01*
X23173872Y-17286912D02*
X23173872Y-17277389D01*
X23173872Y-17277389D02*
X23164349Y-17258341D01*
X23164349Y-17258341D02*
X23145301Y-17248817D01*
X23145301Y-17248817D02*
X23116730Y-17248817D01*
X23116730Y-17248817D02*
X23097682Y-17239293D01*
X23097682Y-17239293D02*
X23088158Y-17220246D01*
X23088158Y-17220246D02*
X23088158Y-17210722D01*
X23088158Y-17210722D02*
X23097682Y-17191674D01*
X23097682Y-17191674D02*
X23116730Y-17182150D01*
X23116730Y-17182150D02*
X23145301Y-17182150D01*
X23145301Y-17182150D02*
X23164349Y-17191674D01*
X23240539Y-17391674D02*
X23250063Y-17382150D01*
X23250063Y-17382150D02*
X23269111Y-17353579D01*
X23269111Y-17353579D02*
X23278634Y-17334531D01*
X23278634Y-17334531D02*
X23288158Y-17305960D01*
X23288158Y-17305960D02*
X23297682Y-17258341D01*
X23297682Y-17258341D02*
X23297682Y-17220246D01*
X23297682Y-17220246D02*
X23288158Y-17172627D01*
X23288158Y-17172627D02*
X23278634Y-17144055D01*
X23278634Y-17144055D02*
X23269111Y-17125008D01*
X23269111Y-17125008D02*
X23250063Y-17096436D01*
X23250063Y-17096436D02*
X23240539Y-17086912D01*
D12*
X18255000Y-17468000D02*
X18255000Y-17508000D01*
X18235000Y-17488000D02*
X18275000Y-17488000D01*
D10*
X18573872Y-17379484D02*
X18592920Y-17379484D01*
X18592920Y-17379484D02*
X18611967Y-17389008D01*
X18611967Y-17389008D02*
X18621491Y-17398531D01*
X18621491Y-17398531D02*
X18631015Y-17417579D01*
X18631015Y-17417579D02*
X18640539Y-17455674D01*
X18640539Y-17455674D02*
X18640539Y-17503293D01*
X18640539Y-17503293D02*
X18631015Y-17541389D01*
X18631015Y-17541389D02*
X18621491Y-17560436D01*
X18621491Y-17560436D02*
X18611967Y-17569960D01*
X18611967Y-17569960D02*
X18592920Y-17579484D01*
X18592920Y-17579484D02*
X18573872Y-17579484D01*
X18573872Y-17579484D02*
X18554824Y-17569960D01*
X18554824Y-17569960D02*
X18545301Y-17560436D01*
X18545301Y-17560436D02*
X18535777Y-17541389D01*
X18535777Y-17541389D02*
X18526253Y-17503293D01*
X18526253Y-17503293D02*
X18526253Y-17455674D01*
X18526253Y-17455674D02*
X18535777Y-17417579D01*
X18535777Y-17417579D02*
X18545301Y-17398531D01*
X18545301Y-17398531D02*
X18554824Y-17389008D01*
X18554824Y-17389008D02*
X18573872Y-17379484D01*
X18726253Y-17560436D02*
X18735777Y-17569960D01*
X18735777Y-17569960D02*
X18726253Y-17579484D01*
X18726253Y-17579484D02*
X18716729Y-17569960D01*
X18716729Y-17569960D02*
X18726253Y-17560436D01*
X18726253Y-17560436D02*
X18726253Y-17579484D01*
X18907205Y-17446150D02*
X18907205Y-17579484D01*
X18859586Y-17369960D02*
X18811967Y-17512817D01*
X18811967Y-17512817D02*
X18935777Y-17512817D01*
X19050063Y-17379484D02*
X19069110Y-17379484D01*
X19069110Y-17379484D02*
X19088158Y-17389008D01*
X19088158Y-17389008D02*
X19097682Y-17398531D01*
X19097682Y-17398531D02*
X19107205Y-17417579D01*
X19107205Y-17417579D02*
X19116729Y-17455674D01*
X19116729Y-17455674D02*
X19116729Y-17503293D01*
X19116729Y-17503293D02*
X19107205Y-17541389D01*
X19107205Y-17541389D02*
X19097682Y-17560436D01*
X19097682Y-17560436D02*
X19088158Y-17569960D01*
X19088158Y-17569960D02*
X19069110Y-17579484D01*
X19069110Y-17579484D02*
X19050063Y-17579484D01*
X19050063Y-17579484D02*
X19031015Y-17569960D01*
X19031015Y-17569960D02*
X19021491Y-17560436D01*
X19021491Y-17560436D02*
X19011967Y-17541389D01*
X19011967Y-17541389D02*
X19002444Y-17503293D01*
X19002444Y-17503293D02*
X19002444Y-17455674D01*
X19002444Y-17455674D02*
X19011967Y-17417579D01*
X19011967Y-17417579D02*
X19021491Y-17398531D01*
X19021491Y-17398531D02*
X19031015Y-17389008D01*
X19031015Y-17389008D02*
X19050063Y-17379484D01*
X19240539Y-17379484D02*
X19259586Y-17379484D01*
X19259586Y-17379484D02*
X19278634Y-17389008D01*
X19278634Y-17389008D02*
X19288158Y-17398531D01*
X19288158Y-17398531D02*
X19297682Y-17417579D01*
X19297682Y-17417579D02*
X19307205Y-17455674D01*
X19307205Y-17455674D02*
X19307205Y-17503293D01*
X19307205Y-17503293D02*
X19297682Y-17541389D01*
X19297682Y-17541389D02*
X19288158Y-17560436D01*
X19288158Y-17560436D02*
X19278634Y-17569960D01*
X19278634Y-17569960D02*
X19259586Y-17579484D01*
X19259586Y-17579484D02*
X19240539Y-17579484D01*
X19240539Y-17579484D02*
X19221491Y-17569960D01*
X19221491Y-17569960D02*
X19211967Y-17560436D01*
X19211967Y-17560436D02*
X19202444Y-17541389D01*
X19202444Y-17541389D02*
X19192920Y-17503293D01*
X19192920Y-17503293D02*
X19192920Y-17455674D01*
X19192920Y-17455674D02*
X19202444Y-17417579D01*
X19202444Y-17417579D02*
X19211967Y-17398531D01*
X19211967Y-17398531D02*
X19221491Y-17389008D01*
X19221491Y-17389008D02*
X19240539Y-17379484D01*
X19392920Y-17579484D02*
X19392920Y-17446150D01*
X19392920Y-17465198D02*
X19402444Y-17455674D01*
X19402444Y-17455674D02*
X19421491Y-17446150D01*
X19421491Y-17446150D02*
X19450063Y-17446150D01*
X19450063Y-17446150D02*
X19469110Y-17455674D01*
X19469110Y-17455674D02*
X19478634Y-17474722D01*
X19478634Y-17474722D02*
X19478634Y-17579484D01*
X19478634Y-17474722D02*
X19488158Y-17455674D01*
X19488158Y-17455674D02*
X19507205Y-17446150D01*
X19507205Y-17446150D02*
X19535777Y-17446150D01*
X19535777Y-17446150D02*
X19554825Y-17455674D01*
X19554825Y-17455674D02*
X19564348Y-17474722D01*
X19564348Y-17474722D02*
X19564348Y-17579484D01*
X19659586Y-17579484D02*
X19659586Y-17446150D01*
X19659586Y-17465198D02*
X19669110Y-17455674D01*
X19669110Y-17455674D02*
X19688158Y-17446150D01*
X19688158Y-17446150D02*
X19716729Y-17446150D01*
X19716729Y-17446150D02*
X19735777Y-17455674D01*
X19735777Y-17455674D02*
X19745301Y-17474722D01*
X19745301Y-17474722D02*
X19745301Y-17579484D01*
X19745301Y-17474722D02*
X19754825Y-17455674D01*
X19754825Y-17455674D02*
X19773872Y-17446150D01*
X19773872Y-17446150D02*
X19802444Y-17446150D01*
X19802444Y-17446150D02*
X19821491Y-17455674D01*
X19821491Y-17455674D02*
X19831015Y-17474722D01*
X19831015Y-17474722D02*
X19831015Y-17579484D01*
X20221491Y-17369960D02*
X20050063Y-17627103D01*
X20478634Y-17379484D02*
X20497682Y-17379484D01*
X20497682Y-17379484D02*
X20516729Y-17389008D01*
X20516729Y-17389008D02*
X20526253Y-17398531D01*
X20526253Y-17398531D02*
X20535777Y-17417579D01*
X20535777Y-17417579D02*
X20545301Y-17455674D01*
X20545301Y-17455674D02*
X20545301Y-17503293D01*
X20545301Y-17503293D02*
X20535777Y-17541389D01*
X20535777Y-17541389D02*
X20526253Y-17560436D01*
X20526253Y-17560436D02*
X20516729Y-17569960D01*
X20516729Y-17569960D02*
X20497682Y-17579484D01*
X20497682Y-17579484D02*
X20478634Y-17579484D01*
X20478634Y-17579484D02*
X20459587Y-17569960D01*
X20459587Y-17569960D02*
X20450063Y-17560436D01*
X20450063Y-17560436D02*
X20440539Y-17541389D01*
X20440539Y-17541389D02*
X20431015Y-17503293D01*
X20431015Y-17503293D02*
X20431015Y-17455674D01*
X20431015Y-17455674D02*
X20440539Y-17417579D01*
X20440539Y-17417579D02*
X20450063Y-17398531D01*
X20450063Y-17398531D02*
X20459587Y-17389008D01*
X20459587Y-17389008D02*
X20478634Y-17379484D01*
X20631015Y-17560436D02*
X20640539Y-17569960D01*
X20640539Y-17569960D02*
X20631015Y-17579484D01*
X20631015Y-17579484D02*
X20621491Y-17569960D01*
X20621491Y-17569960D02*
X20631015Y-17560436D01*
X20631015Y-17560436D02*
X20631015Y-17579484D01*
X20764348Y-17379484D02*
X20783396Y-17379484D01*
X20783396Y-17379484D02*
X20802444Y-17389008D01*
X20802444Y-17389008D02*
X20811968Y-17398531D01*
X20811968Y-17398531D02*
X20821491Y-17417579D01*
X20821491Y-17417579D02*
X20831015Y-17455674D01*
X20831015Y-17455674D02*
X20831015Y-17503293D01*
X20831015Y-17503293D02*
X20821491Y-17541389D01*
X20821491Y-17541389D02*
X20811968Y-17560436D01*
X20811968Y-17560436D02*
X20802444Y-17569960D01*
X20802444Y-17569960D02*
X20783396Y-17579484D01*
X20783396Y-17579484D02*
X20764348Y-17579484D01*
X20764348Y-17579484D02*
X20745301Y-17569960D01*
X20745301Y-17569960D02*
X20735777Y-17560436D01*
X20735777Y-17560436D02*
X20726253Y-17541389D01*
X20726253Y-17541389D02*
X20716729Y-17503293D01*
X20716729Y-17503293D02*
X20716729Y-17455674D01*
X20716729Y-17455674D02*
X20726253Y-17417579D01*
X20726253Y-17417579D02*
X20735777Y-17398531D01*
X20735777Y-17398531D02*
X20745301Y-17389008D01*
X20745301Y-17389008D02*
X20764348Y-17379484D01*
X21021491Y-17579484D02*
X20907206Y-17579484D01*
X20964348Y-17579484D02*
X20964348Y-17379484D01*
X20964348Y-17379484D02*
X20945301Y-17408055D01*
X20945301Y-17408055D02*
X20926253Y-17427103D01*
X20926253Y-17427103D02*
X20907206Y-17436627D01*
X21202444Y-17379484D02*
X21107206Y-17379484D01*
X21107206Y-17379484D02*
X21097682Y-17474722D01*
X21097682Y-17474722D02*
X21107206Y-17465198D01*
X21107206Y-17465198D02*
X21126253Y-17455674D01*
X21126253Y-17455674D02*
X21173872Y-17455674D01*
X21173872Y-17455674D02*
X21192920Y-17465198D01*
X21192920Y-17465198D02*
X21202444Y-17474722D01*
X21202444Y-17474722D02*
X21211968Y-17493770D01*
X21211968Y-17493770D02*
X21211968Y-17541389D01*
X21211968Y-17541389D02*
X21202444Y-17560436D01*
X21202444Y-17560436D02*
X21192920Y-17569960D01*
X21192920Y-17569960D02*
X21173872Y-17579484D01*
X21173872Y-17579484D02*
X21126253Y-17579484D01*
X21126253Y-17579484D02*
X21107206Y-17569960D01*
X21107206Y-17569960D02*
X21097682Y-17560436D01*
X21278634Y-17379484D02*
X21411968Y-17379484D01*
X21411968Y-17379484D02*
X21326253Y-17579484D01*
X21478634Y-17379484D02*
X21478634Y-17417579D01*
X21554825Y-17379484D02*
X21554825Y-17417579D01*
X21850063Y-17655674D02*
X21840539Y-17646150D01*
X21840539Y-17646150D02*
X21821491Y-17617579D01*
X21821491Y-17617579D02*
X21811968Y-17598531D01*
X21811968Y-17598531D02*
X21802444Y-17569960D01*
X21802444Y-17569960D02*
X21792920Y-17522341D01*
X21792920Y-17522341D02*
X21792920Y-17484246D01*
X21792920Y-17484246D02*
X21802444Y-17436627D01*
X21802444Y-17436627D02*
X21811968Y-17408055D01*
X21811968Y-17408055D02*
X21821491Y-17389008D01*
X21821491Y-17389008D02*
X21840539Y-17360436D01*
X21840539Y-17360436D02*
X21850063Y-17350912D01*
X22011968Y-17379484D02*
X21973872Y-17379484D01*
X21973872Y-17379484D02*
X21954825Y-17389008D01*
X21954825Y-17389008D02*
X21945301Y-17398531D01*
X21945301Y-17398531D02*
X21926253Y-17427103D01*
X21926253Y-17427103D02*
X21916730Y-17465198D01*
X21916730Y-17465198D02*
X21916730Y-17541389D01*
X21916730Y-17541389D02*
X21926253Y-17560436D01*
X21926253Y-17560436D02*
X21935777Y-17569960D01*
X21935777Y-17569960D02*
X21954825Y-17579484D01*
X21954825Y-17579484D02*
X21992920Y-17579484D01*
X21992920Y-17579484D02*
X22011968Y-17569960D01*
X22011968Y-17569960D02*
X22021491Y-17560436D01*
X22021491Y-17560436D02*
X22031015Y-17541389D01*
X22031015Y-17541389D02*
X22031015Y-17493770D01*
X22031015Y-17493770D02*
X22021491Y-17474722D01*
X22021491Y-17474722D02*
X22011968Y-17465198D01*
X22011968Y-17465198D02*
X21992920Y-17455674D01*
X21992920Y-17455674D02*
X21954825Y-17455674D01*
X21954825Y-17455674D02*
X21935777Y-17465198D01*
X21935777Y-17465198D02*
X21926253Y-17474722D01*
X21926253Y-17474722D02*
X21916730Y-17493770D01*
X22269111Y-17579484D02*
X22269111Y-17379484D01*
X22354825Y-17579484D02*
X22354825Y-17474722D01*
X22354825Y-17474722D02*
X22345301Y-17455674D01*
X22345301Y-17455674D02*
X22326253Y-17446150D01*
X22326253Y-17446150D02*
X22297682Y-17446150D01*
X22297682Y-17446150D02*
X22278634Y-17455674D01*
X22278634Y-17455674D02*
X22269111Y-17465198D01*
X22478634Y-17579484D02*
X22459587Y-17569960D01*
X22459587Y-17569960D02*
X22450063Y-17560436D01*
X22450063Y-17560436D02*
X22440539Y-17541389D01*
X22440539Y-17541389D02*
X22440539Y-17484246D01*
X22440539Y-17484246D02*
X22450063Y-17465198D01*
X22450063Y-17465198D02*
X22459587Y-17455674D01*
X22459587Y-17455674D02*
X22478634Y-17446150D01*
X22478634Y-17446150D02*
X22507206Y-17446150D01*
X22507206Y-17446150D02*
X22526253Y-17455674D01*
X22526253Y-17455674D02*
X22535777Y-17465198D01*
X22535777Y-17465198D02*
X22545301Y-17484246D01*
X22545301Y-17484246D02*
X22545301Y-17541389D01*
X22545301Y-17541389D02*
X22535777Y-17560436D01*
X22535777Y-17560436D02*
X22526253Y-17569960D01*
X22526253Y-17569960D02*
X22507206Y-17579484D01*
X22507206Y-17579484D02*
X22478634Y-17579484D01*
X22659587Y-17579484D02*
X22640539Y-17569960D01*
X22640539Y-17569960D02*
X22631015Y-17550912D01*
X22631015Y-17550912D02*
X22631015Y-17379484D01*
X22811968Y-17569960D02*
X22792920Y-17579484D01*
X22792920Y-17579484D02*
X22754825Y-17579484D01*
X22754825Y-17579484D02*
X22735777Y-17569960D01*
X22735777Y-17569960D02*
X22726253Y-17550912D01*
X22726253Y-17550912D02*
X22726253Y-17474722D01*
X22726253Y-17474722D02*
X22735777Y-17455674D01*
X22735777Y-17455674D02*
X22754825Y-17446150D01*
X22754825Y-17446150D02*
X22792920Y-17446150D01*
X22792920Y-17446150D02*
X22811968Y-17455674D01*
X22811968Y-17455674D02*
X22821491Y-17474722D01*
X22821491Y-17474722D02*
X22821491Y-17493770D01*
X22821491Y-17493770D02*
X22726253Y-17512817D01*
X22897682Y-17569960D02*
X22916730Y-17579484D01*
X22916730Y-17579484D02*
X22954825Y-17579484D01*
X22954825Y-17579484D02*
X22973872Y-17569960D01*
X22973872Y-17569960D02*
X22983396Y-17550912D01*
X22983396Y-17550912D02*
X22983396Y-17541389D01*
X22983396Y-17541389D02*
X22973872Y-17522341D01*
X22973872Y-17522341D02*
X22954825Y-17512817D01*
X22954825Y-17512817D02*
X22926253Y-17512817D01*
X22926253Y-17512817D02*
X22907206Y-17503293D01*
X22907206Y-17503293D02*
X22897682Y-17484246D01*
X22897682Y-17484246D02*
X22897682Y-17474722D01*
X22897682Y-17474722D02*
X22907206Y-17455674D01*
X22907206Y-17455674D02*
X22926253Y-17446150D01*
X22926253Y-17446150D02*
X22954825Y-17446150D01*
X22954825Y-17446150D02*
X22973872Y-17455674D01*
X23050063Y-17655674D02*
X23059587Y-17646150D01*
X23059587Y-17646150D02*
X23078634Y-17617579D01*
X23078634Y-17617579D02*
X23088158Y-17598531D01*
X23088158Y-17598531D02*
X23097682Y-17569960D01*
X23097682Y-17569960D02*
X23107206Y-17522341D01*
X23107206Y-17522341D02*
X23107206Y-17484246D01*
X23107206Y-17484246D02*
X23097682Y-17436627D01*
X23097682Y-17436627D02*
X23088158Y-17408055D01*
X23088158Y-17408055D02*
X23078634Y-17389008D01*
X23078634Y-17389008D02*
X23059587Y-17360436D01*
X23059587Y-17360436D02*
X23050063Y-17350912D01*
D12*
X18267531Y-17770031D02*
X18267531Y-17733969D01*
X18231469Y-17733969D01*
X18231469Y-17770031D01*
X18267531Y-17770031D01*
D10*
X18573872Y-17643484D02*
X18592920Y-17643484D01*
X18592920Y-17643484D02*
X18611967Y-17653008D01*
X18611967Y-17653008D02*
X18621491Y-17662531D01*
X18621491Y-17662531D02*
X18631015Y-17681579D01*
X18631015Y-17681579D02*
X18640539Y-17719674D01*
X18640539Y-17719674D02*
X18640539Y-17767293D01*
X18640539Y-17767293D02*
X18631015Y-17805389D01*
X18631015Y-17805389D02*
X18621491Y-17824436D01*
X18621491Y-17824436D02*
X18611967Y-17833960D01*
X18611967Y-17833960D02*
X18592920Y-17843484D01*
X18592920Y-17843484D02*
X18573872Y-17843484D01*
X18573872Y-17843484D02*
X18554824Y-17833960D01*
X18554824Y-17833960D02*
X18545301Y-17824436D01*
X18545301Y-17824436D02*
X18535777Y-17805389D01*
X18535777Y-17805389D02*
X18526253Y-17767293D01*
X18526253Y-17767293D02*
X18526253Y-17719674D01*
X18526253Y-17719674D02*
X18535777Y-17681579D01*
X18535777Y-17681579D02*
X18545301Y-17662531D01*
X18545301Y-17662531D02*
X18554824Y-17653008D01*
X18554824Y-17653008D02*
X18573872Y-17643484D01*
X18726253Y-17824436D02*
X18735777Y-17833960D01*
X18735777Y-17833960D02*
X18726253Y-17843484D01*
X18726253Y-17843484D02*
X18716729Y-17833960D01*
X18716729Y-17833960D02*
X18726253Y-17824436D01*
X18726253Y-17824436D02*
X18726253Y-17843484D01*
X18916729Y-17643484D02*
X18821491Y-17643484D01*
X18821491Y-17643484D02*
X18811967Y-17738722D01*
X18811967Y-17738722D02*
X18821491Y-17729198D01*
X18821491Y-17729198D02*
X18840539Y-17719674D01*
X18840539Y-17719674D02*
X18888158Y-17719674D01*
X18888158Y-17719674D02*
X18907205Y-17729198D01*
X18907205Y-17729198D02*
X18916729Y-17738722D01*
X18916729Y-17738722D02*
X18926253Y-17757770D01*
X18926253Y-17757770D02*
X18926253Y-17805389D01*
X18926253Y-17805389D02*
X18916729Y-17824436D01*
X18916729Y-17824436D02*
X18907205Y-17833960D01*
X18907205Y-17833960D02*
X18888158Y-17843484D01*
X18888158Y-17843484D02*
X18840539Y-17843484D01*
X18840539Y-17843484D02*
X18821491Y-17833960D01*
X18821491Y-17833960D02*
X18811967Y-17824436D01*
X19116729Y-17843484D02*
X19002444Y-17843484D01*
X19059586Y-17843484D02*
X19059586Y-17643484D01*
X19059586Y-17643484D02*
X19040539Y-17672055D01*
X19040539Y-17672055D02*
X19021491Y-17691103D01*
X19021491Y-17691103D02*
X19002444Y-17700627D01*
X19240539Y-17643484D02*
X19259586Y-17643484D01*
X19259586Y-17643484D02*
X19278634Y-17653008D01*
X19278634Y-17653008D02*
X19288158Y-17662531D01*
X19288158Y-17662531D02*
X19297682Y-17681579D01*
X19297682Y-17681579D02*
X19307205Y-17719674D01*
X19307205Y-17719674D02*
X19307205Y-17767293D01*
X19307205Y-17767293D02*
X19297682Y-17805389D01*
X19297682Y-17805389D02*
X19288158Y-17824436D01*
X19288158Y-17824436D02*
X19278634Y-17833960D01*
X19278634Y-17833960D02*
X19259586Y-17843484D01*
X19259586Y-17843484D02*
X19240539Y-17843484D01*
X19240539Y-17843484D02*
X19221491Y-17833960D01*
X19221491Y-17833960D02*
X19211967Y-17824436D01*
X19211967Y-17824436D02*
X19202444Y-17805389D01*
X19202444Y-17805389D02*
X19192920Y-17767293D01*
X19192920Y-17767293D02*
X19192920Y-17719674D01*
X19192920Y-17719674D02*
X19202444Y-17681579D01*
X19202444Y-17681579D02*
X19211967Y-17662531D01*
X19211967Y-17662531D02*
X19221491Y-17653008D01*
X19221491Y-17653008D02*
X19240539Y-17643484D01*
X19392920Y-17843484D02*
X19392920Y-17710150D01*
X19392920Y-17729198D02*
X19402444Y-17719674D01*
X19402444Y-17719674D02*
X19421491Y-17710150D01*
X19421491Y-17710150D02*
X19450063Y-17710150D01*
X19450063Y-17710150D02*
X19469110Y-17719674D01*
X19469110Y-17719674D02*
X19478634Y-17738722D01*
X19478634Y-17738722D02*
X19478634Y-17843484D01*
X19478634Y-17738722D02*
X19488158Y-17719674D01*
X19488158Y-17719674D02*
X19507205Y-17710150D01*
X19507205Y-17710150D02*
X19535777Y-17710150D01*
X19535777Y-17710150D02*
X19554825Y-17719674D01*
X19554825Y-17719674D02*
X19564348Y-17738722D01*
X19564348Y-17738722D02*
X19564348Y-17843484D01*
X19659586Y-17843484D02*
X19659586Y-17710150D01*
X19659586Y-17729198D02*
X19669110Y-17719674D01*
X19669110Y-17719674D02*
X19688158Y-17710150D01*
X19688158Y-17710150D02*
X19716729Y-17710150D01*
X19716729Y-17710150D02*
X19735777Y-17719674D01*
X19735777Y-17719674D02*
X19745301Y-17738722D01*
X19745301Y-17738722D02*
X19745301Y-17843484D01*
X19745301Y-17738722D02*
X19754825Y-17719674D01*
X19754825Y-17719674D02*
X19773872Y-17710150D01*
X19773872Y-17710150D02*
X19802444Y-17710150D01*
X19802444Y-17710150D02*
X19821491Y-17719674D01*
X19821491Y-17719674D02*
X19831015Y-17738722D01*
X19831015Y-17738722D02*
X19831015Y-17843484D01*
X20221491Y-17633960D02*
X20050063Y-17891103D01*
X20478634Y-17643484D02*
X20497682Y-17643484D01*
X20497682Y-17643484D02*
X20516729Y-17653008D01*
X20516729Y-17653008D02*
X20526253Y-17662531D01*
X20526253Y-17662531D02*
X20535777Y-17681579D01*
X20535777Y-17681579D02*
X20545301Y-17719674D01*
X20545301Y-17719674D02*
X20545301Y-17767293D01*
X20545301Y-17767293D02*
X20535777Y-17805389D01*
X20535777Y-17805389D02*
X20526253Y-17824436D01*
X20526253Y-17824436D02*
X20516729Y-17833960D01*
X20516729Y-17833960D02*
X20497682Y-17843484D01*
X20497682Y-17843484D02*
X20478634Y-17843484D01*
X20478634Y-17843484D02*
X20459587Y-17833960D01*
X20459587Y-17833960D02*
X20450063Y-17824436D01*
X20450063Y-17824436D02*
X20440539Y-17805389D01*
X20440539Y-17805389D02*
X20431015Y-17767293D01*
X20431015Y-17767293D02*
X20431015Y-17719674D01*
X20431015Y-17719674D02*
X20440539Y-17681579D01*
X20440539Y-17681579D02*
X20450063Y-17662531D01*
X20450063Y-17662531D02*
X20459587Y-17653008D01*
X20459587Y-17653008D02*
X20478634Y-17643484D01*
X20631015Y-17824436D02*
X20640539Y-17833960D01*
X20640539Y-17833960D02*
X20631015Y-17843484D01*
X20631015Y-17843484D02*
X20621491Y-17833960D01*
X20621491Y-17833960D02*
X20631015Y-17824436D01*
X20631015Y-17824436D02*
X20631015Y-17843484D01*
X20764348Y-17643484D02*
X20783396Y-17643484D01*
X20783396Y-17643484D02*
X20802444Y-17653008D01*
X20802444Y-17653008D02*
X20811968Y-17662531D01*
X20811968Y-17662531D02*
X20821491Y-17681579D01*
X20821491Y-17681579D02*
X20831015Y-17719674D01*
X20831015Y-17719674D02*
X20831015Y-17767293D01*
X20831015Y-17767293D02*
X20821491Y-17805389D01*
X20821491Y-17805389D02*
X20811968Y-17824436D01*
X20811968Y-17824436D02*
X20802444Y-17833960D01*
X20802444Y-17833960D02*
X20783396Y-17843484D01*
X20783396Y-17843484D02*
X20764348Y-17843484D01*
X20764348Y-17843484D02*
X20745301Y-17833960D01*
X20745301Y-17833960D02*
X20735777Y-17824436D01*
X20735777Y-17824436D02*
X20726253Y-17805389D01*
X20726253Y-17805389D02*
X20716729Y-17767293D01*
X20716729Y-17767293D02*
X20716729Y-17719674D01*
X20716729Y-17719674D02*
X20726253Y-17681579D01*
X20726253Y-17681579D02*
X20735777Y-17662531D01*
X20735777Y-17662531D02*
X20745301Y-17653008D01*
X20745301Y-17653008D02*
X20764348Y-17643484D01*
X20907206Y-17662531D02*
X20916729Y-17653008D01*
X20916729Y-17653008D02*
X20935777Y-17643484D01*
X20935777Y-17643484D02*
X20983396Y-17643484D01*
X20983396Y-17643484D02*
X21002444Y-17653008D01*
X21002444Y-17653008D02*
X21011968Y-17662531D01*
X21011968Y-17662531D02*
X21021491Y-17681579D01*
X21021491Y-17681579D02*
X21021491Y-17700627D01*
X21021491Y-17700627D02*
X21011968Y-17729198D01*
X21011968Y-17729198D02*
X20897682Y-17843484D01*
X20897682Y-17843484D02*
X21021491Y-17843484D01*
X21145301Y-17643484D02*
X21164349Y-17643484D01*
X21164349Y-17643484D02*
X21183396Y-17653008D01*
X21183396Y-17653008D02*
X21192920Y-17662531D01*
X21192920Y-17662531D02*
X21202444Y-17681579D01*
X21202444Y-17681579D02*
X21211968Y-17719674D01*
X21211968Y-17719674D02*
X21211968Y-17767293D01*
X21211968Y-17767293D02*
X21202444Y-17805389D01*
X21202444Y-17805389D02*
X21192920Y-17824436D01*
X21192920Y-17824436D02*
X21183396Y-17833960D01*
X21183396Y-17833960D02*
X21164349Y-17843484D01*
X21164349Y-17843484D02*
X21145301Y-17843484D01*
X21145301Y-17843484D02*
X21126253Y-17833960D01*
X21126253Y-17833960D02*
X21116729Y-17824436D01*
X21116729Y-17824436D02*
X21107206Y-17805389D01*
X21107206Y-17805389D02*
X21097682Y-17767293D01*
X21097682Y-17767293D02*
X21097682Y-17719674D01*
X21097682Y-17719674D02*
X21107206Y-17681579D01*
X21107206Y-17681579D02*
X21116729Y-17662531D01*
X21116729Y-17662531D02*
X21126253Y-17653008D01*
X21126253Y-17653008D02*
X21145301Y-17643484D01*
X21402444Y-17843484D02*
X21288158Y-17843484D01*
X21345301Y-17843484D02*
X21345301Y-17643484D01*
X21345301Y-17643484D02*
X21326253Y-17672055D01*
X21326253Y-17672055D02*
X21307206Y-17691103D01*
X21307206Y-17691103D02*
X21288158Y-17700627D01*
X21478634Y-17643484D02*
X21478634Y-17681579D01*
X21554825Y-17643484D02*
X21554825Y-17681579D01*
X21850063Y-17919674D02*
X21840539Y-17910150D01*
X21840539Y-17910150D02*
X21821491Y-17881579D01*
X21821491Y-17881579D02*
X21811968Y-17862531D01*
X21811968Y-17862531D02*
X21802444Y-17833960D01*
X21802444Y-17833960D02*
X21792920Y-17786341D01*
X21792920Y-17786341D02*
X21792920Y-17748246D01*
X21792920Y-17748246D02*
X21802444Y-17700627D01*
X21802444Y-17700627D02*
X21811968Y-17672055D01*
X21811968Y-17672055D02*
X21821491Y-17653008D01*
X21821491Y-17653008D02*
X21840539Y-17624436D01*
X21840539Y-17624436D02*
X21850063Y-17614912D01*
X21916730Y-17662531D02*
X21926253Y-17653008D01*
X21926253Y-17653008D02*
X21945301Y-17643484D01*
X21945301Y-17643484D02*
X21992920Y-17643484D01*
X21992920Y-17643484D02*
X22011968Y-17653008D01*
X22011968Y-17653008D02*
X22021491Y-17662531D01*
X22021491Y-17662531D02*
X22031015Y-17681579D01*
X22031015Y-17681579D02*
X22031015Y-17700627D01*
X22031015Y-17700627D02*
X22021491Y-17729198D01*
X22021491Y-17729198D02*
X21907206Y-17843484D01*
X21907206Y-17843484D02*
X22031015Y-17843484D01*
X22269111Y-17843484D02*
X22269111Y-17643484D01*
X22354825Y-17843484D02*
X22354825Y-17738722D01*
X22354825Y-17738722D02*
X22345301Y-17719674D01*
X22345301Y-17719674D02*
X22326253Y-17710150D01*
X22326253Y-17710150D02*
X22297682Y-17710150D01*
X22297682Y-17710150D02*
X22278634Y-17719674D01*
X22278634Y-17719674D02*
X22269111Y-17729198D01*
X22478634Y-17843484D02*
X22459587Y-17833960D01*
X22459587Y-17833960D02*
X22450063Y-17824436D01*
X22450063Y-17824436D02*
X22440539Y-17805389D01*
X22440539Y-17805389D02*
X22440539Y-17748246D01*
X22440539Y-17748246D02*
X22450063Y-17729198D01*
X22450063Y-17729198D02*
X22459587Y-17719674D01*
X22459587Y-17719674D02*
X22478634Y-17710150D01*
X22478634Y-17710150D02*
X22507206Y-17710150D01*
X22507206Y-17710150D02*
X22526253Y-17719674D01*
X22526253Y-17719674D02*
X22535777Y-17729198D01*
X22535777Y-17729198D02*
X22545301Y-17748246D01*
X22545301Y-17748246D02*
X22545301Y-17805389D01*
X22545301Y-17805389D02*
X22535777Y-17824436D01*
X22535777Y-17824436D02*
X22526253Y-17833960D01*
X22526253Y-17833960D02*
X22507206Y-17843484D01*
X22507206Y-17843484D02*
X22478634Y-17843484D01*
X22659587Y-17843484D02*
X22640539Y-17833960D01*
X22640539Y-17833960D02*
X22631015Y-17814912D01*
X22631015Y-17814912D02*
X22631015Y-17643484D01*
X22811968Y-17833960D02*
X22792920Y-17843484D01*
X22792920Y-17843484D02*
X22754825Y-17843484D01*
X22754825Y-17843484D02*
X22735777Y-17833960D01*
X22735777Y-17833960D02*
X22726253Y-17814912D01*
X22726253Y-17814912D02*
X22726253Y-17738722D01*
X22726253Y-17738722D02*
X22735777Y-17719674D01*
X22735777Y-17719674D02*
X22754825Y-17710150D01*
X22754825Y-17710150D02*
X22792920Y-17710150D01*
X22792920Y-17710150D02*
X22811968Y-17719674D01*
X22811968Y-17719674D02*
X22821491Y-17738722D01*
X22821491Y-17738722D02*
X22821491Y-17757770D01*
X22821491Y-17757770D02*
X22726253Y-17776817D01*
X22897682Y-17833960D02*
X22916730Y-17843484D01*
X22916730Y-17843484D02*
X22954825Y-17843484D01*
X22954825Y-17843484D02*
X22973872Y-17833960D01*
X22973872Y-17833960D02*
X22983396Y-17814912D01*
X22983396Y-17814912D02*
X22983396Y-17805389D01*
X22983396Y-17805389D02*
X22973872Y-17786341D01*
X22973872Y-17786341D02*
X22954825Y-17776817D01*
X22954825Y-17776817D02*
X22926253Y-17776817D01*
X22926253Y-17776817D02*
X22907206Y-17767293D01*
X22907206Y-17767293D02*
X22897682Y-17748246D01*
X22897682Y-17748246D02*
X22897682Y-17738722D01*
X22897682Y-17738722D02*
X22907206Y-17719674D01*
X22907206Y-17719674D02*
X22926253Y-17710150D01*
X22926253Y-17710150D02*
X22954825Y-17710150D01*
X22954825Y-17710150D02*
X22973872Y-17719674D01*
X23050063Y-17919674D02*
X23059587Y-17910150D01*
X23059587Y-17910150D02*
X23078634Y-17881579D01*
X23078634Y-17881579D02*
X23088158Y-17862531D01*
X23088158Y-17862531D02*
X23097682Y-17833960D01*
X23097682Y-17833960D02*
X23107206Y-17786341D01*
X23107206Y-17786341D02*
X23107206Y-17748246D01*
X23107206Y-17748246D02*
X23097682Y-17700627D01*
X23097682Y-17700627D02*
X23088158Y-17672055D01*
X23088158Y-17672055D02*
X23078634Y-17653008D01*
X23078634Y-17653008D02*
X23059587Y-17624436D01*
X23059587Y-17624436D02*
X23050063Y-17614912D01*
D12*
X18245000Y-18046000D02*
X18275000Y-18016000D01*
X18245000Y-17986000D01*
X18215000Y-18016000D01*
X18245000Y-18046000D01*
D10*
X18573872Y-17907484D02*
X18592920Y-17907484D01*
X18592920Y-17907484D02*
X18611967Y-17917008D01*
X18611967Y-17917008D02*
X18621491Y-17926531D01*
X18621491Y-17926531D02*
X18631015Y-17945579D01*
X18631015Y-17945579D02*
X18640539Y-17983674D01*
X18640539Y-17983674D02*
X18640539Y-18031293D01*
X18640539Y-18031293D02*
X18631015Y-18069389D01*
X18631015Y-18069389D02*
X18621491Y-18088436D01*
X18621491Y-18088436D02*
X18611967Y-18097960D01*
X18611967Y-18097960D02*
X18592920Y-18107484D01*
X18592920Y-18107484D02*
X18573872Y-18107484D01*
X18573872Y-18107484D02*
X18554824Y-18097960D01*
X18554824Y-18097960D02*
X18545301Y-18088436D01*
X18545301Y-18088436D02*
X18535777Y-18069389D01*
X18535777Y-18069389D02*
X18526253Y-18031293D01*
X18526253Y-18031293D02*
X18526253Y-17983674D01*
X18526253Y-17983674D02*
X18535777Y-17945579D01*
X18535777Y-17945579D02*
X18545301Y-17926531D01*
X18545301Y-17926531D02*
X18554824Y-17917008D01*
X18554824Y-17917008D02*
X18573872Y-17907484D01*
X18726253Y-18088436D02*
X18735777Y-18097960D01*
X18735777Y-18097960D02*
X18726253Y-18107484D01*
X18726253Y-18107484D02*
X18716729Y-18097960D01*
X18716729Y-18097960D02*
X18726253Y-18088436D01*
X18726253Y-18088436D02*
X18726253Y-18107484D01*
X18907205Y-17907484D02*
X18869110Y-17907484D01*
X18869110Y-17907484D02*
X18850063Y-17917008D01*
X18850063Y-17917008D02*
X18840539Y-17926531D01*
X18840539Y-17926531D02*
X18821491Y-17955103D01*
X18821491Y-17955103D02*
X18811967Y-17993198D01*
X18811967Y-17993198D02*
X18811967Y-18069389D01*
X18811967Y-18069389D02*
X18821491Y-18088436D01*
X18821491Y-18088436D02*
X18831015Y-18097960D01*
X18831015Y-18097960D02*
X18850063Y-18107484D01*
X18850063Y-18107484D02*
X18888158Y-18107484D01*
X18888158Y-18107484D02*
X18907205Y-18097960D01*
X18907205Y-18097960D02*
X18916729Y-18088436D01*
X18916729Y-18088436D02*
X18926253Y-18069389D01*
X18926253Y-18069389D02*
X18926253Y-18021770D01*
X18926253Y-18021770D02*
X18916729Y-18002722D01*
X18916729Y-18002722D02*
X18907205Y-17993198D01*
X18907205Y-17993198D02*
X18888158Y-17983674D01*
X18888158Y-17983674D02*
X18850063Y-17983674D01*
X18850063Y-17983674D02*
X18831015Y-17993198D01*
X18831015Y-17993198D02*
X18821491Y-18002722D01*
X18821491Y-18002722D02*
X18811967Y-18021770D01*
X19050063Y-17907484D02*
X19069110Y-17907484D01*
X19069110Y-17907484D02*
X19088158Y-17917008D01*
X19088158Y-17917008D02*
X19097682Y-17926531D01*
X19097682Y-17926531D02*
X19107205Y-17945579D01*
X19107205Y-17945579D02*
X19116729Y-17983674D01*
X19116729Y-17983674D02*
X19116729Y-18031293D01*
X19116729Y-18031293D02*
X19107205Y-18069389D01*
X19107205Y-18069389D02*
X19097682Y-18088436D01*
X19097682Y-18088436D02*
X19088158Y-18097960D01*
X19088158Y-18097960D02*
X19069110Y-18107484D01*
X19069110Y-18107484D02*
X19050063Y-18107484D01*
X19050063Y-18107484D02*
X19031015Y-18097960D01*
X19031015Y-18097960D02*
X19021491Y-18088436D01*
X19021491Y-18088436D02*
X19011967Y-18069389D01*
X19011967Y-18069389D02*
X19002444Y-18031293D01*
X19002444Y-18031293D02*
X19002444Y-17983674D01*
X19002444Y-17983674D02*
X19011967Y-17945579D01*
X19011967Y-17945579D02*
X19021491Y-17926531D01*
X19021491Y-17926531D02*
X19031015Y-17917008D01*
X19031015Y-17917008D02*
X19050063Y-17907484D01*
X19240539Y-17907484D02*
X19259586Y-17907484D01*
X19259586Y-17907484D02*
X19278634Y-17917008D01*
X19278634Y-17917008D02*
X19288158Y-17926531D01*
X19288158Y-17926531D02*
X19297682Y-17945579D01*
X19297682Y-17945579D02*
X19307205Y-17983674D01*
X19307205Y-17983674D02*
X19307205Y-18031293D01*
X19307205Y-18031293D02*
X19297682Y-18069389D01*
X19297682Y-18069389D02*
X19288158Y-18088436D01*
X19288158Y-18088436D02*
X19278634Y-18097960D01*
X19278634Y-18097960D02*
X19259586Y-18107484D01*
X19259586Y-18107484D02*
X19240539Y-18107484D01*
X19240539Y-18107484D02*
X19221491Y-18097960D01*
X19221491Y-18097960D02*
X19211967Y-18088436D01*
X19211967Y-18088436D02*
X19202444Y-18069389D01*
X19202444Y-18069389D02*
X19192920Y-18031293D01*
X19192920Y-18031293D02*
X19192920Y-17983674D01*
X19192920Y-17983674D02*
X19202444Y-17945579D01*
X19202444Y-17945579D02*
X19211967Y-17926531D01*
X19211967Y-17926531D02*
X19221491Y-17917008D01*
X19221491Y-17917008D02*
X19240539Y-17907484D01*
X19392920Y-18107484D02*
X19392920Y-17974150D01*
X19392920Y-17993198D02*
X19402444Y-17983674D01*
X19402444Y-17983674D02*
X19421491Y-17974150D01*
X19421491Y-17974150D02*
X19450063Y-17974150D01*
X19450063Y-17974150D02*
X19469110Y-17983674D01*
X19469110Y-17983674D02*
X19478634Y-18002722D01*
X19478634Y-18002722D02*
X19478634Y-18107484D01*
X19478634Y-18002722D02*
X19488158Y-17983674D01*
X19488158Y-17983674D02*
X19507205Y-17974150D01*
X19507205Y-17974150D02*
X19535777Y-17974150D01*
X19535777Y-17974150D02*
X19554825Y-17983674D01*
X19554825Y-17983674D02*
X19564348Y-18002722D01*
X19564348Y-18002722D02*
X19564348Y-18107484D01*
X19659586Y-18107484D02*
X19659586Y-17974150D01*
X19659586Y-17993198D02*
X19669110Y-17983674D01*
X19669110Y-17983674D02*
X19688158Y-17974150D01*
X19688158Y-17974150D02*
X19716729Y-17974150D01*
X19716729Y-17974150D02*
X19735777Y-17983674D01*
X19735777Y-17983674D02*
X19745301Y-18002722D01*
X19745301Y-18002722D02*
X19745301Y-18107484D01*
X19745301Y-18002722D02*
X19754825Y-17983674D01*
X19754825Y-17983674D02*
X19773872Y-17974150D01*
X19773872Y-17974150D02*
X19802444Y-17974150D01*
X19802444Y-17974150D02*
X19821491Y-17983674D01*
X19821491Y-17983674D02*
X19831015Y-18002722D01*
X19831015Y-18002722D02*
X19831015Y-18107484D01*
X20221491Y-17897960D02*
X20050063Y-18155103D01*
X20478634Y-17907484D02*
X20497682Y-17907484D01*
X20497682Y-17907484D02*
X20516729Y-17917008D01*
X20516729Y-17917008D02*
X20526253Y-17926531D01*
X20526253Y-17926531D02*
X20535777Y-17945579D01*
X20535777Y-17945579D02*
X20545301Y-17983674D01*
X20545301Y-17983674D02*
X20545301Y-18031293D01*
X20545301Y-18031293D02*
X20535777Y-18069389D01*
X20535777Y-18069389D02*
X20526253Y-18088436D01*
X20526253Y-18088436D02*
X20516729Y-18097960D01*
X20516729Y-18097960D02*
X20497682Y-18107484D01*
X20497682Y-18107484D02*
X20478634Y-18107484D01*
X20478634Y-18107484D02*
X20459587Y-18097960D01*
X20459587Y-18097960D02*
X20450063Y-18088436D01*
X20450063Y-18088436D02*
X20440539Y-18069389D01*
X20440539Y-18069389D02*
X20431015Y-18031293D01*
X20431015Y-18031293D02*
X20431015Y-17983674D01*
X20431015Y-17983674D02*
X20440539Y-17945579D01*
X20440539Y-17945579D02*
X20450063Y-17926531D01*
X20450063Y-17926531D02*
X20459587Y-17917008D01*
X20459587Y-17917008D02*
X20478634Y-17907484D01*
X20631015Y-18088436D02*
X20640539Y-18097960D01*
X20640539Y-18097960D02*
X20631015Y-18107484D01*
X20631015Y-18107484D02*
X20621491Y-18097960D01*
X20621491Y-18097960D02*
X20631015Y-18088436D01*
X20631015Y-18088436D02*
X20631015Y-18107484D01*
X20764348Y-17907484D02*
X20783396Y-17907484D01*
X20783396Y-17907484D02*
X20802444Y-17917008D01*
X20802444Y-17917008D02*
X20811968Y-17926531D01*
X20811968Y-17926531D02*
X20821491Y-17945579D01*
X20821491Y-17945579D02*
X20831015Y-17983674D01*
X20831015Y-17983674D02*
X20831015Y-18031293D01*
X20831015Y-18031293D02*
X20821491Y-18069389D01*
X20821491Y-18069389D02*
X20811968Y-18088436D01*
X20811968Y-18088436D02*
X20802444Y-18097960D01*
X20802444Y-18097960D02*
X20783396Y-18107484D01*
X20783396Y-18107484D02*
X20764348Y-18107484D01*
X20764348Y-18107484D02*
X20745301Y-18097960D01*
X20745301Y-18097960D02*
X20735777Y-18088436D01*
X20735777Y-18088436D02*
X20726253Y-18069389D01*
X20726253Y-18069389D02*
X20716729Y-18031293D01*
X20716729Y-18031293D02*
X20716729Y-17983674D01*
X20716729Y-17983674D02*
X20726253Y-17945579D01*
X20726253Y-17945579D02*
X20735777Y-17926531D01*
X20735777Y-17926531D02*
X20745301Y-17917008D01*
X20745301Y-17917008D02*
X20764348Y-17907484D01*
X20907206Y-17926531D02*
X20916729Y-17917008D01*
X20916729Y-17917008D02*
X20935777Y-17907484D01*
X20935777Y-17907484D02*
X20983396Y-17907484D01*
X20983396Y-17907484D02*
X21002444Y-17917008D01*
X21002444Y-17917008D02*
X21011968Y-17926531D01*
X21011968Y-17926531D02*
X21021491Y-17945579D01*
X21021491Y-17945579D02*
X21021491Y-17964627D01*
X21021491Y-17964627D02*
X21011968Y-17993198D01*
X21011968Y-17993198D02*
X20897682Y-18107484D01*
X20897682Y-18107484D02*
X21021491Y-18107484D01*
X21088158Y-17907484D02*
X21211968Y-17907484D01*
X21211968Y-17907484D02*
X21145301Y-17983674D01*
X21145301Y-17983674D02*
X21173872Y-17983674D01*
X21173872Y-17983674D02*
X21192920Y-17993198D01*
X21192920Y-17993198D02*
X21202444Y-18002722D01*
X21202444Y-18002722D02*
X21211968Y-18021770D01*
X21211968Y-18021770D02*
X21211968Y-18069389D01*
X21211968Y-18069389D02*
X21202444Y-18088436D01*
X21202444Y-18088436D02*
X21192920Y-18097960D01*
X21192920Y-18097960D02*
X21173872Y-18107484D01*
X21173872Y-18107484D02*
X21116729Y-18107484D01*
X21116729Y-18107484D02*
X21097682Y-18097960D01*
X21097682Y-18097960D02*
X21088158Y-18088436D01*
X21383396Y-17907484D02*
X21345301Y-17907484D01*
X21345301Y-17907484D02*
X21326253Y-17917008D01*
X21326253Y-17917008D02*
X21316729Y-17926531D01*
X21316729Y-17926531D02*
X21297682Y-17955103D01*
X21297682Y-17955103D02*
X21288158Y-17993198D01*
X21288158Y-17993198D02*
X21288158Y-18069389D01*
X21288158Y-18069389D02*
X21297682Y-18088436D01*
X21297682Y-18088436D02*
X21307206Y-18097960D01*
X21307206Y-18097960D02*
X21326253Y-18107484D01*
X21326253Y-18107484D02*
X21364349Y-18107484D01*
X21364349Y-18107484D02*
X21383396Y-18097960D01*
X21383396Y-18097960D02*
X21392920Y-18088436D01*
X21392920Y-18088436D02*
X21402444Y-18069389D01*
X21402444Y-18069389D02*
X21402444Y-18021770D01*
X21402444Y-18021770D02*
X21392920Y-18002722D01*
X21392920Y-18002722D02*
X21383396Y-17993198D01*
X21383396Y-17993198D02*
X21364349Y-17983674D01*
X21364349Y-17983674D02*
X21326253Y-17983674D01*
X21326253Y-17983674D02*
X21307206Y-17993198D01*
X21307206Y-17993198D02*
X21297682Y-18002722D01*
X21297682Y-18002722D02*
X21288158Y-18021770D01*
X21478634Y-17907484D02*
X21478634Y-17945579D01*
X21554825Y-17907484D02*
X21554825Y-17945579D01*
X21850063Y-18183674D02*
X21840539Y-18174150D01*
X21840539Y-18174150D02*
X21821491Y-18145579D01*
X21821491Y-18145579D02*
X21811968Y-18126531D01*
X21811968Y-18126531D02*
X21802444Y-18097960D01*
X21802444Y-18097960D02*
X21792920Y-18050341D01*
X21792920Y-18050341D02*
X21792920Y-18012246D01*
X21792920Y-18012246D02*
X21802444Y-17964627D01*
X21802444Y-17964627D02*
X21811968Y-17936055D01*
X21811968Y-17936055D02*
X21821491Y-17917008D01*
X21821491Y-17917008D02*
X21840539Y-17888436D01*
X21840539Y-17888436D02*
X21850063Y-17878912D01*
X21964349Y-17907484D02*
X21983396Y-17907484D01*
X21983396Y-17907484D02*
X22002444Y-17917008D01*
X22002444Y-17917008D02*
X22011968Y-17926531D01*
X22011968Y-17926531D02*
X22021491Y-17945579D01*
X22021491Y-17945579D02*
X22031015Y-17983674D01*
X22031015Y-17983674D02*
X22031015Y-18031293D01*
X22031015Y-18031293D02*
X22021491Y-18069389D01*
X22021491Y-18069389D02*
X22011968Y-18088436D01*
X22011968Y-18088436D02*
X22002444Y-18097960D01*
X22002444Y-18097960D02*
X21983396Y-18107484D01*
X21983396Y-18107484D02*
X21964349Y-18107484D01*
X21964349Y-18107484D02*
X21945301Y-18097960D01*
X21945301Y-18097960D02*
X21935777Y-18088436D01*
X21935777Y-18088436D02*
X21926253Y-18069389D01*
X21926253Y-18069389D02*
X21916730Y-18031293D01*
X21916730Y-18031293D02*
X21916730Y-17983674D01*
X21916730Y-17983674D02*
X21926253Y-17945579D01*
X21926253Y-17945579D02*
X21935777Y-17926531D01*
X21935777Y-17926531D02*
X21945301Y-17917008D01*
X21945301Y-17917008D02*
X21964349Y-17907484D01*
X22269111Y-18107484D02*
X22269111Y-17907484D01*
X22354825Y-18107484D02*
X22354825Y-18002722D01*
X22354825Y-18002722D02*
X22345301Y-17983674D01*
X22345301Y-17983674D02*
X22326253Y-17974150D01*
X22326253Y-17974150D02*
X22297682Y-17974150D01*
X22297682Y-17974150D02*
X22278634Y-17983674D01*
X22278634Y-17983674D02*
X22269111Y-17993198D01*
X22478634Y-18107484D02*
X22459587Y-18097960D01*
X22459587Y-18097960D02*
X22450063Y-18088436D01*
X22450063Y-18088436D02*
X22440539Y-18069389D01*
X22440539Y-18069389D02*
X22440539Y-18012246D01*
X22440539Y-18012246D02*
X22450063Y-17993198D01*
X22450063Y-17993198D02*
X22459587Y-17983674D01*
X22459587Y-17983674D02*
X22478634Y-17974150D01*
X22478634Y-17974150D02*
X22507206Y-17974150D01*
X22507206Y-17974150D02*
X22526253Y-17983674D01*
X22526253Y-17983674D02*
X22535777Y-17993198D01*
X22535777Y-17993198D02*
X22545301Y-18012246D01*
X22545301Y-18012246D02*
X22545301Y-18069389D01*
X22545301Y-18069389D02*
X22535777Y-18088436D01*
X22535777Y-18088436D02*
X22526253Y-18097960D01*
X22526253Y-18097960D02*
X22507206Y-18107484D01*
X22507206Y-18107484D02*
X22478634Y-18107484D01*
X22659587Y-18107484D02*
X22640539Y-18097960D01*
X22640539Y-18097960D02*
X22631015Y-18078912D01*
X22631015Y-18078912D02*
X22631015Y-17907484D01*
X22811968Y-18097960D02*
X22792920Y-18107484D01*
X22792920Y-18107484D02*
X22754825Y-18107484D01*
X22754825Y-18107484D02*
X22735777Y-18097960D01*
X22735777Y-18097960D02*
X22726253Y-18078912D01*
X22726253Y-18078912D02*
X22726253Y-18002722D01*
X22726253Y-18002722D02*
X22735777Y-17983674D01*
X22735777Y-17983674D02*
X22754825Y-17974150D01*
X22754825Y-17974150D02*
X22792920Y-17974150D01*
X22792920Y-17974150D02*
X22811968Y-17983674D01*
X22811968Y-17983674D02*
X22821491Y-18002722D01*
X22821491Y-18002722D02*
X22821491Y-18021770D01*
X22821491Y-18021770D02*
X22726253Y-18040817D01*
X22897682Y-18097960D02*
X22916730Y-18107484D01*
X22916730Y-18107484D02*
X22954825Y-18107484D01*
X22954825Y-18107484D02*
X22973872Y-18097960D01*
X22973872Y-18097960D02*
X22983396Y-18078912D01*
X22983396Y-18078912D02*
X22983396Y-18069389D01*
X22983396Y-18069389D02*
X22973872Y-18050341D01*
X22973872Y-18050341D02*
X22954825Y-18040817D01*
X22954825Y-18040817D02*
X22926253Y-18040817D01*
X22926253Y-18040817D02*
X22907206Y-18031293D01*
X22907206Y-18031293D02*
X22897682Y-18012246D01*
X22897682Y-18012246D02*
X22897682Y-18002722D01*
X22897682Y-18002722D02*
X22907206Y-17983674D01*
X22907206Y-17983674D02*
X22926253Y-17974150D01*
X22926253Y-17974150D02*
X22954825Y-17974150D01*
X22954825Y-17974150D02*
X22973872Y-17983674D01*
X23221492Y-18031293D02*
X23373873Y-18031293D01*
X23297682Y-18107484D02*
X23297682Y-17955103D01*
X23707206Y-17974150D02*
X23707206Y-18107484D01*
X23659587Y-17897960D02*
X23611968Y-18040817D01*
X23611968Y-18040817D02*
X23735777Y-18040817D01*
X23954825Y-18097960D02*
X23973873Y-18107484D01*
X23973873Y-18107484D02*
X24011968Y-18107484D01*
X24011968Y-18107484D02*
X24031015Y-18097960D01*
X24031015Y-18097960D02*
X24040539Y-18078912D01*
X24040539Y-18078912D02*
X24040539Y-18069389D01*
X24040539Y-18069389D02*
X24031015Y-18050341D01*
X24031015Y-18050341D02*
X24011968Y-18040817D01*
X24011968Y-18040817D02*
X23983396Y-18040817D01*
X23983396Y-18040817D02*
X23964349Y-18031293D01*
X23964349Y-18031293D02*
X23954825Y-18012246D01*
X23954825Y-18012246D02*
X23954825Y-18002722D01*
X23954825Y-18002722D02*
X23964349Y-17983674D01*
X23964349Y-17983674D02*
X23983396Y-17974150D01*
X23983396Y-17974150D02*
X24011968Y-17974150D01*
X24011968Y-17974150D02*
X24031015Y-17983674D01*
X24154825Y-18107484D02*
X24135777Y-18097960D01*
X24135777Y-18097960D02*
X24126254Y-18078912D01*
X24126254Y-18078912D02*
X24126254Y-17907484D01*
X24259587Y-18107484D02*
X24240539Y-18097960D01*
X24240539Y-18097960D02*
X24231015Y-18088436D01*
X24231015Y-18088436D02*
X24221492Y-18069389D01*
X24221492Y-18069389D02*
X24221492Y-18012246D01*
X24221492Y-18012246D02*
X24231015Y-17993198D01*
X24231015Y-17993198D02*
X24240539Y-17983674D01*
X24240539Y-17983674D02*
X24259587Y-17974150D01*
X24259587Y-17974150D02*
X24288158Y-17974150D01*
X24288158Y-17974150D02*
X24307206Y-17983674D01*
X24307206Y-17983674D02*
X24316730Y-17993198D01*
X24316730Y-17993198D02*
X24326254Y-18012246D01*
X24326254Y-18012246D02*
X24326254Y-18069389D01*
X24326254Y-18069389D02*
X24316730Y-18088436D01*
X24316730Y-18088436D02*
X24307206Y-18097960D01*
X24307206Y-18097960D02*
X24288158Y-18107484D01*
X24288158Y-18107484D02*
X24259587Y-18107484D01*
X24383396Y-17974150D02*
X24459587Y-17974150D01*
X24411968Y-17907484D02*
X24411968Y-18078912D01*
X24411968Y-18078912D02*
X24421492Y-18097960D01*
X24421492Y-18097960D02*
X24440539Y-18107484D01*
X24440539Y-18107484D02*
X24459587Y-18107484D01*
X24516730Y-18097960D02*
X24535777Y-18107484D01*
X24535777Y-18107484D02*
X24573873Y-18107484D01*
X24573873Y-18107484D02*
X24592920Y-18097960D01*
X24592920Y-18097960D02*
X24602444Y-18078912D01*
X24602444Y-18078912D02*
X24602444Y-18069389D01*
X24602444Y-18069389D02*
X24592920Y-18050341D01*
X24592920Y-18050341D02*
X24573873Y-18040817D01*
X24573873Y-18040817D02*
X24545301Y-18040817D01*
X24545301Y-18040817D02*
X24526254Y-18031293D01*
X24526254Y-18031293D02*
X24516730Y-18012246D01*
X24516730Y-18012246D02*
X24516730Y-18002722D01*
X24516730Y-18002722D02*
X24526254Y-17983674D01*
X24526254Y-17983674D02*
X24545301Y-17974150D01*
X24545301Y-17974150D02*
X24573873Y-17974150D01*
X24573873Y-17974150D02*
X24592920Y-17983674D01*
X24669111Y-18183674D02*
X24678635Y-18174150D01*
X24678635Y-18174150D02*
X24697682Y-18145579D01*
X24697682Y-18145579D02*
X24707206Y-18126531D01*
X24707206Y-18126531D02*
X24716730Y-18097960D01*
X24716730Y-18097960D02*
X24726254Y-18050341D01*
X24726254Y-18050341D02*
X24726254Y-18012246D01*
X24726254Y-18012246D02*
X24716730Y-17964627D01*
X24716730Y-17964627D02*
X24707206Y-17936055D01*
X24707206Y-17936055D02*
X24697682Y-17917008D01*
X24697682Y-17917008D02*
X24678635Y-17888436D01*
X24678635Y-17888436D02*
X24669111Y-17878912D01*
D12*
X18175000Y-18230000D02*
X18275000Y-18330000D01*
X18275000Y-18230000D02*
X18175000Y-18330000D01*
X18275000Y-18280000D02*
G75*
G02*
X18175000Y-18280000I-50000J0D01*
G01*
X18175000Y-18280000D02*
G75*
G02*
X18275000Y-18280000I50000J0D01*
G01*
D10*
X18640539Y-18371484D02*
X18526253Y-18371484D01*
X18583396Y-18371484D02*
X18583396Y-18171484D01*
X18583396Y-18171484D02*
X18564348Y-18200055D01*
X18564348Y-18200055D02*
X18545301Y-18219103D01*
X18545301Y-18219103D02*
X18526253Y-18228627D01*
X18726253Y-18352436D02*
X18735777Y-18361960D01*
X18735777Y-18361960D02*
X18726253Y-18371484D01*
X18726253Y-18371484D02*
X18716729Y-18361960D01*
X18716729Y-18361960D02*
X18726253Y-18352436D01*
X18726253Y-18352436D02*
X18726253Y-18371484D01*
X18859586Y-18171484D02*
X18878634Y-18171484D01*
X18878634Y-18171484D02*
X18897682Y-18181008D01*
X18897682Y-18181008D02*
X18907205Y-18190531D01*
X18907205Y-18190531D02*
X18916729Y-18209579D01*
X18916729Y-18209579D02*
X18926253Y-18247674D01*
X18926253Y-18247674D02*
X18926253Y-18295293D01*
X18926253Y-18295293D02*
X18916729Y-18333389D01*
X18916729Y-18333389D02*
X18907205Y-18352436D01*
X18907205Y-18352436D02*
X18897682Y-18361960D01*
X18897682Y-18361960D02*
X18878634Y-18371484D01*
X18878634Y-18371484D02*
X18859586Y-18371484D01*
X18859586Y-18371484D02*
X18840539Y-18361960D01*
X18840539Y-18361960D02*
X18831015Y-18352436D01*
X18831015Y-18352436D02*
X18821491Y-18333389D01*
X18821491Y-18333389D02*
X18811967Y-18295293D01*
X18811967Y-18295293D02*
X18811967Y-18247674D01*
X18811967Y-18247674D02*
X18821491Y-18209579D01*
X18821491Y-18209579D02*
X18831015Y-18190531D01*
X18831015Y-18190531D02*
X18840539Y-18181008D01*
X18840539Y-18181008D02*
X18859586Y-18171484D01*
X19050063Y-18171484D02*
X19069110Y-18171484D01*
X19069110Y-18171484D02*
X19088158Y-18181008D01*
X19088158Y-18181008D02*
X19097682Y-18190531D01*
X19097682Y-18190531D02*
X19107205Y-18209579D01*
X19107205Y-18209579D02*
X19116729Y-18247674D01*
X19116729Y-18247674D02*
X19116729Y-18295293D01*
X19116729Y-18295293D02*
X19107205Y-18333389D01*
X19107205Y-18333389D02*
X19097682Y-18352436D01*
X19097682Y-18352436D02*
X19088158Y-18361960D01*
X19088158Y-18361960D02*
X19069110Y-18371484D01*
X19069110Y-18371484D02*
X19050063Y-18371484D01*
X19050063Y-18371484D02*
X19031015Y-18361960D01*
X19031015Y-18361960D02*
X19021491Y-18352436D01*
X19021491Y-18352436D02*
X19011967Y-18333389D01*
X19011967Y-18333389D02*
X19002444Y-18295293D01*
X19002444Y-18295293D02*
X19002444Y-18247674D01*
X19002444Y-18247674D02*
X19011967Y-18209579D01*
X19011967Y-18209579D02*
X19021491Y-18190531D01*
X19021491Y-18190531D02*
X19031015Y-18181008D01*
X19031015Y-18181008D02*
X19050063Y-18171484D01*
X19240539Y-18171484D02*
X19259586Y-18171484D01*
X19259586Y-18171484D02*
X19278634Y-18181008D01*
X19278634Y-18181008D02*
X19288158Y-18190531D01*
X19288158Y-18190531D02*
X19297682Y-18209579D01*
X19297682Y-18209579D02*
X19307205Y-18247674D01*
X19307205Y-18247674D02*
X19307205Y-18295293D01*
X19307205Y-18295293D02*
X19297682Y-18333389D01*
X19297682Y-18333389D02*
X19288158Y-18352436D01*
X19288158Y-18352436D02*
X19278634Y-18361960D01*
X19278634Y-18361960D02*
X19259586Y-18371484D01*
X19259586Y-18371484D02*
X19240539Y-18371484D01*
X19240539Y-18371484D02*
X19221491Y-18361960D01*
X19221491Y-18361960D02*
X19211967Y-18352436D01*
X19211967Y-18352436D02*
X19202444Y-18333389D01*
X19202444Y-18333389D02*
X19192920Y-18295293D01*
X19192920Y-18295293D02*
X19192920Y-18247674D01*
X19192920Y-18247674D02*
X19202444Y-18209579D01*
X19202444Y-18209579D02*
X19211967Y-18190531D01*
X19211967Y-18190531D02*
X19221491Y-18181008D01*
X19221491Y-18181008D02*
X19240539Y-18171484D01*
X19392920Y-18371484D02*
X19392920Y-18238150D01*
X19392920Y-18257198D02*
X19402444Y-18247674D01*
X19402444Y-18247674D02*
X19421491Y-18238150D01*
X19421491Y-18238150D02*
X19450063Y-18238150D01*
X19450063Y-18238150D02*
X19469110Y-18247674D01*
X19469110Y-18247674D02*
X19478634Y-18266722D01*
X19478634Y-18266722D02*
X19478634Y-18371484D01*
X19478634Y-18266722D02*
X19488158Y-18247674D01*
X19488158Y-18247674D02*
X19507205Y-18238150D01*
X19507205Y-18238150D02*
X19535777Y-18238150D01*
X19535777Y-18238150D02*
X19554825Y-18247674D01*
X19554825Y-18247674D02*
X19564348Y-18266722D01*
X19564348Y-18266722D02*
X19564348Y-18371484D01*
X19659586Y-18371484D02*
X19659586Y-18238150D01*
X19659586Y-18257198D02*
X19669110Y-18247674D01*
X19669110Y-18247674D02*
X19688158Y-18238150D01*
X19688158Y-18238150D02*
X19716729Y-18238150D01*
X19716729Y-18238150D02*
X19735777Y-18247674D01*
X19735777Y-18247674D02*
X19745301Y-18266722D01*
X19745301Y-18266722D02*
X19745301Y-18371484D01*
X19745301Y-18266722D02*
X19754825Y-18247674D01*
X19754825Y-18247674D02*
X19773872Y-18238150D01*
X19773872Y-18238150D02*
X19802444Y-18238150D01*
X19802444Y-18238150D02*
X19821491Y-18247674D01*
X19821491Y-18247674D02*
X19831015Y-18266722D01*
X19831015Y-18266722D02*
X19831015Y-18371484D01*
X20221491Y-18161960D02*
X20050063Y-18419103D01*
X20478634Y-18171484D02*
X20497682Y-18171484D01*
X20497682Y-18171484D02*
X20516729Y-18181008D01*
X20516729Y-18181008D02*
X20526253Y-18190531D01*
X20526253Y-18190531D02*
X20535777Y-18209579D01*
X20535777Y-18209579D02*
X20545301Y-18247674D01*
X20545301Y-18247674D02*
X20545301Y-18295293D01*
X20545301Y-18295293D02*
X20535777Y-18333389D01*
X20535777Y-18333389D02*
X20526253Y-18352436D01*
X20526253Y-18352436D02*
X20516729Y-18361960D01*
X20516729Y-18361960D02*
X20497682Y-18371484D01*
X20497682Y-18371484D02*
X20478634Y-18371484D01*
X20478634Y-18371484D02*
X20459587Y-18361960D01*
X20459587Y-18361960D02*
X20450063Y-18352436D01*
X20450063Y-18352436D02*
X20440539Y-18333389D01*
X20440539Y-18333389D02*
X20431015Y-18295293D01*
X20431015Y-18295293D02*
X20431015Y-18247674D01*
X20431015Y-18247674D02*
X20440539Y-18209579D01*
X20440539Y-18209579D02*
X20450063Y-18190531D01*
X20450063Y-18190531D02*
X20459587Y-18181008D01*
X20459587Y-18181008D02*
X20478634Y-18171484D01*
X20631015Y-18352436D02*
X20640539Y-18361960D01*
X20640539Y-18361960D02*
X20631015Y-18371484D01*
X20631015Y-18371484D02*
X20621491Y-18361960D01*
X20621491Y-18361960D02*
X20631015Y-18352436D01*
X20631015Y-18352436D02*
X20631015Y-18371484D01*
X20764348Y-18171484D02*
X20783396Y-18171484D01*
X20783396Y-18171484D02*
X20802444Y-18181008D01*
X20802444Y-18181008D02*
X20811968Y-18190531D01*
X20811968Y-18190531D02*
X20821491Y-18209579D01*
X20821491Y-18209579D02*
X20831015Y-18247674D01*
X20831015Y-18247674D02*
X20831015Y-18295293D01*
X20831015Y-18295293D02*
X20821491Y-18333389D01*
X20821491Y-18333389D02*
X20811968Y-18352436D01*
X20811968Y-18352436D02*
X20802444Y-18361960D01*
X20802444Y-18361960D02*
X20783396Y-18371484D01*
X20783396Y-18371484D02*
X20764348Y-18371484D01*
X20764348Y-18371484D02*
X20745301Y-18361960D01*
X20745301Y-18361960D02*
X20735777Y-18352436D01*
X20735777Y-18352436D02*
X20726253Y-18333389D01*
X20726253Y-18333389D02*
X20716729Y-18295293D01*
X20716729Y-18295293D02*
X20716729Y-18247674D01*
X20716729Y-18247674D02*
X20726253Y-18209579D01*
X20726253Y-18209579D02*
X20735777Y-18190531D01*
X20735777Y-18190531D02*
X20745301Y-18181008D01*
X20745301Y-18181008D02*
X20764348Y-18171484D01*
X20897682Y-18171484D02*
X21021491Y-18171484D01*
X21021491Y-18171484D02*
X20954825Y-18247674D01*
X20954825Y-18247674D02*
X20983396Y-18247674D01*
X20983396Y-18247674D02*
X21002444Y-18257198D01*
X21002444Y-18257198D02*
X21011968Y-18266722D01*
X21011968Y-18266722D02*
X21021491Y-18285770D01*
X21021491Y-18285770D02*
X21021491Y-18333389D01*
X21021491Y-18333389D02*
X21011968Y-18352436D01*
X21011968Y-18352436D02*
X21002444Y-18361960D01*
X21002444Y-18361960D02*
X20983396Y-18371484D01*
X20983396Y-18371484D02*
X20926253Y-18371484D01*
X20926253Y-18371484D02*
X20907206Y-18361960D01*
X20907206Y-18361960D02*
X20897682Y-18352436D01*
X21116729Y-18371484D02*
X21154825Y-18371484D01*
X21154825Y-18371484D02*
X21173872Y-18361960D01*
X21173872Y-18361960D02*
X21183396Y-18352436D01*
X21183396Y-18352436D02*
X21202444Y-18323865D01*
X21202444Y-18323865D02*
X21211968Y-18285770D01*
X21211968Y-18285770D02*
X21211968Y-18209579D01*
X21211968Y-18209579D02*
X21202444Y-18190531D01*
X21202444Y-18190531D02*
X21192920Y-18181008D01*
X21192920Y-18181008D02*
X21173872Y-18171484D01*
X21173872Y-18171484D02*
X21135777Y-18171484D01*
X21135777Y-18171484D02*
X21116729Y-18181008D01*
X21116729Y-18181008D02*
X21107206Y-18190531D01*
X21107206Y-18190531D02*
X21097682Y-18209579D01*
X21097682Y-18209579D02*
X21097682Y-18257198D01*
X21097682Y-18257198D02*
X21107206Y-18276246D01*
X21107206Y-18276246D02*
X21116729Y-18285770D01*
X21116729Y-18285770D02*
X21135777Y-18295293D01*
X21135777Y-18295293D02*
X21173872Y-18295293D01*
X21173872Y-18295293D02*
X21192920Y-18285770D01*
X21192920Y-18285770D02*
X21202444Y-18276246D01*
X21202444Y-18276246D02*
X21211968Y-18257198D01*
X21383396Y-18238150D02*
X21383396Y-18371484D01*
X21335777Y-18161960D02*
X21288158Y-18304817D01*
X21288158Y-18304817D02*
X21411968Y-18304817D01*
X21478634Y-18171484D02*
X21478634Y-18209579D01*
X21554825Y-18171484D02*
X21554825Y-18209579D01*
X21850063Y-18447674D02*
X21840539Y-18438150D01*
X21840539Y-18438150D02*
X21821491Y-18409579D01*
X21821491Y-18409579D02*
X21811968Y-18390531D01*
X21811968Y-18390531D02*
X21802444Y-18361960D01*
X21802444Y-18361960D02*
X21792920Y-18314341D01*
X21792920Y-18314341D02*
X21792920Y-18276246D01*
X21792920Y-18276246D02*
X21802444Y-18228627D01*
X21802444Y-18228627D02*
X21811968Y-18200055D01*
X21811968Y-18200055D02*
X21821491Y-18181008D01*
X21821491Y-18181008D02*
X21840539Y-18152436D01*
X21840539Y-18152436D02*
X21850063Y-18142912D01*
X22011968Y-18238150D02*
X22011968Y-18371484D01*
X21964349Y-18161960D02*
X21916730Y-18304817D01*
X21916730Y-18304817D02*
X22040539Y-18304817D01*
X22269111Y-18371484D02*
X22269111Y-18171484D01*
X22354825Y-18371484D02*
X22354825Y-18266722D01*
X22354825Y-18266722D02*
X22345301Y-18247674D01*
X22345301Y-18247674D02*
X22326253Y-18238150D01*
X22326253Y-18238150D02*
X22297682Y-18238150D01*
X22297682Y-18238150D02*
X22278634Y-18247674D01*
X22278634Y-18247674D02*
X22269111Y-18257198D01*
X22478634Y-18371484D02*
X22459587Y-18361960D01*
X22459587Y-18361960D02*
X22450063Y-18352436D01*
X22450063Y-18352436D02*
X22440539Y-18333389D01*
X22440539Y-18333389D02*
X22440539Y-18276246D01*
X22440539Y-18276246D02*
X22450063Y-18257198D01*
X22450063Y-18257198D02*
X22459587Y-18247674D01*
X22459587Y-18247674D02*
X22478634Y-18238150D01*
X22478634Y-18238150D02*
X22507206Y-18238150D01*
X22507206Y-18238150D02*
X22526253Y-18247674D01*
X22526253Y-18247674D02*
X22535777Y-18257198D01*
X22535777Y-18257198D02*
X22545301Y-18276246D01*
X22545301Y-18276246D02*
X22545301Y-18333389D01*
X22545301Y-18333389D02*
X22535777Y-18352436D01*
X22535777Y-18352436D02*
X22526253Y-18361960D01*
X22526253Y-18361960D02*
X22507206Y-18371484D01*
X22507206Y-18371484D02*
X22478634Y-18371484D01*
X22659587Y-18371484D02*
X22640539Y-18361960D01*
X22640539Y-18361960D02*
X22631015Y-18342912D01*
X22631015Y-18342912D02*
X22631015Y-18171484D01*
X22811968Y-18361960D02*
X22792920Y-18371484D01*
X22792920Y-18371484D02*
X22754825Y-18371484D01*
X22754825Y-18371484D02*
X22735777Y-18361960D01*
X22735777Y-18361960D02*
X22726253Y-18342912D01*
X22726253Y-18342912D02*
X22726253Y-18266722D01*
X22726253Y-18266722D02*
X22735777Y-18247674D01*
X22735777Y-18247674D02*
X22754825Y-18238150D01*
X22754825Y-18238150D02*
X22792920Y-18238150D01*
X22792920Y-18238150D02*
X22811968Y-18247674D01*
X22811968Y-18247674D02*
X22821491Y-18266722D01*
X22821491Y-18266722D02*
X22821491Y-18285770D01*
X22821491Y-18285770D02*
X22726253Y-18304817D01*
X22897682Y-18361960D02*
X22916730Y-18371484D01*
X22916730Y-18371484D02*
X22954825Y-18371484D01*
X22954825Y-18371484D02*
X22973872Y-18361960D01*
X22973872Y-18361960D02*
X22983396Y-18342912D01*
X22983396Y-18342912D02*
X22983396Y-18333389D01*
X22983396Y-18333389D02*
X22973872Y-18314341D01*
X22973872Y-18314341D02*
X22954825Y-18304817D01*
X22954825Y-18304817D02*
X22926253Y-18304817D01*
X22926253Y-18304817D02*
X22907206Y-18295293D01*
X22907206Y-18295293D02*
X22897682Y-18276246D01*
X22897682Y-18276246D02*
X22897682Y-18266722D01*
X22897682Y-18266722D02*
X22907206Y-18247674D01*
X22907206Y-18247674D02*
X22926253Y-18238150D01*
X22926253Y-18238150D02*
X22954825Y-18238150D01*
X22954825Y-18238150D02*
X22973872Y-18247674D01*
X23050063Y-18447674D02*
X23059587Y-18438150D01*
X23059587Y-18438150D02*
X23078634Y-18409579D01*
X23078634Y-18409579D02*
X23088158Y-18390531D01*
X23088158Y-18390531D02*
X23097682Y-18361960D01*
X23097682Y-18361960D02*
X23107206Y-18314341D01*
X23107206Y-18314341D02*
X23107206Y-18276246D01*
X23107206Y-18276246D02*
X23097682Y-18228627D01*
X23097682Y-18228627D02*
X23088158Y-18200055D01*
X23088158Y-18200055D02*
X23078634Y-18181008D01*
X23078634Y-18181008D02*
X23059587Y-18152436D01*
X23059587Y-18152436D02*
X23050063Y-18142912D01*
D13*
X18160000Y-18486500D02*
X18275000Y-18601500D01*
X18275000Y-18486500D02*
X18160000Y-18601500D01*
X18217500Y-18486500D02*
X18217500Y-18601500D01*
X18160000Y-18544000D02*
X18275000Y-18544000D01*
D10*
X18640539Y-18635484D02*
X18526253Y-18635484D01*
X18583396Y-18635484D02*
X18583396Y-18435484D01*
X18583396Y-18435484D02*
X18564348Y-18464055D01*
X18564348Y-18464055D02*
X18545301Y-18483103D01*
X18545301Y-18483103D02*
X18526253Y-18492627D01*
X18726253Y-18616436D02*
X18735777Y-18625960D01*
X18735777Y-18625960D02*
X18726253Y-18635484D01*
X18726253Y-18635484D02*
X18716729Y-18625960D01*
X18716729Y-18625960D02*
X18726253Y-18616436D01*
X18726253Y-18616436D02*
X18726253Y-18635484D01*
X18926253Y-18635484D02*
X18811967Y-18635484D01*
X18869110Y-18635484D02*
X18869110Y-18435484D01*
X18869110Y-18435484D02*
X18850063Y-18464055D01*
X18850063Y-18464055D02*
X18831015Y-18483103D01*
X18831015Y-18483103D02*
X18811967Y-18492627D01*
X19107205Y-18435484D02*
X19011967Y-18435484D01*
X19011967Y-18435484D02*
X19002444Y-18530722D01*
X19002444Y-18530722D02*
X19011967Y-18521198D01*
X19011967Y-18521198D02*
X19031015Y-18511674D01*
X19031015Y-18511674D02*
X19078634Y-18511674D01*
X19078634Y-18511674D02*
X19097682Y-18521198D01*
X19097682Y-18521198D02*
X19107205Y-18530722D01*
X19107205Y-18530722D02*
X19116729Y-18549770D01*
X19116729Y-18549770D02*
X19116729Y-18597389D01*
X19116729Y-18597389D02*
X19107205Y-18616436D01*
X19107205Y-18616436D02*
X19097682Y-18625960D01*
X19097682Y-18625960D02*
X19078634Y-18635484D01*
X19078634Y-18635484D02*
X19031015Y-18635484D01*
X19031015Y-18635484D02*
X19011967Y-18625960D01*
X19011967Y-18625960D02*
X19002444Y-18616436D01*
X19240539Y-18435484D02*
X19259586Y-18435484D01*
X19259586Y-18435484D02*
X19278634Y-18445008D01*
X19278634Y-18445008D02*
X19288158Y-18454531D01*
X19288158Y-18454531D02*
X19297682Y-18473579D01*
X19297682Y-18473579D02*
X19307205Y-18511674D01*
X19307205Y-18511674D02*
X19307205Y-18559293D01*
X19307205Y-18559293D02*
X19297682Y-18597389D01*
X19297682Y-18597389D02*
X19288158Y-18616436D01*
X19288158Y-18616436D02*
X19278634Y-18625960D01*
X19278634Y-18625960D02*
X19259586Y-18635484D01*
X19259586Y-18635484D02*
X19240539Y-18635484D01*
X19240539Y-18635484D02*
X19221491Y-18625960D01*
X19221491Y-18625960D02*
X19211967Y-18616436D01*
X19211967Y-18616436D02*
X19202444Y-18597389D01*
X19202444Y-18597389D02*
X19192920Y-18559293D01*
X19192920Y-18559293D02*
X19192920Y-18511674D01*
X19192920Y-18511674D02*
X19202444Y-18473579D01*
X19202444Y-18473579D02*
X19211967Y-18454531D01*
X19211967Y-18454531D02*
X19221491Y-18445008D01*
X19221491Y-18445008D02*
X19240539Y-18435484D01*
X19392920Y-18635484D02*
X19392920Y-18502150D01*
X19392920Y-18521198D02*
X19402444Y-18511674D01*
X19402444Y-18511674D02*
X19421491Y-18502150D01*
X19421491Y-18502150D02*
X19450063Y-18502150D01*
X19450063Y-18502150D02*
X19469110Y-18511674D01*
X19469110Y-18511674D02*
X19478634Y-18530722D01*
X19478634Y-18530722D02*
X19478634Y-18635484D01*
X19478634Y-18530722D02*
X19488158Y-18511674D01*
X19488158Y-18511674D02*
X19507205Y-18502150D01*
X19507205Y-18502150D02*
X19535777Y-18502150D01*
X19535777Y-18502150D02*
X19554825Y-18511674D01*
X19554825Y-18511674D02*
X19564348Y-18530722D01*
X19564348Y-18530722D02*
X19564348Y-18635484D01*
X19659586Y-18635484D02*
X19659586Y-18502150D01*
X19659586Y-18521198D02*
X19669110Y-18511674D01*
X19669110Y-18511674D02*
X19688158Y-18502150D01*
X19688158Y-18502150D02*
X19716729Y-18502150D01*
X19716729Y-18502150D02*
X19735777Y-18511674D01*
X19735777Y-18511674D02*
X19745301Y-18530722D01*
X19745301Y-18530722D02*
X19745301Y-18635484D01*
X19745301Y-18530722D02*
X19754825Y-18511674D01*
X19754825Y-18511674D02*
X19773872Y-18502150D01*
X19773872Y-18502150D02*
X19802444Y-18502150D01*
X19802444Y-18502150D02*
X19821491Y-18511674D01*
X19821491Y-18511674D02*
X19831015Y-18530722D01*
X19831015Y-18530722D02*
X19831015Y-18635484D01*
X20221491Y-18425960D02*
X20050063Y-18683103D01*
X20478634Y-18435484D02*
X20497682Y-18435484D01*
X20497682Y-18435484D02*
X20516729Y-18445008D01*
X20516729Y-18445008D02*
X20526253Y-18454531D01*
X20526253Y-18454531D02*
X20535777Y-18473579D01*
X20535777Y-18473579D02*
X20545301Y-18511674D01*
X20545301Y-18511674D02*
X20545301Y-18559293D01*
X20545301Y-18559293D02*
X20535777Y-18597389D01*
X20535777Y-18597389D02*
X20526253Y-18616436D01*
X20526253Y-18616436D02*
X20516729Y-18625960D01*
X20516729Y-18625960D02*
X20497682Y-18635484D01*
X20497682Y-18635484D02*
X20478634Y-18635484D01*
X20478634Y-18635484D02*
X20459587Y-18625960D01*
X20459587Y-18625960D02*
X20450063Y-18616436D01*
X20450063Y-18616436D02*
X20440539Y-18597389D01*
X20440539Y-18597389D02*
X20431015Y-18559293D01*
X20431015Y-18559293D02*
X20431015Y-18511674D01*
X20431015Y-18511674D02*
X20440539Y-18473579D01*
X20440539Y-18473579D02*
X20450063Y-18454531D01*
X20450063Y-18454531D02*
X20459587Y-18445008D01*
X20459587Y-18445008D02*
X20478634Y-18435484D01*
X20631015Y-18616436D02*
X20640539Y-18625960D01*
X20640539Y-18625960D02*
X20631015Y-18635484D01*
X20631015Y-18635484D02*
X20621491Y-18625960D01*
X20621491Y-18625960D02*
X20631015Y-18616436D01*
X20631015Y-18616436D02*
X20631015Y-18635484D01*
X20764348Y-18435484D02*
X20783396Y-18435484D01*
X20783396Y-18435484D02*
X20802444Y-18445008D01*
X20802444Y-18445008D02*
X20811968Y-18454531D01*
X20811968Y-18454531D02*
X20821491Y-18473579D01*
X20821491Y-18473579D02*
X20831015Y-18511674D01*
X20831015Y-18511674D02*
X20831015Y-18559293D01*
X20831015Y-18559293D02*
X20821491Y-18597389D01*
X20821491Y-18597389D02*
X20811968Y-18616436D01*
X20811968Y-18616436D02*
X20802444Y-18625960D01*
X20802444Y-18625960D02*
X20783396Y-18635484D01*
X20783396Y-18635484D02*
X20764348Y-18635484D01*
X20764348Y-18635484D02*
X20745301Y-18625960D01*
X20745301Y-18625960D02*
X20735777Y-18616436D01*
X20735777Y-18616436D02*
X20726253Y-18597389D01*
X20726253Y-18597389D02*
X20716729Y-18559293D01*
X20716729Y-18559293D02*
X20716729Y-18511674D01*
X20716729Y-18511674D02*
X20726253Y-18473579D01*
X20726253Y-18473579D02*
X20735777Y-18454531D01*
X20735777Y-18454531D02*
X20745301Y-18445008D01*
X20745301Y-18445008D02*
X20764348Y-18435484D01*
X21002444Y-18502150D02*
X21002444Y-18635484D01*
X20954825Y-18425960D02*
X20907206Y-18568817D01*
X20907206Y-18568817D02*
X21031015Y-18568817D01*
X21202444Y-18435484D02*
X21107206Y-18435484D01*
X21107206Y-18435484D02*
X21097682Y-18530722D01*
X21097682Y-18530722D02*
X21107206Y-18521198D01*
X21107206Y-18521198D02*
X21126253Y-18511674D01*
X21126253Y-18511674D02*
X21173872Y-18511674D01*
X21173872Y-18511674D02*
X21192920Y-18521198D01*
X21192920Y-18521198D02*
X21202444Y-18530722D01*
X21202444Y-18530722D02*
X21211968Y-18549770D01*
X21211968Y-18549770D02*
X21211968Y-18597389D01*
X21211968Y-18597389D02*
X21202444Y-18616436D01*
X21202444Y-18616436D02*
X21192920Y-18625960D01*
X21192920Y-18625960D02*
X21173872Y-18635484D01*
X21173872Y-18635484D02*
X21126253Y-18635484D01*
X21126253Y-18635484D02*
X21107206Y-18625960D01*
X21107206Y-18625960D02*
X21097682Y-18616436D01*
X21278634Y-18435484D02*
X21402444Y-18435484D01*
X21402444Y-18435484D02*
X21335777Y-18511674D01*
X21335777Y-18511674D02*
X21364349Y-18511674D01*
X21364349Y-18511674D02*
X21383396Y-18521198D01*
X21383396Y-18521198D02*
X21392920Y-18530722D01*
X21392920Y-18530722D02*
X21402444Y-18549770D01*
X21402444Y-18549770D02*
X21402444Y-18597389D01*
X21402444Y-18597389D02*
X21392920Y-18616436D01*
X21392920Y-18616436D02*
X21383396Y-18625960D01*
X21383396Y-18625960D02*
X21364349Y-18635484D01*
X21364349Y-18635484D02*
X21307206Y-18635484D01*
X21307206Y-18635484D02*
X21288158Y-18625960D01*
X21288158Y-18625960D02*
X21278634Y-18616436D01*
X21478634Y-18435484D02*
X21478634Y-18473579D01*
X21554825Y-18435484D02*
X21554825Y-18473579D01*
X21850063Y-18711674D02*
X21840539Y-18702150D01*
X21840539Y-18702150D02*
X21821491Y-18673579D01*
X21821491Y-18673579D02*
X21811968Y-18654531D01*
X21811968Y-18654531D02*
X21802444Y-18625960D01*
X21802444Y-18625960D02*
X21792920Y-18578341D01*
X21792920Y-18578341D02*
X21792920Y-18540246D01*
X21792920Y-18540246D02*
X21802444Y-18492627D01*
X21802444Y-18492627D02*
X21811968Y-18464055D01*
X21811968Y-18464055D02*
X21821491Y-18445008D01*
X21821491Y-18445008D02*
X21840539Y-18416436D01*
X21840539Y-18416436D02*
X21850063Y-18406912D01*
X22011968Y-18502150D02*
X22011968Y-18635484D01*
X21964349Y-18425960D02*
X21916730Y-18568817D01*
X21916730Y-18568817D02*
X22040539Y-18568817D01*
X22269111Y-18635484D02*
X22269111Y-18435484D01*
X22354825Y-18635484D02*
X22354825Y-18530722D01*
X22354825Y-18530722D02*
X22345301Y-18511674D01*
X22345301Y-18511674D02*
X22326253Y-18502150D01*
X22326253Y-18502150D02*
X22297682Y-18502150D01*
X22297682Y-18502150D02*
X22278634Y-18511674D01*
X22278634Y-18511674D02*
X22269111Y-18521198D01*
X22478634Y-18635484D02*
X22459587Y-18625960D01*
X22459587Y-18625960D02*
X22450063Y-18616436D01*
X22450063Y-18616436D02*
X22440539Y-18597389D01*
X22440539Y-18597389D02*
X22440539Y-18540246D01*
X22440539Y-18540246D02*
X22450063Y-18521198D01*
X22450063Y-18521198D02*
X22459587Y-18511674D01*
X22459587Y-18511674D02*
X22478634Y-18502150D01*
X22478634Y-18502150D02*
X22507206Y-18502150D01*
X22507206Y-18502150D02*
X22526253Y-18511674D01*
X22526253Y-18511674D02*
X22535777Y-18521198D01*
X22535777Y-18521198D02*
X22545301Y-18540246D01*
X22545301Y-18540246D02*
X22545301Y-18597389D01*
X22545301Y-18597389D02*
X22535777Y-18616436D01*
X22535777Y-18616436D02*
X22526253Y-18625960D01*
X22526253Y-18625960D02*
X22507206Y-18635484D01*
X22507206Y-18635484D02*
X22478634Y-18635484D01*
X22659587Y-18635484D02*
X22640539Y-18625960D01*
X22640539Y-18625960D02*
X22631015Y-18606912D01*
X22631015Y-18606912D02*
X22631015Y-18435484D01*
X22811968Y-18625960D02*
X22792920Y-18635484D01*
X22792920Y-18635484D02*
X22754825Y-18635484D01*
X22754825Y-18635484D02*
X22735777Y-18625960D01*
X22735777Y-18625960D02*
X22726253Y-18606912D01*
X22726253Y-18606912D02*
X22726253Y-18530722D01*
X22726253Y-18530722D02*
X22735777Y-18511674D01*
X22735777Y-18511674D02*
X22754825Y-18502150D01*
X22754825Y-18502150D02*
X22792920Y-18502150D01*
X22792920Y-18502150D02*
X22811968Y-18511674D01*
X22811968Y-18511674D02*
X22821491Y-18530722D01*
X22821491Y-18530722D02*
X22821491Y-18549770D01*
X22821491Y-18549770D02*
X22726253Y-18568817D01*
X22897682Y-18625960D02*
X22916730Y-18635484D01*
X22916730Y-18635484D02*
X22954825Y-18635484D01*
X22954825Y-18635484D02*
X22973872Y-18625960D01*
X22973872Y-18625960D02*
X22983396Y-18606912D01*
X22983396Y-18606912D02*
X22983396Y-18597389D01*
X22983396Y-18597389D02*
X22973872Y-18578341D01*
X22973872Y-18578341D02*
X22954825Y-18568817D01*
X22954825Y-18568817D02*
X22926253Y-18568817D01*
X22926253Y-18568817D02*
X22907206Y-18559293D01*
X22907206Y-18559293D02*
X22897682Y-18540246D01*
X22897682Y-18540246D02*
X22897682Y-18530722D01*
X22897682Y-18530722D02*
X22907206Y-18511674D01*
X22907206Y-18511674D02*
X22926253Y-18502150D01*
X22926253Y-18502150D02*
X22954825Y-18502150D01*
X22954825Y-18502150D02*
X22973872Y-18511674D01*
X23050063Y-18711674D02*
X23059587Y-18702150D01*
X23059587Y-18702150D02*
X23078634Y-18673579D01*
X23078634Y-18673579D02*
X23088158Y-18654531D01*
X23088158Y-18654531D02*
X23097682Y-18625960D01*
X23097682Y-18625960D02*
X23107206Y-18578341D01*
X23107206Y-18578341D02*
X23107206Y-18540246D01*
X23107206Y-18540246D02*
X23097682Y-18492627D01*
X23097682Y-18492627D02*
X23088158Y-18464055D01*
X23088158Y-18464055D02*
X23078634Y-18445008D01*
X23078634Y-18445008D02*
X23059587Y-18416436D01*
X23059587Y-18416436D02*
X23050063Y-18406912D01*
D14*
X18155000Y-18748000D02*
X18275000Y-18868000D01*
X18275000Y-18748000D02*
X18155000Y-18868000D01*
X18257427Y-18850427D02*
X18257427Y-18765573D01*
X18172573Y-18765573D01*
X18172573Y-18850427D01*
X18257427Y-18850427D01*
D10*
X18640539Y-18899484D02*
X18526253Y-18899484D01*
X18583396Y-18899484D02*
X18583396Y-18699484D01*
X18583396Y-18699484D02*
X18564348Y-18728055D01*
X18564348Y-18728055D02*
X18545301Y-18747103D01*
X18545301Y-18747103D02*
X18526253Y-18756627D01*
X18726253Y-18880436D02*
X18735777Y-18889960D01*
X18735777Y-18889960D02*
X18726253Y-18899484D01*
X18726253Y-18899484D02*
X18716729Y-18889960D01*
X18716729Y-18889960D02*
X18726253Y-18880436D01*
X18726253Y-18880436D02*
X18726253Y-18899484D01*
X18811967Y-18718531D02*
X18821491Y-18709008D01*
X18821491Y-18709008D02*
X18840539Y-18699484D01*
X18840539Y-18699484D02*
X18888158Y-18699484D01*
X18888158Y-18699484D02*
X18907205Y-18709008D01*
X18907205Y-18709008D02*
X18916729Y-18718531D01*
X18916729Y-18718531D02*
X18926253Y-18737579D01*
X18926253Y-18737579D02*
X18926253Y-18756627D01*
X18926253Y-18756627D02*
X18916729Y-18785198D01*
X18916729Y-18785198D02*
X18802444Y-18899484D01*
X18802444Y-18899484D02*
X18926253Y-18899484D01*
X19050063Y-18699484D02*
X19069110Y-18699484D01*
X19069110Y-18699484D02*
X19088158Y-18709008D01*
X19088158Y-18709008D02*
X19097682Y-18718531D01*
X19097682Y-18718531D02*
X19107205Y-18737579D01*
X19107205Y-18737579D02*
X19116729Y-18775674D01*
X19116729Y-18775674D02*
X19116729Y-18823293D01*
X19116729Y-18823293D02*
X19107205Y-18861389D01*
X19107205Y-18861389D02*
X19097682Y-18880436D01*
X19097682Y-18880436D02*
X19088158Y-18889960D01*
X19088158Y-18889960D02*
X19069110Y-18899484D01*
X19069110Y-18899484D02*
X19050063Y-18899484D01*
X19050063Y-18899484D02*
X19031015Y-18889960D01*
X19031015Y-18889960D02*
X19021491Y-18880436D01*
X19021491Y-18880436D02*
X19011967Y-18861389D01*
X19011967Y-18861389D02*
X19002444Y-18823293D01*
X19002444Y-18823293D02*
X19002444Y-18775674D01*
X19002444Y-18775674D02*
X19011967Y-18737579D01*
X19011967Y-18737579D02*
X19021491Y-18718531D01*
X19021491Y-18718531D02*
X19031015Y-18709008D01*
X19031015Y-18709008D02*
X19050063Y-18699484D01*
X19240539Y-18699484D02*
X19259586Y-18699484D01*
X19259586Y-18699484D02*
X19278634Y-18709008D01*
X19278634Y-18709008D02*
X19288158Y-18718531D01*
X19288158Y-18718531D02*
X19297682Y-18737579D01*
X19297682Y-18737579D02*
X19307205Y-18775674D01*
X19307205Y-18775674D02*
X19307205Y-18823293D01*
X19307205Y-18823293D02*
X19297682Y-18861389D01*
X19297682Y-18861389D02*
X19288158Y-18880436D01*
X19288158Y-18880436D02*
X19278634Y-18889960D01*
X19278634Y-18889960D02*
X19259586Y-18899484D01*
X19259586Y-18899484D02*
X19240539Y-18899484D01*
X19240539Y-18899484D02*
X19221491Y-18889960D01*
X19221491Y-18889960D02*
X19211967Y-18880436D01*
X19211967Y-18880436D02*
X19202444Y-18861389D01*
X19202444Y-18861389D02*
X19192920Y-18823293D01*
X19192920Y-18823293D02*
X19192920Y-18775674D01*
X19192920Y-18775674D02*
X19202444Y-18737579D01*
X19202444Y-18737579D02*
X19211967Y-18718531D01*
X19211967Y-18718531D02*
X19221491Y-18709008D01*
X19221491Y-18709008D02*
X19240539Y-18699484D01*
X19392920Y-18899484D02*
X19392920Y-18766150D01*
X19392920Y-18785198D02*
X19402444Y-18775674D01*
X19402444Y-18775674D02*
X19421491Y-18766150D01*
X19421491Y-18766150D02*
X19450063Y-18766150D01*
X19450063Y-18766150D02*
X19469110Y-18775674D01*
X19469110Y-18775674D02*
X19478634Y-18794722D01*
X19478634Y-18794722D02*
X19478634Y-18899484D01*
X19478634Y-18794722D02*
X19488158Y-18775674D01*
X19488158Y-18775674D02*
X19507205Y-18766150D01*
X19507205Y-18766150D02*
X19535777Y-18766150D01*
X19535777Y-18766150D02*
X19554825Y-18775674D01*
X19554825Y-18775674D02*
X19564348Y-18794722D01*
X19564348Y-18794722D02*
X19564348Y-18899484D01*
X19659586Y-18899484D02*
X19659586Y-18766150D01*
X19659586Y-18785198D02*
X19669110Y-18775674D01*
X19669110Y-18775674D02*
X19688158Y-18766150D01*
X19688158Y-18766150D02*
X19716729Y-18766150D01*
X19716729Y-18766150D02*
X19735777Y-18775674D01*
X19735777Y-18775674D02*
X19745301Y-18794722D01*
X19745301Y-18794722D02*
X19745301Y-18899484D01*
X19745301Y-18794722D02*
X19754825Y-18775674D01*
X19754825Y-18775674D02*
X19773872Y-18766150D01*
X19773872Y-18766150D02*
X19802444Y-18766150D01*
X19802444Y-18766150D02*
X19821491Y-18775674D01*
X19821491Y-18775674D02*
X19831015Y-18794722D01*
X19831015Y-18794722D02*
X19831015Y-18899484D01*
X20221491Y-18689960D02*
X20050063Y-18947103D01*
X20478634Y-18699484D02*
X20497682Y-18699484D01*
X20497682Y-18699484D02*
X20516729Y-18709008D01*
X20516729Y-18709008D02*
X20526253Y-18718531D01*
X20526253Y-18718531D02*
X20535777Y-18737579D01*
X20535777Y-18737579D02*
X20545301Y-18775674D01*
X20545301Y-18775674D02*
X20545301Y-18823293D01*
X20545301Y-18823293D02*
X20535777Y-18861389D01*
X20535777Y-18861389D02*
X20526253Y-18880436D01*
X20526253Y-18880436D02*
X20516729Y-18889960D01*
X20516729Y-18889960D02*
X20497682Y-18899484D01*
X20497682Y-18899484D02*
X20478634Y-18899484D01*
X20478634Y-18899484D02*
X20459587Y-18889960D01*
X20459587Y-18889960D02*
X20450063Y-18880436D01*
X20450063Y-18880436D02*
X20440539Y-18861389D01*
X20440539Y-18861389D02*
X20431015Y-18823293D01*
X20431015Y-18823293D02*
X20431015Y-18775674D01*
X20431015Y-18775674D02*
X20440539Y-18737579D01*
X20440539Y-18737579D02*
X20450063Y-18718531D01*
X20450063Y-18718531D02*
X20459587Y-18709008D01*
X20459587Y-18709008D02*
X20478634Y-18699484D01*
X20631015Y-18880436D02*
X20640539Y-18889960D01*
X20640539Y-18889960D02*
X20631015Y-18899484D01*
X20631015Y-18899484D02*
X20621491Y-18889960D01*
X20621491Y-18889960D02*
X20631015Y-18880436D01*
X20631015Y-18880436D02*
X20631015Y-18899484D01*
X20764348Y-18699484D02*
X20783396Y-18699484D01*
X20783396Y-18699484D02*
X20802444Y-18709008D01*
X20802444Y-18709008D02*
X20811968Y-18718531D01*
X20811968Y-18718531D02*
X20821491Y-18737579D01*
X20821491Y-18737579D02*
X20831015Y-18775674D01*
X20831015Y-18775674D02*
X20831015Y-18823293D01*
X20831015Y-18823293D02*
X20821491Y-18861389D01*
X20821491Y-18861389D02*
X20811968Y-18880436D01*
X20811968Y-18880436D02*
X20802444Y-18889960D01*
X20802444Y-18889960D02*
X20783396Y-18899484D01*
X20783396Y-18899484D02*
X20764348Y-18899484D01*
X20764348Y-18899484D02*
X20745301Y-18889960D01*
X20745301Y-18889960D02*
X20735777Y-18880436D01*
X20735777Y-18880436D02*
X20726253Y-18861389D01*
X20726253Y-18861389D02*
X20716729Y-18823293D01*
X20716729Y-18823293D02*
X20716729Y-18775674D01*
X20716729Y-18775674D02*
X20726253Y-18737579D01*
X20726253Y-18737579D02*
X20735777Y-18718531D01*
X20735777Y-18718531D02*
X20745301Y-18709008D01*
X20745301Y-18709008D02*
X20764348Y-18699484D01*
X21002444Y-18766150D02*
X21002444Y-18899484D01*
X20954825Y-18689960D02*
X20907206Y-18832817D01*
X20907206Y-18832817D02*
X21031015Y-18832817D01*
X21088158Y-18699484D02*
X21221491Y-18699484D01*
X21221491Y-18699484D02*
X21135777Y-18899484D01*
X21288158Y-18718531D02*
X21297682Y-18709008D01*
X21297682Y-18709008D02*
X21316729Y-18699484D01*
X21316729Y-18699484D02*
X21364349Y-18699484D01*
X21364349Y-18699484D02*
X21383396Y-18709008D01*
X21383396Y-18709008D02*
X21392920Y-18718531D01*
X21392920Y-18718531D02*
X21402444Y-18737579D01*
X21402444Y-18737579D02*
X21402444Y-18756627D01*
X21402444Y-18756627D02*
X21392920Y-18785198D01*
X21392920Y-18785198D02*
X21278634Y-18899484D01*
X21278634Y-18899484D02*
X21402444Y-18899484D01*
X21478634Y-18699484D02*
X21478634Y-18737579D01*
X21554825Y-18699484D02*
X21554825Y-18737579D01*
X21850063Y-18975674D02*
X21840539Y-18966150D01*
X21840539Y-18966150D02*
X21821491Y-18937579D01*
X21821491Y-18937579D02*
X21811968Y-18918531D01*
X21811968Y-18918531D02*
X21802444Y-18889960D01*
X21802444Y-18889960D02*
X21792920Y-18842341D01*
X21792920Y-18842341D02*
X21792920Y-18804246D01*
X21792920Y-18804246D02*
X21802444Y-18756627D01*
X21802444Y-18756627D02*
X21811968Y-18728055D01*
X21811968Y-18728055D02*
X21821491Y-18709008D01*
X21821491Y-18709008D02*
X21840539Y-18680436D01*
X21840539Y-18680436D02*
X21850063Y-18670912D01*
X22021491Y-18699484D02*
X21926253Y-18699484D01*
X21926253Y-18699484D02*
X21916730Y-18794722D01*
X21916730Y-18794722D02*
X21926253Y-18785198D01*
X21926253Y-18785198D02*
X21945301Y-18775674D01*
X21945301Y-18775674D02*
X21992920Y-18775674D01*
X21992920Y-18775674D02*
X22011968Y-18785198D01*
X22011968Y-18785198D02*
X22021491Y-18794722D01*
X22021491Y-18794722D02*
X22031015Y-18813770D01*
X22031015Y-18813770D02*
X22031015Y-18861389D01*
X22031015Y-18861389D02*
X22021491Y-18880436D01*
X22021491Y-18880436D02*
X22011968Y-18889960D01*
X22011968Y-18889960D02*
X21992920Y-18899484D01*
X21992920Y-18899484D02*
X21945301Y-18899484D01*
X21945301Y-18899484D02*
X21926253Y-18889960D01*
X21926253Y-18889960D02*
X21916730Y-18880436D01*
X22269111Y-18899484D02*
X22269111Y-18699484D01*
X22354825Y-18899484D02*
X22354825Y-18794722D01*
X22354825Y-18794722D02*
X22345301Y-18775674D01*
X22345301Y-18775674D02*
X22326253Y-18766150D01*
X22326253Y-18766150D02*
X22297682Y-18766150D01*
X22297682Y-18766150D02*
X22278634Y-18775674D01*
X22278634Y-18775674D02*
X22269111Y-18785198D01*
X22478634Y-18899484D02*
X22459587Y-18889960D01*
X22459587Y-18889960D02*
X22450063Y-18880436D01*
X22450063Y-18880436D02*
X22440539Y-18861389D01*
X22440539Y-18861389D02*
X22440539Y-18804246D01*
X22440539Y-18804246D02*
X22450063Y-18785198D01*
X22450063Y-18785198D02*
X22459587Y-18775674D01*
X22459587Y-18775674D02*
X22478634Y-18766150D01*
X22478634Y-18766150D02*
X22507206Y-18766150D01*
X22507206Y-18766150D02*
X22526253Y-18775674D01*
X22526253Y-18775674D02*
X22535777Y-18785198D01*
X22535777Y-18785198D02*
X22545301Y-18804246D01*
X22545301Y-18804246D02*
X22545301Y-18861389D01*
X22545301Y-18861389D02*
X22535777Y-18880436D01*
X22535777Y-18880436D02*
X22526253Y-18889960D01*
X22526253Y-18889960D02*
X22507206Y-18899484D01*
X22507206Y-18899484D02*
X22478634Y-18899484D01*
X22659587Y-18899484D02*
X22640539Y-18889960D01*
X22640539Y-18889960D02*
X22631015Y-18870912D01*
X22631015Y-18870912D02*
X22631015Y-18699484D01*
X22811968Y-18889960D02*
X22792920Y-18899484D01*
X22792920Y-18899484D02*
X22754825Y-18899484D01*
X22754825Y-18899484D02*
X22735777Y-18889960D01*
X22735777Y-18889960D02*
X22726253Y-18870912D01*
X22726253Y-18870912D02*
X22726253Y-18794722D01*
X22726253Y-18794722D02*
X22735777Y-18775674D01*
X22735777Y-18775674D02*
X22754825Y-18766150D01*
X22754825Y-18766150D02*
X22792920Y-18766150D01*
X22792920Y-18766150D02*
X22811968Y-18775674D01*
X22811968Y-18775674D02*
X22821491Y-18794722D01*
X22821491Y-18794722D02*
X22821491Y-18813770D01*
X22821491Y-18813770D02*
X22726253Y-18832817D01*
X22897682Y-18889960D02*
X22916730Y-18899484D01*
X22916730Y-18899484D02*
X22954825Y-18899484D01*
X22954825Y-18899484D02*
X22973872Y-18889960D01*
X22973872Y-18889960D02*
X22983396Y-18870912D01*
X22983396Y-18870912D02*
X22983396Y-18861389D01*
X22983396Y-18861389D02*
X22973872Y-18842341D01*
X22973872Y-18842341D02*
X22954825Y-18832817D01*
X22954825Y-18832817D02*
X22926253Y-18832817D01*
X22926253Y-18832817D02*
X22907206Y-18823293D01*
X22907206Y-18823293D02*
X22897682Y-18804246D01*
X22897682Y-18804246D02*
X22897682Y-18794722D01*
X22897682Y-18794722D02*
X22907206Y-18775674D01*
X22907206Y-18775674D02*
X22926253Y-18766150D01*
X22926253Y-18766150D02*
X22954825Y-18766150D01*
X22954825Y-18766150D02*
X22973872Y-18775674D01*
X23050063Y-18975674D02*
X23059587Y-18966150D01*
X23059587Y-18966150D02*
X23078634Y-18937579D01*
X23078634Y-18937579D02*
X23088158Y-18918531D01*
X23088158Y-18918531D02*
X23097682Y-18889960D01*
X23097682Y-18889960D02*
X23107206Y-18842341D01*
X23107206Y-18842341D02*
X23107206Y-18804246D01*
X23107206Y-18804246D02*
X23097682Y-18756627D01*
X23097682Y-18756627D02*
X23088158Y-18728055D01*
X23088158Y-18728055D02*
X23078634Y-18709008D01*
X23078634Y-18709008D02*
X23059587Y-18680436D01*
X23059587Y-18680436D02*
X23050063Y-18670912D01*
D15*
X18150000Y-19009500D02*
X18275000Y-19134500D01*
X18275000Y-19009500D02*
X18150000Y-19134500D01*
X18212500Y-19134500D02*
X18275000Y-19072000D01*
X18212500Y-19009500D01*
X18150000Y-19072000D01*
X18212500Y-19134500D01*
D10*
X18640539Y-19163484D02*
X18526253Y-19163484D01*
X18583396Y-19163484D02*
X18583396Y-18963484D01*
X18583396Y-18963484D02*
X18564348Y-18992055D01*
X18564348Y-18992055D02*
X18545301Y-19011103D01*
X18545301Y-19011103D02*
X18526253Y-19020627D01*
X18726253Y-19144436D02*
X18735777Y-19153960D01*
X18735777Y-19153960D02*
X18726253Y-19163484D01*
X18726253Y-19163484D02*
X18716729Y-19153960D01*
X18716729Y-19153960D02*
X18726253Y-19144436D01*
X18726253Y-19144436D02*
X18726253Y-19163484D01*
X18811967Y-18982531D02*
X18821491Y-18973008D01*
X18821491Y-18973008D02*
X18840539Y-18963484D01*
X18840539Y-18963484D02*
X18888158Y-18963484D01*
X18888158Y-18963484D02*
X18907205Y-18973008D01*
X18907205Y-18973008D02*
X18916729Y-18982531D01*
X18916729Y-18982531D02*
X18926253Y-19001579D01*
X18926253Y-19001579D02*
X18926253Y-19020627D01*
X18926253Y-19020627D02*
X18916729Y-19049198D01*
X18916729Y-19049198D02*
X18802444Y-19163484D01*
X18802444Y-19163484D02*
X18926253Y-19163484D01*
X19107205Y-18963484D02*
X19011967Y-18963484D01*
X19011967Y-18963484D02*
X19002444Y-19058722D01*
X19002444Y-19058722D02*
X19011967Y-19049198D01*
X19011967Y-19049198D02*
X19031015Y-19039674D01*
X19031015Y-19039674D02*
X19078634Y-19039674D01*
X19078634Y-19039674D02*
X19097682Y-19049198D01*
X19097682Y-19049198D02*
X19107205Y-19058722D01*
X19107205Y-19058722D02*
X19116729Y-19077770D01*
X19116729Y-19077770D02*
X19116729Y-19125389D01*
X19116729Y-19125389D02*
X19107205Y-19144436D01*
X19107205Y-19144436D02*
X19097682Y-19153960D01*
X19097682Y-19153960D02*
X19078634Y-19163484D01*
X19078634Y-19163484D02*
X19031015Y-19163484D01*
X19031015Y-19163484D02*
X19011967Y-19153960D01*
X19011967Y-19153960D02*
X19002444Y-19144436D01*
X19240539Y-18963484D02*
X19259586Y-18963484D01*
X19259586Y-18963484D02*
X19278634Y-18973008D01*
X19278634Y-18973008D02*
X19288158Y-18982531D01*
X19288158Y-18982531D02*
X19297682Y-19001579D01*
X19297682Y-19001579D02*
X19307205Y-19039674D01*
X19307205Y-19039674D02*
X19307205Y-19087293D01*
X19307205Y-19087293D02*
X19297682Y-19125389D01*
X19297682Y-19125389D02*
X19288158Y-19144436D01*
X19288158Y-19144436D02*
X19278634Y-19153960D01*
X19278634Y-19153960D02*
X19259586Y-19163484D01*
X19259586Y-19163484D02*
X19240539Y-19163484D01*
X19240539Y-19163484D02*
X19221491Y-19153960D01*
X19221491Y-19153960D02*
X19211967Y-19144436D01*
X19211967Y-19144436D02*
X19202444Y-19125389D01*
X19202444Y-19125389D02*
X19192920Y-19087293D01*
X19192920Y-19087293D02*
X19192920Y-19039674D01*
X19192920Y-19039674D02*
X19202444Y-19001579D01*
X19202444Y-19001579D02*
X19211967Y-18982531D01*
X19211967Y-18982531D02*
X19221491Y-18973008D01*
X19221491Y-18973008D02*
X19240539Y-18963484D01*
X19392920Y-19163484D02*
X19392920Y-19030150D01*
X19392920Y-19049198D02*
X19402444Y-19039674D01*
X19402444Y-19039674D02*
X19421491Y-19030150D01*
X19421491Y-19030150D02*
X19450063Y-19030150D01*
X19450063Y-19030150D02*
X19469110Y-19039674D01*
X19469110Y-19039674D02*
X19478634Y-19058722D01*
X19478634Y-19058722D02*
X19478634Y-19163484D01*
X19478634Y-19058722D02*
X19488158Y-19039674D01*
X19488158Y-19039674D02*
X19507205Y-19030150D01*
X19507205Y-19030150D02*
X19535777Y-19030150D01*
X19535777Y-19030150D02*
X19554825Y-19039674D01*
X19554825Y-19039674D02*
X19564348Y-19058722D01*
X19564348Y-19058722D02*
X19564348Y-19163484D01*
X19659586Y-19163484D02*
X19659586Y-19030150D01*
X19659586Y-19049198D02*
X19669110Y-19039674D01*
X19669110Y-19039674D02*
X19688158Y-19030150D01*
X19688158Y-19030150D02*
X19716729Y-19030150D01*
X19716729Y-19030150D02*
X19735777Y-19039674D01*
X19735777Y-19039674D02*
X19745301Y-19058722D01*
X19745301Y-19058722D02*
X19745301Y-19163484D01*
X19745301Y-19058722D02*
X19754825Y-19039674D01*
X19754825Y-19039674D02*
X19773872Y-19030150D01*
X19773872Y-19030150D02*
X19802444Y-19030150D01*
X19802444Y-19030150D02*
X19821491Y-19039674D01*
X19821491Y-19039674D02*
X19831015Y-19058722D01*
X19831015Y-19058722D02*
X19831015Y-19163484D01*
X20221491Y-18953960D02*
X20050063Y-19211103D01*
X20478634Y-18963484D02*
X20497682Y-18963484D01*
X20497682Y-18963484D02*
X20516729Y-18973008D01*
X20516729Y-18973008D02*
X20526253Y-18982531D01*
X20526253Y-18982531D02*
X20535777Y-19001579D01*
X20535777Y-19001579D02*
X20545301Y-19039674D01*
X20545301Y-19039674D02*
X20545301Y-19087293D01*
X20545301Y-19087293D02*
X20535777Y-19125389D01*
X20535777Y-19125389D02*
X20526253Y-19144436D01*
X20526253Y-19144436D02*
X20516729Y-19153960D01*
X20516729Y-19153960D02*
X20497682Y-19163484D01*
X20497682Y-19163484D02*
X20478634Y-19163484D01*
X20478634Y-19163484D02*
X20459587Y-19153960D01*
X20459587Y-19153960D02*
X20450063Y-19144436D01*
X20450063Y-19144436D02*
X20440539Y-19125389D01*
X20440539Y-19125389D02*
X20431015Y-19087293D01*
X20431015Y-19087293D02*
X20431015Y-19039674D01*
X20431015Y-19039674D02*
X20440539Y-19001579D01*
X20440539Y-19001579D02*
X20450063Y-18982531D01*
X20450063Y-18982531D02*
X20459587Y-18973008D01*
X20459587Y-18973008D02*
X20478634Y-18963484D01*
X20631015Y-19144436D02*
X20640539Y-19153960D01*
X20640539Y-19153960D02*
X20631015Y-19163484D01*
X20631015Y-19163484D02*
X20621491Y-19153960D01*
X20621491Y-19153960D02*
X20631015Y-19144436D01*
X20631015Y-19144436D02*
X20631015Y-19163484D01*
X20764348Y-18963484D02*
X20783396Y-18963484D01*
X20783396Y-18963484D02*
X20802444Y-18973008D01*
X20802444Y-18973008D02*
X20811968Y-18982531D01*
X20811968Y-18982531D02*
X20821491Y-19001579D01*
X20821491Y-19001579D02*
X20831015Y-19039674D01*
X20831015Y-19039674D02*
X20831015Y-19087293D01*
X20831015Y-19087293D02*
X20821491Y-19125389D01*
X20821491Y-19125389D02*
X20811968Y-19144436D01*
X20811968Y-19144436D02*
X20802444Y-19153960D01*
X20802444Y-19153960D02*
X20783396Y-19163484D01*
X20783396Y-19163484D02*
X20764348Y-19163484D01*
X20764348Y-19163484D02*
X20745301Y-19153960D01*
X20745301Y-19153960D02*
X20735777Y-19144436D01*
X20735777Y-19144436D02*
X20726253Y-19125389D01*
X20726253Y-19125389D02*
X20716729Y-19087293D01*
X20716729Y-19087293D02*
X20716729Y-19039674D01*
X20716729Y-19039674D02*
X20726253Y-19001579D01*
X20726253Y-19001579D02*
X20735777Y-18982531D01*
X20735777Y-18982531D02*
X20745301Y-18973008D01*
X20745301Y-18973008D02*
X20764348Y-18963484D01*
X21002444Y-19030150D02*
X21002444Y-19163484D01*
X20954825Y-18953960D02*
X20907206Y-19096817D01*
X20907206Y-19096817D02*
X21031015Y-19096817D01*
X21116729Y-19163484D02*
X21154825Y-19163484D01*
X21154825Y-19163484D02*
X21173872Y-19153960D01*
X21173872Y-19153960D02*
X21183396Y-19144436D01*
X21183396Y-19144436D02*
X21202444Y-19115865D01*
X21202444Y-19115865D02*
X21211968Y-19077770D01*
X21211968Y-19077770D02*
X21211968Y-19001579D01*
X21211968Y-19001579D02*
X21202444Y-18982531D01*
X21202444Y-18982531D02*
X21192920Y-18973008D01*
X21192920Y-18973008D02*
X21173872Y-18963484D01*
X21173872Y-18963484D02*
X21135777Y-18963484D01*
X21135777Y-18963484D02*
X21116729Y-18973008D01*
X21116729Y-18973008D02*
X21107206Y-18982531D01*
X21107206Y-18982531D02*
X21097682Y-19001579D01*
X21097682Y-19001579D02*
X21097682Y-19049198D01*
X21097682Y-19049198D02*
X21107206Y-19068246D01*
X21107206Y-19068246D02*
X21116729Y-19077770D01*
X21116729Y-19077770D02*
X21135777Y-19087293D01*
X21135777Y-19087293D02*
X21173872Y-19087293D01*
X21173872Y-19087293D02*
X21192920Y-19077770D01*
X21192920Y-19077770D02*
X21202444Y-19068246D01*
X21202444Y-19068246D02*
X21211968Y-19049198D01*
X21288158Y-18982531D02*
X21297682Y-18973008D01*
X21297682Y-18973008D02*
X21316729Y-18963484D01*
X21316729Y-18963484D02*
X21364349Y-18963484D01*
X21364349Y-18963484D02*
X21383396Y-18973008D01*
X21383396Y-18973008D02*
X21392920Y-18982531D01*
X21392920Y-18982531D02*
X21402444Y-19001579D01*
X21402444Y-19001579D02*
X21402444Y-19020627D01*
X21402444Y-19020627D02*
X21392920Y-19049198D01*
X21392920Y-19049198D02*
X21278634Y-19163484D01*
X21278634Y-19163484D02*
X21402444Y-19163484D01*
X21478634Y-18963484D02*
X21478634Y-19001579D01*
X21554825Y-18963484D02*
X21554825Y-19001579D01*
X21850063Y-19239674D02*
X21840539Y-19230150D01*
X21840539Y-19230150D02*
X21821491Y-19201579D01*
X21821491Y-19201579D02*
X21811968Y-19182531D01*
X21811968Y-19182531D02*
X21802444Y-19153960D01*
X21802444Y-19153960D02*
X21792920Y-19106341D01*
X21792920Y-19106341D02*
X21792920Y-19068246D01*
X21792920Y-19068246D02*
X21802444Y-19020627D01*
X21802444Y-19020627D02*
X21811968Y-18992055D01*
X21811968Y-18992055D02*
X21821491Y-18973008D01*
X21821491Y-18973008D02*
X21840539Y-18944436D01*
X21840539Y-18944436D02*
X21850063Y-18934912D01*
X22031015Y-19163484D02*
X21916730Y-19163484D01*
X21973872Y-19163484D02*
X21973872Y-18963484D01*
X21973872Y-18963484D02*
X21954825Y-18992055D01*
X21954825Y-18992055D02*
X21935777Y-19011103D01*
X21935777Y-19011103D02*
X21916730Y-19020627D01*
X22107206Y-18982531D02*
X22116730Y-18973008D01*
X22116730Y-18973008D02*
X22135777Y-18963484D01*
X22135777Y-18963484D02*
X22183396Y-18963484D01*
X22183396Y-18963484D02*
X22202444Y-18973008D01*
X22202444Y-18973008D02*
X22211968Y-18982531D01*
X22211968Y-18982531D02*
X22221491Y-19001579D01*
X22221491Y-19001579D02*
X22221491Y-19020627D01*
X22221491Y-19020627D02*
X22211968Y-19049198D01*
X22211968Y-19049198D02*
X22097682Y-19163484D01*
X22097682Y-19163484D02*
X22221491Y-19163484D01*
X22459587Y-19163484D02*
X22459587Y-18963484D01*
X22545301Y-19163484D02*
X22545301Y-19058722D01*
X22545301Y-19058722D02*
X22535777Y-19039674D01*
X22535777Y-19039674D02*
X22516730Y-19030150D01*
X22516730Y-19030150D02*
X22488158Y-19030150D01*
X22488158Y-19030150D02*
X22469110Y-19039674D01*
X22469110Y-19039674D02*
X22459587Y-19049198D01*
X22669110Y-19163484D02*
X22650063Y-19153960D01*
X22650063Y-19153960D02*
X22640539Y-19144436D01*
X22640539Y-19144436D02*
X22631015Y-19125389D01*
X22631015Y-19125389D02*
X22631015Y-19068246D01*
X22631015Y-19068246D02*
X22640539Y-19049198D01*
X22640539Y-19049198D02*
X22650063Y-19039674D01*
X22650063Y-19039674D02*
X22669110Y-19030150D01*
X22669110Y-19030150D02*
X22697682Y-19030150D01*
X22697682Y-19030150D02*
X22716730Y-19039674D01*
X22716730Y-19039674D02*
X22726253Y-19049198D01*
X22726253Y-19049198D02*
X22735777Y-19068246D01*
X22735777Y-19068246D02*
X22735777Y-19125389D01*
X22735777Y-19125389D02*
X22726253Y-19144436D01*
X22726253Y-19144436D02*
X22716730Y-19153960D01*
X22716730Y-19153960D02*
X22697682Y-19163484D01*
X22697682Y-19163484D02*
X22669110Y-19163484D01*
X22850063Y-19163484D02*
X22831015Y-19153960D01*
X22831015Y-19153960D02*
X22821491Y-19134912D01*
X22821491Y-19134912D02*
X22821491Y-18963484D01*
X23002444Y-19153960D02*
X22983396Y-19163484D01*
X22983396Y-19163484D02*
X22945301Y-19163484D01*
X22945301Y-19163484D02*
X22926253Y-19153960D01*
X22926253Y-19153960D02*
X22916730Y-19134912D01*
X22916730Y-19134912D02*
X22916730Y-19058722D01*
X22916730Y-19058722D02*
X22926253Y-19039674D01*
X22926253Y-19039674D02*
X22945301Y-19030150D01*
X22945301Y-19030150D02*
X22983396Y-19030150D01*
X22983396Y-19030150D02*
X23002444Y-19039674D01*
X23002444Y-19039674D02*
X23011968Y-19058722D01*
X23011968Y-19058722D02*
X23011968Y-19077770D01*
X23011968Y-19077770D02*
X22916730Y-19096817D01*
X23088158Y-19153960D02*
X23107206Y-19163484D01*
X23107206Y-19163484D02*
X23145301Y-19163484D01*
X23145301Y-19163484D02*
X23164349Y-19153960D01*
X23164349Y-19153960D02*
X23173872Y-19134912D01*
X23173872Y-19134912D02*
X23173872Y-19125389D01*
X23173872Y-19125389D02*
X23164349Y-19106341D01*
X23164349Y-19106341D02*
X23145301Y-19096817D01*
X23145301Y-19096817D02*
X23116730Y-19096817D01*
X23116730Y-19096817D02*
X23097682Y-19087293D01*
X23097682Y-19087293D02*
X23088158Y-19068246D01*
X23088158Y-19068246D02*
X23088158Y-19058722D01*
X23088158Y-19058722D02*
X23097682Y-19039674D01*
X23097682Y-19039674D02*
X23116730Y-19030150D01*
X23116730Y-19030150D02*
X23145301Y-19030150D01*
X23145301Y-19030150D02*
X23164349Y-19039674D01*
X23240539Y-19239674D02*
X23250063Y-19230150D01*
X23250063Y-19230150D02*
X23269111Y-19201579D01*
X23269111Y-19201579D02*
X23278634Y-19182531D01*
X23278634Y-19182531D02*
X23288158Y-19153960D01*
X23288158Y-19153960D02*
X23297682Y-19106341D01*
X23297682Y-19106341D02*
X23297682Y-19068246D01*
X23297682Y-19068246D02*
X23288158Y-19020627D01*
X23288158Y-19020627D02*
X23278634Y-18992055D01*
X23278634Y-18992055D02*
X23269111Y-18973008D01*
X23269111Y-18973008D02*
X23250063Y-18944436D01*
X23250063Y-18944436D02*
X23240539Y-18934912D01*
D16*
X18187500Y-19248500D02*
X18187500Y-19423500D01*
X18100000Y-19336000D02*
X18275000Y-19336000D01*
X18275000Y-19336000D02*
G75*
G02*
X18100000Y-19336000I-87500J0D01*
G01*
X18100000Y-19336000D02*
G75*
G02*
X18275000Y-19336000I87500J0D01*
G01*
D10*
X18640539Y-19427484D02*
X18526253Y-19427484D01*
X18583396Y-19427484D02*
X18583396Y-19227484D01*
X18583396Y-19227484D02*
X18564348Y-19256055D01*
X18564348Y-19256055D02*
X18545301Y-19275103D01*
X18545301Y-19275103D02*
X18526253Y-19284627D01*
X18726253Y-19408436D02*
X18735777Y-19417960D01*
X18735777Y-19417960D02*
X18726253Y-19427484D01*
X18726253Y-19427484D02*
X18716729Y-19417960D01*
X18716729Y-19417960D02*
X18726253Y-19408436D01*
X18726253Y-19408436D02*
X18726253Y-19427484D01*
X18802444Y-19227484D02*
X18935777Y-19227484D01*
X18935777Y-19227484D02*
X18850063Y-19427484D01*
X19107205Y-19227484D02*
X19011967Y-19227484D01*
X19011967Y-19227484D02*
X19002444Y-19322722D01*
X19002444Y-19322722D02*
X19011967Y-19313198D01*
X19011967Y-19313198D02*
X19031015Y-19303674D01*
X19031015Y-19303674D02*
X19078634Y-19303674D01*
X19078634Y-19303674D02*
X19097682Y-19313198D01*
X19097682Y-19313198D02*
X19107205Y-19322722D01*
X19107205Y-19322722D02*
X19116729Y-19341770D01*
X19116729Y-19341770D02*
X19116729Y-19389389D01*
X19116729Y-19389389D02*
X19107205Y-19408436D01*
X19107205Y-19408436D02*
X19097682Y-19417960D01*
X19097682Y-19417960D02*
X19078634Y-19427484D01*
X19078634Y-19427484D02*
X19031015Y-19427484D01*
X19031015Y-19427484D02*
X19011967Y-19417960D01*
X19011967Y-19417960D02*
X19002444Y-19408436D01*
X19240539Y-19227484D02*
X19259586Y-19227484D01*
X19259586Y-19227484D02*
X19278634Y-19237008D01*
X19278634Y-19237008D02*
X19288158Y-19246531D01*
X19288158Y-19246531D02*
X19297682Y-19265579D01*
X19297682Y-19265579D02*
X19307205Y-19303674D01*
X19307205Y-19303674D02*
X19307205Y-19351293D01*
X19307205Y-19351293D02*
X19297682Y-19389389D01*
X19297682Y-19389389D02*
X19288158Y-19408436D01*
X19288158Y-19408436D02*
X19278634Y-19417960D01*
X19278634Y-19417960D02*
X19259586Y-19427484D01*
X19259586Y-19427484D02*
X19240539Y-19427484D01*
X19240539Y-19427484D02*
X19221491Y-19417960D01*
X19221491Y-19417960D02*
X19211967Y-19408436D01*
X19211967Y-19408436D02*
X19202444Y-19389389D01*
X19202444Y-19389389D02*
X19192920Y-19351293D01*
X19192920Y-19351293D02*
X19192920Y-19303674D01*
X19192920Y-19303674D02*
X19202444Y-19265579D01*
X19202444Y-19265579D02*
X19211967Y-19246531D01*
X19211967Y-19246531D02*
X19221491Y-19237008D01*
X19221491Y-19237008D02*
X19240539Y-19227484D01*
X19392920Y-19427484D02*
X19392920Y-19294150D01*
X19392920Y-19313198D02*
X19402444Y-19303674D01*
X19402444Y-19303674D02*
X19421491Y-19294150D01*
X19421491Y-19294150D02*
X19450063Y-19294150D01*
X19450063Y-19294150D02*
X19469110Y-19303674D01*
X19469110Y-19303674D02*
X19478634Y-19322722D01*
X19478634Y-19322722D02*
X19478634Y-19427484D01*
X19478634Y-19322722D02*
X19488158Y-19303674D01*
X19488158Y-19303674D02*
X19507205Y-19294150D01*
X19507205Y-19294150D02*
X19535777Y-19294150D01*
X19535777Y-19294150D02*
X19554825Y-19303674D01*
X19554825Y-19303674D02*
X19564348Y-19322722D01*
X19564348Y-19322722D02*
X19564348Y-19427484D01*
X19659586Y-19427484D02*
X19659586Y-19294150D01*
X19659586Y-19313198D02*
X19669110Y-19303674D01*
X19669110Y-19303674D02*
X19688158Y-19294150D01*
X19688158Y-19294150D02*
X19716729Y-19294150D01*
X19716729Y-19294150D02*
X19735777Y-19303674D01*
X19735777Y-19303674D02*
X19745301Y-19322722D01*
X19745301Y-19322722D02*
X19745301Y-19427484D01*
X19745301Y-19322722D02*
X19754825Y-19303674D01*
X19754825Y-19303674D02*
X19773872Y-19294150D01*
X19773872Y-19294150D02*
X19802444Y-19294150D01*
X19802444Y-19294150D02*
X19821491Y-19303674D01*
X19821491Y-19303674D02*
X19831015Y-19322722D01*
X19831015Y-19322722D02*
X19831015Y-19427484D01*
X20221491Y-19217960D02*
X20050063Y-19475103D01*
X20478634Y-19227484D02*
X20497682Y-19227484D01*
X20497682Y-19227484D02*
X20516729Y-19237008D01*
X20516729Y-19237008D02*
X20526253Y-19246531D01*
X20526253Y-19246531D02*
X20535777Y-19265579D01*
X20535777Y-19265579D02*
X20545301Y-19303674D01*
X20545301Y-19303674D02*
X20545301Y-19351293D01*
X20545301Y-19351293D02*
X20535777Y-19389389D01*
X20535777Y-19389389D02*
X20526253Y-19408436D01*
X20526253Y-19408436D02*
X20516729Y-19417960D01*
X20516729Y-19417960D02*
X20497682Y-19427484D01*
X20497682Y-19427484D02*
X20478634Y-19427484D01*
X20478634Y-19427484D02*
X20459587Y-19417960D01*
X20459587Y-19417960D02*
X20450063Y-19408436D01*
X20450063Y-19408436D02*
X20440539Y-19389389D01*
X20440539Y-19389389D02*
X20431015Y-19351293D01*
X20431015Y-19351293D02*
X20431015Y-19303674D01*
X20431015Y-19303674D02*
X20440539Y-19265579D01*
X20440539Y-19265579D02*
X20450063Y-19246531D01*
X20450063Y-19246531D02*
X20459587Y-19237008D01*
X20459587Y-19237008D02*
X20478634Y-19227484D01*
X20631015Y-19408436D02*
X20640539Y-19417960D01*
X20640539Y-19417960D02*
X20631015Y-19427484D01*
X20631015Y-19427484D02*
X20621491Y-19417960D01*
X20621491Y-19417960D02*
X20631015Y-19408436D01*
X20631015Y-19408436D02*
X20631015Y-19427484D01*
X20764348Y-19227484D02*
X20783396Y-19227484D01*
X20783396Y-19227484D02*
X20802444Y-19237008D01*
X20802444Y-19237008D02*
X20811968Y-19246531D01*
X20811968Y-19246531D02*
X20821491Y-19265579D01*
X20821491Y-19265579D02*
X20831015Y-19303674D01*
X20831015Y-19303674D02*
X20831015Y-19351293D01*
X20831015Y-19351293D02*
X20821491Y-19389389D01*
X20821491Y-19389389D02*
X20811968Y-19408436D01*
X20811968Y-19408436D02*
X20802444Y-19417960D01*
X20802444Y-19417960D02*
X20783396Y-19427484D01*
X20783396Y-19427484D02*
X20764348Y-19427484D01*
X20764348Y-19427484D02*
X20745301Y-19417960D01*
X20745301Y-19417960D02*
X20735777Y-19408436D01*
X20735777Y-19408436D02*
X20726253Y-19389389D01*
X20726253Y-19389389D02*
X20716729Y-19351293D01*
X20716729Y-19351293D02*
X20716729Y-19303674D01*
X20716729Y-19303674D02*
X20726253Y-19265579D01*
X20726253Y-19265579D02*
X20735777Y-19246531D01*
X20735777Y-19246531D02*
X20745301Y-19237008D01*
X20745301Y-19237008D02*
X20764348Y-19227484D01*
X21002444Y-19227484D02*
X20964348Y-19227484D01*
X20964348Y-19227484D02*
X20945301Y-19237008D01*
X20945301Y-19237008D02*
X20935777Y-19246531D01*
X20935777Y-19246531D02*
X20916729Y-19275103D01*
X20916729Y-19275103D02*
X20907206Y-19313198D01*
X20907206Y-19313198D02*
X20907206Y-19389389D01*
X20907206Y-19389389D02*
X20916729Y-19408436D01*
X20916729Y-19408436D02*
X20926253Y-19417960D01*
X20926253Y-19417960D02*
X20945301Y-19427484D01*
X20945301Y-19427484D02*
X20983396Y-19427484D01*
X20983396Y-19427484D02*
X21002444Y-19417960D01*
X21002444Y-19417960D02*
X21011968Y-19408436D01*
X21011968Y-19408436D02*
X21021491Y-19389389D01*
X21021491Y-19389389D02*
X21021491Y-19341770D01*
X21021491Y-19341770D02*
X21011968Y-19322722D01*
X21011968Y-19322722D02*
X21002444Y-19313198D01*
X21002444Y-19313198D02*
X20983396Y-19303674D01*
X20983396Y-19303674D02*
X20945301Y-19303674D01*
X20945301Y-19303674D02*
X20926253Y-19313198D01*
X20926253Y-19313198D02*
X20916729Y-19322722D01*
X20916729Y-19322722D02*
X20907206Y-19341770D01*
X21135777Y-19313198D02*
X21116729Y-19303674D01*
X21116729Y-19303674D02*
X21107206Y-19294150D01*
X21107206Y-19294150D02*
X21097682Y-19275103D01*
X21097682Y-19275103D02*
X21097682Y-19265579D01*
X21097682Y-19265579D02*
X21107206Y-19246531D01*
X21107206Y-19246531D02*
X21116729Y-19237008D01*
X21116729Y-19237008D02*
X21135777Y-19227484D01*
X21135777Y-19227484D02*
X21173872Y-19227484D01*
X21173872Y-19227484D02*
X21192920Y-19237008D01*
X21192920Y-19237008D02*
X21202444Y-19246531D01*
X21202444Y-19246531D02*
X21211968Y-19265579D01*
X21211968Y-19265579D02*
X21211968Y-19275103D01*
X21211968Y-19275103D02*
X21202444Y-19294150D01*
X21202444Y-19294150D02*
X21192920Y-19303674D01*
X21192920Y-19303674D02*
X21173872Y-19313198D01*
X21173872Y-19313198D02*
X21135777Y-19313198D01*
X21135777Y-19313198D02*
X21116729Y-19322722D01*
X21116729Y-19322722D02*
X21107206Y-19332246D01*
X21107206Y-19332246D02*
X21097682Y-19351293D01*
X21097682Y-19351293D02*
X21097682Y-19389389D01*
X21097682Y-19389389D02*
X21107206Y-19408436D01*
X21107206Y-19408436D02*
X21116729Y-19417960D01*
X21116729Y-19417960D02*
X21135777Y-19427484D01*
X21135777Y-19427484D02*
X21173872Y-19427484D01*
X21173872Y-19427484D02*
X21192920Y-19417960D01*
X21192920Y-19417960D02*
X21202444Y-19408436D01*
X21202444Y-19408436D02*
X21211968Y-19389389D01*
X21211968Y-19389389D02*
X21211968Y-19351293D01*
X21211968Y-19351293D02*
X21202444Y-19332246D01*
X21202444Y-19332246D02*
X21192920Y-19322722D01*
X21192920Y-19322722D02*
X21173872Y-19313198D01*
X21307206Y-19427484D02*
X21345301Y-19427484D01*
X21345301Y-19427484D02*
X21364349Y-19417960D01*
X21364349Y-19417960D02*
X21373872Y-19408436D01*
X21373872Y-19408436D02*
X21392920Y-19379865D01*
X21392920Y-19379865D02*
X21402444Y-19341770D01*
X21402444Y-19341770D02*
X21402444Y-19265579D01*
X21402444Y-19265579D02*
X21392920Y-19246531D01*
X21392920Y-19246531D02*
X21383396Y-19237008D01*
X21383396Y-19237008D02*
X21364349Y-19227484D01*
X21364349Y-19227484D02*
X21326253Y-19227484D01*
X21326253Y-19227484D02*
X21307206Y-19237008D01*
X21307206Y-19237008D02*
X21297682Y-19246531D01*
X21297682Y-19246531D02*
X21288158Y-19265579D01*
X21288158Y-19265579D02*
X21288158Y-19313198D01*
X21288158Y-19313198D02*
X21297682Y-19332246D01*
X21297682Y-19332246D02*
X21307206Y-19341770D01*
X21307206Y-19341770D02*
X21326253Y-19351293D01*
X21326253Y-19351293D02*
X21364349Y-19351293D01*
X21364349Y-19351293D02*
X21383396Y-19341770D01*
X21383396Y-19341770D02*
X21392920Y-19332246D01*
X21392920Y-19332246D02*
X21402444Y-19313198D01*
X21478634Y-19227484D02*
X21478634Y-19265579D01*
X21554825Y-19227484D02*
X21554825Y-19265579D01*
X21850063Y-19503674D02*
X21840539Y-19494150D01*
X21840539Y-19494150D02*
X21821491Y-19465579D01*
X21821491Y-19465579D02*
X21811968Y-19446531D01*
X21811968Y-19446531D02*
X21802444Y-19417960D01*
X21802444Y-19417960D02*
X21792920Y-19370341D01*
X21792920Y-19370341D02*
X21792920Y-19332246D01*
X21792920Y-19332246D02*
X21802444Y-19284627D01*
X21802444Y-19284627D02*
X21811968Y-19256055D01*
X21811968Y-19256055D02*
X21821491Y-19237008D01*
X21821491Y-19237008D02*
X21840539Y-19208436D01*
X21840539Y-19208436D02*
X21850063Y-19198912D01*
X22011968Y-19227484D02*
X21973872Y-19227484D01*
X21973872Y-19227484D02*
X21954825Y-19237008D01*
X21954825Y-19237008D02*
X21945301Y-19246531D01*
X21945301Y-19246531D02*
X21926253Y-19275103D01*
X21926253Y-19275103D02*
X21916730Y-19313198D01*
X21916730Y-19313198D02*
X21916730Y-19389389D01*
X21916730Y-19389389D02*
X21926253Y-19408436D01*
X21926253Y-19408436D02*
X21935777Y-19417960D01*
X21935777Y-19417960D02*
X21954825Y-19427484D01*
X21954825Y-19427484D02*
X21992920Y-19427484D01*
X21992920Y-19427484D02*
X22011968Y-19417960D01*
X22011968Y-19417960D02*
X22021491Y-19408436D01*
X22021491Y-19408436D02*
X22031015Y-19389389D01*
X22031015Y-19389389D02*
X22031015Y-19341770D01*
X22031015Y-19341770D02*
X22021491Y-19322722D01*
X22021491Y-19322722D02*
X22011968Y-19313198D01*
X22011968Y-19313198D02*
X21992920Y-19303674D01*
X21992920Y-19303674D02*
X21954825Y-19303674D01*
X21954825Y-19303674D02*
X21935777Y-19313198D01*
X21935777Y-19313198D02*
X21926253Y-19322722D01*
X21926253Y-19322722D02*
X21916730Y-19341770D01*
X22269111Y-19427484D02*
X22269111Y-19227484D01*
X22354825Y-19427484D02*
X22354825Y-19322722D01*
X22354825Y-19322722D02*
X22345301Y-19303674D01*
X22345301Y-19303674D02*
X22326253Y-19294150D01*
X22326253Y-19294150D02*
X22297682Y-19294150D01*
X22297682Y-19294150D02*
X22278634Y-19303674D01*
X22278634Y-19303674D02*
X22269111Y-19313198D01*
X22478634Y-19427484D02*
X22459587Y-19417960D01*
X22459587Y-19417960D02*
X22450063Y-19408436D01*
X22450063Y-19408436D02*
X22440539Y-19389389D01*
X22440539Y-19389389D02*
X22440539Y-19332246D01*
X22440539Y-19332246D02*
X22450063Y-19313198D01*
X22450063Y-19313198D02*
X22459587Y-19303674D01*
X22459587Y-19303674D02*
X22478634Y-19294150D01*
X22478634Y-19294150D02*
X22507206Y-19294150D01*
X22507206Y-19294150D02*
X22526253Y-19303674D01*
X22526253Y-19303674D02*
X22535777Y-19313198D01*
X22535777Y-19313198D02*
X22545301Y-19332246D01*
X22545301Y-19332246D02*
X22545301Y-19389389D01*
X22545301Y-19389389D02*
X22535777Y-19408436D01*
X22535777Y-19408436D02*
X22526253Y-19417960D01*
X22526253Y-19417960D02*
X22507206Y-19427484D01*
X22507206Y-19427484D02*
X22478634Y-19427484D01*
X22659587Y-19427484D02*
X22640539Y-19417960D01*
X22640539Y-19417960D02*
X22631015Y-19398912D01*
X22631015Y-19398912D02*
X22631015Y-19227484D01*
X22811968Y-19417960D02*
X22792920Y-19427484D01*
X22792920Y-19427484D02*
X22754825Y-19427484D01*
X22754825Y-19427484D02*
X22735777Y-19417960D01*
X22735777Y-19417960D02*
X22726253Y-19398912D01*
X22726253Y-19398912D02*
X22726253Y-19322722D01*
X22726253Y-19322722D02*
X22735777Y-19303674D01*
X22735777Y-19303674D02*
X22754825Y-19294150D01*
X22754825Y-19294150D02*
X22792920Y-19294150D01*
X22792920Y-19294150D02*
X22811968Y-19303674D01*
X22811968Y-19303674D02*
X22821491Y-19322722D01*
X22821491Y-19322722D02*
X22821491Y-19341770D01*
X22821491Y-19341770D02*
X22726253Y-19360817D01*
X22897682Y-19417960D02*
X22916730Y-19427484D01*
X22916730Y-19427484D02*
X22954825Y-19427484D01*
X22954825Y-19427484D02*
X22973872Y-19417960D01*
X22973872Y-19417960D02*
X22983396Y-19398912D01*
X22983396Y-19398912D02*
X22983396Y-19389389D01*
X22983396Y-19389389D02*
X22973872Y-19370341D01*
X22973872Y-19370341D02*
X22954825Y-19360817D01*
X22954825Y-19360817D02*
X22926253Y-19360817D01*
X22926253Y-19360817D02*
X22907206Y-19351293D01*
X22907206Y-19351293D02*
X22897682Y-19332246D01*
X22897682Y-19332246D02*
X22897682Y-19322722D01*
X22897682Y-19322722D02*
X22907206Y-19303674D01*
X22907206Y-19303674D02*
X22926253Y-19294150D01*
X22926253Y-19294150D02*
X22954825Y-19294150D01*
X22954825Y-19294150D02*
X22973872Y-19303674D01*
X23050063Y-19503674D02*
X23059587Y-19494150D01*
X23059587Y-19494150D02*
X23078634Y-19465579D01*
X23078634Y-19465579D02*
X23088158Y-19446531D01*
X23088158Y-19446531D02*
X23097682Y-19417960D01*
X23097682Y-19417960D02*
X23107206Y-19370341D01*
X23107206Y-19370341D02*
X23107206Y-19332246D01*
X23107206Y-19332246D02*
X23097682Y-19284627D01*
X23097682Y-19284627D02*
X23088158Y-19256055D01*
X23088158Y-19256055D02*
X23078634Y-19237008D01*
X23078634Y-19237008D02*
X23059587Y-19208436D01*
X23059587Y-19208436D02*
X23050063Y-19198912D01*
X18245711Y-19701711D02*
X18245711Y-19560289D01*
X18104289Y-19560289D01*
X18104289Y-19701711D01*
X18245711Y-19701711D01*
X18275000Y-19631000D02*
G75*
G02*
X18075000Y-19631000I-100000J0D01*
G01*
X18075000Y-19631000D02*
G75*
G02*
X18275000Y-19631000I100000J0D01*
G01*
X18526253Y-19541531D02*
X18535777Y-19532008D01*
X18535777Y-19532008D02*
X18554824Y-19522484D01*
X18554824Y-19522484D02*
X18602444Y-19522484D01*
X18602444Y-19522484D02*
X18621491Y-19532008D01*
X18621491Y-19532008D02*
X18631015Y-19541531D01*
X18631015Y-19541531D02*
X18640539Y-19560579D01*
X18640539Y-19560579D02*
X18640539Y-19579627D01*
X18640539Y-19579627D02*
X18631015Y-19608198D01*
X18631015Y-19608198D02*
X18516729Y-19722484D01*
X18516729Y-19722484D02*
X18640539Y-19722484D01*
X18726253Y-19703436D02*
X18735777Y-19712960D01*
X18735777Y-19712960D02*
X18726253Y-19722484D01*
X18726253Y-19722484D02*
X18716729Y-19712960D01*
X18716729Y-19712960D02*
X18726253Y-19703436D01*
X18726253Y-19703436D02*
X18726253Y-19722484D01*
X18859586Y-19522484D02*
X18878634Y-19522484D01*
X18878634Y-19522484D02*
X18897682Y-19532008D01*
X18897682Y-19532008D02*
X18907205Y-19541531D01*
X18907205Y-19541531D02*
X18916729Y-19560579D01*
X18916729Y-19560579D02*
X18926253Y-19598674D01*
X18926253Y-19598674D02*
X18926253Y-19646293D01*
X18926253Y-19646293D02*
X18916729Y-19684389D01*
X18916729Y-19684389D02*
X18907205Y-19703436D01*
X18907205Y-19703436D02*
X18897682Y-19712960D01*
X18897682Y-19712960D02*
X18878634Y-19722484D01*
X18878634Y-19722484D02*
X18859586Y-19722484D01*
X18859586Y-19722484D02*
X18840539Y-19712960D01*
X18840539Y-19712960D02*
X18831015Y-19703436D01*
X18831015Y-19703436D02*
X18821491Y-19684389D01*
X18821491Y-19684389D02*
X18811967Y-19646293D01*
X18811967Y-19646293D02*
X18811967Y-19598674D01*
X18811967Y-19598674D02*
X18821491Y-19560579D01*
X18821491Y-19560579D02*
X18831015Y-19541531D01*
X18831015Y-19541531D02*
X18840539Y-19532008D01*
X18840539Y-19532008D02*
X18859586Y-19522484D01*
X19050063Y-19522484D02*
X19069110Y-19522484D01*
X19069110Y-19522484D02*
X19088158Y-19532008D01*
X19088158Y-19532008D02*
X19097682Y-19541531D01*
X19097682Y-19541531D02*
X19107205Y-19560579D01*
X19107205Y-19560579D02*
X19116729Y-19598674D01*
X19116729Y-19598674D02*
X19116729Y-19646293D01*
X19116729Y-19646293D02*
X19107205Y-19684389D01*
X19107205Y-19684389D02*
X19097682Y-19703436D01*
X19097682Y-19703436D02*
X19088158Y-19712960D01*
X19088158Y-19712960D02*
X19069110Y-19722484D01*
X19069110Y-19722484D02*
X19050063Y-19722484D01*
X19050063Y-19722484D02*
X19031015Y-19712960D01*
X19031015Y-19712960D02*
X19021491Y-19703436D01*
X19021491Y-19703436D02*
X19011967Y-19684389D01*
X19011967Y-19684389D02*
X19002444Y-19646293D01*
X19002444Y-19646293D02*
X19002444Y-19598674D01*
X19002444Y-19598674D02*
X19011967Y-19560579D01*
X19011967Y-19560579D02*
X19021491Y-19541531D01*
X19021491Y-19541531D02*
X19031015Y-19532008D01*
X19031015Y-19532008D02*
X19050063Y-19522484D01*
X19240539Y-19522484D02*
X19259586Y-19522484D01*
X19259586Y-19522484D02*
X19278634Y-19532008D01*
X19278634Y-19532008D02*
X19288158Y-19541531D01*
X19288158Y-19541531D02*
X19297682Y-19560579D01*
X19297682Y-19560579D02*
X19307205Y-19598674D01*
X19307205Y-19598674D02*
X19307205Y-19646293D01*
X19307205Y-19646293D02*
X19297682Y-19684389D01*
X19297682Y-19684389D02*
X19288158Y-19703436D01*
X19288158Y-19703436D02*
X19278634Y-19712960D01*
X19278634Y-19712960D02*
X19259586Y-19722484D01*
X19259586Y-19722484D02*
X19240539Y-19722484D01*
X19240539Y-19722484D02*
X19221491Y-19712960D01*
X19221491Y-19712960D02*
X19211967Y-19703436D01*
X19211967Y-19703436D02*
X19202444Y-19684389D01*
X19202444Y-19684389D02*
X19192920Y-19646293D01*
X19192920Y-19646293D02*
X19192920Y-19598674D01*
X19192920Y-19598674D02*
X19202444Y-19560579D01*
X19202444Y-19560579D02*
X19211967Y-19541531D01*
X19211967Y-19541531D02*
X19221491Y-19532008D01*
X19221491Y-19532008D02*
X19240539Y-19522484D01*
X19392920Y-19722484D02*
X19392920Y-19589150D01*
X19392920Y-19608198D02*
X19402444Y-19598674D01*
X19402444Y-19598674D02*
X19421491Y-19589150D01*
X19421491Y-19589150D02*
X19450063Y-19589150D01*
X19450063Y-19589150D02*
X19469110Y-19598674D01*
X19469110Y-19598674D02*
X19478634Y-19617722D01*
X19478634Y-19617722D02*
X19478634Y-19722484D01*
X19478634Y-19617722D02*
X19488158Y-19598674D01*
X19488158Y-19598674D02*
X19507205Y-19589150D01*
X19507205Y-19589150D02*
X19535777Y-19589150D01*
X19535777Y-19589150D02*
X19554825Y-19598674D01*
X19554825Y-19598674D02*
X19564348Y-19617722D01*
X19564348Y-19617722D02*
X19564348Y-19722484D01*
X19659586Y-19722484D02*
X19659586Y-19589150D01*
X19659586Y-19608198D02*
X19669110Y-19598674D01*
X19669110Y-19598674D02*
X19688158Y-19589150D01*
X19688158Y-19589150D02*
X19716729Y-19589150D01*
X19716729Y-19589150D02*
X19735777Y-19598674D01*
X19735777Y-19598674D02*
X19745301Y-19617722D01*
X19745301Y-19617722D02*
X19745301Y-19722484D01*
X19745301Y-19617722D02*
X19754825Y-19598674D01*
X19754825Y-19598674D02*
X19773872Y-19589150D01*
X19773872Y-19589150D02*
X19802444Y-19589150D01*
X19802444Y-19589150D02*
X19821491Y-19598674D01*
X19821491Y-19598674D02*
X19831015Y-19617722D01*
X19831015Y-19617722D02*
X19831015Y-19722484D01*
X20221491Y-19512960D02*
X20050063Y-19770103D01*
X20478634Y-19522484D02*
X20497682Y-19522484D01*
X20497682Y-19522484D02*
X20516729Y-19532008D01*
X20516729Y-19532008D02*
X20526253Y-19541531D01*
X20526253Y-19541531D02*
X20535777Y-19560579D01*
X20535777Y-19560579D02*
X20545301Y-19598674D01*
X20545301Y-19598674D02*
X20545301Y-19646293D01*
X20545301Y-19646293D02*
X20535777Y-19684389D01*
X20535777Y-19684389D02*
X20526253Y-19703436D01*
X20526253Y-19703436D02*
X20516729Y-19712960D01*
X20516729Y-19712960D02*
X20497682Y-19722484D01*
X20497682Y-19722484D02*
X20478634Y-19722484D01*
X20478634Y-19722484D02*
X20459587Y-19712960D01*
X20459587Y-19712960D02*
X20450063Y-19703436D01*
X20450063Y-19703436D02*
X20440539Y-19684389D01*
X20440539Y-19684389D02*
X20431015Y-19646293D01*
X20431015Y-19646293D02*
X20431015Y-19598674D01*
X20431015Y-19598674D02*
X20440539Y-19560579D01*
X20440539Y-19560579D02*
X20450063Y-19541531D01*
X20450063Y-19541531D02*
X20459587Y-19532008D01*
X20459587Y-19532008D02*
X20478634Y-19522484D01*
X20631015Y-19703436D02*
X20640539Y-19712960D01*
X20640539Y-19712960D02*
X20631015Y-19722484D01*
X20631015Y-19722484D02*
X20621491Y-19712960D01*
X20621491Y-19712960D02*
X20631015Y-19703436D01*
X20631015Y-19703436D02*
X20631015Y-19722484D01*
X20764348Y-19522484D02*
X20783396Y-19522484D01*
X20783396Y-19522484D02*
X20802444Y-19532008D01*
X20802444Y-19532008D02*
X20811968Y-19541531D01*
X20811968Y-19541531D02*
X20821491Y-19560579D01*
X20821491Y-19560579D02*
X20831015Y-19598674D01*
X20831015Y-19598674D02*
X20831015Y-19646293D01*
X20831015Y-19646293D02*
X20821491Y-19684389D01*
X20821491Y-19684389D02*
X20811968Y-19703436D01*
X20811968Y-19703436D02*
X20802444Y-19712960D01*
X20802444Y-19712960D02*
X20783396Y-19722484D01*
X20783396Y-19722484D02*
X20764348Y-19722484D01*
X20764348Y-19722484D02*
X20745301Y-19712960D01*
X20745301Y-19712960D02*
X20735777Y-19703436D01*
X20735777Y-19703436D02*
X20726253Y-19684389D01*
X20726253Y-19684389D02*
X20716729Y-19646293D01*
X20716729Y-19646293D02*
X20716729Y-19598674D01*
X20716729Y-19598674D02*
X20726253Y-19560579D01*
X20726253Y-19560579D02*
X20735777Y-19541531D01*
X20735777Y-19541531D02*
X20745301Y-19532008D01*
X20745301Y-19532008D02*
X20764348Y-19522484D01*
X20897682Y-19522484D02*
X21031015Y-19522484D01*
X21031015Y-19522484D02*
X20945301Y-19722484D01*
X21135777Y-19608198D02*
X21116729Y-19598674D01*
X21116729Y-19598674D02*
X21107206Y-19589150D01*
X21107206Y-19589150D02*
X21097682Y-19570103D01*
X21097682Y-19570103D02*
X21097682Y-19560579D01*
X21097682Y-19560579D02*
X21107206Y-19541531D01*
X21107206Y-19541531D02*
X21116729Y-19532008D01*
X21116729Y-19532008D02*
X21135777Y-19522484D01*
X21135777Y-19522484D02*
X21173872Y-19522484D01*
X21173872Y-19522484D02*
X21192920Y-19532008D01*
X21192920Y-19532008D02*
X21202444Y-19541531D01*
X21202444Y-19541531D02*
X21211968Y-19560579D01*
X21211968Y-19560579D02*
X21211968Y-19570103D01*
X21211968Y-19570103D02*
X21202444Y-19589150D01*
X21202444Y-19589150D02*
X21192920Y-19598674D01*
X21192920Y-19598674D02*
X21173872Y-19608198D01*
X21173872Y-19608198D02*
X21135777Y-19608198D01*
X21135777Y-19608198D02*
X21116729Y-19617722D01*
X21116729Y-19617722D02*
X21107206Y-19627246D01*
X21107206Y-19627246D02*
X21097682Y-19646293D01*
X21097682Y-19646293D02*
X21097682Y-19684389D01*
X21097682Y-19684389D02*
X21107206Y-19703436D01*
X21107206Y-19703436D02*
X21116729Y-19712960D01*
X21116729Y-19712960D02*
X21135777Y-19722484D01*
X21135777Y-19722484D02*
X21173872Y-19722484D01*
X21173872Y-19722484D02*
X21192920Y-19712960D01*
X21192920Y-19712960D02*
X21202444Y-19703436D01*
X21202444Y-19703436D02*
X21211968Y-19684389D01*
X21211968Y-19684389D02*
X21211968Y-19646293D01*
X21211968Y-19646293D02*
X21202444Y-19627246D01*
X21202444Y-19627246D02*
X21192920Y-19617722D01*
X21192920Y-19617722D02*
X21173872Y-19608198D01*
X21278634Y-19522484D02*
X21411968Y-19522484D01*
X21411968Y-19522484D02*
X21326253Y-19722484D01*
X21478634Y-19522484D02*
X21478634Y-19560579D01*
X21554825Y-19522484D02*
X21554825Y-19560579D01*
X21850063Y-19798674D02*
X21840539Y-19789150D01*
X21840539Y-19789150D02*
X21821491Y-19760579D01*
X21821491Y-19760579D02*
X21811968Y-19741531D01*
X21811968Y-19741531D02*
X21802444Y-19712960D01*
X21802444Y-19712960D02*
X21792920Y-19665341D01*
X21792920Y-19665341D02*
X21792920Y-19627246D01*
X21792920Y-19627246D02*
X21802444Y-19579627D01*
X21802444Y-19579627D02*
X21811968Y-19551055D01*
X21811968Y-19551055D02*
X21821491Y-19532008D01*
X21821491Y-19532008D02*
X21840539Y-19503436D01*
X21840539Y-19503436D02*
X21850063Y-19493912D01*
X21964349Y-19522484D02*
X21983396Y-19522484D01*
X21983396Y-19522484D02*
X22002444Y-19532008D01*
X22002444Y-19532008D02*
X22011968Y-19541531D01*
X22011968Y-19541531D02*
X22021491Y-19560579D01*
X22021491Y-19560579D02*
X22031015Y-19598674D01*
X22031015Y-19598674D02*
X22031015Y-19646293D01*
X22031015Y-19646293D02*
X22021491Y-19684389D01*
X22021491Y-19684389D02*
X22011968Y-19703436D01*
X22011968Y-19703436D02*
X22002444Y-19712960D01*
X22002444Y-19712960D02*
X21983396Y-19722484D01*
X21983396Y-19722484D02*
X21964349Y-19722484D01*
X21964349Y-19722484D02*
X21945301Y-19712960D01*
X21945301Y-19712960D02*
X21935777Y-19703436D01*
X21935777Y-19703436D02*
X21926253Y-19684389D01*
X21926253Y-19684389D02*
X21916730Y-19646293D01*
X21916730Y-19646293D02*
X21916730Y-19598674D01*
X21916730Y-19598674D02*
X21926253Y-19560579D01*
X21926253Y-19560579D02*
X21935777Y-19541531D01*
X21935777Y-19541531D02*
X21945301Y-19532008D01*
X21945301Y-19532008D02*
X21964349Y-19522484D01*
X22269111Y-19722484D02*
X22269111Y-19522484D01*
X22354825Y-19722484D02*
X22354825Y-19617722D01*
X22354825Y-19617722D02*
X22345301Y-19598674D01*
X22345301Y-19598674D02*
X22326253Y-19589150D01*
X22326253Y-19589150D02*
X22297682Y-19589150D01*
X22297682Y-19589150D02*
X22278634Y-19598674D01*
X22278634Y-19598674D02*
X22269111Y-19608198D01*
X22478634Y-19722484D02*
X22459587Y-19712960D01*
X22459587Y-19712960D02*
X22450063Y-19703436D01*
X22450063Y-19703436D02*
X22440539Y-19684389D01*
X22440539Y-19684389D02*
X22440539Y-19627246D01*
X22440539Y-19627246D02*
X22450063Y-19608198D01*
X22450063Y-19608198D02*
X22459587Y-19598674D01*
X22459587Y-19598674D02*
X22478634Y-19589150D01*
X22478634Y-19589150D02*
X22507206Y-19589150D01*
X22507206Y-19589150D02*
X22526253Y-19598674D01*
X22526253Y-19598674D02*
X22535777Y-19608198D01*
X22535777Y-19608198D02*
X22545301Y-19627246D01*
X22545301Y-19627246D02*
X22545301Y-19684389D01*
X22545301Y-19684389D02*
X22535777Y-19703436D01*
X22535777Y-19703436D02*
X22526253Y-19712960D01*
X22526253Y-19712960D02*
X22507206Y-19722484D01*
X22507206Y-19722484D02*
X22478634Y-19722484D01*
X22659587Y-19722484D02*
X22640539Y-19712960D01*
X22640539Y-19712960D02*
X22631015Y-19693912D01*
X22631015Y-19693912D02*
X22631015Y-19522484D01*
X22811968Y-19712960D02*
X22792920Y-19722484D01*
X22792920Y-19722484D02*
X22754825Y-19722484D01*
X22754825Y-19722484D02*
X22735777Y-19712960D01*
X22735777Y-19712960D02*
X22726253Y-19693912D01*
X22726253Y-19693912D02*
X22726253Y-19617722D01*
X22726253Y-19617722D02*
X22735777Y-19598674D01*
X22735777Y-19598674D02*
X22754825Y-19589150D01*
X22754825Y-19589150D02*
X22792920Y-19589150D01*
X22792920Y-19589150D02*
X22811968Y-19598674D01*
X22811968Y-19598674D02*
X22821491Y-19617722D01*
X22821491Y-19617722D02*
X22821491Y-19636770D01*
X22821491Y-19636770D02*
X22726253Y-19655817D01*
X22897682Y-19712960D02*
X22916730Y-19722484D01*
X22916730Y-19722484D02*
X22954825Y-19722484D01*
X22954825Y-19722484D02*
X22973872Y-19712960D01*
X22973872Y-19712960D02*
X22983396Y-19693912D01*
X22983396Y-19693912D02*
X22983396Y-19684389D01*
X22983396Y-19684389D02*
X22973872Y-19665341D01*
X22973872Y-19665341D02*
X22954825Y-19655817D01*
X22954825Y-19655817D02*
X22926253Y-19655817D01*
X22926253Y-19655817D02*
X22907206Y-19646293D01*
X22907206Y-19646293D02*
X22897682Y-19627246D01*
X22897682Y-19627246D02*
X22897682Y-19617722D01*
X22897682Y-19617722D02*
X22907206Y-19598674D01*
X22907206Y-19598674D02*
X22926253Y-19589150D01*
X22926253Y-19589150D02*
X22954825Y-19589150D01*
X22954825Y-19589150D02*
X22973872Y-19598674D01*
X23221492Y-19646293D02*
X23373873Y-19646293D01*
X23297682Y-19722484D02*
X23297682Y-19570103D01*
X23611968Y-19541531D02*
X23621492Y-19532008D01*
X23621492Y-19532008D02*
X23640539Y-19522484D01*
X23640539Y-19522484D02*
X23688158Y-19522484D01*
X23688158Y-19522484D02*
X23707206Y-19532008D01*
X23707206Y-19532008D02*
X23716730Y-19541531D01*
X23716730Y-19541531D02*
X23726253Y-19560579D01*
X23726253Y-19560579D02*
X23726253Y-19579627D01*
X23726253Y-19579627D02*
X23716730Y-19608198D01*
X23716730Y-19608198D02*
X23602444Y-19722484D01*
X23602444Y-19722484D02*
X23726253Y-19722484D01*
X23954825Y-19712960D02*
X23973873Y-19722484D01*
X23973873Y-19722484D02*
X24011968Y-19722484D01*
X24011968Y-19722484D02*
X24031015Y-19712960D01*
X24031015Y-19712960D02*
X24040539Y-19693912D01*
X24040539Y-19693912D02*
X24040539Y-19684389D01*
X24040539Y-19684389D02*
X24031015Y-19665341D01*
X24031015Y-19665341D02*
X24011968Y-19655817D01*
X24011968Y-19655817D02*
X23983396Y-19655817D01*
X23983396Y-19655817D02*
X23964349Y-19646293D01*
X23964349Y-19646293D02*
X23954825Y-19627246D01*
X23954825Y-19627246D02*
X23954825Y-19617722D01*
X23954825Y-19617722D02*
X23964349Y-19598674D01*
X23964349Y-19598674D02*
X23983396Y-19589150D01*
X23983396Y-19589150D02*
X24011968Y-19589150D01*
X24011968Y-19589150D02*
X24031015Y-19598674D01*
X24154825Y-19722484D02*
X24135777Y-19712960D01*
X24135777Y-19712960D02*
X24126254Y-19693912D01*
X24126254Y-19693912D02*
X24126254Y-19522484D01*
X24259587Y-19722484D02*
X24240539Y-19712960D01*
X24240539Y-19712960D02*
X24231015Y-19703436D01*
X24231015Y-19703436D02*
X24221492Y-19684389D01*
X24221492Y-19684389D02*
X24221492Y-19627246D01*
X24221492Y-19627246D02*
X24231015Y-19608198D01*
X24231015Y-19608198D02*
X24240539Y-19598674D01*
X24240539Y-19598674D02*
X24259587Y-19589150D01*
X24259587Y-19589150D02*
X24288158Y-19589150D01*
X24288158Y-19589150D02*
X24307206Y-19598674D01*
X24307206Y-19598674D02*
X24316730Y-19608198D01*
X24316730Y-19608198D02*
X24326254Y-19627246D01*
X24326254Y-19627246D02*
X24326254Y-19684389D01*
X24326254Y-19684389D02*
X24316730Y-19703436D01*
X24316730Y-19703436D02*
X24307206Y-19712960D01*
X24307206Y-19712960D02*
X24288158Y-19722484D01*
X24288158Y-19722484D02*
X24259587Y-19722484D01*
X24383396Y-19589150D02*
X24459587Y-19589150D01*
X24411968Y-19522484D02*
X24411968Y-19693912D01*
X24411968Y-19693912D02*
X24421492Y-19712960D01*
X24421492Y-19712960D02*
X24440539Y-19722484D01*
X24440539Y-19722484D02*
X24459587Y-19722484D01*
X24516730Y-19712960D02*
X24535777Y-19722484D01*
X24535777Y-19722484D02*
X24573873Y-19722484D01*
X24573873Y-19722484D02*
X24592920Y-19712960D01*
X24592920Y-19712960D02*
X24602444Y-19693912D01*
X24602444Y-19693912D02*
X24602444Y-19684389D01*
X24602444Y-19684389D02*
X24592920Y-19665341D01*
X24592920Y-19665341D02*
X24573873Y-19655817D01*
X24573873Y-19655817D02*
X24545301Y-19655817D01*
X24545301Y-19655817D02*
X24526254Y-19646293D01*
X24526254Y-19646293D02*
X24516730Y-19627246D01*
X24516730Y-19627246D02*
X24516730Y-19617722D01*
X24516730Y-19617722D02*
X24526254Y-19598674D01*
X24526254Y-19598674D02*
X24545301Y-19589150D01*
X24545301Y-19589150D02*
X24573873Y-19589150D01*
X24573873Y-19589150D02*
X24592920Y-19598674D01*
X24669111Y-19798674D02*
X24678635Y-19789150D01*
X24678635Y-19789150D02*
X24697682Y-19760579D01*
X24697682Y-19760579D02*
X24707206Y-19741531D01*
X24707206Y-19741531D02*
X24716730Y-19712960D01*
X24716730Y-19712960D02*
X24726254Y-19665341D01*
X24726254Y-19665341D02*
X24726254Y-19627246D01*
X24726254Y-19627246D02*
X24716730Y-19579627D01*
X24716730Y-19579627D02*
X24707206Y-19551055D01*
X24707206Y-19551055D02*
X24697682Y-19532008D01*
X24697682Y-19532008D02*
X24678635Y-19503436D01*
X24678635Y-19503436D02*
X24669111Y-19493912D01*
M02*
