%TF.GenerationSoftware,KiCad,Pcbnew,9.0.6*%
%TF.CreationDate,2025-12-15T16:17:17+01:00*%
%TF.ProjectId,controller,636f6e74-726f-46c6-9c65-722e6b696361,1*%
%TF.SameCoordinates,Original*%
%TF.FileFunction,Profile,NP*%
%FSLAX46Y46*%
G04 Gerber Fmt 4.6, Leading zero omitted, Abs format (unit mm)*
G04 Created by KiCad (PCBNEW 9.0.6) date 2025-12-15 16:17:17*
%MOMM*%
%LPD*%
G01*
G04 APERTURE LIST*
%TA.AperFunction,Profile*%
%ADD10C,0.200000*%
%TD*%
%TA.AperFunction,Profile*%
%ADD11C,0.000000*%
%TD*%
G04 APERTURE END LIST*
D10*
X182850000Y-76900000D02*
X282650000Y-76900000D01*
X282650000Y-163100000D01*
X182850000Y-163100000D01*
X182850000Y-76900000D01*
D11*
%TA.AperFunction,Profile*%
%TO.C,LCD1*%
G36*
X186361840Y-101667827D02*
G01*
X186593159Y-101742987D01*
X186809873Y-101853408D01*
X187006644Y-101996371D01*
X187178629Y-102168356D01*
X187321592Y-102365127D01*
X187432013Y-102581841D01*
X187507173Y-102813160D01*
X187545222Y-103053388D01*
X187545222Y-103296612D01*
X187507173Y-103536840D01*
X187432013Y-103768159D01*
X187321592Y-103984873D01*
X187178629Y-104181644D01*
X187006644Y-104353629D01*
X186809873Y-104496592D01*
X186593159Y-104607013D01*
X186361840Y-104682173D01*
X186121612Y-104720222D01*
X185878388Y-104720222D01*
X185638160Y-104682173D01*
X185406841Y-104607013D01*
X185190127Y-104496592D01*
X184993356Y-104353629D01*
X184821371Y-104181644D01*
X184678408Y-103984873D01*
X184567987Y-103768159D01*
X184492827Y-103536840D01*
X184454778Y-103296612D01*
X184454778Y-103053388D01*
X184492827Y-102813160D01*
X184567987Y-102581841D01*
X184678408Y-102365127D01*
X184821371Y-102168356D01*
X184993356Y-101996371D01*
X185190127Y-101853408D01*
X185406841Y-101742987D01*
X185638160Y-101667827D01*
X185878388Y-101629778D01*
X186121612Y-101629778D01*
X186361840Y-101667827D01*
G37*
%TD.AperFunction*%
%TA.AperFunction,Profile*%
G36*
X186361840Y-141517827D02*
G01*
X186593159Y-141592987D01*
X186809873Y-141703408D01*
X187006644Y-141846371D01*
X187178629Y-142018356D01*
X187321592Y-142215127D01*
X187432013Y-142431841D01*
X187507173Y-142663160D01*
X187545222Y-142903388D01*
X187545222Y-143146612D01*
X187507173Y-143386840D01*
X187432013Y-143618159D01*
X187321592Y-143834873D01*
X187178629Y-144031644D01*
X187006644Y-144203629D01*
X186809873Y-144346592D01*
X186593159Y-144457013D01*
X186361840Y-144532173D01*
X186121612Y-144570222D01*
X185878388Y-144570222D01*
X185638160Y-144532173D01*
X185406841Y-144457013D01*
X185190127Y-144346592D01*
X184993356Y-144203629D01*
X184821371Y-144031644D01*
X184678408Y-143834873D01*
X184567987Y-143618159D01*
X184492827Y-143386840D01*
X184454778Y-143146612D01*
X184454778Y-142903388D01*
X184492827Y-142663160D01*
X184567987Y-142431841D01*
X184678408Y-142215127D01*
X184821371Y-142018356D01*
X184993356Y-141846371D01*
X185190127Y-141703408D01*
X185406841Y-141592987D01*
X185638160Y-141517827D01*
X185878388Y-141479778D01*
X186121612Y-141479778D01*
X186361840Y-141517827D01*
G37*
%TD.AperFunction*%
%TA.AperFunction,Profile*%
G36*
X254361840Y-101667827D02*
G01*
X254593159Y-101742987D01*
X254809873Y-101853408D01*
X255006644Y-101996371D01*
X255178629Y-102168356D01*
X255321592Y-102365127D01*
X255432013Y-102581841D01*
X255507173Y-102813160D01*
X255545222Y-103053388D01*
X255545222Y-103296612D01*
X255507173Y-103536840D01*
X255432013Y-103768159D01*
X255321592Y-103984873D01*
X255178629Y-104181644D01*
X255006644Y-104353629D01*
X254809873Y-104496592D01*
X254593159Y-104607013D01*
X254361840Y-104682173D01*
X254121612Y-104720222D01*
X253878388Y-104720222D01*
X253638160Y-104682173D01*
X253406841Y-104607013D01*
X253190127Y-104496592D01*
X252993356Y-104353629D01*
X252821371Y-104181644D01*
X252678408Y-103984873D01*
X252567987Y-103768159D01*
X252492827Y-103536840D01*
X252454778Y-103296612D01*
X252454778Y-103053388D01*
X252492827Y-102813160D01*
X252567987Y-102581841D01*
X252678408Y-102365127D01*
X252821371Y-102168356D01*
X252993356Y-101996371D01*
X253190127Y-101853408D01*
X253406841Y-101742987D01*
X253638160Y-101667827D01*
X253878388Y-101629778D01*
X254121612Y-101629778D01*
X254361840Y-101667827D01*
G37*
%TD.AperFunction*%
%TA.AperFunction,Profile*%
G36*
X254361840Y-141517827D02*
G01*
X254593159Y-141592987D01*
X254809873Y-141703408D01*
X255006644Y-141846371D01*
X255178629Y-142018356D01*
X255321592Y-142215127D01*
X255432013Y-142431841D01*
X255507173Y-142663160D01*
X255545222Y-142903388D01*
X255545222Y-143146612D01*
X255507173Y-143386840D01*
X255432013Y-143618159D01*
X255321592Y-143834873D01*
X255178629Y-144031644D01*
X255006644Y-144203629D01*
X254809873Y-144346592D01*
X254593159Y-144457013D01*
X254361840Y-144532173D01*
X254121612Y-144570222D01*
X253878388Y-144570222D01*
X253638160Y-144532173D01*
X253406841Y-144457013D01*
X253190127Y-144346592D01*
X252993356Y-144203629D01*
X252821371Y-144031644D01*
X252678408Y-143834873D01*
X252567987Y-143618159D01*
X252492827Y-143386840D01*
X252454778Y-143146612D01*
X252454778Y-142903388D01*
X252492827Y-142663160D01*
X252567987Y-142431841D01*
X252678408Y-142215127D01*
X252821371Y-142018356D01*
X252993356Y-141846371D01*
X253190127Y-141703408D01*
X253406841Y-141592987D01*
X253638160Y-141517827D01*
X253878388Y-141479778D01*
X254121612Y-141479778D01*
X254361840Y-141517827D01*
G37*
%TD.AperFunction*%
%TD*%
M02*
