%TF.GenerationSoftware,KiCad,Pcbnew,9.0.6*%
%TF.CreationDate,2025-12-16T14:16:19+01:00*%
%TF.ProjectId,controller,636f6e74-726f-46c6-9c65-722e6b696361,1*%
%TF.SameCoordinates,Original*%
%TF.FileFunction,Soldermask,Top*%
%TF.FilePolarity,Negative*%
%FSLAX46Y46*%
G04 Gerber Fmt 4.6, Leading zero omitted, Abs format (unit mm)*
G04 Created by KiCad (PCBNEW 9.0.6) date 2025-12-16 14:16:19*
%MOMM*%
%LPD*%
G01*
G04 APERTURE LIST*
G04 Aperture macros list*
%AMRoundRect*
0 Rectangle with rounded corners*
0 $1 Rounding radius*
0 $2 $3 $4 $5 $6 $7 $8 $9 X,Y pos of 4 corners*
0 Add a 4 corners polygon primitive as box body*
4,1,4,$2,$3,$4,$5,$6,$7,$8,$9,$2,$3,0*
0 Add four circle primitives for the rounded corners*
1,1,$1+$1,$2,$3*
1,1,$1+$1,$4,$5*
1,1,$1+$1,$6,$7*
1,1,$1+$1,$8,$9*
0 Add four rect primitives between the rounded corners*
20,1,$1+$1,$2,$3,$4,$5,0*
20,1,$1+$1,$4,$5,$6,$7,0*
20,1,$1+$1,$6,$7,$8,$9,0*
20,1,$1+$1,$8,$9,$2,$3,0*%
G04 Aperture macros list end*
%ADD10C,0.010000*%
%ADD11RoundRect,0.150000X0.687500X0.150000X-0.687500X0.150000X-0.687500X-0.150000X0.687500X-0.150000X0*%
%ADD12R,2.100000X3.300000*%
%ADD13RoundRect,0.102000X-0.900000X0.900000X-0.900000X-0.900000X0.900000X-0.900000X0.900000X0.900000X0*%
%ADD14C,2.004000*%
%ADD15O,6.204000X3.204000*%
%ADD16RoundRect,0.250000X-0.262500X-0.450000X0.262500X-0.450000X0.262500X0.450000X-0.262500X0.450000X0*%
%ADD17RoundRect,0.200000X0.200000X0.275000X-0.200000X0.275000X-0.200000X-0.275000X0.200000X-0.275000X0*%
%ADD18C,1.850000*%
%ADD19RoundRect,0.102000X-0.937500X-0.937500X0.937500X-0.937500X0.937500X0.937500X-0.937500X0.937500X0*%
%ADD20C,2.079000*%
%ADD21C,0.650000*%
%ADD22R,0.600000X1.240000*%
%ADD23R,0.300000X1.240000*%
%ADD24O,1.000000X2.100000*%
%ADD25O,1.000000X1.800000*%
%ADD26RoundRect,0.250000X0.450000X-0.262500X0.450000X0.262500X-0.450000X0.262500X-0.450000X-0.262500X0*%
%ADD27RoundRect,0.250000X1.000000X0.650000X-1.000000X0.650000X-1.000000X-0.650000X1.000000X-0.650000X0*%
%ADD28RoundRect,0.250000X-0.625000X0.312500X-0.625000X-0.312500X0.625000X-0.312500X0.625000X0.312500X0*%
%ADD29RoundRect,0.250000X0.650000X-0.325000X0.650000X0.325000X-0.650000X0.325000X-0.650000X-0.325000X0*%
%ADD30RoundRect,0.250000X0.262500X0.450000X-0.262500X0.450000X-0.262500X-0.450000X0.262500X-0.450000X0*%
%ADD31R,1.000000X1.500000*%
%ADD32R,2.047500X2.241000*%
%ADD33RoundRect,0.150000X-0.150000X0.587500X-0.150000X-0.587500X0.150000X-0.587500X0.150000X0.587500X0*%
%ADD34RoundRect,0.250000X-1.100000X0.325000X-1.100000X-0.325000X1.100000X-0.325000X1.100000X0.325000X0*%
%ADD35RoundRect,0.250000X-0.475000X0.250000X-0.475000X-0.250000X0.475000X-0.250000X0.475000X0.250000X0*%
%ADD36RoundRect,0.250000X-0.250000X-0.475000X0.250000X-0.475000X0.250000X0.475000X-0.250000X0.475000X0*%
%ADD37RoundRect,0.600000X-1.400000X-1.400000X1.400000X-1.400000X1.400000X1.400000X-1.400000X1.400000X0*%
%ADD38RoundRect,0.218750X0.218750X0.256250X-0.218750X0.256250X-0.218750X-0.256250X0.218750X-0.256250X0*%
%ADD39RoundRect,0.175000X0.325000X-0.175000X0.325000X0.175000X-0.325000X0.175000X-0.325000X-0.175000X0*%
%ADD40RoundRect,0.150000X0.150000X-0.200000X0.150000X0.200000X-0.150000X0.200000X-0.150000X-0.200000X0*%
%ADD41RoundRect,0.200000X0.275000X-0.200000X0.275000X0.200000X-0.275000X0.200000X-0.275000X-0.200000X0*%
%ADD42R,1.500000X1.000000*%
%ADD43RoundRect,0.250000X0.625000X-0.312500X0.625000X0.312500X-0.625000X0.312500X-0.625000X-0.312500X0*%
%ADD44RoundRect,0.250000X0.475000X-0.250000X0.475000X0.250000X-0.475000X0.250000X-0.475000X-0.250000X0*%
%ADD45R,3.200000X2.400000*%
%ADD46RoundRect,0.225000X-0.225000X-0.250000X0.225000X-0.250000X0.225000X0.250000X-0.225000X0.250000X0*%
%ADD47RoundRect,0.250000X-0.450000X0.262500X-0.450000X-0.262500X0.450000X-0.262500X0.450000X0.262500X0*%
%ADD48RoundRect,0.250002X-1.699998X-1.699998X1.699998X-1.699998X1.699998X1.699998X-1.699998X1.699998X0*%
%ADD49C,3.900000*%
%ADD50R,1.600000X1.600000*%
%ADD51C,1.600000*%
%ADD52RoundRect,0.375000X0.375000X-0.625000X0.375000X0.625000X-0.375000X0.625000X-0.375000X-0.625000X0*%
%ADD53RoundRect,0.500000X1.400000X-0.500000X1.400000X0.500000X-1.400000X0.500000X-1.400000X-0.500000X0*%
%ADD54RoundRect,0.525400X0.525400X-0.900400X0.525400X0.900400X-0.525400X0.900400X-0.525400X-0.900400X0*%
%ADD55RoundRect,0.300400X-1.000400X-0.300400X1.000400X-0.300400X1.000400X0.300400X-1.000400X0.300400X0*%
%ADD56C,1.700000*%
%ADD57RoundRect,0.250000X0.250000X0.475000X-0.250000X0.475000X-0.250000X-0.475000X0.250000X-0.475000X0*%
%ADD58R,0.200000X0.565000*%
%ADD59R,0.400000X0.565000*%
%ADD60RoundRect,0.150000X-0.587500X-0.150000X0.587500X-0.150000X0.587500X0.150000X-0.587500X0.150000X0*%
%ADD61RoundRect,0.218750X0.256250X-0.218750X0.256250X0.218750X-0.256250X0.218750X-0.256250X-0.218750X0*%
%ADD62RoundRect,0.250000X0.825000X-0.825000X0.825000X0.825000X-0.825000X0.825000X-0.825000X-0.825000X0*%
%ADD63C,2.150000*%
G04 APERTURE END LIST*
%TO.C,JP1*%
G36*
X279400000Y-138000000D02*
G01*
X279700000Y-138000000D01*
X279700000Y-139500000D01*
X279400000Y-139500000D01*
X279400000Y-138000000D01*
G37*
%TO.C,JP2*%
G36*
X261750000Y-100250000D02*
G01*
X263250000Y-100250000D01*
X263250000Y-99950000D01*
X261750000Y-99950000D01*
X261750000Y-100250000D01*
G37*
D10*
%TO.C,U3*%
X266665000Y-132545000D02*
X266025000Y-132545000D01*
X266025000Y-130205000D01*
X266665000Y-130205000D01*
X266665000Y-132545000D01*
G36*
X266665000Y-132545000D02*
G01*
X266025000Y-132545000D01*
X266025000Y-130205000D01*
X266665000Y-130205000D01*
X266665000Y-132545000D01*
G37*
X266665000Y-138295000D02*
X266025000Y-138295000D01*
X266025000Y-135955000D01*
X266665000Y-135955000D01*
X266665000Y-138295000D01*
G36*
X266665000Y-138295000D02*
G01*
X266025000Y-138295000D01*
X266025000Y-135955000D01*
X266665000Y-135955000D01*
X266665000Y-138295000D01*
G37*
X269800000Y-135450000D02*
X266700000Y-135450000D01*
X266700000Y-133050000D01*
X269800000Y-133050000D01*
X269800000Y-135450000D01*
G36*
X269800000Y-135450000D02*
G01*
X266700000Y-135450000D01*
X266700000Y-133050000D01*
X269800000Y-133050000D01*
X269800000Y-135450000D01*
G37*
X267935000Y-132545000D02*
X267295000Y-132545000D01*
X267295000Y-130205000D01*
X267935000Y-130205000D01*
X267935000Y-132545000D01*
G36*
X267935000Y-132545000D02*
G01*
X267295000Y-132545000D01*
X267295000Y-130205000D01*
X267935000Y-130205000D01*
X267935000Y-132545000D01*
G37*
X267935000Y-138295000D02*
X267295000Y-138295000D01*
X267295000Y-135955000D01*
X267935000Y-135955000D01*
X267935000Y-138295000D01*
G36*
X267935000Y-138295000D02*
G01*
X267295000Y-138295000D01*
X267295000Y-135955000D01*
X267935000Y-135955000D01*
X267935000Y-138295000D01*
G37*
X269205000Y-132545000D02*
X268565000Y-132545000D01*
X268565000Y-130205000D01*
X269205000Y-130205000D01*
X269205000Y-132545000D01*
G36*
X269205000Y-132545000D02*
G01*
X268565000Y-132545000D01*
X268565000Y-130205000D01*
X269205000Y-130205000D01*
X269205000Y-132545000D01*
G37*
X269205000Y-138295000D02*
X268565000Y-138295000D01*
X268565000Y-135955000D01*
X269205000Y-135955000D01*
X269205000Y-138295000D01*
G36*
X269205000Y-138295000D02*
G01*
X268565000Y-138295000D01*
X268565000Y-135955000D01*
X269205000Y-135955000D01*
X269205000Y-138295000D01*
G37*
X270475000Y-132545000D02*
X269835000Y-132545000D01*
X269835000Y-130205000D01*
X270475000Y-130205000D01*
X270475000Y-132545000D01*
G36*
X270475000Y-132545000D02*
G01*
X269835000Y-132545000D01*
X269835000Y-130205000D01*
X270475000Y-130205000D01*
X270475000Y-132545000D01*
G37*
X270475000Y-138295000D02*
X269835000Y-138295000D01*
X269835000Y-135955000D01*
X270475000Y-135955000D01*
X270475000Y-138295000D01*
G36*
X270475000Y-138295000D02*
G01*
X269835000Y-138295000D01*
X269835000Y-135955000D01*
X270475000Y-135955000D01*
X270475000Y-138295000D01*
G37*
%TO.C,U5*%
X266313000Y-99881000D02*
X266319000Y-99881000D01*
X266325000Y-99883000D01*
X266331000Y-99884000D01*
X266337000Y-99886000D01*
X266343000Y-99888000D01*
X266349000Y-99890000D01*
X266354000Y-99893000D01*
X266360000Y-99896000D01*
X266365000Y-99899000D01*
X266371000Y-99903000D01*
X266376000Y-99907000D01*
X266380000Y-99911000D01*
X266385000Y-99915000D01*
X266389000Y-99920000D01*
X266393000Y-99924000D01*
X266397000Y-99929000D01*
X266401000Y-99935000D01*
X266404000Y-99940000D01*
X266407000Y-99946000D01*
X266410000Y-99951000D01*
X266412000Y-99957000D01*
X266414000Y-99963000D01*
X266416000Y-99969000D01*
X266417000Y-99975000D01*
X266419000Y-99981000D01*
X266419000Y-99987000D01*
X266420000Y-99994000D01*
X266420000Y-100000000D01*
X266420000Y-100100000D01*
X266420000Y-100106000D01*
X266419000Y-100113000D01*
X266419000Y-100119000D01*
X266417000Y-100125000D01*
X266416000Y-100131000D01*
X266414000Y-100137000D01*
X266412000Y-100143000D01*
X266410000Y-100149000D01*
X266407000Y-100154000D01*
X266404000Y-100160000D01*
X266401000Y-100165000D01*
X266397000Y-100171000D01*
X266393000Y-100176000D01*
X266389000Y-100180000D01*
X266385000Y-100185000D01*
X266380000Y-100189000D01*
X266376000Y-100193000D01*
X266371000Y-100197000D01*
X266365000Y-100201000D01*
X266360000Y-100204000D01*
X266354000Y-100207000D01*
X266349000Y-100210000D01*
X266343000Y-100212000D01*
X266337000Y-100214000D01*
X266331000Y-100216000D01*
X266325000Y-100217000D01*
X266319000Y-100219000D01*
X266313000Y-100219000D01*
X266306000Y-100220000D01*
X266300000Y-100220000D01*
X265800000Y-100220000D01*
X265794000Y-100220000D01*
X265787000Y-100219000D01*
X265781000Y-100219000D01*
X265775000Y-100217000D01*
X265769000Y-100216000D01*
X265763000Y-100214000D01*
X265757000Y-100212000D01*
X265751000Y-100210000D01*
X265746000Y-100207000D01*
X265740000Y-100204000D01*
X265735000Y-100201000D01*
X265729000Y-100197000D01*
X265724000Y-100193000D01*
X265720000Y-100189000D01*
X265715000Y-100185000D01*
X265711000Y-100180000D01*
X265707000Y-100176000D01*
X265703000Y-100171000D01*
X265699000Y-100165000D01*
X265696000Y-100160000D01*
X265693000Y-100154000D01*
X265690000Y-100149000D01*
X265688000Y-100143000D01*
X265686000Y-100137000D01*
X265684000Y-100131000D01*
X265683000Y-100125000D01*
X265681000Y-100119000D01*
X265681000Y-100113000D01*
X265680000Y-100106000D01*
X265680000Y-100100000D01*
X265680000Y-100000000D01*
X265680000Y-99994000D01*
X265681000Y-99987000D01*
X265681000Y-99981000D01*
X265683000Y-99975000D01*
X265684000Y-99969000D01*
X265686000Y-99963000D01*
X265688000Y-99957000D01*
X265690000Y-99951000D01*
X265693000Y-99946000D01*
X265696000Y-99940000D01*
X265699000Y-99935000D01*
X265703000Y-99929000D01*
X265707000Y-99924000D01*
X265711000Y-99920000D01*
X265715000Y-99915000D01*
X265720000Y-99911000D01*
X265724000Y-99907000D01*
X265729000Y-99903000D01*
X265735000Y-99899000D01*
X265740000Y-99896000D01*
X265746000Y-99893000D01*
X265751000Y-99890000D01*
X265757000Y-99888000D01*
X265763000Y-99886000D01*
X265769000Y-99884000D01*
X265775000Y-99883000D01*
X265781000Y-99881000D01*
X265787000Y-99881000D01*
X265794000Y-99880000D01*
X265800000Y-99880000D01*
X266300000Y-99880000D01*
X266306000Y-99880000D01*
X266313000Y-99881000D01*
G36*
X266313000Y-99881000D02*
G01*
X266319000Y-99881000D01*
X266325000Y-99883000D01*
X266331000Y-99884000D01*
X266337000Y-99886000D01*
X266343000Y-99888000D01*
X266349000Y-99890000D01*
X266354000Y-99893000D01*
X266360000Y-99896000D01*
X266365000Y-99899000D01*
X266371000Y-99903000D01*
X266376000Y-99907000D01*
X266380000Y-99911000D01*
X266385000Y-99915000D01*
X266389000Y-99920000D01*
X266393000Y-99924000D01*
X266397000Y-99929000D01*
X266401000Y-99935000D01*
X266404000Y-99940000D01*
X266407000Y-99946000D01*
X266410000Y-99951000D01*
X266412000Y-99957000D01*
X266414000Y-99963000D01*
X266416000Y-99969000D01*
X266417000Y-99975000D01*
X266419000Y-99981000D01*
X266419000Y-99987000D01*
X266420000Y-99994000D01*
X266420000Y-100000000D01*
X266420000Y-100100000D01*
X266420000Y-100106000D01*
X266419000Y-100113000D01*
X266419000Y-100119000D01*
X266417000Y-100125000D01*
X266416000Y-100131000D01*
X266414000Y-100137000D01*
X266412000Y-100143000D01*
X266410000Y-100149000D01*
X266407000Y-100154000D01*
X266404000Y-100160000D01*
X266401000Y-100165000D01*
X266397000Y-100171000D01*
X266393000Y-100176000D01*
X266389000Y-100180000D01*
X266385000Y-100185000D01*
X266380000Y-100189000D01*
X266376000Y-100193000D01*
X266371000Y-100197000D01*
X266365000Y-100201000D01*
X266360000Y-100204000D01*
X266354000Y-100207000D01*
X266349000Y-100210000D01*
X266343000Y-100212000D01*
X266337000Y-100214000D01*
X266331000Y-100216000D01*
X266325000Y-100217000D01*
X266319000Y-100219000D01*
X266313000Y-100219000D01*
X266306000Y-100220000D01*
X266300000Y-100220000D01*
X265800000Y-100220000D01*
X265794000Y-100220000D01*
X265787000Y-100219000D01*
X265781000Y-100219000D01*
X265775000Y-100217000D01*
X265769000Y-100216000D01*
X265763000Y-100214000D01*
X265757000Y-100212000D01*
X265751000Y-100210000D01*
X265746000Y-100207000D01*
X265740000Y-100204000D01*
X265735000Y-100201000D01*
X265729000Y-100197000D01*
X265724000Y-100193000D01*
X265720000Y-100189000D01*
X265715000Y-100185000D01*
X265711000Y-100180000D01*
X265707000Y-100176000D01*
X265703000Y-100171000D01*
X265699000Y-100165000D01*
X265696000Y-100160000D01*
X265693000Y-100154000D01*
X265690000Y-100149000D01*
X265688000Y-100143000D01*
X265686000Y-100137000D01*
X265684000Y-100131000D01*
X265683000Y-100125000D01*
X265681000Y-100119000D01*
X265681000Y-100113000D01*
X265680000Y-100106000D01*
X265680000Y-100100000D01*
X265680000Y-100000000D01*
X265680000Y-99994000D01*
X265681000Y-99987000D01*
X265681000Y-99981000D01*
X265683000Y-99975000D01*
X265684000Y-99969000D01*
X265686000Y-99963000D01*
X265688000Y-99957000D01*
X265690000Y-99951000D01*
X265693000Y-99946000D01*
X265696000Y-99940000D01*
X265699000Y-99935000D01*
X265703000Y-99929000D01*
X265707000Y-99924000D01*
X265711000Y-99920000D01*
X265715000Y-99915000D01*
X265720000Y-99911000D01*
X265724000Y-99907000D01*
X265729000Y-99903000D01*
X265735000Y-99899000D01*
X265740000Y-99896000D01*
X265746000Y-99893000D01*
X265751000Y-99890000D01*
X265757000Y-99888000D01*
X265763000Y-99886000D01*
X265769000Y-99884000D01*
X265775000Y-99883000D01*
X265781000Y-99881000D01*
X265787000Y-99881000D01*
X265794000Y-99880000D01*
X265800000Y-99880000D01*
X266300000Y-99880000D01*
X266306000Y-99880000D01*
X266313000Y-99881000D01*
G37*
X266313000Y-100381000D02*
X266319000Y-100381000D01*
X266325000Y-100383000D01*
X266331000Y-100384000D01*
X266337000Y-100386000D01*
X266343000Y-100388000D01*
X266349000Y-100390000D01*
X266354000Y-100393000D01*
X266360000Y-100396000D01*
X266365000Y-100399000D01*
X266371000Y-100403000D01*
X266376000Y-100407000D01*
X266380000Y-100411000D01*
X266385000Y-100415000D01*
X266389000Y-100420000D01*
X266393000Y-100424000D01*
X266397000Y-100429000D01*
X266401000Y-100435000D01*
X266404000Y-100440000D01*
X266407000Y-100446000D01*
X266410000Y-100451000D01*
X266412000Y-100457000D01*
X266414000Y-100463000D01*
X266416000Y-100469000D01*
X266417000Y-100475000D01*
X266419000Y-100481000D01*
X266419000Y-100487000D01*
X266420000Y-100494000D01*
X266420000Y-100500000D01*
X266420000Y-100600000D01*
X266420000Y-100606000D01*
X266419000Y-100613000D01*
X266419000Y-100619000D01*
X266417000Y-100625000D01*
X266416000Y-100631000D01*
X266414000Y-100637000D01*
X266412000Y-100643000D01*
X266410000Y-100649000D01*
X266407000Y-100654000D01*
X266404000Y-100660000D01*
X266401000Y-100665000D01*
X266397000Y-100671000D01*
X266393000Y-100676000D01*
X266389000Y-100680000D01*
X266385000Y-100685000D01*
X266380000Y-100689000D01*
X266376000Y-100693000D01*
X266371000Y-100697000D01*
X266365000Y-100701000D01*
X266360000Y-100704000D01*
X266354000Y-100707000D01*
X266349000Y-100710000D01*
X266343000Y-100712000D01*
X266337000Y-100714000D01*
X266331000Y-100716000D01*
X266325000Y-100717000D01*
X266319000Y-100719000D01*
X266313000Y-100719000D01*
X266306000Y-100720000D01*
X266300000Y-100720000D01*
X265800000Y-100720000D01*
X265794000Y-100720000D01*
X265787000Y-100719000D01*
X265781000Y-100719000D01*
X265775000Y-100717000D01*
X265769000Y-100716000D01*
X265763000Y-100714000D01*
X265757000Y-100712000D01*
X265751000Y-100710000D01*
X265746000Y-100707000D01*
X265740000Y-100704000D01*
X265735000Y-100701000D01*
X265729000Y-100697000D01*
X265724000Y-100693000D01*
X265720000Y-100689000D01*
X265715000Y-100685000D01*
X265711000Y-100680000D01*
X265707000Y-100676000D01*
X265703000Y-100671000D01*
X265699000Y-100665000D01*
X265696000Y-100660000D01*
X265693000Y-100654000D01*
X265690000Y-100649000D01*
X265688000Y-100643000D01*
X265686000Y-100637000D01*
X265684000Y-100631000D01*
X265683000Y-100625000D01*
X265681000Y-100619000D01*
X265681000Y-100613000D01*
X265680000Y-100606000D01*
X265680000Y-100600000D01*
X265680000Y-100500000D01*
X265680000Y-100494000D01*
X265681000Y-100487000D01*
X265681000Y-100481000D01*
X265683000Y-100475000D01*
X265684000Y-100469000D01*
X265686000Y-100463000D01*
X265688000Y-100457000D01*
X265690000Y-100451000D01*
X265693000Y-100446000D01*
X265696000Y-100440000D01*
X265699000Y-100435000D01*
X265703000Y-100429000D01*
X265707000Y-100424000D01*
X265711000Y-100420000D01*
X265715000Y-100415000D01*
X265720000Y-100411000D01*
X265724000Y-100407000D01*
X265729000Y-100403000D01*
X265735000Y-100399000D01*
X265740000Y-100396000D01*
X265746000Y-100393000D01*
X265751000Y-100390000D01*
X265757000Y-100388000D01*
X265763000Y-100386000D01*
X265769000Y-100384000D01*
X265775000Y-100383000D01*
X265781000Y-100381000D01*
X265787000Y-100381000D01*
X265794000Y-100380000D01*
X265800000Y-100380000D01*
X266300000Y-100380000D01*
X266306000Y-100380000D01*
X266313000Y-100381000D01*
G36*
X266313000Y-100381000D02*
G01*
X266319000Y-100381000D01*
X266325000Y-100383000D01*
X266331000Y-100384000D01*
X266337000Y-100386000D01*
X266343000Y-100388000D01*
X266349000Y-100390000D01*
X266354000Y-100393000D01*
X266360000Y-100396000D01*
X266365000Y-100399000D01*
X266371000Y-100403000D01*
X266376000Y-100407000D01*
X266380000Y-100411000D01*
X266385000Y-100415000D01*
X266389000Y-100420000D01*
X266393000Y-100424000D01*
X266397000Y-100429000D01*
X266401000Y-100435000D01*
X266404000Y-100440000D01*
X266407000Y-100446000D01*
X266410000Y-100451000D01*
X266412000Y-100457000D01*
X266414000Y-100463000D01*
X266416000Y-100469000D01*
X266417000Y-100475000D01*
X266419000Y-100481000D01*
X266419000Y-100487000D01*
X266420000Y-100494000D01*
X266420000Y-100500000D01*
X266420000Y-100600000D01*
X266420000Y-100606000D01*
X266419000Y-100613000D01*
X266419000Y-100619000D01*
X266417000Y-100625000D01*
X266416000Y-100631000D01*
X266414000Y-100637000D01*
X266412000Y-100643000D01*
X266410000Y-100649000D01*
X266407000Y-100654000D01*
X266404000Y-100660000D01*
X266401000Y-100665000D01*
X266397000Y-100671000D01*
X266393000Y-100676000D01*
X266389000Y-100680000D01*
X266385000Y-100685000D01*
X266380000Y-100689000D01*
X266376000Y-100693000D01*
X266371000Y-100697000D01*
X266365000Y-100701000D01*
X266360000Y-100704000D01*
X266354000Y-100707000D01*
X266349000Y-100710000D01*
X266343000Y-100712000D01*
X266337000Y-100714000D01*
X266331000Y-100716000D01*
X266325000Y-100717000D01*
X266319000Y-100719000D01*
X266313000Y-100719000D01*
X266306000Y-100720000D01*
X266300000Y-100720000D01*
X265800000Y-100720000D01*
X265794000Y-100720000D01*
X265787000Y-100719000D01*
X265781000Y-100719000D01*
X265775000Y-100717000D01*
X265769000Y-100716000D01*
X265763000Y-100714000D01*
X265757000Y-100712000D01*
X265751000Y-100710000D01*
X265746000Y-100707000D01*
X265740000Y-100704000D01*
X265735000Y-100701000D01*
X265729000Y-100697000D01*
X265724000Y-100693000D01*
X265720000Y-100689000D01*
X265715000Y-100685000D01*
X265711000Y-100680000D01*
X265707000Y-100676000D01*
X265703000Y-100671000D01*
X265699000Y-100665000D01*
X265696000Y-100660000D01*
X265693000Y-100654000D01*
X265690000Y-100649000D01*
X265688000Y-100643000D01*
X265686000Y-100637000D01*
X265684000Y-100631000D01*
X265683000Y-100625000D01*
X265681000Y-100619000D01*
X265681000Y-100613000D01*
X265680000Y-100606000D01*
X265680000Y-100600000D01*
X265680000Y-100500000D01*
X265680000Y-100494000D01*
X265681000Y-100487000D01*
X265681000Y-100481000D01*
X265683000Y-100475000D01*
X265684000Y-100469000D01*
X265686000Y-100463000D01*
X265688000Y-100457000D01*
X265690000Y-100451000D01*
X265693000Y-100446000D01*
X265696000Y-100440000D01*
X265699000Y-100435000D01*
X265703000Y-100429000D01*
X265707000Y-100424000D01*
X265711000Y-100420000D01*
X265715000Y-100415000D01*
X265720000Y-100411000D01*
X265724000Y-100407000D01*
X265729000Y-100403000D01*
X265735000Y-100399000D01*
X265740000Y-100396000D01*
X265746000Y-100393000D01*
X265751000Y-100390000D01*
X265757000Y-100388000D01*
X265763000Y-100386000D01*
X265769000Y-100384000D01*
X265775000Y-100383000D01*
X265781000Y-100381000D01*
X265787000Y-100381000D01*
X265794000Y-100380000D01*
X265800000Y-100380000D01*
X266300000Y-100380000D01*
X266306000Y-100380000D01*
X266313000Y-100381000D01*
G37*
X266313000Y-100881000D02*
X266319000Y-100881000D01*
X266325000Y-100883000D01*
X266331000Y-100884000D01*
X266337000Y-100886000D01*
X266343000Y-100888000D01*
X266349000Y-100890000D01*
X266354000Y-100893000D01*
X266360000Y-100896000D01*
X266365000Y-100899000D01*
X266371000Y-100903000D01*
X266376000Y-100907000D01*
X266380000Y-100911000D01*
X266385000Y-100915000D01*
X266389000Y-100920000D01*
X266393000Y-100924000D01*
X266397000Y-100929000D01*
X266401000Y-100935000D01*
X266404000Y-100940000D01*
X266407000Y-100946000D01*
X266410000Y-100951000D01*
X266412000Y-100957000D01*
X266414000Y-100963000D01*
X266416000Y-100969000D01*
X266417000Y-100975000D01*
X266419000Y-100981000D01*
X266419000Y-100987000D01*
X266420000Y-100994000D01*
X266420000Y-101000000D01*
X266420000Y-101100000D01*
X266420000Y-101106000D01*
X266419000Y-101113000D01*
X266419000Y-101119000D01*
X266417000Y-101125000D01*
X266416000Y-101131000D01*
X266414000Y-101137000D01*
X266412000Y-101143000D01*
X266410000Y-101149000D01*
X266407000Y-101154000D01*
X266404000Y-101160000D01*
X266401000Y-101165000D01*
X266397000Y-101171000D01*
X266393000Y-101176000D01*
X266389000Y-101180000D01*
X266385000Y-101185000D01*
X266380000Y-101189000D01*
X266376000Y-101193000D01*
X266371000Y-101197000D01*
X266365000Y-101201000D01*
X266360000Y-101204000D01*
X266354000Y-101207000D01*
X266349000Y-101210000D01*
X266343000Y-101212000D01*
X266337000Y-101214000D01*
X266331000Y-101216000D01*
X266325000Y-101217000D01*
X266319000Y-101219000D01*
X266313000Y-101219000D01*
X266306000Y-101220000D01*
X266300000Y-101220000D01*
X265800000Y-101220000D01*
X265794000Y-101220000D01*
X265787000Y-101219000D01*
X265781000Y-101219000D01*
X265775000Y-101217000D01*
X265769000Y-101216000D01*
X265763000Y-101214000D01*
X265757000Y-101212000D01*
X265751000Y-101210000D01*
X265746000Y-101207000D01*
X265740000Y-101204000D01*
X265735000Y-101201000D01*
X265729000Y-101197000D01*
X265724000Y-101193000D01*
X265720000Y-101189000D01*
X265715000Y-101185000D01*
X265711000Y-101180000D01*
X265707000Y-101176000D01*
X265703000Y-101171000D01*
X265699000Y-101165000D01*
X265696000Y-101160000D01*
X265693000Y-101154000D01*
X265690000Y-101149000D01*
X265688000Y-101143000D01*
X265686000Y-101137000D01*
X265684000Y-101131000D01*
X265683000Y-101125000D01*
X265681000Y-101119000D01*
X265681000Y-101113000D01*
X265680000Y-101106000D01*
X265680000Y-101100000D01*
X265680000Y-101000000D01*
X265680000Y-100994000D01*
X265681000Y-100987000D01*
X265681000Y-100981000D01*
X265683000Y-100975000D01*
X265684000Y-100969000D01*
X265686000Y-100963000D01*
X265688000Y-100957000D01*
X265690000Y-100951000D01*
X265693000Y-100946000D01*
X265696000Y-100940000D01*
X265699000Y-100935000D01*
X265703000Y-100929000D01*
X265707000Y-100924000D01*
X265711000Y-100920000D01*
X265715000Y-100915000D01*
X265720000Y-100911000D01*
X265724000Y-100907000D01*
X265729000Y-100903000D01*
X265735000Y-100899000D01*
X265740000Y-100896000D01*
X265746000Y-100893000D01*
X265751000Y-100890000D01*
X265757000Y-100888000D01*
X265763000Y-100886000D01*
X265769000Y-100884000D01*
X265775000Y-100883000D01*
X265781000Y-100881000D01*
X265787000Y-100881000D01*
X265794000Y-100880000D01*
X265800000Y-100880000D01*
X266300000Y-100880000D01*
X266306000Y-100880000D01*
X266313000Y-100881000D01*
G36*
X266313000Y-100881000D02*
G01*
X266319000Y-100881000D01*
X266325000Y-100883000D01*
X266331000Y-100884000D01*
X266337000Y-100886000D01*
X266343000Y-100888000D01*
X266349000Y-100890000D01*
X266354000Y-100893000D01*
X266360000Y-100896000D01*
X266365000Y-100899000D01*
X266371000Y-100903000D01*
X266376000Y-100907000D01*
X266380000Y-100911000D01*
X266385000Y-100915000D01*
X266389000Y-100920000D01*
X266393000Y-100924000D01*
X266397000Y-100929000D01*
X266401000Y-100935000D01*
X266404000Y-100940000D01*
X266407000Y-100946000D01*
X266410000Y-100951000D01*
X266412000Y-100957000D01*
X266414000Y-100963000D01*
X266416000Y-100969000D01*
X266417000Y-100975000D01*
X266419000Y-100981000D01*
X266419000Y-100987000D01*
X266420000Y-100994000D01*
X266420000Y-101000000D01*
X266420000Y-101100000D01*
X266420000Y-101106000D01*
X266419000Y-101113000D01*
X266419000Y-101119000D01*
X266417000Y-101125000D01*
X266416000Y-101131000D01*
X266414000Y-101137000D01*
X266412000Y-101143000D01*
X266410000Y-101149000D01*
X266407000Y-101154000D01*
X266404000Y-101160000D01*
X266401000Y-101165000D01*
X266397000Y-101171000D01*
X266393000Y-101176000D01*
X266389000Y-101180000D01*
X266385000Y-101185000D01*
X266380000Y-101189000D01*
X266376000Y-101193000D01*
X266371000Y-101197000D01*
X266365000Y-101201000D01*
X266360000Y-101204000D01*
X266354000Y-101207000D01*
X266349000Y-101210000D01*
X266343000Y-101212000D01*
X266337000Y-101214000D01*
X266331000Y-101216000D01*
X266325000Y-101217000D01*
X266319000Y-101219000D01*
X266313000Y-101219000D01*
X266306000Y-101220000D01*
X266300000Y-101220000D01*
X265800000Y-101220000D01*
X265794000Y-101220000D01*
X265787000Y-101219000D01*
X265781000Y-101219000D01*
X265775000Y-101217000D01*
X265769000Y-101216000D01*
X265763000Y-101214000D01*
X265757000Y-101212000D01*
X265751000Y-101210000D01*
X265746000Y-101207000D01*
X265740000Y-101204000D01*
X265735000Y-101201000D01*
X265729000Y-101197000D01*
X265724000Y-101193000D01*
X265720000Y-101189000D01*
X265715000Y-101185000D01*
X265711000Y-101180000D01*
X265707000Y-101176000D01*
X265703000Y-101171000D01*
X265699000Y-101165000D01*
X265696000Y-101160000D01*
X265693000Y-101154000D01*
X265690000Y-101149000D01*
X265688000Y-101143000D01*
X265686000Y-101137000D01*
X265684000Y-101131000D01*
X265683000Y-101125000D01*
X265681000Y-101119000D01*
X265681000Y-101113000D01*
X265680000Y-101106000D01*
X265680000Y-101100000D01*
X265680000Y-101000000D01*
X265680000Y-100994000D01*
X265681000Y-100987000D01*
X265681000Y-100981000D01*
X265683000Y-100975000D01*
X265684000Y-100969000D01*
X265686000Y-100963000D01*
X265688000Y-100957000D01*
X265690000Y-100951000D01*
X265693000Y-100946000D01*
X265696000Y-100940000D01*
X265699000Y-100935000D01*
X265703000Y-100929000D01*
X265707000Y-100924000D01*
X265711000Y-100920000D01*
X265715000Y-100915000D01*
X265720000Y-100911000D01*
X265724000Y-100907000D01*
X265729000Y-100903000D01*
X265735000Y-100899000D01*
X265740000Y-100896000D01*
X265746000Y-100893000D01*
X265751000Y-100890000D01*
X265757000Y-100888000D01*
X265763000Y-100886000D01*
X265769000Y-100884000D01*
X265775000Y-100883000D01*
X265781000Y-100881000D01*
X265787000Y-100881000D01*
X265794000Y-100880000D01*
X265800000Y-100880000D01*
X266300000Y-100880000D01*
X266306000Y-100880000D01*
X266313000Y-100881000D01*
G37*
X266313000Y-101381000D02*
X266319000Y-101381000D01*
X266325000Y-101383000D01*
X266331000Y-101384000D01*
X266337000Y-101386000D01*
X266343000Y-101388000D01*
X266349000Y-101390000D01*
X266354000Y-101393000D01*
X266360000Y-101396000D01*
X266365000Y-101399000D01*
X266371000Y-101403000D01*
X266376000Y-101407000D01*
X266380000Y-101411000D01*
X266385000Y-101415000D01*
X266389000Y-101420000D01*
X266393000Y-101424000D01*
X266397000Y-101429000D01*
X266401000Y-101435000D01*
X266404000Y-101440000D01*
X266407000Y-101446000D01*
X266410000Y-101451000D01*
X266412000Y-101457000D01*
X266414000Y-101463000D01*
X266416000Y-101469000D01*
X266417000Y-101475000D01*
X266419000Y-101481000D01*
X266419000Y-101487000D01*
X266420000Y-101494000D01*
X266420000Y-101500000D01*
X266420000Y-101600000D01*
X266420000Y-101606000D01*
X266419000Y-101613000D01*
X266419000Y-101619000D01*
X266417000Y-101625000D01*
X266416000Y-101631000D01*
X266414000Y-101637000D01*
X266412000Y-101643000D01*
X266410000Y-101649000D01*
X266407000Y-101654000D01*
X266404000Y-101660000D01*
X266401000Y-101665000D01*
X266397000Y-101671000D01*
X266393000Y-101676000D01*
X266389000Y-101680000D01*
X266385000Y-101685000D01*
X266380000Y-101689000D01*
X266376000Y-101693000D01*
X266371000Y-101697000D01*
X266365000Y-101701000D01*
X266360000Y-101704000D01*
X266354000Y-101707000D01*
X266349000Y-101710000D01*
X266343000Y-101712000D01*
X266337000Y-101714000D01*
X266331000Y-101716000D01*
X266325000Y-101717000D01*
X266319000Y-101719000D01*
X266313000Y-101719000D01*
X266306000Y-101720000D01*
X266300000Y-101720000D01*
X265800000Y-101720000D01*
X265794000Y-101720000D01*
X265787000Y-101719000D01*
X265781000Y-101719000D01*
X265775000Y-101717000D01*
X265769000Y-101716000D01*
X265763000Y-101714000D01*
X265757000Y-101712000D01*
X265751000Y-101710000D01*
X265746000Y-101707000D01*
X265740000Y-101704000D01*
X265735000Y-101701000D01*
X265729000Y-101697000D01*
X265724000Y-101693000D01*
X265720000Y-101689000D01*
X265715000Y-101685000D01*
X265711000Y-101680000D01*
X265707000Y-101676000D01*
X265703000Y-101671000D01*
X265699000Y-101665000D01*
X265696000Y-101660000D01*
X265693000Y-101654000D01*
X265690000Y-101649000D01*
X265688000Y-101643000D01*
X265686000Y-101637000D01*
X265684000Y-101631000D01*
X265683000Y-101625000D01*
X265681000Y-101619000D01*
X265681000Y-101613000D01*
X265680000Y-101606000D01*
X265680000Y-101600000D01*
X265680000Y-101500000D01*
X265680000Y-101494000D01*
X265681000Y-101487000D01*
X265681000Y-101481000D01*
X265683000Y-101475000D01*
X265684000Y-101469000D01*
X265686000Y-101463000D01*
X265688000Y-101457000D01*
X265690000Y-101451000D01*
X265693000Y-101446000D01*
X265696000Y-101440000D01*
X265699000Y-101435000D01*
X265703000Y-101429000D01*
X265707000Y-101424000D01*
X265711000Y-101420000D01*
X265715000Y-101415000D01*
X265720000Y-101411000D01*
X265724000Y-101407000D01*
X265729000Y-101403000D01*
X265735000Y-101399000D01*
X265740000Y-101396000D01*
X265746000Y-101393000D01*
X265751000Y-101390000D01*
X265757000Y-101388000D01*
X265763000Y-101386000D01*
X265769000Y-101384000D01*
X265775000Y-101383000D01*
X265781000Y-101381000D01*
X265787000Y-101381000D01*
X265794000Y-101380000D01*
X265800000Y-101380000D01*
X266300000Y-101380000D01*
X266306000Y-101380000D01*
X266313000Y-101381000D01*
G36*
X266313000Y-101381000D02*
G01*
X266319000Y-101381000D01*
X266325000Y-101383000D01*
X266331000Y-101384000D01*
X266337000Y-101386000D01*
X266343000Y-101388000D01*
X266349000Y-101390000D01*
X266354000Y-101393000D01*
X266360000Y-101396000D01*
X266365000Y-101399000D01*
X266371000Y-101403000D01*
X266376000Y-101407000D01*
X266380000Y-101411000D01*
X266385000Y-101415000D01*
X266389000Y-101420000D01*
X266393000Y-101424000D01*
X266397000Y-101429000D01*
X266401000Y-101435000D01*
X266404000Y-101440000D01*
X266407000Y-101446000D01*
X266410000Y-101451000D01*
X266412000Y-101457000D01*
X266414000Y-101463000D01*
X266416000Y-101469000D01*
X266417000Y-101475000D01*
X266419000Y-101481000D01*
X266419000Y-101487000D01*
X266420000Y-101494000D01*
X266420000Y-101500000D01*
X266420000Y-101600000D01*
X266420000Y-101606000D01*
X266419000Y-101613000D01*
X266419000Y-101619000D01*
X266417000Y-101625000D01*
X266416000Y-101631000D01*
X266414000Y-101637000D01*
X266412000Y-101643000D01*
X266410000Y-101649000D01*
X266407000Y-101654000D01*
X266404000Y-101660000D01*
X266401000Y-101665000D01*
X266397000Y-101671000D01*
X266393000Y-101676000D01*
X266389000Y-101680000D01*
X266385000Y-101685000D01*
X266380000Y-101689000D01*
X266376000Y-101693000D01*
X266371000Y-101697000D01*
X266365000Y-101701000D01*
X266360000Y-101704000D01*
X266354000Y-101707000D01*
X266349000Y-101710000D01*
X266343000Y-101712000D01*
X266337000Y-101714000D01*
X266331000Y-101716000D01*
X266325000Y-101717000D01*
X266319000Y-101719000D01*
X266313000Y-101719000D01*
X266306000Y-101720000D01*
X266300000Y-101720000D01*
X265800000Y-101720000D01*
X265794000Y-101720000D01*
X265787000Y-101719000D01*
X265781000Y-101719000D01*
X265775000Y-101717000D01*
X265769000Y-101716000D01*
X265763000Y-101714000D01*
X265757000Y-101712000D01*
X265751000Y-101710000D01*
X265746000Y-101707000D01*
X265740000Y-101704000D01*
X265735000Y-101701000D01*
X265729000Y-101697000D01*
X265724000Y-101693000D01*
X265720000Y-101689000D01*
X265715000Y-101685000D01*
X265711000Y-101680000D01*
X265707000Y-101676000D01*
X265703000Y-101671000D01*
X265699000Y-101665000D01*
X265696000Y-101660000D01*
X265693000Y-101654000D01*
X265690000Y-101649000D01*
X265688000Y-101643000D01*
X265686000Y-101637000D01*
X265684000Y-101631000D01*
X265683000Y-101625000D01*
X265681000Y-101619000D01*
X265681000Y-101613000D01*
X265680000Y-101606000D01*
X265680000Y-101600000D01*
X265680000Y-101500000D01*
X265680000Y-101494000D01*
X265681000Y-101487000D01*
X265681000Y-101481000D01*
X265683000Y-101475000D01*
X265684000Y-101469000D01*
X265686000Y-101463000D01*
X265688000Y-101457000D01*
X265690000Y-101451000D01*
X265693000Y-101446000D01*
X265696000Y-101440000D01*
X265699000Y-101435000D01*
X265703000Y-101429000D01*
X265707000Y-101424000D01*
X265711000Y-101420000D01*
X265715000Y-101415000D01*
X265720000Y-101411000D01*
X265724000Y-101407000D01*
X265729000Y-101403000D01*
X265735000Y-101399000D01*
X265740000Y-101396000D01*
X265746000Y-101393000D01*
X265751000Y-101390000D01*
X265757000Y-101388000D01*
X265763000Y-101386000D01*
X265769000Y-101384000D01*
X265775000Y-101383000D01*
X265781000Y-101381000D01*
X265787000Y-101381000D01*
X265794000Y-101380000D01*
X265800000Y-101380000D01*
X266300000Y-101380000D01*
X266306000Y-101380000D01*
X266313000Y-101381000D01*
G37*
X266763000Y-99031000D02*
X266769000Y-99031000D01*
X266775000Y-99033000D01*
X266781000Y-99034000D01*
X266787000Y-99036000D01*
X266793000Y-99038000D01*
X266799000Y-99040000D01*
X266804000Y-99043000D01*
X266810000Y-99046000D01*
X266815000Y-99049000D01*
X266821000Y-99053000D01*
X266826000Y-99057000D01*
X266830000Y-99061000D01*
X266835000Y-99065000D01*
X266839000Y-99070000D01*
X266843000Y-99074000D01*
X266847000Y-99079000D01*
X266851000Y-99085000D01*
X266854000Y-99090000D01*
X266857000Y-99096000D01*
X266860000Y-99101000D01*
X266862000Y-99107000D01*
X266864000Y-99113000D01*
X266866000Y-99119000D01*
X266867000Y-99125000D01*
X266869000Y-99131000D01*
X266869000Y-99137000D01*
X266870000Y-99144000D01*
X266870000Y-99150000D01*
X266870000Y-99650000D01*
X266870000Y-99656000D01*
X266869000Y-99663000D01*
X266869000Y-99669000D01*
X266867000Y-99675000D01*
X266866000Y-99681000D01*
X266864000Y-99687000D01*
X266862000Y-99693000D01*
X266860000Y-99699000D01*
X266857000Y-99704000D01*
X266854000Y-99710000D01*
X266851000Y-99715000D01*
X266847000Y-99721000D01*
X266843000Y-99726000D01*
X266839000Y-99730000D01*
X266835000Y-99735000D01*
X266830000Y-99739000D01*
X266826000Y-99743000D01*
X266821000Y-99747000D01*
X266815000Y-99751000D01*
X266810000Y-99754000D01*
X266804000Y-99757000D01*
X266799000Y-99760000D01*
X266793000Y-99762000D01*
X266787000Y-99764000D01*
X266781000Y-99766000D01*
X266775000Y-99767000D01*
X266769000Y-99769000D01*
X266763000Y-99769000D01*
X266756000Y-99770000D01*
X266750000Y-99770000D01*
X266650000Y-99770000D01*
X266644000Y-99770000D01*
X266637000Y-99769000D01*
X266631000Y-99769000D01*
X266625000Y-99767000D01*
X266619000Y-99766000D01*
X266613000Y-99764000D01*
X266607000Y-99762000D01*
X266601000Y-99760000D01*
X266596000Y-99757000D01*
X266590000Y-99754000D01*
X266585000Y-99751000D01*
X266579000Y-99747000D01*
X266574000Y-99743000D01*
X266570000Y-99739000D01*
X266565000Y-99735000D01*
X266561000Y-99730000D01*
X266557000Y-99726000D01*
X266553000Y-99721000D01*
X266549000Y-99715000D01*
X266546000Y-99710000D01*
X266543000Y-99704000D01*
X266540000Y-99699000D01*
X266538000Y-99693000D01*
X266536000Y-99687000D01*
X266534000Y-99681000D01*
X266533000Y-99675000D01*
X266531000Y-99669000D01*
X266531000Y-99663000D01*
X266530000Y-99656000D01*
X266530000Y-99650000D01*
X266530000Y-99150000D01*
X266530000Y-99144000D01*
X266531000Y-99137000D01*
X266531000Y-99131000D01*
X266533000Y-99125000D01*
X266534000Y-99119000D01*
X266536000Y-99113000D01*
X266538000Y-99107000D01*
X266540000Y-99101000D01*
X266543000Y-99096000D01*
X266546000Y-99090000D01*
X266549000Y-99085000D01*
X266553000Y-99079000D01*
X266557000Y-99074000D01*
X266561000Y-99070000D01*
X266565000Y-99065000D01*
X266570000Y-99061000D01*
X266574000Y-99057000D01*
X266579000Y-99053000D01*
X266585000Y-99049000D01*
X266590000Y-99046000D01*
X266596000Y-99043000D01*
X266601000Y-99040000D01*
X266607000Y-99038000D01*
X266613000Y-99036000D01*
X266619000Y-99034000D01*
X266625000Y-99033000D01*
X266631000Y-99031000D01*
X266637000Y-99031000D01*
X266644000Y-99030000D01*
X266650000Y-99030000D01*
X266750000Y-99030000D01*
X266756000Y-99030000D01*
X266763000Y-99031000D01*
G36*
X266763000Y-99031000D02*
G01*
X266769000Y-99031000D01*
X266775000Y-99033000D01*
X266781000Y-99034000D01*
X266787000Y-99036000D01*
X266793000Y-99038000D01*
X266799000Y-99040000D01*
X266804000Y-99043000D01*
X266810000Y-99046000D01*
X266815000Y-99049000D01*
X266821000Y-99053000D01*
X266826000Y-99057000D01*
X266830000Y-99061000D01*
X266835000Y-99065000D01*
X266839000Y-99070000D01*
X266843000Y-99074000D01*
X266847000Y-99079000D01*
X266851000Y-99085000D01*
X266854000Y-99090000D01*
X266857000Y-99096000D01*
X266860000Y-99101000D01*
X266862000Y-99107000D01*
X266864000Y-99113000D01*
X266866000Y-99119000D01*
X266867000Y-99125000D01*
X266869000Y-99131000D01*
X266869000Y-99137000D01*
X266870000Y-99144000D01*
X266870000Y-99150000D01*
X266870000Y-99650000D01*
X266870000Y-99656000D01*
X266869000Y-99663000D01*
X266869000Y-99669000D01*
X266867000Y-99675000D01*
X266866000Y-99681000D01*
X266864000Y-99687000D01*
X266862000Y-99693000D01*
X266860000Y-99699000D01*
X266857000Y-99704000D01*
X266854000Y-99710000D01*
X266851000Y-99715000D01*
X266847000Y-99721000D01*
X266843000Y-99726000D01*
X266839000Y-99730000D01*
X266835000Y-99735000D01*
X266830000Y-99739000D01*
X266826000Y-99743000D01*
X266821000Y-99747000D01*
X266815000Y-99751000D01*
X266810000Y-99754000D01*
X266804000Y-99757000D01*
X266799000Y-99760000D01*
X266793000Y-99762000D01*
X266787000Y-99764000D01*
X266781000Y-99766000D01*
X266775000Y-99767000D01*
X266769000Y-99769000D01*
X266763000Y-99769000D01*
X266756000Y-99770000D01*
X266750000Y-99770000D01*
X266650000Y-99770000D01*
X266644000Y-99770000D01*
X266637000Y-99769000D01*
X266631000Y-99769000D01*
X266625000Y-99767000D01*
X266619000Y-99766000D01*
X266613000Y-99764000D01*
X266607000Y-99762000D01*
X266601000Y-99760000D01*
X266596000Y-99757000D01*
X266590000Y-99754000D01*
X266585000Y-99751000D01*
X266579000Y-99747000D01*
X266574000Y-99743000D01*
X266570000Y-99739000D01*
X266565000Y-99735000D01*
X266561000Y-99730000D01*
X266557000Y-99726000D01*
X266553000Y-99721000D01*
X266549000Y-99715000D01*
X266546000Y-99710000D01*
X266543000Y-99704000D01*
X266540000Y-99699000D01*
X266538000Y-99693000D01*
X266536000Y-99687000D01*
X266534000Y-99681000D01*
X266533000Y-99675000D01*
X266531000Y-99669000D01*
X266531000Y-99663000D01*
X266530000Y-99656000D01*
X266530000Y-99650000D01*
X266530000Y-99150000D01*
X266530000Y-99144000D01*
X266531000Y-99137000D01*
X266531000Y-99131000D01*
X266533000Y-99125000D01*
X266534000Y-99119000D01*
X266536000Y-99113000D01*
X266538000Y-99107000D01*
X266540000Y-99101000D01*
X266543000Y-99096000D01*
X266546000Y-99090000D01*
X266549000Y-99085000D01*
X266553000Y-99079000D01*
X266557000Y-99074000D01*
X266561000Y-99070000D01*
X266565000Y-99065000D01*
X266570000Y-99061000D01*
X266574000Y-99057000D01*
X266579000Y-99053000D01*
X266585000Y-99049000D01*
X266590000Y-99046000D01*
X266596000Y-99043000D01*
X266601000Y-99040000D01*
X266607000Y-99038000D01*
X266613000Y-99036000D01*
X266619000Y-99034000D01*
X266625000Y-99033000D01*
X266631000Y-99031000D01*
X266637000Y-99031000D01*
X266644000Y-99030000D01*
X266650000Y-99030000D01*
X266750000Y-99030000D01*
X266756000Y-99030000D01*
X266763000Y-99031000D01*
G37*
X266763000Y-101831000D02*
X266769000Y-101831000D01*
X266775000Y-101833000D01*
X266781000Y-101834000D01*
X266787000Y-101836000D01*
X266793000Y-101838000D01*
X266799000Y-101840000D01*
X266804000Y-101843000D01*
X266810000Y-101846000D01*
X266815000Y-101849000D01*
X266821000Y-101853000D01*
X266826000Y-101857000D01*
X266830000Y-101861000D01*
X266835000Y-101865000D01*
X266839000Y-101870000D01*
X266843000Y-101874000D01*
X266847000Y-101879000D01*
X266851000Y-101885000D01*
X266854000Y-101890000D01*
X266857000Y-101896000D01*
X266860000Y-101901000D01*
X266862000Y-101907000D01*
X266864000Y-101913000D01*
X266866000Y-101919000D01*
X266867000Y-101925000D01*
X266869000Y-101931000D01*
X266869000Y-101937000D01*
X266870000Y-101944000D01*
X266870000Y-101950000D01*
X266870000Y-102450000D01*
X266870000Y-102456000D01*
X266869000Y-102463000D01*
X266869000Y-102469000D01*
X266867000Y-102475000D01*
X266866000Y-102481000D01*
X266864000Y-102487000D01*
X266862000Y-102493000D01*
X266860000Y-102499000D01*
X266857000Y-102504000D01*
X266854000Y-102510000D01*
X266851000Y-102515000D01*
X266847000Y-102521000D01*
X266843000Y-102526000D01*
X266839000Y-102530000D01*
X266835000Y-102535000D01*
X266830000Y-102539000D01*
X266826000Y-102543000D01*
X266821000Y-102547000D01*
X266815000Y-102551000D01*
X266810000Y-102554000D01*
X266804000Y-102557000D01*
X266799000Y-102560000D01*
X266793000Y-102562000D01*
X266787000Y-102564000D01*
X266781000Y-102566000D01*
X266775000Y-102567000D01*
X266769000Y-102569000D01*
X266763000Y-102569000D01*
X266756000Y-102570000D01*
X266750000Y-102570000D01*
X266650000Y-102570000D01*
X266644000Y-102570000D01*
X266637000Y-102569000D01*
X266631000Y-102569000D01*
X266625000Y-102567000D01*
X266619000Y-102566000D01*
X266613000Y-102564000D01*
X266607000Y-102562000D01*
X266601000Y-102560000D01*
X266596000Y-102557000D01*
X266590000Y-102554000D01*
X266585000Y-102551000D01*
X266579000Y-102547000D01*
X266574000Y-102543000D01*
X266570000Y-102539000D01*
X266565000Y-102535000D01*
X266561000Y-102530000D01*
X266557000Y-102526000D01*
X266553000Y-102521000D01*
X266549000Y-102515000D01*
X266546000Y-102510000D01*
X266543000Y-102504000D01*
X266540000Y-102499000D01*
X266538000Y-102493000D01*
X266536000Y-102487000D01*
X266534000Y-102481000D01*
X266533000Y-102475000D01*
X266531000Y-102469000D01*
X266531000Y-102463000D01*
X266530000Y-102456000D01*
X266530000Y-102450000D01*
X266530000Y-101950000D01*
X266530000Y-101944000D01*
X266531000Y-101937000D01*
X266531000Y-101931000D01*
X266533000Y-101925000D01*
X266534000Y-101919000D01*
X266536000Y-101913000D01*
X266538000Y-101907000D01*
X266540000Y-101901000D01*
X266543000Y-101896000D01*
X266546000Y-101890000D01*
X266549000Y-101885000D01*
X266553000Y-101879000D01*
X266557000Y-101874000D01*
X266561000Y-101870000D01*
X266565000Y-101865000D01*
X266570000Y-101861000D01*
X266574000Y-101857000D01*
X266579000Y-101853000D01*
X266585000Y-101849000D01*
X266590000Y-101846000D01*
X266596000Y-101843000D01*
X266601000Y-101840000D01*
X266607000Y-101838000D01*
X266613000Y-101836000D01*
X266619000Y-101834000D01*
X266625000Y-101833000D01*
X266631000Y-101831000D01*
X266637000Y-101831000D01*
X266644000Y-101830000D01*
X266650000Y-101830000D01*
X266750000Y-101830000D01*
X266756000Y-101830000D01*
X266763000Y-101831000D01*
G36*
X266763000Y-101831000D02*
G01*
X266769000Y-101831000D01*
X266775000Y-101833000D01*
X266781000Y-101834000D01*
X266787000Y-101836000D01*
X266793000Y-101838000D01*
X266799000Y-101840000D01*
X266804000Y-101843000D01*
X266810000Y-101846000D01*
X266815000Y-101849000D01*
X266821000Y-101853000D01*
X266826000Y-101857000D01*
X266830000Y-101861000D01*
X266835000Y-101865000D01*
X266839000Y-101870000D01*
X266843000Y-101874000D01*
X266847000Y-101879000D01*
X266851000Y-101885000D01*
X266854000Y-101890000D01*
X266857000Y-101896000D01*
X266860000Y-101901000D01*
X266862000Y-101907000D01*
X266864000Y-101913000D01*
X266866000Y-101919000D01*
X266867000Y-101925000D01*
X266869000Y-101931000D01*
X266869000Y-101937000D01*
X266870000Y-101944000D01*
X266870000Y-101950000D01*
X266870000Y-102450000D01*
X266870000Y-102456000D01*
X266869000Y-102463000D01*
X266869000Y-102469000D01*
X266867000Y-102475000D01*
X266866000Y-102481000D01*
X266864000Y-102487000D01*
X266862000Y-102493000D01*
X266860000Y-102499000D01*
X266857000Y-102504000D01*
X266854000Y-102510000D01*
X266851000Y-102515000D01*
X266847000Y-102521000D01*
X266843000Y-102526000D01*
X266839000Y-102530000D01*
X266835000Y-102535000D01*
X266830000Y-102539000D01*
X266826000Y-102543000D01*
X266821000Y-102547000D01*
X266815000Y-102551000D01*
X266810000Y-102554000D01*
X266804000Y-102557000D01*
X266799000Y-102560000D01*
X266793000Y-102562000D01*
X266787000Y-102564000D01*
X266781000Y-102566000D01*
X266775000Y-102567000D01*
X266769000Y-102569000D01*
X266763000Y-102569000D01*
X266756000Y-102570000D01*
X266750000Y-102570000D01*
X266650000Y-102570000D01*
X266644000Y-102570000D01*
X266637000Y-102569000D01*
X266631000Y-102569000D01*
X266625000Y-102567000D01*
X266619000Y-102566000D01*
X266613000Y-102564000D01*
X266607000Y-102562000D01*
X266601000Y-102560000D01*
X266596000Y-102557000D01*
X266590000Y-102554000D01*
X266585000Y-102551000D01*
X266579000Y-102547000D01*
X266574000Y-102543000D01*
X266570000Y-102539000D01*
X266565000Y-102535000D01*
X266561000Y-102530000D01*
X266557000Y-102526000D01*
X266553000Y-102521000D01*
X266549000Y-102515000D01*
X266546000Y-102510000D01*
X266543000Y-102504000D01*
X266540000Y-102499000D01*
X266538000Y-102493000D01*
X266536000Y-102487000D01*
X266534000Y-102481000D01*
X266533000Y-102475000D01*
X266531000Y-102469000D01*
X266531000Y-102463000D01*
X266530000Y-102456000D01*
X266530000Y-102450000D01*
X266530000Y-101950000D01*
X266530000Y-101944000D01*
X266531000Y-101937000D01*
X266531000Y-101931000D01*
X266533000Y-101925000D01*
X266534000Y-101919000D01*
X266536000Y-101913000D01*
X266538000Y-101907000D01*
X266540000Y-101901000D01*
X266543000Y-101896000D01*
X266546000Y-101890000D01*
X266549000Y-101885000D01*
X266553000Y-101879000D01*
X266557000Y-101874000D01*
X266561000Y-101870000D01*
X266565000Y-101865000D01*
X266570000Y-101861000D01*
X266574000Y-101857000D01*
X266579000Y-101853000D01*
X266585000Y-101849000D01*
X266590000Y-101846000D01*
X266596000Y-101843000D01*
X266601000Y-101840000D01*
X266607000Y-101838000D01*
X266613000Y-101836000D01*
X266619000Y-101834000D01*
X266625000Y-101833000D01*
X266631000Y-101831000D01*
X266637000Y-101831000D01*
X266644000Y-101830000D01*
X266650000Y-101830000D01*
X266750000Y-101830000D01*
X266756000Y-101830000D01*
X266763000Y-101831000D01*
G37*
X267263000Y-99031000D02*
X267269000Y-99031000D01*
X267275000Y-99033000D01*
X267281000Y-99034000D01*
X267287000Y-99036000D01*
X267293000Y-99038000D01*
X267299000Y-99040000D01*
X267304000Y-99043000D01*
X267310000Y-99046000D01*
X267315000Y-99049000D01*
X267321000Y-99053000D01*
X267326000Y-99057000D01*
X267330000Y-99061000D01*
X267335000Y-99065000D01*
X267339000Y-99070000D01*
X267343000Y-99074000D01*
X267347000Y-99079000D01*
X267351000Y-99085000D01*
X267354000Y-99090000D01*
X267357000Y-99096000D01*
X267360000Y-99101000D01*
X267362000Y-99107000D01*
X267364000Y-99113000D01*
X267366000Y-99119000D01*
X267367000Y-99125000D01*
X267369000Y-99131000D01*
X267369000Y-99137000D01*
X267370000Y-99144000D01*
X267370000Y-99150000D01*
X267370000Y-99650000D01*
X267370000Y-99656000D01*
X267369000Y-99663000D01*
X267369000Y-99669000D01*
X267367000Y-99675000D01*
X267366000Y-99681000D01*
X267364000Y-99687000D01*
X267362000Y-99693000D01*
X267360000Y-99699000D01*
X267357000Y-99704000D01*
X267354000Y-99710000D01*
X267351000Y-99715000D01*
X267347000Y-99721000D01*
X267343000Y-99726000D01*
X267339000Y-99730000D01*
X267335000Y-99735000D01*
X267330000Y-99739000D01*
X267326000Y-99743000D01*
X267321000Y-99747000D01*
X267315000Y-99751000D01*
X267310000Y-99754000D01*
X267304000Y-99757000D01*
X267299000Y-99760000D01*
X267293000Y-99762000D01*
X267287000Y-99764000D01*
X267281000Y-99766000D01*
X267275000Y-99767000D01*
X267269000Y-99769000D01*
X267263000Y-99769000D01*
X267256000Y-99770000D01*
X267250000Y-99770000D01*
X267150000Y-99770000D01*
X267144000Y-99770000D01*
X267137000Y-99769000D01*
X267131000Y-99769000D01*
X267125000Y-99767000D01*
X267119000Y-99766000D01*
X267113000Y-99764000D01*
X267107000Y-99762000D01*
X267101000Y-99760000D01*
X267096000Y-99757000D01*
X267090000Y-99754000D01*
X267085000Y-99751000D01*
X267079000Y-99747000D01*
X267074000Y-99743000D01*
X267070000Y-99739000D01*
X267065000Y-99735000D01*
X267061000Y-99730000D01*
X267057000Y-99726000D01*
X267053000Y-99721000D01*
X267049000Y-99715000D01*
X267046000Y-99710000D01*
X267043000Y-99704000D01*
X267040000Y-99699000D01*
X267038000Y-99693000D01*
X267036000Y-99687000D01*
X267034000Y-99681000D01*
X267033000Y-99675000D01*
X267031000Y-99669000D01*
X267031000Y-99663000D01*
X267030000Y-99656000D01*
X267030000Y-99650000D01*
X267030000Y-99150000D01*
X267030000Y-99144000D01*
X267031000Y-99137000D01*
X267031000Y-99131000D01*
X267033000Y-99125000D01*
X267034000Y-99119000D01*
X267036000Y-99113000D01*
X267038000Y-99107000D01*
X267040000Y-99101000D01*
X267043000Y-99096000D01*
X267046000Y-99090000D01*
X267049000Y-99085000D01*
X267053000Y-99079000D01*
X267057000Y-99074000D01*
X267061000Y-99070000D01*
X267065000Y-99065000D01*
X267070000Y-99061000D01*
X267074000Y-99057000D01*
X267079000Y-99053000D01*
X267085000Y-99049000D01*
X267090000Y-99046000D01*
X267096000Y-99043000D01*
X267101000Y-99040000D01*
X267107000Y-99038000D01*
X267113000Y-99036000D01*
X267119000Y-99034000D01*
X267125000Y-99033000D01*
X267131000Y-99031000D01*
X267137000Y-99031000D01*
X267144000Y-99030000D01*
X267150000Y-99030000D01*
X267250000Y-99030000D01*
X267256000Y-99030000D01*
X267263000Y-99031000D01*
G36*
X267263000Y-99031000D02*
G01*
X267269000Y-99031000D01*
X267275000Y-99033000D01*
X267281000Y-99034000D01*
X267287000Y-99036000D01*
X267293000Y-99038000D01*
X267299000Y-99040000D01*
X267304000Y-99043000D01*
X267310000Y-99046000D01*
X267315000Y-99049000D01*
X267321000Y-99053000D01*
X267326000Y-99057000D01*
X267330000Y-99061000D01*
X267335000Y-99065000D01*
X267339000Y-99070000D01*
X267343000Y-99074000D01*
X267347000Y-99079000D01*
X267351000Y-99085000D01*
X267354000Y-99090000D01*
X267357000Y-99096000D01*
X267360000Y-99101000D01*
X267362000Y-99107000D01*
X267364000Y-99113000D01*
X267366000Y-99119000D01*
X267367000Y-99125000D01*
X267369000Y-99131000D01*
X267369000Y-99137000D01*
X267370000Y-99144000D01*
X267370000Y-99150000D01*
X267370000Y-99650000D01*
X267370000Y-99656000D01*
X267369000Y-99663000D01*
X267369000Y-99669000D01*
X267367000Y-99675000D01*
X267366000Y-99681000D01*
X267364000Y-99687000D01*
X267362000Y-99693000D01*
X267360000Y-99699000D01*
X267357000Y-99704000D01*
X267354000Y-99710000D01*
X267351000Y-99715000D01*
X267347000Y-99721000D01*
X267343000Y-99726000D01*
X267339000Y-99730000D01*
X267335000Y-99735000D01*
X267330000Y-99739000D01*
X267326000Y-99743000D01*
X267321000Y-99747000D01*
X267315000Y-99751000D01*
X267310000Y-99754000D01*
X267304000Y-99757000D01*
X267299000Y-99760000D01*
X267293000Y-99762000D01*
X267287000Y-99764000D01*
X267281000Y-99766000D01*
X267275000Y-99767000D01*
X267269000Y-99769000D01*
X267263000Y-99769000D01*
X267256000Y-99770000D01*
X267250000Y-99770000D01*
X267150000Y-99770000D01*
X267144000Y-99770000D01*
X267137000Y-99769000D01*
X267131000Y-99769000D01*
X267125000Y-99767000D01*
X267119000Y-99766000D01*
X267113000Y-99764000D01*
X267107000Y-99762000D01*
X267101000Y-99760000D01*
X267096000Y-99757000D01*
X267090000Y-99754000D01*
X267085000Y-99751000D01*
X267079000Y-99747000D01*
X267074000Y-99743000D01*
X267070000Y-99739000D01*
X267065000Y-99735000D01*
X267061000Y-99730000D01*
X267057000Y-99726000D01*
X267053000Y-99721000D01*
X267049000Y-99715000D01*
X267046000Y-99710000D01*
X267043000Y-99704000D01*
X267040000Y-99699000D01*
X267038000Y-99693000D01*
X267036000Y-99687000D01*
X267034000Y-99681000D01*
X267033000Y-99675000D01*
X267031000Y-99669000D01*
X267031000Y-99663000D01*
X267030000Y-99656000D01*
X267030000Y-99650000D01*
X267030000Y-99150000D01*
X267030000Y-99144000D01*
X267031000Y-99137000D01*
X267031000Y-99131000D01*
X267033000Y-99125000D01*
X267034000Y-99119000D01*
X267036000Y-99113000D01*
X267038000Y-99107000D01*
X267040000Y-99101000D01*
X267043000Y-99096000D01*
X267046000Y-99090000D01*
X267049000Y-99085000D01*
X267053000Y-99079000D01*
X267057000Y-99074000D01*
X267061000Y-99070000D01*
X267065000Y-99065000D01*
X267070000Y-99061000D01*
X267074000Y-99057000D01*
X267079000Y-99053000D01*
X267085000Y-99049000D01*
X267090000Y-99046000D01*
X267096000Y-99043000D01*
X267101000Y-99040000D01*
X267107000Y-99038000D01*
X267113000Y-99036000D01*
X267119000Y-99034000D01*
X267125000Y-99033000D01*
X267131000Y-99031000D01*
X267137000Y-99031000D01*
X267144000Y-99030000D01*
X267150000Y-99030000D01*
X267250000Y-99030000D01*
X267256000Y-99030000D01*
X267263000Y-99031000D01*
G37*
X267263000Y-101831000D02*
X267269000Y-101831000D01*
X267275000Y-101833000D01*
X267281000Y-101834000D01*
X267287000Y-101836000D01*
X267293000Y-101838000D01*
X267299000Y-101840000D01*
X267304000Y-101843000D01*
X267310000Y-101846000D01*
X267315000Y-101849000D01*
X267321000Y-101853000D01*
X267326000Y-101857000D01*
X267330000Y-101861000D01*
X267335000Y-101865000D01*
X267339000Y-101870000D01*
X267343000Y-101874000D01*
X267347000Y-101879000D01*
X267351000Y-101885000D01*
X267354000Y-101890000D01*
X267357000Y-101896000D01*
X267360000Y-101901000D01*
X267362000Y-101907000D01*
X267364000Y-101913000D01*
X267366000Y-101919000D01*
X267367000Y-101925000D01*
X267369000Y-101931000D01*
X267369000Y-101937000D01*
X267370000Y-101944000D01*
X267370000Y-101950000D01*
X267370000Y-102450000D01*
X267370000Y-102456000D01*
X267369000Y-102463000D01*
X267369000Y-102469000D01*
X267367000Y-102475000D01*
X267366000Y-102481000D01*
X267364000Y-102487000D01*
X267362000Y-102493000D01*
X267360000Y-102499000D01*
X267357000Y-102504000D01*
X267354000Y-102510000D01*
X267351000Y-102515000D01*
X267347000Y-102521000D01*
X267343000Y-102526000D01*
X267339000Y-102530000D01*
X267335000Y-102535000D01*
X267330000Y-102539000D01*
X267326000Y-102543000D01*
X267321000Y-102547000D01*
X267315000Y-102551000D01*
X267310000Y-102554000D01*
X267304000Y-102557000D01*
X267299000Y-102560000D01*
X267293000Y-102562000D01*
X267287000Y-102564000D01*
X267281000Y-102566000D01*
X267275000Y-102567000D01*
X267269000Y-102569000D01*
X267263000Y-102569000D01*
X267256000Y-102570000D01*
X267250000Y-102570000D01*
X267150000Y-102570000D01*
X267144000Y-102570000D01*
X267137000Y-102569000D01*
X267131000Y-102569000D01*
X267125000Y-102567000D01*
X267119000Y-102566000D01*
X267113000Y-102564000D01*
X267107000Y-102562000D01*
X267101000Y-102560000D01*
X267096000Y-102557000D01*
X267090000Y-102554000D01*
X267085000Y-102551000D01*
X267079000Y-102547000D01*
X267074000Y-102543000D01*
X267070000Y-102539000D01*
X267065000Y-102535000D01*
X267061000Y-102530000D01*
X267057000Y-102526000D01*
X267053000Y-102521000D01*
X267049000Y-102515000D01*
X267046000Y-102510000D01*
X267043000Y-102504000D01*
X267040000Y-102499000D01*
X267038000Y-102493000D01*
X267036000Y-102487000D01*
X267034000Y-102481000D01*
X267033000Y-102475000D01*
X267031000Y-102469000D01*
X267031000Y-102463000D01*
X267030000Y-102456000D01*
X267030000Y-102450000D01*
X267030000Y-101950000D01*
X267030000Y-101944000D01*
X267031000Y-101937000D01*
X267031000Y-101931000D01*
X267033000Y-101925000D01*
X267034000Y-101919000D01*
X267036000Y-101913000D01*
X267038000Y-101907000D01*
X267040000Y-101901000D01*
X267043000Y-101896000D01*
X267046000Y-101890000D01*
X267049000Y-101885000D01*
X267053000Y-101879000D01*
X267057000Y-101874000D01*
X267061000Y-101870000D01*
X267065000Y-101865000D01*
X267070000Y-101861000D01*
X267074000Y-101857000D01*
X267079000Y-101853000D01*
X267085000Y-101849000D01*
X267090000Y-101846000D01*
X267096000Y-101843000D01*
X267101000Y-101840000D01*
X267107000Y-101838000D01*
X267113000Y-101836000D01*
X267119000Y-101834000D01*
X267125000Y-101833000D01*
X267131000Y-101831000D01*
X267137000Y-101831000D01*
X267144000Y-101830000D01*
X267150000Y-101830000D01*
X267250000Y-101830000D01*
X267256000Y-101830000D01*
X267263000Y-101831000D01*
G36*
X267263000Y-101831000D02*
G01*
X267269000Y-101831000D01*
X267275000Y-101833000D01*
X267281000Y-101834000D01*
X267287000Y-101836000D01*
X267293000Y-101838000D01*
X267299000Y-101840000D01*
X267304000Y-101843000D01*
X267310000Y-101846000D01*
X267315000Y-101849000D01*
X267321000Y-101853000D01*
X267326000Y-101857000D01*
X267330000Y-101861000D01*
X267335000Y-101865000D01*
X267339000Y-101870000D01*
X267343000Y-101874000D01*
X267347000Y-101879000D01*
X267351000Y-101885000D01*
X267354000Y-101890000D01*
X267357000Y-101896000D01*
X267360000Y-101901000D01*
X267362000Y-101907000D01*
X267364000Y-101913000D01*
X267366000Y-101919000D01*
X267367000Y-101925000D01*
X267369000Y-101931000D01*
X267369000Y-101937000D01*
X267370000Y-101944000D01*
X267370000Y-101950000D01*
X267370000Y-102450000D01*
X267370000Y-102456000D01*
X267369000Y-102463000D01*
X267369000Y-102469000D01*
X267367000Y-102475000D01*
X267366000Y-102481000D01*
X267364000Y-102487000D01*
X267362000Y-102493000D01*
X267360000Y-102499000D01*
X267357000Y-102504000D01*
X267354000Y-102510000D01*
X267351000Y-102515000D01*
X267347000Y-102521000D01*
X267343000Y-102526000D01*
X267339000Y-102530000D01*
X267335000Y-102535000D01*
X267330000Y-102539000D01*
X267326000Y-102543000D01*
X267321000Y-102547000D01*
X267315000Y-102551000D01*
X267310000Y-102554000D01*
X267304000Y-102557000D01*
X267299000Y-102560000D01*
X267293000Y-102562000D01*
X267287000Y-102564000D01*
X267281000Y-102566000D01*
X267275000Y-102567000D01*
X267269000Y-102569000D01*
X267263000Y-102569000D01*
X267256000Y-102570000D01*
X267250000Y-102570000D01*
X267150000Y-102570000D01*
X267144000Y-102570000D01*
X267137000Y-102569000D01*
X267131000Y-102569000D01*
X267125000Y-102567000D01*
X267119000Y-102566000D01*
X267113000Y-102564000D01*
X267107000Y-102562000D01*
X267101000Y-102560000D01*
X267096000Y-102557000D01*
X267090000Y-102554000D01*
X267085000Y-102551000D01*
X267079000Y-102547000D01*
X267074000Y-102543000D01*
X267070000Y-102539000D01*
X267065000Y-102535000D01*
X267061000Y-102530000D01*
X267057000Y-102526000D01*
X267053000Y-102521000D01*
X267049000Y-102515000D01*
X267046000Y-102510000D01*
X267043000Y-102504000D01*
X267040000Y-102499000D01*
X267038000Y-102493000D01*
X267036000Y-102487000D01*
X267034000Y-102481000D01*
X267033000Y-102475000D01*
X267031000Y-102469000D01*
X267031000Y-102463000D01*
X267030000Y-102456000D01*
X267030000Y-102450000D01*
X267030000Y-101950000D01*
X267030000Y-101944000D01*
X267031000Y-101937000D01*
X267031000Y-101931000D01*
X267033000Y-101925000D01*
X267034000Y-101919000D01*
X267036000Y-101913000D01*
X267038000Y-101907000D01*
X267040000Y-101901000D01*
X267043000Y-101896000D01*
X267046000Y-101890000D01*
X267049000Y-101885000D01*
X267053000Y-101879000D01*
X267057000Y-101874000D01*
X267061000Y-101870000D01*
X267065000Y-101865000D01*
X267070000Y-101861000D01*
X267074000Y-101857000D01*
X267079000Y-101853000D01*
X267085000Y-101849000D01*
X267090000Y-101846000D01*
X267096000Y-101843000D01*
X267101000Y-101840000D01*
X267107000Y-101838000D01*
X267113000Y-101836000D01*
X267119000Y-101834000D01*
X267125000Y-101833000D01*
X267131000Y-101831000D01*
X267137000Y-101831000D01*
X267144000Y-101830000D01*
X267150000Y-101830000D01*
X267250000Y-101830000D01*
X267256000Y-101830000D01*
X267263000Y-101831000D01*
G37*
X267763000Y-99031000D02*
X267769000Y-99031000D01*
X267775000Y-99033000D01*
X267781000Y-99034000D01*
X267787000Y-99036000D01*
X267793000Y-99038000D01*
X267799000Y-99040000D01*
X267804000Y-99043000D01*
X267810000Y-99046000D01*
X267815000Y-99049000D01*
X267821000Y-99053000D01*
X267826000Y-99057000D01*
X267830000Y-99061000D01*
X267835000Y-99065000D01*
X267839000Y-99070000D01*
X267843000Y-99074000D01*
X267847000Y-99079000D01*
X267851000Y-99085000D01*
X267854000Y-99090000D01*
X267857000Y-99096000D01*
X267860000Y-99101000D01*
X267862000Y-99107000D01*
X267864000Y-99113000D01*
X267866000Y-99119000D01*
X267867000Y-99125000D01*
X267869000Y-99131000D01*
X267869000Y-99137000D01*
X267870000Y-99144000D01*
X267870000Y-99150000D01*
X267870000Y-99650000D01*
X267870000Y-99656000D01*
X267869000Y-99663000D01*
X267869000Y-99669000D01*
X267867000Y-99675000D01*
X267866000Y-99681000D01*
X267864000Y-99687000D01*
X267862000Y-99693000D01*
X267860000Y-99699000D01*
X267857000Y-99704000D01*
X267854000Y-99710000D01*
X267851000Y-99715000D01*
X267847000Y-99721000D01*
X267843000Y-99726000D01*
X267839000Y-99730000D01*
X267835000Y-99735000D01*
X267830000Y-99739000D01*
X267826000Y-99743000D01*
X267821000Y-99747000D01*
X267815000Y-99751000D01*
X267810000Y-99754000D01*
X267804000Y-99757000D01*
X267799000Y-99760000D01*
X267793000Y-99762000D01*
X267787000Y-99764000D01*
X267781000Y-99766000D01*
X267775000Y-99767000D01*
X267769000Y-99769000D01*
X267763000Y-99769000D01*
X267756000Y-99770000D01*
X267750000Y-99770000D01*
X267650000Y-99770000D01*
X267644000Y-99770000D01*
X267637000Y-99769000D01*
X267631000Y-99769000D01*
X267625000Y-99767000D01*
X267619000Y-99766000D01*
X267613000Y-99764000D01*
X267607000Y-99762000D01*
X267601000Y-99760000D01*
X267596000Y-99757000D01*
X267590000Y-99754000D01*
X267585000Y-99751000D01*
X267579000Y-99747000D01*
X267574000Y-99743000D01*
X267570000Y-99739000D01*
X267565000Y-99735000D01*
X267561000Y-99730000D01*
X267557000Y-99726000D01*
X267553000Y-99721000D01*
X267549000Y-99715000D01*
X267546000Y-99710000D01*
X267543000Y-99704000D01*
X267540000Y-99699000D01*
X267538000Y-99693000D01*
X267536000Y-99687000D01*
X267534000Y-99681000D01*
X267533000Y-99675000D01*
X267531000Y-99669000D01*
X267531000Y-99663000D01*
X267530000Y-99656000D01*
X267530000Y-99650000D01*
X267530000Y-99150000D01*
X267530000Y-99144000D01*
X267531000Y-99137000D01*
X267531000Y-99131000D01*
X267533000Y-99125000D01*
X267534000Y-99119000D01*
X267536000Y-99113000D01*
X267538000Y-99107000D01*
X267540000Y-99101000D01*
X267543000Y-99096000D01*
X267546000Y-99090000D01*
X267549000Y-99085000D01*
X267553000Y-99079000D01*
X267557000Y-99074000D01*
X267561000Y-99070000D01*
X267565000Y-99065000D01*
X267570000Y-99061000D01*
X267574000Y-99057000D01*
X267579000Y-99053000D01*
X267585000Y-99049000D01*
X267590000Y-99046000D01*
X267596000Y-99043000D01*
X267601000Y-99040000D01*
X267607000Y-99038000D01*
X267613000Y-99036000D01*
X267619000Y-99034000D01*
X267625000Y-99033000D01*
X267631000Y-99031000D01*
X267637000Y-99031000D01*
X267644000Y-99030000D01*
X267650000Y-99030000D01*
X267750000Y-99030000D01*
X267756000Y-99030000D01*
X267763000Y-99031000D01*
G36*
X267763000Y-99031000D02*
G01*
X267769000Y-99031000D01*
X267775000Y-99033000D01*
X267781000Y-99034000D01*
X267787000Y-99036000D01*
X267793000Y-99038000D01*
X267799000Y-99040000D01*
X267804000Y-99043000D01*
X267810000Y-99046000D01*
X267815000Y-99049000D01*
X267821000Y-99053000D01*
X267826000Y-99057000D01*
X267830000Y-99061000D01*
X267835000Y-99065000D01*
X267839000Y-99070000D01*
X267843000Y-99074000D01*
X267847000Y-99079000D01*
X267851000Y-99085000D01*
X267854000Y-99090000D01*
X267857000Y-99096000D01*
X267860000Y-99101000D01*
X267862000Y-99107000D01*
X267864000Y-99113000D01*
X267866000Y-99119000D01*
X267867000Y-99125000D01*
X267869000Y-99131000D01*
X267869000Y-99137000D01*
X267870000Y-99144000D01*
X267870000Y-99150000D01*
X267870000Y-99650000D01*
X267870000Y-99656000D01*
X267869000Y-99663000D01*
X267869000Y-99669000D01*
X267867000Y-99675000D01*
X267866000Y-99681000D01*
X267864000Y-99687000D01*
X267862000Y-99693000D01*
X267860000Y-99699000D01*
X267857000Y-99704000D01*
X267854000Y-99710000D01*
X267851000Y-99715000D01*
X267847000Y-99721000D01*
X267843000Y-99726000D01*
X267839000Y-99730000D01*
X267835000Y-99735000D01*
X267830000Y-99739000D01*
X267826000Y-99743000D01*
X267821000Y-99747000D01*
X267815000Y-99751000D01*
X267810000Y-99754000D01*
X267804000Y-99757000D01*
X267799000Y-99760000D01*
X267793000Y-99762000D01*
X267787000Y-99764000D01*
X267781000Y-99766000D01*
X267775000Y-99767000D01*
X267769000Y-99769000D01*
X267763000Y-99769000D01*
X267756000Y-99770000D01*
X267750000Y-99770000D01*
X267650000Y-99770000D01*
X267644000Y-99770000D01*
X267637000Y-99769000D01*
X267631000Y-99769000D01*
X267625000Y-99767000D01*
X267619000Y-99766000D01*
X267613000Y-99764000D01*
X267607000Y-99762000D01*
X267601000Y-99760000D01*
X267596000Y-99757000D01*
X267590000Y-99754000D01*
X267585000Y-99751000D01*
X267579000Y-99747000D01*
X267574000Y-99743000D01*
X267570000Y-99739000D01*
X267565000Y-99735000D01*
X267561000Y-99730000D01*
X267557000Y-99726000D01*
X267553000Y-99721000D01*
X267549000Y-99715000D01*
X267546000Y-99710000D01*
X267543000Y-99704000D01*
X267540000Y-99699000D01*
X267538000Y-99693000D01*
X267536000Y-99687000D01*
X267534000Y-99681000D01*
X267533000Y-99675000D01*
X267531000Y-99669000D01*
X267531000Y-99663000D01*
X267530000Y-99656000D01*
X267530000Y-99650000D01*
X267530000Y-99150000D01*
X267530000Y-99144000D01*
X267531000Y-99137000D01*
X267531000Y-99131000D01*
X267533000Y-99125000D01*
X267534000Y-99119000D01*
X267536000Y-99113000D01*
X267538000Y-99107000D01*
X267540000Y-99101000D01*
X267543000Y-99096000D01*
X267546000Y-99090000D01*
X267549000Y-99085000D01*
X267553000Y-99079000D01*
X267557000Y-99074000D01*
X267561000Y-99070000D01*
X267565000Y-99065000D01*
X267570000Y-99061000D01*
X267574000Y-99057000D01*
X267579000Y-99053000D01*
X267585000Y-99049000D01*
X267590000Y-99046000D01*
X267596000Y-99043000D01*
X267601000Y-99040000D01*
X267607000Y-99038000D01*
X267613000Y-99036000D01*
X267619000Y-99034000D01*
X267625000Y-99033000D01*
X267631000Y-99031000D01*
X267637000Y-99031000D01*
X267644000Y-99030000D01*
X267650000Y-99030000D01*
X267750000Y-99030000D01*
X267756000Y-99030000D01*
X267763000Y-99031000D01*
G37*
X267763000Y-101831000D02*
X267769000Y-101831000D01*
X267775000Y-101833000D01*
X267781000Y-101834000D01*
X267787000Y-101836000D01*
X267793000Y-101838000D01*
X267799000Y-101840000D01*
X267804000Y-101843000D01*
X267810000Y-101846000D01*
X267815000Y-101849000D01*
X267821000Y-101853000D01*
X267826000Y-101857000D01*
X267830000Y-101861000D01*
X267835000Y-101865000D01*
X267839000Y-101870000D01*
X267843000Y-101874000D01*
X267847000Y-101879000D01*
X267851000Y-101885000D01*
X267854000Y-101890000D01*
X267857000Y-101896000D01*
X267860000Y-101901000D01*
X267862000Y-101907000D01*
X267864000Y-101913000D01*
X267866000Y-101919000D01*
X267867000Y-101925000D01*
X267869000Y-101931000D01*
X267869000Y-101937000D01*
X267870000Y-101944000D01*
X267870000Y-101950000D01*
X267870000Y-102450000D01*
X267870000Y-102456000D01*
X267869000Y-102463000D01*
X267869000Y-102469000D01*
X267867000Y-102475000D01*
X267866000Y-102481000D01*
X267864000Y-102487000D01*
X267862000Y-102493000D01*
X267860000Y-102499000D01*
X267857000Y-102504000D01*
X267854000Y-102510000D01*
X267851000Y-102515000D01*
X267847000Y-102521000D01*
X267843000Y-102526000D01*
X267839000Y-102530000D01*
X267835000Y-102535000D01*
X267830000Y-102539000D01*
X267826000Y-102543000D01*
X267821000Y-102547000D01*
X267815000Y-102551000D01*
X267810000Y-102554000D01*
X267804000Y-102557000D01*
X267799000Y-102560000D01*
X267793000Y-102562000D01*
X267787000Y-102564000D01*
X267781000Y-102566000D01*
X267775000Y-102567000D01*
X267769000Y-102569000D01*
X267763000Y-102569000D01*
X267756000Y-102570000D01*
X267750000Y-102570000D01*
X267650000Y-102570000D01*
X267644000Y-102570000D01*
X267637000Y-102569000D01*
X267631000Y-102569000D01*
X267625000Y-102567000D01*
X267619000Y-102566000D01*
X267613000Y-102564000D01*
X267607000Y-102562000D01*
X267601000Y-102560000D01*
X267596000Y-102557000D01*
X267590000Y-102554000D01*
X267585000Y-102551000D01*
X267579000Y-102547000D01*
X267574000Y-102543000D01*
X267570000Y-102539000D01*
X267565000Y-102535000D01*
X267561000Y-102530000D01*
X267557000Y-102526000D01*
X267553000Y-102521000D01*
X267549000Y-102515000D01*
X267546000Y-102510000D01*
X267543000Y-102504000D01*
X267540000Y-102499000D01*
X267538000Y-102493000D01*
X267536000Y-102487000D01*
X267534000Y-102481000D01*
X267533000Y-102475000D01*
X267531000Y-102469000D01*
X267531000Y-102463000D01*
X267530000Y-102456000D01*
X267530000Y-102450000D01*
X267530000Y-101950000D01*
X267530000Y-101944000D01*
X267531000Y-101937000D01*
X267531000Y-101931000D01*
X267533000Y-101925000D01*
X267534000Y-101919000D01*
X267536000Y-101913000D01*
X267538000Y-101907000D01*
X267540000Y-101901000D01*
X267543000Y-101896000D01*
X267546000Y-101890000D01*
X267549000Y-101885000D01*
X267553000Y-101879000D01*
X267557000Y-101874000D01*
X267561000Y-101870000D01*
X267565000Y-101865000D01*
X267570000Y-101861000D01*
X267574000Y-101857000D01*
X267579000Y-101853000D01*
X267585000Y-101849000D01*
X267590000Y-101846000D01*
X267596000Y-101843000D01*
X267601000Y-101840000D01*
X267607000Y-101838000D01*
X267613000Y-101836000D01*
X267619000Y-101834000D01*
X267625000Y-101833000D01*
X267631000Y-101831000D01*
X267637000Y-101831000D01*
X267644000Y-101830000D01*
X267650000Y-101830000D01*
X267750000Y-101830000D01*
X267756000Y-101830000D01*
X267763000Y-101831000D01*
G36*
X267763000Y-101831000D02*
G01*
X267769000Y-101831000D01*
X267775000Y-101833000D01*
X267781000Y-101834000D01*
X267787000Y-101836000D01*
X267793000Y-101838000D01*
X267799000Y-101840000D01*
X267804000Y-101843000D01*
X267810000Y-101846000D01*
X267815000Y-101849000D01*
X267821000Y-101853000D01*
X267826000Y-101857000D01*
X267830000Y-101861000D01*
X267835000Y-101865000D01*
X267839000Y-101870000D01*
X267843000Y-101874000D01*
X267847000Y-101879000D01*
X267851000Y-101885000D01*
X267854000Y-101890000D01*
X267857000Y-101896000D01*
X267860000Y-101901000D01*
X267862000Y-101907000D01*
X267864000Y-101913000D01*
X267866000Y-101919000D01*
X267867000Y-101925000D01*
X267869000Y-101931000D01*
X267869000Y-101937000D01*
X267870000Y-101944000D01*
X267870000Y-101950000D01*
X267870000Y-102450000D01*
X267870000Y-102456000D01*
X267869000Y-102463000D01*
X267869000Y-102469000D01*
X267867000Y-102475000D01*
X267866000Y-102481000D01*
X267864000Y-102487000D01*
X267862000Y-102493000D01*
X267860000Y-102499000D01*
X267857000Y-102504000D01*
X267854000Y-102510000D01*
X267851000Y-102515000D01*
X267847000Y-102521000D01*
X267843000Y-102526000D01*
X267839000Y-102530000D01*
X267835000Y-102535000D01*
X267830000Y-102539000D01*
X267826000Y-102543000D01*
X267821000Y-102547000D01*
X267815000Y-102551000D01*
X267810000Y-102554000D01*
X267804000Y-102557000D01*
X267799000Y-102560000D01*
X267793000Y-102562000D01*
X267787000Y-102564000D01*
X267781000Y-102566000D01*
X267775000Y-102567000D01*
X267769000Y-102569000D01*
X267763000Y-102569000D01*
X267756000Y-102570000D01*
X267750000Y-102570000D01*
X267650000Y-102570000D01*
X267644000Y-102570000D01*
X267637000Y-102569000D01*
X267631000Y-102569000D01*
X267625000Y-102567000D01*
X267619000Y-102566000D01*
X267613000Y-102564000D01*
X267607000Y-102562000D01*
X267601000Y-102560000D01*
X267596000Y-102557000D01*
X267590000Y-102554000D01*
X267585000Y-102551000D01*
X267579000Y-102547000D01*
X267574000Y-102543000D01*
X267570000Y-102539000D01*
X267565000Y-102535000D01*
X267561000Y-102530000D01*
X267557000Y-102526000D01*
X267553000Y-102521000D01*
X267549000Y-102515000D01*
X267546000Y-102510000D01*
X267543000Y-102504000D01*
X267540000Y-102499000D01*
X267538000Y-102493000D01*
X267536000Y-102487000D01*
X267534000Y-102481000D01*
X267533000Y-102475000D01*
X267531000Y-102469000D01*
X267531000Y-102463000D01*
X267530000Y-102456000D01*
X267530000Y-102450000D01*
X267530000Y-101950000D01*
X267530000Y-101944000D01*
X267531000Y-101937000D01*
X267531000Y-101931000D01*
X267533000Y-101925000D01*
X267534000Y-101919000D01*
X267536000Y-101913000D01*
X267538000Y-101907000D01*
X267540000Y-101901000D01*
X267543000Y-101896000D01*
X267546000Y-101890000D01*
X267549000Y-101885000D01*
X267553000Y-101879000D01*
X267557000Y-101874000D01*
X267561000Y-101870000D01*
X267565000Y-101865000D01*
X267570000Y-101861000D01*
X267574000Y-101857000D01*
X267579000Y-101853000D01*
X267585000Y-101849000D01*
X267590000Y-101846000D01*
X267596000Y-101843000D01*
X267601000Y-101840000D01*
X267607000Y-101838000D01*
X267613000Y-101836000D01*
X267619000Y-101834000D01*
X267625000Y-101833000D01*
X267631000Y-101831000D01*
X267637000Y-101831000D01*
X267644000Y-101830000D01*
X267650000Y-101830000D01*
X267750000Y-101830000D01*
X267756000Y-101830000D01*
X267763000Y-101831000D01*
G37*
X268263000Y-99031000D02*
X268269000Y-99031000D01*
X268275000Y-99033000D01*
X268281000Y-99034000D01*
X268287000Y-99036000D01*
X268293000Y-99038000D01*
X268299000Y-99040000D01*
X268304000Y-99043000D01*
X268310000Y-99046000D01*
X268315000Y-99049000D01*
X268321000Y-99053000D01*
X268326000Y-99057000D01*
X268330000Y-99061000D01*
X268335000Y-99065000D01*
X268339000Y-99070000D01*
X268343000Y-99074000D01*
X268347000Y-99079000D01*
X268351000Y-99085000D01*
X268354000Y-99090000D01*
X268357000Y-99096000D01*
X268360000Y-99101000D01*
X268362000Y-99107000D01*
X268364000Y-99113000D01*
X268366000Y-99119000D01*
X268367000Y-99125000D01*
X268369000Y-99131000D01*
X268369000Y-99137000D01*
X268370000Y-99144000D01*
X268370000Y-99150000D01*
X268370000Y-99650000D01*
X268370000Y-99656000D01*
X268369000Y-99663000D01*
X268369000Y-99669000D01*
X268367000Y-99675000D01*
X268366000Y-99681000D01*
X268364000Y-99687000D01*
X268362000Y-99693000D01*
X268360000Y-99699000D01*
X268357000Y-99704000D01*
X268354000Y-99710000D01*
X268351000Y-99715000D01*
X268347000Y-99721000D01*
X268343000Y-99726000D01*
X268339000Y-99730000D01*
X268335000Y-99735000D01*
X268330000Y-99739000D01*
X268326000Y-99743000D01*
X268321000Y-99747000D01*
X268315000Y-99751000D01*
X268310000Y-99754000D01*
X268304000Y-99757000D01*
X268299000Y-99760000D01*
X268293000Y-99762000D01*
X268287000Y-99764000D01*
X268281000Y-99766000D01*
X268275000Y-99767000D01*
X268269000Y-99769000D01*
X268263000Y-99769000D01*
X268256000Y-99770000D01*
X268250000Y-99770000D01*
X268150000Y-99770000D01*
X268144000Y-99770000D01*
X268137000Y-99769000D01*
X268131000Y-99769000D01*
X268125000Y-99767000D01*
X268119000Y-99766000D01*
X268113000Y-99764000D01*
X268107000Y-99762000D01*
X268101000Y-99760000D01*
X268096000Y-99757000D01*
X268090000Y-99754000D01*
X268085000Y-99751000D01*
X268079000Y-99747000D01*
X268074000Y-99743000D01*
X268070000Y-99739000D01*
X268065000Y-99735000D01*
X268061000Y-99730000D01*
X268057000Y-99726000D01*
X268053000Y-99721000D01*
X268049000Y-99715000D01*
X268046000Y-99710000D01*
X268043000Y-99704000D01*
X268040000Y-99699000D01*
X268038000Y-99693000D01*
X268036000Y-99687000D01*
X268034000Y-99681000D01*
X268033000Y-99675000D01*
X268031000Y-99669000D01*
X268031000Y-99663000D01*
X268030000Y-99656000D01*
X268030000Y-99650000D01*
X268030000Y-99150000D01*
X268030000Y-99144000D01*
X268031000Y-99137000D01*
X268031000Y-99131000D01*
X268033000Y-99125000D01*
X268034000Y-99119000D01*
X268036000Y-99113000D01*
X268038000Y-99107000D01*
X268040000Y-99101000D01*
X268043000Y-99096000D01*
X268046000Y-99090000D01*
X268049000Y-99085000D01*
X268053000Y-99079000D01*
X268057000Y-99074000D01*
X268061000Y-99070000D01*
X268065000Y-99065000D01*
X268070000Y-99061000D01*
X268074000Y-99057000D01*
X268079000Y-99053000D01*
X268085000Y-99049000D01*
X268090000Y-99046000D01*
X268096000Y-99043000D01*
X268101000Y-99040000D01*
X268107000Y-99038000D01*
X268113000Y-99036000D01*
X268119000Y-99034000D01*
X268125000Y-99033000D01*
X268131000Y-99031000D01*
X268137000Y-99031000D01*
X268144000Y-99030000D01*
X268150000Y-99030000D01*
X268250000Y-99030000D01*
X268256000Y-99030000D01*
X268263000Y-99031000D01*
G36*
X268263000Y-99031000D02*
G01*
X268269000Y-99031000D01*
X268275000Y-99033000D01*
X268281000Y-99034000D01*
X268287000Y-99036000D01*
X268293000Y-99038000D01*
X268299000Y-99040000D01*
X268304000Y-99043000D01*
X268310000Y-99046000D01*
X268315000Y-99049000D01*
X268321000Y-99053000D01*
X268326000Y-99057000D01*
X268330000Y-99061000D01*
X268335000Y-99065000D01*
X268339000Y-99070000D01*
X268343000Y-99074000D01*
X268347000Y-99079000D01*
X268351000Y-99085000D01*
X268354000Y-99090000D01*
X268357000Y-99096000D01*
X268360000Y-99101000D01*
X268362000Y-99107000D01*
X268364000Y-99113000D01*
X268366000Y-99119000D01*
X268367000Y-99125000D01*
X268369000Y-99131000D01*
X268369000Y-99137000D01*
X268370000Y-99144000D01*
X268370000Y-99150000D01*
X268370000Y-99650000D01*
X268370000Y-99656000D01*
X268369000Y-99663000D01*
X268369000Y-99669000D01*
X268367000Y-99675000D01*
X268366000Y-99681000D01*
X268364000Y-99687000D01*
X268362000Y-99693000D01*
X268360000Y-99699000D01*
X268357000Y-99704000D01*
X268354000Y-99710000D01*
X268351000Y-99715000D01*
X268347000Y-99721000D01*
X268343000Y-99726000D01*
X268339000Y-99730000D01*
X268335000Y-99735000D01*
X268330000Y-99739000D01*
X268326000Y-99743000D01*
X268321000Y-99747000D01*
X268315000Y-99751000D01*
X268310000Y-99754000D01*
X268304000Y-99757000D01*
X268299000Y-99760000D01*
X268293000Y-99762000D01*
X268287000Y-99764000D01*
X268281000Y-99766000D01*
X268275000Y-99767000D01*
X268269000Y-99769000D01*
X268263000Y-99769000D01*
X268256000Y-99770000D01*
X268250000Y-99770000D01*
X268150000Y-99770000D01*
X268144000Y-99770000D01*
X268137000Y-99769000D01*
X268131000Y-99769000D01*
X268125000Y-99767000D01*
X268119000Y-99766000D01*
X268113000Y-99764000D01*
X268107000Y-99762000D01*
X268101000Y-99760000D01*
X268096000Y-99757000D01*
X268090000Y-99754000D01*
X268085000Y-99751000D01*
X268079000Y-99747000D01*
X268074000Y-99743000D01*
X268070000Y-99739000D01*
X268065000Y-99735000D01*
X268061000Y-99730000D01*
X268057000Y-99726000D01*
X268053000Y-99721000D01*
X268049000Y-99715000D01*
X268046000Y-99710000D01*
X268043000Y-99704000D01*
X268040000Y-99699000D01*
X268038000Y-99693000D01*
X268036000Y-99687000D01*
X268034000Y-99681000D01*
X268033000Y-99675000D01*
X268031000Y-99669000D01*
X268031000Y-99663000D01*
X268030000Y-99656000D01*
X268030000Y-99650000D01*
X268030000Y-99150000D01*
X268030000Y-99144000D01*
X268031000Y-99137000D01*
X268031000Y-99131000D01*
X268033000Y-99125000D01*
X268034000Y-99119000D01*
X268036000Y-99113000D01*
X268038000Y-99107000D01*
X268040000Y-99101000D01*
X268043000Y-99096000D01*
X268046000Y-99090000D01*
X268049000Y-99085000D01*
X268053000Y-99079000D01*
X268057000Y-99074000D01*
X268061000Y-99070000D01*
X268065000Y-99065000D01*
X268070000Y-99061000D01*
X268074000Y-99057000D01*
X268079000Y-99053000D01*
X268085000Y-99049000D01*
X268090000Y-99046000D01*
X268096000Y-99043000D01*
X268101000Y-99040000D01*
X268107000Y-99038000D01*
X268113000Y-99036000D01*
X268119000Y-99034000D01*
X268125000Y-99033000D01*
X268131000Y-99031000D01*
X268137000Y-99031000D01*
X268144000Y-99030000D01*
X268150000Y-99030000D01*
X268250000Y-99030000D01*
X268256000Y-99030000D01*
X268263000Y-99031000D01*
G37*
X268263000Y-101831000D02*
X268269000Y-101831000D01*
X268275000Y-101833000D01*
X268281000Y-101834000D01*
X268287000Y-101836000D01*
X268293000Y-101838000D01*
X268299000Y-101840000D01*
X268304000Y-101843000D01*
X268310000Y-101846000D01*
X268315000Y-101849000D01*
X268321000Y-101853000D01*
X268326000Y-101857000D01*
X268330000Y-101861000D01*
X268335000Y-101865000D01*
X268339000Y-101870000D01*
X268343000Y-101874000D01*
X268347000Y-101879000D01*
X268351000Y-101885000D01*
X268354000Y-101890000D01*
X268357000Y-101896000D01*
X268360000Y-101901000D01*
X268362000Y-101907000D01*
X268364000Y-101913000D01*
X268366000Y-101919000D01*
X268367000Y-101925000D01*
X268369000Y-101931000D01*
X268369000Y-101937000D01*
X268370000Y-101944000D01*
X268370000Y-101950000D01*
X268370000Y-102450000D01*
X268370000Y-102456000D01*
X268369000Y-102463000D01*
X268369000Y-102469000D01*
X268367000Y-102475000D01*
X268366000Y-102481000D01*
X268364000Y-102487000D01*
X268362000Y-102493000D01*
X268360000Y-102499000D01*
X268357000Y-102504000D01*
X268354000Y-102510000D01*
X268351000Y-102515000D01*
X268347000Y-102521000D01*
X268343000Y-102526000D01*
X268339000Y-102530000D01*
X268335000Y-102535000D01*
X268330000Y-102539000D01*
X268326000Y-102543000D01*
X268321000Y-102547000D01*
X268315000Y-102551000D01*
X268310000Y-102554000D01*
X268304000Y-102557000D01*
X268299000Y-102560000D01*
X268293000Y-102562000D01*
X268287000Y-102564000D01*
X268281000Y-102566000D01*
X268275000Y-102567000D01*
X268269000Y-102569000D01*
X268263000Y-102569000D01*
X268256000Y-102570000D01*
X268250000Y-102570000D01*
X268150000Y-102570000D01*
X268144000Y-102570000D01*
X268137000Y-102569000D01*
X268131000Y-102569000D01*
X268125000Y-102567000D01*
X268119000Y-102566000D01*
X268113000Y-102564000D01*
X268107000Y-102562000D01*
X268101000Y-102560000D01*
X268096000Y-102557000D01*
X268090000Y-102554000D01*
X268085000Y-102551000D01*
X268079000Y-102547000D01*
X268074000Y-102543000D01*
X268070000Y-102539000D01*
X268065000Y-102535000D01*
X268061000Y-102530000D01*
X268057000Y-102526000D01*
X268053000Y-102521000D01*
X268049000Y-102515000D01*
X268046000Y-102510000D01*
X268043000Y-102504000D01*
X268040000Y-102499000D01*
X268038000Y-102493000D01*
X268036000Y-102487000D01*
X268034000Y-102481000D01*
X268033000Y-102475000D01*
X268031000Y-102469000D01*
X268031000Y-102463000D01*
X268030000Y-102456000D01*
X268030000Y-102450000D01*
X268030000Y-101950000D01*
X268030000Y-101944000D01*
X268031000Y-101937000D01*
X268031000Y-101931000D01*
X268033000Y-101925000D01*
X268034000Y-101919000D01*
X268036000Y-101913000D01*
X268038000Y-101907000D01*
X268040000Y-101901000D01*
X268043000Y-101896000D01*
X268046000Y-101890000D01*
X268049000Y-101885000D01*
X268053000Y-101879000D01*
X268057000Y-101874000D01*
X268061000Y-101870000D01*
X268065000Y-101865000D01*
X268070000Y-101861000D01*
X268074000Y-101857000D01*
X268079000Y-101853000D01*
X268085000Y-101849000D01*
X268090000Y-101846000D01*
X268096000Y-101843000D01*
X268101000Y-101840000D01*
X268107000Y-101838000D01*
X268113000Y-101836000D01*
X268119000Y-101834000D01*
X268125000Y-101833000D01*
X268131000Y-101831000D01*
X268137000Y-101831000D01*
X268144000Y-101830000D01*
X268150000Y-101830000D01*
X268250000Y-101830000D01*
X268256000Y-101830000D01*
X268263000Y-101831000D01*
G36*
X268263000Y-101831000D02*
G01*
X268269000Y-101831000D01*
X268275000Y-101833000D01*
X268281000Y-101834000D01*
X268287000Y-101836000D01*
X268293000Y-101838000D01*
X268299000Y-101840000D01*
X268304000Y-101843000D01*
X268310000Y-101846000D01*
X268315000Y-101849000D01*
X268321000Y-101853000D01*
X268326000Y-101857000D01*
X268330000Y-101861000D01*
X268335000Y-101865000D01*
X268339000Y-101870000D01*
X268343000Y-101874000D01*
X268347000Y-101879000D01*
X268351000Y-101885000D01*
X268354000Y-101890000D01*
X268357000Y-101896000D01*
X268360000Y-101901000D01*
X268362000Y-101907000D01*
X268364000Y-101913000D01*
X268366000Y-101919000D01*
X268367000Y-101925000D01*
X268369000Y-101931000D01*
X268369000Y-101937000D01*
X268370000Y-101944000D01*
X268370000Y-101950000D01*
X268370000Y-102450000D01*
X268370000Y-102456000D01*
X268369000Y-102463000D01*
X268369000Y-102469000D01*
X268367000Y-102475000D01*
X268366000Y-102481000D01*
X268364000Y-102487000D01*
X268362000Y-102493000D01*
X268360000Y-102499000D01*
X268357000Y-102504000D01*
X268354000Y-102510000D01*
X268351000Y-102515000D01*
X268347000Y-102521000D01*
X268343000Y-102526000D01*
X268339000Y-102530000D01*
X268335000Y-102535000D01*
X268330000Y-102539000D01*
X268326000Y-102543000D01*
X268321000Y-102547000D01*
X268315000Y-102551000D01*
X268310000Y-102554000D01*
X268304000Y-102557000D01*
X268299000Y-102560000D01*
X268293000Y-102562000D01*
X268287000Y-102564000D01*
X268281000Y-102566000D01*
X268275000Y-102567000D01*
X268269000Y-102569000D01*
X268263000Y-102569000D01*
X268256000Y-102570000D01*
X268250000Y-102570000D01*
X268150000Y-102570000D01*
X268144000Y-102570000D01*
X268137000Y-102569000D01*
X268131000Y-102569000D01*
X268125000Y-102567000D01*
X268119000Y-102566000D01*
X268113000Y-102564000D01*
X268107000Y-102562000D01*
X268101000Y-102560000D01*
X268096000Y-102557000D01*
X268090000Y-102554000D01*
X268085000Y-102551000D01*
X268079000Y-102547000D01*
X268074000Y-102543000D01*
X268070000Y-102539000D01*
X268065000Y-102535000D01*
X268061000Y-102530000D01*
X268057000Y-102526000D01*
X268053000Y-102521000D01*
X268049000Y-102515000D01*
X268046000Y-102510000D01*
X268043000Y-102504000D01*
X268040000Y-102499000D01*
X268038000Y-102493000D01*
X268036000Y-102487000D01*
X268034000Y-102481000D01*
X268033000Y-102475000D01*
X268031000Y-102469000D01*
X268031000Y-102463000D01*
X268030000Y-102456000D01*
X268030000Y-102450000D01*
X268030000Y-101950000D01*
X268030000Y-101944000D01*
X268031000Y-101937000D01*
X268031000Y-101931000D01*
X268033000Y-101925000D01*
X268034000Y-101919000D01*
X268036000Y-101913000D01*
X268038000Y-101907000D01*
X268040000Y-101901000D01*
X268043000Y-101896000D01*
X268046000Y-101890000D01*
X268049000Y-101885000D01*
X268053000Y-101879000D01*
X268057000Y-101874000D01*
X268061000Y-101870000D01*
X268065000Y-101865000D01*
X268070000Y-101861000D01*
X268074000Y-101857000D01*
X268079000Y-101853000D01*
X268085000Y-101849000D01*
X268090000Y-101846000D01*
X268096000Y-101843000D01*
X268101000Y-101840000D01*
X268107000Y-101838000D01*
X268113000Y-101836000D01*
X268119000Y-101834000D01*
X268125000Y-101833000D01*
X268131000Y-101831000D01*
X268137000Y-101831000D01*
X268144000Y-101830000D01*
X268150000Y-101830000D01*
X268250000Y-101830000D01*
X268256000Y-101830000D01*
X268263000Y-101831000D01*
G37*
X268763000Y-99031000D02*
X268769000Y-99031000D01*
X268775000Y-99033000D01*
X268781000Y-99034000D01*
X268787000Y-99036000D01*
X268793000Y-99038000D01*
X268799000Y-99040000D01*
X268804000Y-99043000D01*
X268810000Y-99046000D01*
X268815000Y-99049000D01*
X268821000Y-99053000D01*
X268826000Y-99057000D01*
X268830000Y-99061000D01*
X268835000Y-99065000D01*
X268839000Y-99070000D01*
X268843000Y-99074000D01*
X268847000Y-99079000D01*
X268851000Y-99085000D01*
X268854000Y-99090000D01*
X268857000Y-99096000D01*
X268860000Y-99101000D01*
X268862000Y-99107000D01*
X268864000Y-99113000D01*
X268866000Y-99119000D01*
X268867000Y-99125000D01*
X268869000Y-99131000D01*
X268869000Y-99137000D01*
X268870000Y-99144000D01*
X268870000Y-99150000D01*
X268870000Y-99650000D01*
X268870000Y-99656000D01*
X268869000Y-99663000D01*
X268869000Y-99669000D01*
X268867000Y-99675000D01*
X268866000Y-99681000D01*
X268864000Y-99687000D01*
X268862000Y-99693000D01*
X268860000Y-99699000D01*
X268857000Y-99704000D01*
X268854000Y-99710000D01*
X268851000Y-99715000D01*
X268847000Y-99721000D01*
X268843000Y-99726000D01*
X268839000Y-99730000D01*
X268835000Y-99735000D01*
X268830000Y-99739000D01*
X268826000Y-99743000D01*
X268821000Y-99747000D01*
X268815000Y-99751000D01*
X268810000Y-99754000D01*
X268804000Y-99757000D01*
X268799000Y-99760000D01*
X268793000Y-99762000D01*
X268787000Y-99764000D01*
X268781000Y-99766000D01*
X268775000Y-99767000D01*
X268769000Y-99769000D01*
X268763000Y-99769000D01*
X268756000Y-99770000D01*
X268750000Y-99770000D01*
X268650000Y-99770000D01*
X268644000Y-99770000D01*
X268637000Y-99769000D01*
X268631000Y-99769000D01*
X268625000Y-99767000D01*
X268619000Y-99766000D01*
X268613000Y-99764000D01*
X268607000Y-99762000D01*
X268601000Y-99760000D01*
X268596000Y-99757000D01*
X268590000Y-99754000D01*
X268585000Y-99751000D01*
X268579000Y-99747000D01*
X268574000Y-99743000D01*
X268570000Y-99739000D01*
X268565000Y-99735000D01*
X268561000Y-99730000D01*
X268557000Y-99726000D01*
X268553000Y-99721000D01*
X268549000Y-99715000D01*
X268546000Y-99710000D01*
X268543000Y-99704000D01*
X268540000Y-99699000D01*
X268538000Y-99693000D01*
X268536000Y-99687000D01*
X268534000Y-99681000D01*
X268533000Y-99675000D01*
X268531000Y-99669000D01*
X268531000Y-99663000D01*
X268530000Y-99656000D01*
X268530000Y-99650000D01*
X268530000Y-99150000D01*
X268530000Y-99144000D01*
X268531000Y-99137000D01*
X268531000Y-99131000D01*
X268533000Y-99125000D01*
X268534000Y-99119000D01*
X268536000Y-99113000D01*
X268538000Y-99107000D01*
X268540000Y-99101000D01*
X268543000Y-99096000D01*
X268546000Y-99090000D01*
X268549000Y-99085000D01*
X268553000Y-99079000D01*
X268557000Y-99074000D01*
X268561000Y-99070000D01*
X268565000Y-99065000D01*
X268570000Y-99061000D01*
X268574000Y-99057000D01*
X268579000Y-99053000D01*
X268585000Y-99049000D01*
X268590000Y-99046000D01*
X268596000Y-99043000D01*
X268601000Y-99040000D01*
X268607000Y-99038000D01*
X268613000Y-99036000D01*
X268619000Y-99034000D01*
X268625000Y-99033000D01*
X268631000Y-99031000D01*
X268637000Y-99031000D01*
X268644000Y-99030000D01*
X268650000Y-99030000D01*
X268750000Y-99030000D01*
X268756000Y-99030000D01*
X268763000Y-99031000D01*
G36*
X268763000Y-99031000D02*
G01*
X268769000Y-99031000D01*
X268775000Y-99033000D01*
X268781000Y-99034000D01*
X268787000Y-99036000D01*
X268793000Y-99038000D01*
X268799000Y-99040000D01*
X268804000Y-99043000D01*
X268810000Y-99046000D01*
X268815000Y-99049000D01*
X268821000Y-99053000D01*
X268826000Y-99057000D01*
X268830000Y-99061000D01*
X268835000Y-99065000D01*
X268839000Y-99070000D01*
X268843000Y-99074000D01*
X268847000Y-99079000D01*
X268851000Y-99085000D01*
X268854000Y-99090000D01*
X268857000Y-99096000D01*
X268860000Y-99101000D01*
X268862000Y-99107000D01*
X268864000Y-99113000D01*
X268866000Y-99119000D01*
X268867000Y-99125000D01*
X268869000Y-99131000D01*
X268869000Y-99137000D01*
X268870000Y-99144000D01*
X268870000Y-99150000D01*
X268870000Y-99650000D01*
X268870000Y-99656000D01*
X268869000Y-99663000D01*
X268869000Y-99669000D01*
X268867000Y-99675000D01*
X268866000Y-99681000D01*
X268864000Y-99687000D01*
X268862000Y-99693000D01*
X268860000Y-99699000D01*
X268857000Y-99704000D01*
X268854000Y-99710000D01*
X268851000Y-99715000D01*
X268847000Y-99721000D01*
X268843000Y-99726000D01*
X268839000Y-99730000D01*
X268835000Y-99735000D01*
X268830000Y-99739000D01*
X268826000Y-99743000D01*
X268821000Y-99747000D01*
X268815000Y-99751000D01*
X268810000Y-99754000D01*
X268804000Y-99757000D01*
X268799000Y-99760000D01*
X268793000Y-99762000D01*
X268787000Y-99764000D01*
X268781000Y-99766000D01*
X268775000Y-99767000D01*
X268769000Y-99769000D01*
X268763000Y-99769000D01*
X268756000Y-99770000D01*
X268750000Y-99770000D01*
X268650000Y-99770000D01*
X268644000Y-99770000D01*
X268637000Y-99769000D01*
X268631000Y-99769000D01*
X268625000Y-99767000D01*
X268619000Y-99766000D01*
X268613000Y-99764000D01*
X268607000Y-99762000D01*
X268601000Y-99760000D01*
X268596000Y-99757000D01*
X268590000Y-99754000D01*
X268585000Y-99751000D01*
X268579000Y-99747000D01*
X268574000Y-99743000D01*
X268570000Y-99739000D01*
X268565000Y-99735000D01*
X268561000Y-99730000D01*
X268557000Y-99726000D01*
X268553000Y-99721000D01*
X268549000Y-99715000D01*
X268546000Y-99710000D01*
X268543000Y-99704000D01*
X268540000Y-99699000D01*
X268538000Y-99693000D01*
X268536000Y-99687000D01*
X268534000Y-99681000D01*
X268533000Y-99675000D01*
X268531000Y-99669000D01*
X268531000Y-99663000D01*
X268530000Y-99656000D01*
X268530000Y-99650000D01*
X268530000Y-99150000D01*
X268530000Y-99144000D01*
X268531000Y-99137000D01*
X268531000Y-99131000D01*
X268533000Y-99125000D01*
X268534000Y-99119000D01*
X268536000Y-99113000D01*
X268538000Y-99107000D01*
X268540000Y-99101000D01*
X268543000Y-99096000D01*
X268546000Y-99090000D01*
X268549000Y-99085000D01*
X268553000Y-99079000D01*
X268557000Y-99074000D01*
X268561000Y-99070000D01*
X268565000Y-99065000D01*
X268570000Y-99061000D01*
X268574000Y-99057000D01*
X268579000Y-99053000D01*
X268585000Y-99049000D01*
X268590000Y-99046000D01*
X268596000Y-99043000D01*
X268601000Y-99040000D01*
X268607000Y-99038000D01*
X268613000Y-99036000D01*
X268619000Y-99034000D01*
X268625000Y-99033000D01*
X268631000Y-99031000D01*
X268637000Y-99031000D01*
X268644000Y-99030000D01*
X268650000Y-99030000D01*
X268750000Y-99030000D01*
X268756000Y-99030000D01*
X268763000Y-99031000D01*
G37*
X268763000Y-101831000D02*
X268769000Y-101831000D01*
X268775000Y-101833000D01*
X268781000Y-101834000D01*
X268787000Y-101836000D01*
X268793000Y-101838000D01*
X268799000Y-101840000D01*
X268804000Y-101843000D01*
X268810000Y-101846000D01*
X268815000Y-101849000D01*
X268821000Y-101853000D01*
X268826000Y-101857000D01*
X268830000Y-101861000D01*
X268835000Y-101865000D01*
X268839000Y-101870000D01*
X268843000Y-101874000D01*
X268847000Y-101879000D01*
X268851000Y-101885000D01*
X268854000Y-101890000D01*
X268857000Y-101896000D01*
X268860000Y-101901000D01*
X268862000Y-101907000D01*
X268864000Y-101913000D01*
X268866000Y-101919000D01*
X268867000Y-101925000D01*
X268869000Y-101931000D01*
X268869000Y-101937000D01*
X268870000Y-101944000D01*
X268870000Y-101950000D01*
X268870000Y-102450000D01*
X268870000Y-102456000D01*
X268869000Y-102463000D01*
X268869000Y-102469000D01*
X268867000Y-102475000D01*
X268866000Y-102481000D01*
X268864000Y-102487000D01*
X268862000Y-102493000D01*
X268860000Y-102499000D01*
X268857000Y-102504000D01*
X268854000Y-102510000D01*
X268851000Y-102515000D01*
X268847000Y-102521000D01*
X268843000Y-102526000D01*
X268839000Y-102530000D01*
X268835000Y-102535000D01*
X268830000Y-102539000D01*
X268826000Y-102543000D01*
X268821000Y-102547000D01*
X268815000Y-102551000D01*
X268810000Y-102554000D01*
X268804000Y-102557000D01*
X268799000Y-102560000D01*
X268793000Y-102562000D01*
X268787000Y-102564000D01*
X268781000Y-102566000D01*
X268775000Y-102567000D01*
X268769000Y-102569000D01*
X268763000Y-102569000D01*
X268756000Y-102570000D01*
X268750000Y-102570000D01*
X268650000Y-102570000D01*
X268644000Y-102570000D01*
X268637000Y-102569000D01*
X268631000Y-102569000D01*
X268625000Y-102567000D01*
X268619000Y-102566000D01*
X268613000Y-102564000D01*
X268607000Y-102562000D01*
X268601000Y-102560000D01*
X268596000Y-102557000D01*
X268590000Y-102554000D01*
X268585000Y-102551000D01*
X268579000Y-102547000D01*
X268574000Y-102543000D01*
X268570000Y-102539000D01*
X268565000Y-102535000D01*
X268561000Y-102530000D01*
X268557000Y-102526000D01*
X268553000Y-102521000D01*
X268549000Y-102515000D01*
X268546000Y-102510000D01*
X268543000Y-102504000D01*
X268540000Y-102499000D01*
X268538000Y-102493000D01*
X268536000Y-102487000D01*
X268534000Y-102481000D01*
X268533000Y-102475000D01*
X268531000Y-102469000D01*
X268531000Y-102463000D01*
X268530000Y-102456000D01*
X268530000Y-102450000D01*
X268530000Y-101950000D01*
X268530000Y-101944000D01*
X268531000Y-101937000D01*
X268531000Y-101931000D01*
X268533000Y-101925000D01*
X268534000Y-101919000D01*
X268536000Y-101913000D01*
X268538000Y-101907000D01*
X268540000Y-101901000D01*
X268543000Y-101896000D01*
X268546000Y-101890000D01*
X268549000Y-101885000D01*
X268553000Y-101879000D01*
X268557000Y-101874000D01*
X268561000Y-101870000D01*
X268565000Y-101865000D01*
X268570000Y-101861000D01*
X268574000Y-101857000D01*
X268579000Y-101853000D01*
X268585000Y-101849000D01*
X268590000Y-101846000D01*
X268596000Y-101843000D01*
X268601000Y-101840000D01*
X268607000Y-101838000D01*
X268613000Y-101836000D01*
X268619000Y-101834000D01*
X268625000Y-101833000D01*
X268631000Y-101831000D01*
X268637000Y-101831000D01*
X268644000Y-101830000D01*
X268650000Y-101830000D01*
X268750000Y-101830000D01*
X268756000Y-101830000D01*
X268763000Y-101831000D01*
G36*
X268763000Y-101831000D02*
G01*
X268769000Y-101831000D01*
X268775000Y-101833000D01*
X268781000Y-101834000D01*
X268787000Y-101836000D01*
X268793000Y-101838000D01*
X268799000Y-101840000D01*
X268804000Y-101843000D01*
X268810000Y-101846000D01*
X268815000Y-101849000D01*
X268821000Y-101853000D01*
X268826000Y-101857000D01*
X268830000Y-101861000D01*
X268835000Y-101865000D01*
X268839000Y-101870000D01*
X268843000Y-101874000D01*
X268847000Y-101879000D01*
X268851000Y-101885000D01*
X268854000Y-101890000D01*
X268857000Y-101896000D01*
X268860000Y-101901000D01*
X268862000Y-101907000D01*
X268864000Y-101913000D01*
X268866000Y-101919000D01*
X268867000Y-101925000D01*
X268869000Y-101931000D01*
X268869000Y-101937000D01*
X268870000Y-101944000D01*
X268870000Y-101950000D01*
X268870000Y-102450000D01*
X268870000Y-102456000D01*
X268869000Y-102463000D01*
X268869000Y-102469000D01*
X268867000Y-102475000D01*
X268866000Y-102481000D01*
X268864000Y-102487000D01*
X268862000Y-102493000D01*
X268860000Y-102499000D01*
X268857000Y-102504000D01*
X268854000Y-102510000D01*
X268851000Y-102515000D01*
X268847000Y-102521000D01*
X268843000Y-102526000D01*
X268839000Y-102530000D01*
X268835000Y-102535000D01*
X268830000Y-102539000D01*
X268826000Y-102543000D01*
X268821000Y-102547000D01*
X268815000Y-102551000D01*
X268810000Y-102554000D01*
X268804000Y-102557000D01*
X268799000Y-102560000D01*
X268793000Y-102562000D01*
X268787000Y-102564000D01*
X268781000Y-102566000D01*
X268775000Y-102567000D01*
X268769000Y-102569000D01*
X268763000Y-102569000D01*
X268756000Y-102570000D01*
X268750000Y-102570000D01*
X268650000Y-102570000D01*
X268644000Y-102570000D01*
X268637000Y-102569000D01*
X268631000Y-102569000D01*
X268625000Y-102567000D01*
X268619000Y-102566000D01*
X268613000Y-102564000D01*
X268607000Y-102562000D01*
X268601000Y-102560000D01*
X268596000Y-102557000D01*
X268590000Y-102554000D01*
X268585000Y-102551000D01*
X268579000Y-102547000D01*
X268574000Y-102543000D01*
X268570000Y-102539000D01*
X268565000Y-102535000D01*
X268561000Y-102530000D01*
X268557000Y-102526000D01*
X268553000Y-102521000D01*
X268549000Y-102515000D01*
X268546000Y-102510000D01*
X268543000Y-102504000D01*
X268540000Y-102499000D01*
X268538000Y-102493000D01*
X268536000Y-102487000D01*
X268534000Y-102481000D01*
X268533000Y-102475000D01*
X268531000Y-102469000D01*
X268531000Y-102463000D01*
X268530000Y-102456000D01*
X268530000Y-102450000D01*
X268530000Y-101950000D01*
X268530000Y-101944000D01*
X268531000Y-101937000D01*
X268531000Y-101931000D01*
X268533000Y-101925000D01*
X268534000Y-101919000D01*
X268536000Y-101913000D01*
X268538000Y-101907000D01*
X268540000Y-101901000D01*
X268543000Y-101896000D01*
X268546000Y-101890000D01*
X268549000Y-101885000D01*
X268553000Y-101879000D01*
X268557000Y-101874000D01*
X268561000Y-101870000D01*
X268565000Y-101865000D01*
X268570000Y-101861000D01*
X268574000Y-101857000D01*
X268579000Y-101853000D01*
X268585000Y-101849000D01*
X268590000Y-101846000D01*
X268596000Y-101843000D01*
X268601000Y-101840000D01*
X268607000Y-101838000D01*
X268613000Y-101836000D01*
X268619000Y-101834000D01*
X268625000Y-101833000D01*
X268631000Y-101831000D01*
X268637000Y-101831000D01*
X268644000Y-101830000D01*
X268650000Y-101830000D01*
X268750000Y-101830000D01*
X268756000Y-101830000D01*
X268763000Y-101831000D01*
G37*
X269213000Y-99931000D02*
X269219000Y-99931000D01*
X269225000Y-99933000D01*
X269231000Y-99934000D01*
X269237000Y-99936000D01*
X269243000Y-99938000D01*
X269249000Y-99940000D01*
X269254000Y-99943000D01*
X269260000Y-99946000D01*
X269265000Y-99949000D01*
X269271000Y-99953000D01*
X269276000Y-99957000D01*
X269280000Y-99961000D01*
X269285000Y-99965000D01*
X269289000Y-99970000D01*
X269293000Y-99974000D01*
X269297000Y-99979000D01*
X269301000Y-99985000D01*
X269304000Y-99990000D01*
X269307000Y-99996000D01*
X269310000Y-100001000D01*
X269312000Y-100007000D01*
X269314000Y-100013000D01*
X269316000Y-100019000D01*
X269317000Y-100025000D01*
X269319000Y-100031000D01*
X269319000Y-100037000D01*
X269320000Y-100044000D01*
X269320000Y-100050000D01*
X269320000Y-101550000D01*
X269320000Y-101556000D01*
X269319000Y-101563000D01*
X269319000Y-101569000D01*
X269317000Y-101575000D01*
X269316000Y-101581000D01*
X269314000Y-101587000D01*
X269312000Y-101593000D01*
X269310000Y-101599000D01*
X269307000Y-101604000D01*
X269304000Y-101610000D01*
X269301000Y-101615000D01*
X269297000Y-101621000D01*
X269293000Y-101626000D01*
X269289000Y-101630000D01*
X269285000Y-101635000D01*
X269280000Y-101639000D01*
X269276000Y-101643000D01*
X269271000Y-101647000D01*
X269265000Y-101651000D01*
X269260000Y-101654000D01*
X269254000Y-101657000D01*
X269249000Y-101660000D01*
X269243000Y-101662000D01*
X269237000Y-101664000D01*
X269231000Y-101666000D01*
X269225000Y-101667000D01*
X269219000Y-101669000D01*
X269213000Y-101669000D01*
X269206000Y-101670000D01*
X269200000Y-101670000D01*
X266700000Y-101670000D01*
X266694000Y-101670000D01*
X266687000Y-101669000D01*
X266681000Y-101669000D01*
X266675000Y-101667000D01*
X266669000Y-101666000D01*
X266663000Y-101664000D01*
X266657000Y-101662000D01*
X266651000Y-101660000D01*
X266646000Y-101657000D01*
X266640000Y-101654000D01*
X266635000Y-101651000D01*
X266629000Y-101647000D01*
X266624000Y-101643000D01*
X266620000Y-101639000D01*
X266615000Y-101635000D01*
X266611000Y-101630000D01*
X266607000Y-101626000D01*
X266603000Y-101621000D01*
X266599000Y-101615000D01*
X266596000Y-101610000D01*
X266593000Y-101604000D01*
X266590000Y-101599000D01*
X266588000Y-101593000D01*
X266586000Y-101587000D01*
X266584000Y-101581000D01*
X266583000Y-101575000D01*
X266581000Y-101569000D01*
X266581000Y-101563000D01*
X266580000Y-101556000D01*
X266580000Y-101550000D01*
X266580000Y-100050000D01*
X266580000Y-100044000D01*
X266581000Y-100037000D01*
X266581000Y-100031000D01*
X266583000Y-100025000D01*
X266584000Y-100019000D01*
X266586000Y-100013000D01*
X266588000Y-100007000D01*
X266590000Y-100001000D01*
X266593000Y-99996000D01*
X266596000Y-99990000D01*
X266599000Y-99985000D01*
X266603000Y-99979000D01*
X266607000Y-99974000D01*
X266611000Y-99970000D01*
X266615000Y-99965000D01*
X266620000Y-99961000D01*
X266624000Y-99957000D01*
X266629000Y-99953000D01*
X266635000Y-99949000D01*
X266640000Y-99946000D01*
X266646000Y-99943000D01*
X266651000Y-99940000D01*
X266657000Y-99938000D01*
X266663000Y-99936000D01*
X266669000Y-99934000D01*
X266675000Y-99933000D01*
X266681000Y-99931000D01*
X266687000Y-99931000D01*
X266694000Y-99930000D01*
X266700000Y-99930000D01*
X269200000Y-99930000D01*
X269206000Y-99930000D01*
X269213000Y-99931000D01*
G36*
X269213000Y-99931000D02*
G01*
X269219000Y-99931000D01*
X269225000Y-99933000D01*
X269231000Y-99934000D01*
X269237000Y-99936000D01*
X269243000Y-99938000D01*
X269249000Y-99940000D01*
X269254000Y-99943000D01*
X269260000Y-99946000D01*
X269265000Y-99949000D01*
X269271000Y-99953000D01*
X269276000Y-99957000D01*
X269280000Y-99961000D01*
X269285000Y-99965000D01*
X269289000Y-99970000D01*
X269293000Y-99974000D01*
X269297000Y-99979000D01*
X269301000Y-99985000D01*
X269304000Y-99990000D01*
X269307000Y-99996000D01*
X269310000Y-100001000D01*
X269312000Y-100007000D01*
X269314000Y-100013000D01*
X269316000Y-100019000D01*
X269317000Y-100025000D01*
X269319000Y-100031000D01*
X269319000Y-100037000D01*
X269320000Y-100044000D01*
X269320000Y-100050000D01*
X269320000Y-101550000D01*
X269320000Y-101556000D01*
X269319000Y-101563000D01*
X269319000Y-101569000D01*
X269317000Y-101575000D01*
X269316000Y-101581000D01*
X269314000Y-101587000D01*
X269312000Y-101593000D01*
X269310000Y-101599000D01*
X269307000Y-101604000D01*
X269304000Y-101610000D01*
X269301000Y-101615000D01*
X269297000Y-101621000D01*
X269293000Y-101626000D01*
X269289000Y-101630000D01*
X269285000Y-101635000D01*
X269280000Y-101639000D01*
X269276000Y-101643000D01*
X269271000Y-101647000D01*
X269265000Y-101651000D01*
X269260000Y-101654000D01*
X269254000Y-101657000D01*
X269249000Y-101660000D01*
X269243000Y-101662000D01*
X269237000Y-101664000D01*
X269231000Y-101666000D01*
X269225000Y-101667000D01*
X269219000Y-101669000D01*
X269213000Y-101669000D01*
X269206000Y-101670000D01*
X269200000Y-101670000D01*
X266700000Y-101670000D01*
X266694000Y-101670000D01*
X266687000Y-101669000D01*
X266681000Y-101669000D01*
X266675000Y-101667000D01*
X266669000Y-101666000D01*
X266663000Y-101664000D01*
X266657000Y-101662000D01*
X266651000Y-101660000D01*
X266646000Y-101657000D01*
X266640000Y-101654000D01*
X266635000Y-101651000D01*
X266629000Y-101647000D01*
X266624000Y-101643000D01*
X266620000Y-101639000D01*
X266615000Y-101635000D01*
X266611000Y-101630000D01*
X266607000Y-101626000D01*
X266603000Y-101621000D01*
X266599000Y-101615000D01*
X266596000Y-101610000D01*
X266593000Y-101604000D01*
X266590000Y-101599000D01*
X266588000Y-101593000D01*
X266586000Y-101587000D01*
X266584000Y-101581000D01*
X266583000Y-101575000D01*
X266581000Y-101569000D01*
X266581000Y-101563000D01*
X266580000Y-101556000D01*
X266580000Y-101550000D01*
X266580000Y-100050000D01*
X266580000Y-100044000D01*
X266581000Y-100037000D01*
X266581000Y-100031000D01*
X266583000Y-100025000D01*
X266584000Y-100019000D01*
X266586000Y-100013000D01*
X266588000Y-100007000D01*
X266590000Y-100001000D01*
X266593000Y-99996000D01*
X266596000Y-99990000D01*
X266599000Y-99985000D01*
X266603000Y-99979000D01*
X266607000Y-99974000D01*
X266611000Y-99970000D01*
X266615000Y-99965000D01*
X266620000Y-99961000D01*
X266624000Y-99957000D01*
X266629000Y-99953000D01*
X266635000Y-99949000D01*
X266640000Y-99946000D01*
X266646000Y-99943000D01*
X266651000Y-99940000D01*
X266657000Y-99938000D01*
X266663000Y-99936000D01*
X266669000Y-99934000D01*
X266675000Y-99933000D01*
X266681000Y-99931000D01*
X266687000Y-99931000D01*
X266694000Y-99930000D01*
X266700000Y-99930000D01*
X269200000Y-99930000D01*
X269206000Y-99930000D01*
X269213000Y-99931000D01*
G37*
X269263000Y-99031000D02*
X269269000Y-99031000D01*
X269275000Y-99033000D01*
X269281000Y-99034000D01*
X269287000Y-99036000D01*
X269293000Y-99038000D01*
X269299000Y-99040000D01*
X269304000Y-99043000D01*
X269310000Y-99046000D01*
X269315000Y-99049000D01*
X269321000Y-99053000D01*
X269326000Y-99057000D01*
X269330000Y-99061000D01*
X269335000Y-99065000D01*
X269339000Y-99070000D01*
X269343000Y-99074000D01*
X269347000Y-99079000D01*
X269351000Y-99085000D01*
X269354000Y-99090000D01*
X269357000Y-99096000D01*
X269360000Y-99101000D01*
X269362000Y-99107000D01*
X269364000Y-99113000D01*
X269366000Y-99119000D01*
X269367000Y-99125000D01*
X269369000Y-99131000D01*
X269369000Y-99137000D01*
X269370000Y-99144000D01*
X269370000Y-99150000D01*
X269370000Y-99650000D01*
X269370000Y-99656000D01*
X269369000Y-99663000D01*
X269369000Y-99669000D01*
X269367000Y-99675000D01*
X269366000Y-99681000D01*
X269364000Y-99687000D01*
X269362000Y-99693000D01*
X269360000Y-99699000D01*
X269357000Y-99704000D01*
X269354000Y-99710000D01*
X269351000Y-99715000D01*
X269347000Y-99721000D01*
X269343000Y-99726000D01*
X269339000Y-99730000D01*
X269335000Y-99735000D01*
X269330000Y-99739000D01*
X269326000Y-99743000D01*
X269321000Y-99747000D01*
X269315000Y-99751000D01*
X269310000Y-99754000D01*
X269304000Y-99757000D01*
X269299000Y-99760000D01*
X269293000Y-99762000D01*
X269287000Y-99764000D01*
X269281000Y-99766000D01*
X269275000Y-99767000D01*
X269269000Y-99769000D01*
X269263000Y-99769000D01*
X269256000Y-99770000D01*
X269250000Y-99770000D01*
X269150000Y-99770000D01*
X269144000Y-99770000D01*
X269137000Y-99769000D01*
X269131000Y-99769000D01*
X269125000Y-99767000D01*
X269119000Y-99766000D01*
X269113000Y-99764000D01*
X269107000Y-99762000D01*
X269101000Y-99760000D01*
X269096000Y-99757000D01*
X269090000Y-99754000D01*
X269085000Y-99751000D01*
X269079000Y-99747000D01*
X269074000Y-99743000D01*
X269070000Y-99739000D01*
X269065000Y-99735000D01*
X269061000Y-99730000D01*
X269057000Y-99726000D01*
X269053000Y-99721000D01*
X269049000Y-99715000D01*
X269046000Y-99710000D01*
X269043000Y-99704000D01*
X269040000Y-99699000D01*
X269038000Y-99693000D01*
X269036000Y-99687000D01*
X269034000Y-99681000D01*
X269033000Y-99675000D01*
X269031000Y-99669000D01*
X269031000Y-99663000D01*
X269030000Y-99656000D01*
X269030000Y-99650000D01*
X269030000Y-99150000D01*
X269030000Y-99144000D01*
X269031000Y-99137000D01*
X269031000Y-99131000D01*
X269033000Y-99125000D01*
X269034000Y-99119000D01*
X269036000Y-99113000D01*
X269038000Y-99107000D01*
X269040000Y-99101000D01*
X269043000Y-99096000D01*
X269046000Y-99090000D01*
X269049000Y-99085000D01*
X269053000Y-99079000D01*
X269057000Y-99074000D01*
X269061000Y-99070000D01*
X269065000Y-99065000D01*
X269070000Y-99061000D01*
X269074000Y-99057000D01*
X269079000Y-99053000D01*
X269085000Y-99049000D01*
X269090000Y-99046000D01*
X269096000Y-99043000D01*
X269101000Y-99040000D01*
X269107000Y-99038000D01*
X269113000Y-99036000D01*
X269119000Y-99034000D01*
X269125000Y-99033000D01*
X269131000Y-99031000D01*
X269137000Y-99031000D01*
X269144000Y-99030000D01*
X269150000Y-99030000D01*
X269250000Y-99030000D01*
X269256000Y-99030000D01*
X269263000Y-99031000D01*
G36*
X269263000Y-99031000D02*
G01*
X269269000Y-99031000D01*
X269275000Y-99033000D01*
X269281000Y-99034000D01*
X269287000Y-99036000D01*
X269293000Y-99038000D01*
X269299000Y-99040000D01*
X269304000Y-99043000D01*
X269310000Y-99046000D01*
X269315000Y-99049000D01*
X269321000Y-99053000D01*
X269326000Y-99057000D01*
X269330000Y-99061000D01*
X269335000Y-99065000D01*
X269339000Y-99070000D01*
X269343000Y-99074000D01*
X269347000Y-99079000D01*
X269351000Y-99085000D01*
X269354000Y-99090000D01*
X269357000Y-99096000D01*
X269360000Y-99101000D01*
X269362000Y-99107000D01*
X269364000Y-99113000D01*
X269366000Y-99119000D01*
X269367000Y-99125000D01*
X269369000Y-99131000D01*
X269369000Y-99137000D01*
X269370000Y-99144000D01*
X269370000Y-99150000D01*
X269370000Y-99650000D01*
X269370000Y-99656000D01*
X269369000Y-99663000D01*
X269369000Y-99669000D01*
X269367000Y-99675000D01*
X269366000Y-99681000D01*
X269364000Y-99687000D01*
X269362000Y-99693000D01*
X269360000Y-99699000D01*
X269357000Y-99704000D01*
X269354000Y-99710000D01*
X269351000Y-99715000D01*
X269347000Y-99721000D01*
X269343000Y-99726000D01*
X269339000Y-99730000D01*
X269335000Y-99735000D01*
X269330000Y-99739000D01*
X269326000Y-99743000D01*
X269321000Y-99747000D01*
X269315000Y-99751000D01*
X269310000Y-99754000D01*
X269304000Y-99757000D01*
X269299000Y-99760000D01*
X269293000Y-99762000D01*
X269287000Y-99764000D01*
X269281000Y-99766000D01*
X269275000Y-99767000D01*
X269269000Y-99769000D01*
X269263000Y-99769000D01*
X269256000Y-99770000D01*
X269250000Y-99770000D01*
X269150000Y-99770000D01*
X269144000Y-99770000D01*
X269137000Y-99769000D01*
X269131000Y-99769000D01*
X269125000Y-99767000D01*
X269119000Y-99766000D01*
X269113000Y-99764000D01*
X269107000Y-99762000D01*
X269101000Y-99760000D01*
X269096000Y-99757000D01*
X269090000Y-99754000D01*
X269085000Y-99751000D01*
X269079000Y-99747000D01*
X269074000Y-99743000D01*
X269070000Y-99739000D01*
X269065000Y-99735000D01*
X269061000Y-99730000D01*
X269057000Y-99726000D01*
X269053000Y-99721000D01*
X269049000Y-99715000D01*
X269046000Y-99710000D01*
X269043000Y-99704000D01*
X269040000Y-99699000D01*
X269038000Y-99693000D01*
X269036000Y-99687000D01*
X269034000Y-99681000D01*
X269033000Y-99675000D01*
X269031000Y-99669000D01*
X269031000Y-99663000D01*
X269030000Y-99656000D01*
X269030000Y-99650000D01*
X269030000Y-99150000D01*
X269030000Y-99144000D01*
X269031000Y-99137000D01*
X269031000Y-99131000D01*
X269033000Y-99125000D01*
X269034000Y-99119000D01*
X269036000Y-99113000D01*
X269038000Y-99107000D01*
X269040000Y-99101000D01*
X269043000Y-99096000D01*
X269046000Y-99090000D01*
X269049000Y-99085000D01*
X269053000Y-99079000D01*
X269057000Y-99074000D01*
X269061000Y-99070000D01*
X269065000Y-99065000D01*
X269070000Y-99061000D01*
X269074000Y-99057000D01*
X269079000Y-99053000D01*
X269085000Y-99049000D01*
X269090000Y-99046000D01*
X269096000Y-99043000D01*
X269101000Y-99040000D01*
X269107000Y-99038000D01*
X269113000Y-99036000D01*
X269119000Y-99034000D01*
X269125000Y-99033000D01*
X269131000Y-99031000D01*
X269137000Y-99031000D01*
X269144000Y-99030000D01*
X269150000Y-99030000D01*
X269250000Y-99030000D01*
X269256000Y-99030000D01*
X269263000Y-99031000D01*
G37*
X269263000Y-101831000D02*
X269269000Y-101831000D01*
X269275000Y-101833000D01*
X269281000Y-101834000D01*
X269287000Y-101836000D01*
X269293000Y-101838000D01*
X269299000Y-101840000D01*
X269304000Y-101843000D01*
X269310000Y-101846000D01*
X269315000Y-101849000D01*
X269321000Y-101853000D01*
X269326000Y-101857000D01*
X269330000Y-101861000D01*
X269335000Y-101865000D01*
X269339000Y-101870000D01*
X269343000Y-101874000D01*
X269347000Y-101879000D01*
X269351000Y-101885000D01*
X269354000Y-101890000D01*
X269357000Y-101896000D01*
X269360000Y-101901000D01*
X269362000Y-101907000D01*
X269364000Y-101913000D01*
X269366000Y-101919000D01*
X269367000Y-101925000D01*
X269369000Y-101931000D01*
X269369000Y-101937000D01*
X269370000Y-101944000D01*
X269370000Y-101950000D01*
X269370000Y-102450000D01*
X269370000Y-102456000D01*
X269369000Y-102463000D01*
X269369000Y-102469000D01*
X269367000Y-102475000D01*
X269366000Y-102481000D01*
X269364000Y-102487000D01*
X269362000Y-102493000D01*
X269360000Y-102499000D01*
X269357000Y-102504000D01*
X269354000Y-102510000D01*
X269351000Y-102515000D01*
X269347000Y-102521000D01*
X269343000Y-102526000D01*
X269339000Y-102530000D01*
X269335000Y-102535000D01*
X269330000Y-102539000D01*
X269326000Y-102543000D01*
X269321000Y-102547000D01*
X269315000Y-102551000D01*
X269310000Y-102554000D01*
X269304000Y-102557000D01*
X269299000Y-102560000D01*
X269293000Y-102562000D01*
X269287000Y-102564000D01*
X269281000Y-102566000D01*
X269275000Y-102567000D01*
X269269000Y-102569000D01*
X269263000Y-102569000D01*
X269256000Y-102570000D01*
X269250000Y-102570000D01*
X269150000Y-102570000D01*
X269144000Y-102570000D01*
X269137000Y-102569000D01*
X269131000Y-102569000D01*
X269125000Y-102567000D01*
X269119000Y-102566000D01*
X269113000Y-102564000D01*
X269107000Y-102562000D01*
X269101000Y-102560000D01*
X269096000Y-102557000D01*
X269090000Y-102554000D01*
X269085000Y-102551000D01*
X269079000Y-102547000D01*
X269074000Y-102543000D01*
X269070000Y-102539000D01*
X269065000Y-102535000D01*
X269061000Y-102530000D01*
X269057000Y-102526000D01*
X269053000Y-102521000D01*
X269049000Y-102515000D01*
X269046000Y-102510000D01*
X269043000Y-102504000D01*
X269040000Y-102499000D01*
X269038000Y-102493000D01*
X269036000Y-102487000D01*
X269034000Y-102481000D01*
X269033000Y-102475000D01*
X269031000Y-102469000D01*
X269031000Y-102463000D01*
X269030000Y-102456000D01*
X269030000Y-102450000D01*
X269030000Y-101950000D01*
X269030000Y-101944000D01*
X269031000Y-101937000D01*
X269031000Y-101931000D01*
X269033000Y-101925000D01*
X269034000Y-101919000D01*
X269036000Y-101913000D01*
X269038000Y-101907000D01*
X269040000Y-101901000D01*
X269043000Y-101896000D01*
X269046000Y-101890000D01*
X269049000Y-101885000D01*
X269053000Y-101879000D01*
X269057000Y-101874000D01*
X269061000Y-101870000D01*
X269065000Y-101865000D01*
X269070000Y-101861000D01*
X269074000Y-101857000D01*
X269079000Y-101853000D01*
X269085000Y-101849000D01*
X269090000Y-101846000D01*
X269096000Y-101843000D01*
X269101000Y-101840000D01*
X269107000Y-101838000D01*
X269113000Y-101836000D01*
X269119000Y-101834000D01*
X269125000Y-101833000D01*
X269131000Y-101831000D01*
X269137000Y-101831000D01*
X269144000Y-101830000D01*
X269150000Y-101830000D01*
X269250000Y-101830000D01*
X269256000Y-101830000D01*
X269263000Y-101831000D01*
G36*
X269263000Y-101831000D02*
G01*
X269269000Y-101831000D01*
X269275000Y-101833000D01*
X269281000Y-101834000D01*
X269287000Y-101836000D01*
X269293000Y-101838000D01*
X269299000Y-101840000D01*
X269304000Y-101843000D01*
X269310000Y-101846000D01*
X269315000Y-101849000D01*
X269321000Y-101853000D01*
X269326000Y-101857000D01*
X269330000Y-101861000D01*
X269335000Y-101865000D01*
X269339000Y-101870000D01*
X269343000Y-101874000D01*
X269347000Y-101879000D01*
X269351000Y-101885000D01*
X269354000Y-101890000D01*
X269357000Y-101896000D01*
X269360000Y-101901000D01*
X269362000Y-101907000D01*
X269364000Y-101913000D01*
X269366000Y-101919000D01*
X269367000Y-101925000D01*
X269369000Y-101931000D01*
X269369000Y-101937000D01*
X269370000Y-101944000D01*
X269370000Y-101950000D01*
X269370000Y-102450000D01*
X269370000Y-102456000D01*
X269369000Y-102463000D01*
X269369000Y-102469000D01*
X269367000Y-102475000D01*
X269366000Y-102481000D01*
X269364000Y-102487000D01*
X269362000Y-102493000D01*
X269360000Y-102499000D01*
X269357000Y-102504000D01*
X269354000Y-102510000D01*
X269351000Y-102515000D01*
X269347000Y-102521000D01*
X269343000Y-102526000D01*
X269339000Y-102530000D01*
X269335000Y-102535000D01*
X269330000Y-102539000D01*
X269326000Y-102543000D01*
X269321000Y-102547000D01*
X269315000Y-102551000D01*
X269310000Y-102554000D01*
X269304000Y-102557000D01*
X269299000Y-102560000D01*
X269293000Y-102562000D01*
X269287000Y-102564000D01*
X269281000Y-102566000D01*
X269275000Y-102567000D01*
X269269000Y-102569000D01*
X269263000Y-102569000D01*
X269256000Y-102570000D01*
X269250000Y-102570000D01*
X269150000Y-102570000D01*
X269144000Y-102570000D01*
X269137000Y-102569000D01*
X269131000Y-102569000D01*
X269125000Y-102567000D01*
X269119000Y-102566000D01*
X269113000Y-102564000D01*
X269107000Y-102562000D01*
X269101000Y-102560000D01*
X269096000Y-102557000D01*
X269090000Y-102554000D01*
X269085000Y-102551000D01*
X269079000Y-102547000D01*
X269074000Y-102543000D01*
X269070000Y-102539000D01*
X269065000Y-102535000D01*
X269061000Y-102530000D01*
X269057000Y-102526000D01*
X269053000Y-102521000D01*
X269049000Y-102515000D01*
X269046000Y-102510000D01*
X269043000Y-102504000D01*
X269040000Y-102499000D01*
X269038000Y-102493000D01*
X269036000Y-102487000D01*
X269034000Y-102481000D01*
X269033000Y-102475000D01*
X269031000Y-102469000D01*
X269031000Y-102463000D01*
X269030000Y-102456000D01*
X269030000Y-102450000D01*
X269030000Y-101950000D01*
X269030000Y-101944000D01*
X269031000Y-101937000D01*
X269031000Y-101931000D01*
X269033000Y-101925000D01*
X269034000Y-101919000D01*
X269036000Y-101913000D01*
X269038000Y-101907000D01*
X269040000Y-101901000D01*
X269043000Y-101896000D01*
X269046000Y-101890000D01*
X269049000Y-101885000D01*
X269053000Y-101879000D01*
X269057000Y-101874000D01*
X269061000Y-101870000D01*
X269065000Y-101865000D01*
X269070000Y-101861000D01*
X269074000Y-101857000D01*
X269079000Y-101853000D01*
X269085000Y-101849000D01*
X269090000Y-101846000D01*
X269096000Y-101843000D01*
X269101000Y-101840000D01*
X269107000Y-101838000D01*
X269113000Y-101836000D01*
X269119000Y-101834000D01*
X269125000Y-101833000D01*
X269131000Y-101831000D01*
X269137000Y-101831000D01*
X269144000Y-101830000D01*
X269150000Y-101830000D01*
X269250000Y-101830000D01*
X269256000Y-101830000D01*
X269263000Y-101831000D01*
G37*
X270113000Y-99881000D02*
X270119000Y-99881000D01*
X270125000Y-99883000D01*
X270131000Y-99884000D01*
X270137000Y-99886000D01*
X270143000Y-99888000D01*
X270149000Y-99890000D01*
X270154000Y-99893000D01*
X270160000Y-99896000D01*
X270165000Y-99899000D01*
X270171000Y-99903000D01*
X270176000Y-99907000D01*
X270180000Y-99911000D01*
X270185000Y-99915000D01*
X270189000Y-99920000D01*
X270193000Y-99924000D01*
X270197000Y-99929000D01*
X270201000Y-99935000D01*
X270204000Y-99940000D01*
X270207000Y-99946000D01*
X270210000Y-99951000D01*
X270212000Y-99957000D01*
X270214000Y-99963000D01*
X270216000Y-99969000D01*
X270217000Y-99975000D01*
X270219000Y-99981000D01*
X270219000Y-99987000D01*
X270220000Y-99994000D01*
X270220000Y-100000000D01*
X270220000Y-100100000D01*
X270220000Y-100106000D01*
X270219000Y-100113000D01*
X270219000Y-100119000D01*
X270217000Y-100125000D01*
X270216000Y-100131000D01*
X270214000Y-100137000D01*
X270212000Y-100143000D01*
X270210000Y-100149000D01*
X270207000Y-100154000D01*
X270204000Y-100160000D01*
X270201000Y-100165000D01*
X270197000Y-100171000D01*
X270193000Y-100176000D01*
X270189000Y-100180000D01*
X270185000Y-100185000D01*
X270180000Y-100189000D01*
X270176000Y-100193000D01*
X270171000Y-100197000D01*
X270165000Y-100201000D01*
X270160000Y-100204000D01*
X270154000Y-100207000D01*
X270149000Y-100210000D01*
X270143000Y-100212000D01*
X270137000Y-100214000D01*
X270131000Y-100216000D01*
X270125000Y-100217000D01*
X270119000Y-100219000D01*
X270113000Y-100219000D01*
X270106000Y-100220000D01*
X270100000Y-100220000D01*
X269600000Y-100220000D01*
X269594000Y-100220000D01*
X269587000Y-100219000D01*
X269581000Y-100219000D01*
X269575000Y-100217000D01*
X269569000Y-100216000D01*
X269563000Y-100214000D01*
X269557000Y-100212000D01*
X269551000Y-100210000D01*
X269546000Y-100207000D01*
X269540000Y-100204000D01*
X269535000Y-100201000D01*
X269529000Y-100197000D01*
X269524000Y-100193000D01*
X269520000Y-100189000D01*
X269515000Y-100185000D01*
X269511000Y-100180000D01*
X269507000Y-100176000D01*
X269503000Y-100171000D01*
X269499000Y-100165000D01*
X269496000Y-100160000D01*
X269493000Y-100154000D01*
X269490000Y-100149000D01*
X269488000Y-100143000D01*
X269486000Y-100137000D01*
X269484000Y-100131000D01*
X269483000Y-100125000D01*
X269481000Y-100119000D01*
X269481000Y-100113000D01*
X269480000Y-100106000D01*
X269480000Y-100100000D01*
X269480000Y-100000000D01*
X269480000Y-99994000D01*
X269481000Y-99987000D01*
X269481000Y-99981000D01*
X269483000Y-99975000D01*
X269484000Y-99969000D01*
X269486000Y-99963000D01*
X269488000Y-99957000D01*
X269490000Y-99951000D01*
X269493000Y-99946000D01*
X269496000Y-99940000D01*
X269499000Y-99935000D01*
X269503000Y-99929000D01*
X269507000Y-99924000D01*
X269511000Y-99920000D01*
X269515000Y-99915000D01*
X269520000Y-99911000D01*
X269524000Y-99907000D01*
X269529000Y-99903000D01*
X269535000Y-99899000D01*
X269540000Y-99896000D01*
X269546000Y-99893000D01*
X269551000Y-99890000D01*
X269557000Y-99888000D01*
X269563000Y-99886000D01*
X269569000Y-99884000D01*
X269575000Y-99883000D01*
X269581000Y-99881000D01*
X269587000Y-99881000D01*
X269594000Y-99880000D01*
X269600000Y-99880000D01*
X270100000Y-99880000D01*
X270106000Y-99880000D01*
X270113000Y-99881000D01*
G36*
X270113000Y-99881000D02*
G01*
X270119000Y-99881000D01*
X270125000Y-99883000D01*
X270131000Y-99884000D01*
X270137000Y-99886000D01*
X270143000Y-99888000D01*
X270149000Y-99890000D01*
X270154000Y-99893000D01*
X270160000Y-99896000D01*
X270165000Y-99899000D01*
X270171000Y-99903000D01*
X270176000Y-99907000D01*
X270180000Y-99911000D01*
X270185000Y-99915000D01*
X270189000Y-99920000D01*
X270193000Y-99924000D01*
X270197000Y-99929000D01*
X270201000Y-99935000D01*
X270204000Y-99940000D01*
X270207000Y-99946000D01*
X270210000Y-99951000D01*
X270212000Y-99957000D01*
X270214000Y-99963000D01*
X270216000Y-99969000D01*
X270217000Y-99975000D01*
X270219000Y-99981000D01*
X270219000Y-99987000D01*
X270220000Y-99994000D01*
X270220000Y-100000000D01*
X270220000Y-100100000D01*
X270220000Y-100106000D01*
X270219000Y-100113000D01*
X270219000Y-100119000D01*
X270217000Y-100125000D01*
X270216000Y-100131000D01*
X270214000Y-100137000D01*
X270212000Y-100143000D01*
X270210000Y-100149000D01*
X270207000Y-100154000D01*
X270204000Y-100160000D01*
X270201000Y-100165000D01*
X270197000Y-100171000D01*
X270193000Y-100176000D01*
X270189000Y-100180000D01*
X270185000Y-100185000D01*
X270180000Y-100189000D01*
X270176000Y-100193000D01*
X270171000Y-100197000D01*
X270165000Y-100201000D01*
X270160000Y-100204000D01*
X270154000Y-100207000D01*
X270149000Y-100210000D01*
X270143000Y-100212000D01*
X270137000Y-100214000D01*
X270131000Y-100216000D01*
X270125000Y-100217000D01*
X270119000Y-100219000D01*
X270113000Y-100219000D01*
X270106000Y-100220000D01*
X270100000Y-100220000D01*
X269600000Y-100220000D01*
X269594000Y-100220000D01*
X269587000Y-100219000D01*
X269581000Y-100219000D01*
X269575000Y-100217000D01*
X269569000Y-100216000D01*
X269563000Y-100214000D01*
X269557000Y-100212000D01*
X269551000Y-100210000D01*
X269546000Y-100207000D01*
X269540000Y-100204000D01*
X269535000Y-100201000D01*
X269529000Y-100197000D01*
X269524000Y-100193000D01*
X269520000Y-100189000D01*
X269515000Y-100185000D01*
X269511000Y-100180000D01*
X269507000Y-100176000D01*
X269503000Y-100171000D01*
X269499000Y-100165000D01*
X269496000Y-100160000D01*
X269493000Y-100154000D01*
X269490000Y-100149000D01*
X269488000Y-100143000D01*
X269486000Y-100137000D01*
X269484000Y-100131000D01*
X269483000Y-100125000D01*
X269481000Y-100119000D01*
X269481000Y-100113000D01*
X269480000Y-100106000D01*
X269480000Y-100100000D01*
X269480000Y-100000000D01*
X269480000Y-99994000D01*
X269481000Y-99987000D01*
X269481000Y-99981000D01*
X269483000Y-99975000D01*
X269484000Y-99969000D01*
X269486000Y-99963000D01*
X269488000Y-99957000D01*
X269490000Y-99951000D01*
X269493000Y-99946000D01*
X269496000Y-99940000D01*
X269499000Y-99935000D01*
X269503000Y-99929000D01*
X269507000Y-99924000D01*
X269511000Y-99920000D01*
X269515000Y-99915000D01*
X269520000Y-99911000D01*
X269524000Y-99907000D01*
X269529000Y-99903000D01*
X269535000Y-99899000D01*
X269540000Y-99896000D01*
X269546000Y-99893000D01*
X269551000Y-99890000D01*
X269557000Y-99888000D01*
X269563000Y-99886000D01*
X269569000Y-99884000D01*
X269575000Y-99883000D01*
X269581000Y-99881000D01*
X269587000Y-99881000D01*
X269594000Y-99880000D01*
X269600000Y-99880000D01*
X270100000Y-99880000D01*
X270106000Y-99880000D01*
X270113000Y-99881000D01*
G37*
X270113000Y-100381000D02*
X270119000Y-100381000D01*
X270125000Y-100383000D01*
X270131000Y-100384000D01*
X270137000Y-100386000D01*
X270143000Y-100388000D01*
X270149000Y-100390000D01*
X270154000Y-100393000D01*
X270160000Y-100396000D01*
X270165000Y-100399000D01*
X270171000Y-100403000D01*
X270176000Y-100407000D01*
X270180000Y-100411000D01*
X270185000Y-100415000D01*
X270189000Y-100420000D01*
X270193000Y-100424000D01*
X270197000Y-100429000D01*
X270201000Y-100435000D01*
X270204000Y-100440000D01*
X270207000Y-100446000D01*
X270210000Y-100451000D01*
X270212000Y-100457000D01*
X270214000Y-100463000D01*
X270216000Y-100469000D01*
X270217000Y-100475000D01*
X270219000Y-100481000D01*
X270219000Y-100487000D01*
X270220000Y-100494000D01*
X270220000Y-100500000D01*
X270220000Y-100600000D01*
X270220000Y-100606000D01*
X270219000Y-100613000D01*
X270219000Y-100619000D01*
X270217000Y-100625000D01*
X270216000Y-100631000D01*
X270214000Y-100637000D01*
X270212000Y-100643000D01*
X270210000Y-100649000D01*
X270207000Y-100654000D01*
X270204000Y-100660000D01*
X270201000Y-100665000D01*
X270197000Y-100671000D01*
X270193000Y-100676000D01*
X270189000Y-100680000D01*
X270185000Y-100685000D01*
X270180000Y-100689000D01*
X270176000Y-100693000D01*
X270171000Y-100697000D01*
X270165000Y-100701000D01*
X270160000Y-100704000D01*
X270154000Y-100707000D01*
X270149000Y-100710000D01*
X270143000Y-100712000D01*
X270137000Y-100714000D01*
X270131000Y-100716000D01*
X270125000Y-100717000D01*
X270119000Y-100719000D01*
X270113000Y-100719000D01*
X270106000Y-100720000D01*
X270100000Y-100720000D01*
X269600000Y-100720000D01*
X269594000Y-100720000D01*
X269587000Y-100719000D01*
X269581000Y-100719000D01*
X269575000Y-100717000D01*
X269569000Y-100716000D01*
X269563000Y-100714000D01*
X269557000Y-100712000D01*
X269551000Y-100710000D01*
X269546000Y-100707000D01*
X269540000Y-100704000D01*
X269535000Y-100701000D01*
X269529000Y-100697000D01*
X269524000Y-100693000D01*
X269520000Y-100689000D01*
X269515000Y-100685000D01*
X269511000Y-100680000D01*
X269507000Y-100676000D01*
X269503000Y-100671000D01*
X269499000Y-100665000D01*
X269496000Y-100660000D01*
X269493000Y-100654000D01*
X269490000Y-100649000D01*
X269488000Y-100643000D01*
X269486000Y-100637000D01*
X269484000Y-100631000D01*
X269483000Y-100625000D01*
X269481000Y-100619000D01*
X269481000Y-100613000D01*
X269480000Y-100606000D01*
X269480000Y-100600000D01*
X269480000Y-100500000D01*
X269480000Y-100494000D01*
X269481000Y-100487000D01*
X269481000Y-100481000D01*
X269483000Y-100475000D01*
X269484000Y-100469000D01*
X269486000Y-100463000D01*
X269488000Y-100457000D01*
X269490000Y-100451000D01*
X269493000Y-100446000D01*
X269496000Y-100440000D01*
X269499000Y-100435000D01*
X269503000Y-100429000D01*
X269507000Y-100424000D01*
X269511000Y-100420000D01*
X269515000Y-100415000D01*
X269520000Y-100411000D01*
X269524000Y-100407000D01*
X269529000Y-100403000D01*
X269535000Y-100399000D01*
X269540000Y-100396000D01*
X269546000Y-100393000D01*
X269551000Y-100390000D01*
X269557000Y-100388000D01*
X269563000Y-100386000D01*
X269569000Y-100384000D01*
X269575000Y-100383000D01*
X269581000Y-100381000D01*
X269587000Y-100381000D01*
X269594000Y-100380000D01*
X269600000Y-100380000D01*
X270100000Y-100380000D01*
X270106000Y-100380000D01*
X270113000Y-100381000D01*
G36*
X270113000Y-100381000D02*
G01*
X270119000Y-100381000D01*
X270125000Y-100383000D01*
X270131000Y-100384000D01*
X270137000Y-100386000D01*
X270143000Y-100388000D01*
X270149000Y-100390000D01*
X270154000Y-100393000D01*
X270160000Y-100396000D01*
X270165000Y-100399000D01*
X270171000Y-100403000D01*
X270176000Y-100407000D01*
X270180000Y-100411000D01*
X270185000Y-100415000D01*
X270189000Y-100420000D01*
X270193000Y-100424000D01*
X270197000Y-100429000D01*
X270201000Y-100435000D01*
X270204000Y-100440000D01*
X270207000Y-100446000D01*
X270210000Y-100451000D01*
X270212000Y-100457000D01*
X270214000Y-100463000D01*
X270216000Y-100469000D01*
X270217000Y-100475000D01*
X270219000Y-100481000D01*
X270219000Y-100487000D01*
X270220000Y-100494000D01*
X270220000Y-100500000D01*
X270220000Y-100600000D01*
X270220000Y-100606000D01*
X270219000Y-100613000D01*
X270219000Y-100619000D01*
X270217000Y-100625000D01*
X270216000Y-100631000D01*
X270214000Y-100637000D01*
X270212000Y-100643000D01*
X270210000Y-100649000D01*
X270207000Y-100654000D01*
X270204000Y-100660000D01*
X270201000Y-100665000D01*
X270197000Y-100671000D01*
X270193000Y-100676000D01*
X270189000Y-100680000D01*
X270185000Y-100685000D01*
X270180000Y-100689000D01*
X270176000Y-100693000D01*
X270171000Y-100697000D01*
X270165000Y-100701000D01*
X270160000Y-100704000D01*
X270154000Y-100707000D01*
X270149000Y-100710000D01*
X270143000Y-100712000D01*
X270137000Y-100714000D01*
X270131000Y-100716000D01*
X270125000Y-100717000D01*
X270119000Y-100719000D01*
X270113000Y-100719000D01*
X270106000Y-100720000D01*
X270100000Y-100720000D01*
X269600000Y-100720000D01*
X269594000Y-100720000D01*
X269587000Y-100719000D01*
X269581000Y-100719000D01*
X269575000Y-100717000D01*
X269569000Y-100716000D01*
X269563000Y-100714000D01*
X269557000Y-100712000D01*
X269551000Y-100710000D01*
X269546000Y-100707000D01*
X269540000Y-100704000D01*
X269535000Y-100701000D01*
X269529000Y-100697000D01*
X269524000Y-100693000D01*
X269520000Y-100689000D01*
X269515000Y-100685000D01*
X269511000Y-100680000D01*
X269507000Y-100676000D01*
X269503000Y-100671000D01*
X269499000Y-100665000D01*
X269496000Y-100660000D01*
X269493000Y-100654000D01*
X269490000Y-100649000D01*
X269488000Y-100643000D01*
X269486000Y-100637000D01*
X269484000Y-100631000D01*
X269483000Y-100625000D01*
X269481000Y-100619000D01*
X269481000Y-100613000D01*
X269480000Y-100606000D01*
X269480000Y-100600000D01*
X269480000Y-100500000D01*
X269480000Y-100494000D01*
X269481000Y-100487000D01*
X269481000Y-100481000D01*
X269483000Y-100475000D01*
X269484000Y-100469000D01*
X269486000Y-100463000D01*
X269488000Y-100457000D01*
X269490000Y-100451000D01*
X269493000Y-100446000D01*
X269496000Y-100440000D01*
X269499000Y-100435000D01*
X269503000Y-100429000D01*
X269507000Y-100424000D01*
X269511000Y-100420000D01*
X269515000Y-100415000D01*
X269520000Y-100411000D01*
X269524000Y-100407000D01*
X269529000Y-100403000D01*
X269535000Y-100399000D01*
X269540000Y-100396000D01*
X269546000Y-100393000D01*
X269551000Y-100390000D01*
X269557000Y-100388000D01*
X269563000Y-100386000D01*
X269569000Y-100384000D01*
X269575000Y-100383000D01*
X269581000Y-100381000D01*
X269587000Y-100381000D01*
X269594000Y-100380000D01*
X269600000Y-100380000D01*
X270100000Y-100380000D01*
X270106000Y-100380000D01*
X270113000Y-100381000D01*
G37*
X270113000Y-100881000D02*
X270119000Y-100881000D01*
X270125000Y-100883000D01*
X270131000Y-100884000D01*
X270137000Y-100886000D01*
X270143000Y-100888000D01*
X270149000Y-100890000D01*
X270154000Y-100893000D01*
X270160000Y-100896000D01*
X270165000Y-100899000D01*
X270171000Y-100903000D01*
X270176000Y-100907000D01*
X270180000Y-100911000D01*
X270185000Y-100915000D01*
X270189000Y-100920000D01*
X270193000Y-100924000D01*
X270197000Y-100929000D01*
X270201000Y-100935000D01*
X270204000Y-100940000D01*
X270207000Y-100946000D01*
X270210000Y-100951000D01*
X270212000Y-100957000D01*
X270214000Y-100963000D01*
X270216000Y-100969000D01*
X270217000Y-100975000D01*
X270219000Y-100981000D01*
X270219000Y-100987000D01*
X270220000Y-100994000D01*
X270220000Y-101000000D01*
X270220000Y-101100000D01*
X270220000Y-101106000D01*
X270219000Y-101113000D01*
X270219000Y-101119000D01*
X270217000Y-101125000D01*
X270216000Y-101131000D01*
X270214000Y-101137000D01*
X270212000Y-101143000D01*
X270210000Y-101149000D01*
X270207000Y-101154000D01*
X270204000Y-101160000D01*
X270201000Y-101165000D01*
X270197000Y-101171000D01*
X270193000Y-101176000D01*
X270189000Y-101180000D01*
X270185000Y-101185000D01*
X270180000Y-101189000D01*
X270176000Y-101193000D01*
X270171000Y-101197000D01*
X270165000Y-101201000D01*
X270160000Y-101204000D01*
X270154000Y-101207000D01*
X270149000Y-101210000D01*
X270143000Y-101212000D01*
X270137000Y-101214000D01*
X270131000Y-101216000D01*
X270125000Y-101217000D01*
X270119000Y-101219000D01*
X270113000Y-101219000D01*
X270106000Y-101220000D01*
X270100000Y-101220000D01*
X269600000Y-101220000D01*
X269594000Y-101220000D01*
X269587000Y-101219000D01*
X269581000Y-101219000D01*
X269575000Y-101217000D01*
X269569000Y-101216000D01*
X269563000Y-101214000D01*
X269557000Y-101212000D01*
X269551000Y-101210000D01*
X269546000Y-101207000D01*
X269540000Y-101204000D01*
X269535000Y-101201000D01*
X269529000Y-101197000D01*
X269524000Y-101193000D01*
X269520000Y-101189000D01*
X269515000Y-101185000D01*
X269511000Y-101180000D01*
X269507000Y-101176000D01*
X269503000Y-101171000D01*
X269499000Y-101165000D01*
X269496000Y-101160000D01*
X269493000Y-101154000D01*
X269490000Y-101149000D01*
X269488000Y-101143000D01*
X269486000Y-101137000D01*
X269484000Y-101131000D01*
X269483000Y-101125000D01*
X269481000Y-101119000D01*
X269481000Y-101113000D01*
X269480000Y-101106000D01*
X269480000Y-101100000D01*
X269480000Y-101000000D01*
X269480000Y-100994000D01*
X269481000Y-100987000D01*
X269481000Y-100981000D01*
X269483000Y-100975000D01*
X269484000Y-100969000D01*
X269486000Y-100963000D01*
X269488000Y-100957000D01*
X269490000Y-100951000D01*
X269493000Y-100946000D01*
X269496000Y-100940000D01*
X269499000Y-100935000D01*
X269503000Y-100929000D01*
X269507000Y-100924000D01*
X269511000Y-100920000D01*
X269515000Y-100915000D01*
X269520000Y-100911000D01*
X269524000Y-100907000D01*
X269529000Y-100903000D01*
X269535000Y-100899000D01*
X269540000Y-100896000D01*
X269546000Y-100893000D01*
X269551000Y-100890000D01*
X269557000Y-100888000D01*
X269563000Y-100886000D01*
X269569000Y-100884000D01*
X269575000Y-100883000D01*
X269581000Y-100881000D01*
X269587000Y-100881000D01*
X269594000Y-100880000D01*
X269600000Y-100880000D01*
X270100000Y-100880000D01*
X270106000Y-100880000D01*
X270113000Y-100881000D01*
G36*
X270113000Y-100881000D02*
G01*
X270119000Y-100881000D01*
X270125000Y-100883000D01*
X270131000Y-100884000D01*
X270137000Y-100886000D01*
X270143000Y-100888000D01*
X270149000Y-100890000D01*
X270154000Y-100893000D01*
X270160000Y-100896000D01*
X270165000Y-100899000D01*
X270171000Y-100903000D01*
X270176000Y-100907000D01*
X270180000Y-100911000D01*
X270185000Y-100915000D01*
X270189000Y-100920000D01*
X270193000Y-100924000D01*
X270197000Y-100929000D01*
X270201000Y-100935000D01*
X270204000Y-100940000D01*
X270207000Y-100946000D01*
X270210000Y-100951000D01*
X270212000Y-100957000D01*
X270214000Y-100963000D01*
X270216000Y-100969000D01*
X270217000Y-100975000D01*
X270219000Y-100981000D01*
X270219000Y-100987000D01*
X270220000Y-100994000D01*
X270220000Y-101000000D01*
X270220000Y-101100000D01*
X270220000Y-101106000D01*
X270219000Y-101113000D01*
X270219000Y-101119000D01*
X270217000Y-101125000D01*
X270216000Y-101131000D01*
X270214000Y-101137000D01*
X270212000Y-101143000D01*
X270210000Y-101149000D01*
X270207000Y-101154000D01*
X270204000Y-101160000D01*
X270201000Y-101165000D01*
X270197000Y-101171000D01*
X270193000Y-101176000D01*
X270189000Y-101180000D01*
X270185000Y-101185000D01*
X270180000Y-101189000D01*
X270176000Y-101193000D01*
X270171000Y-101197000D01*
X270165000Y-101201000D01*
X270160000Y-101204000D01*
X270154000Y-101207000D01*
X270149000Y-101210000D01*
X270143000Y-101212000D01*
X270137000Y-101214000D01*
X270131000Y-101216000D01*
X270125000Y-101217000D01*
X270119000Y-101219000D01*
X270113000Y-101219000D01*
X270106000Y-101220000D01*
X270100000Y-101220000D01*
X269600000Y-101220000D01*
X269594000Y-101220000D01*
X269587000Y-101219000D01*
X269581000Y-101219000D01*
X269575000Y-101217000D01*
X269569000Y-101216000D01*
X269563000Y-101214000D01*
X269557000Y-101212000D01*
X269551000Y-101210000D01*
X269546000Y-101207000D01*
X269540000Y-101204000D01*
X269535000Y-101201000D01*
X269529000Y-101197000D01*
X269524000Y-101193000D01*
X269520000Y-101189000D01*
X269515000Y-101185000D01*
X269511000Y-101180000D01*
X269507000Y-101176000D01*
X269503000Y-101171000D01*
X269499000Y-101165000D01*
X269496000Y-101160000D01*
X269493000Y-101154000D01*
X269490000Y-101149000D01*
X269488000Y-101143000D01*
X269486000Y-101137000D01*
X269484000Y-101131000D01*
X269483000Y-101125000D01*
X269481000Y-101119000D01*
X269481000Y-101113000D01*
X269480000Y-101106000D01*
X269480000Y-101100000D01*
X269480000Y-101000000D01*
X269480000Y-100994000D01*
X269481000Y-100987000D01*
X269481000Y-100981000D01*
X269483000Y-100975000D01*
X269484000Y-100969000D01*
X269486000Y-100963000D01*
X269488000Y-100957000D01*
X269490000Y-100951000D01*
X269493000Y-100946000D01*
X269496000Y-100940000D01*
X269499000Y-100935000D01*
X269503000Y-100929000D01*
X269507000Y-100924000D01*
X269511000Y-100920000D01*
X269515000Y-100915000D01*
X269520000Y-100911000D01*
X269524000Y-100907000D01*
X269529000Y-100903000D01*
X269535000Y-100899000D01*
X269540000Y-100896000D01*
X269546000Y-100893000D01*
X269551000Y-100890000D01*
X269557000Y-100888000D01*
X269563000Y-100886000D01*
X269569000Y-100884000D01*
X269575000Y-100883000D01*
X269581000Y-100881000D01*
X269587000Y-100881000D01*
X269594000Y-100880000D01*
X269600000Y-100880000D01*
X270100000Y-100880000D01*
X270106000Y-100880000D01*
X270113000Y-100881000D01*
G37*
X270113000Y-101381000D02*
X270119000Y-101381000D01*
X270125000Y-101383000D01*
X270131000Y-101384000D01*
X270137000Y-101386000D01*
X270143000Y-101388000D01*
X270149000Y-101390000D01*
X270154000Y-101393000D01*
X270160000Y-101396000D01*
X270165000Y-101399000D01*
X270171000Y-101403000D01*
X270176000Y-101407000D01*
X270180000Y-101411000D01*
X270185000Y-101415000D01*
X270189000Y-101420000D01*
X270193000Y-101424000D01*
X270197000Y-101429000D01*
X270201000Y-101435000D01*
X270204000Y-101440000D01*
X270207000Y-101446000D01*
X270210000Y-101451000D01*
X270212000Y-101457000D01*
X270214000Y-101463000D01*
X270216000Y-101469000D01*
X270217000Y-101475000D01*
X270219000Y-101481000D01*
X270219000Y-101487000D01*
X270220000Y-101494000D01*
X270220000Y-101500000D01*
X270220000Y-101600000D01*
X270220000Y-101606000D01*
X270219000Y-101613000D01*
X270219000Y-101619000D01*
X270217000Y-101625000D01*
X270216000Y-101631000D01*
X270214000Y-101637000D01*
X270212000Y-101643000D01*
X270210000Y-101649000D01*
X270207000Y-101654000D01*
X270204000Y-101660000D01*
X270201000Y-101665000D01*
X270197000Y-101671000D01*
X270193000Y-101676000D01*
X270189000Y-101680000D01*
X270185000Y-101685000D01*
X270180000Y-101689000D01*
X270176000Y-101693000D01*
X270171000Y-101697000D01*
X270165000Y-101701000D01*
X270160000Y-101704000D01*
X270154000Y-101707000D01*
X270149000Y-101710000D01*
X270143000Y-101712000D01*
X270137000Y-101714000D01*
X270131000Y-101716000D01*
X270125000Y-101717000D01*
X270119000Y-101719000D01*
X270113000Y-101719000D01*
X270106000Y-101720000D01*
X270100000Y-101720000D01*
X269600000Y-101720000D01*
X269594000Y-101720000D01*
X269587000Y-101719000D01*
X269581000Y-101719000D01*
X269575000Y-101717000D01*
X269569000Y-101716000D01*
X269563000Y-101714000D01*
X269557000Y-101712000D01*
X269551000Y-101710000D01*
X269546000Y-101707000D01*
X269540000Y-101704000D01*
X269535000Y-101701000D01*
X269529000Y-101697000D01*
X269524000Y-101693000D01*
X269520000Y-101689000D01*
X269515000Y-101685000D01*
X269511000Y-101680000D01*
X269507000Y-101676000D01*
X269503000Y-101671000D01*
X269499000Y-101665000D01*
X269496000Y-101660000D01*
X269493000Y-101654000D01*
X269490000Y-101649000D01*
X269488000Y-101643000D01*
X269486000Y-101637000D01*
X269484000Y-101631000D01*
X269483000Y-101625000D01*
X269481000Y-101619000D01*
X269481000Y-101613000D01*
X269480000Y-101606000D01*
X269480000Y-101600000D01*
X269480000Y-101500000D01*
X269480000Y-101494000D01*
X269481000Y-101487000D01*
X269481000Y-101481000D01*
X269483000Y-101475000D01*
X269484000Y-101469000D01*
X269486000Y-101463000D01*
X269488000Y-101457000D01*
X269490000Y-101451000D01*
X269493000Y-101446000D01*
X269496000Y-101440000D01*
X269499000Y-101435000D01*
X269503000Y-101429000D01*
X269507000Y-101424000D01*
X269511000Y-101420000D01*
X269515000Y-101415000D01*
X269520000Y-101411000D01*
X269524000Y-101407000D01*
X269529000Y-101403000D01*
X269535000Y-101399000D01*
X269540000Y-101396000D01*
X269546000Y-101393000D01*
X269551000Y-101390000D01*
X269557000Y-101388000D01*
X269563000Y-101386000D01*
X269569000Y-101384000D01*
X269575000Y-101383000D01*
X269581000Y-101381000D01*
X269587000Y-101381000D01*
X269594000Y-101380000D01*
X269600000Y-101380000D01*
X270100000Y-101380000D01*
X270106000Y-101380000D01*
X270113000Y-101381000D01*
G36*
X270113000Y-101381000D02*
G01*
X270119000Y-101381000D01*
X270125000Y-101383000D01*
X270131000Y-101384000D01*
X270137000Y-101386000D01*
X270143000Y-101388000D01*
X270149000Y-101390000D01*
X270154000Y-101393000D01*
X270160000Y-101396000D01*
X270165000Y-101399000D01*
X270171000Y-101403000D01*
X270176000Y-101407000D01*
X270180000Y-101411000D01*
X270185000Y-101415000D01*
X270189000Y-101420000D01*
X270193000Y-101424000D01*
X270197000Y-101429000D01*
X270201000Y-101435000D01*
X270204000Y-101440000D01*
X270207000Y-101446000D01*
X270210000Y-101451000D01*
X270212000Y-101457000D01*
X270214000Y-101463000D01*
X270216000Y-101469000D01*
X270217000Y-101475000D01*
X270219000Y-101481000D01*
X270219000Y-101487000D01*
X270220000Y-101494000D01*
X270220000Y-101500000D01*
X270220000Y-101600000D01*
X270220000Y-101606000D01*
X270219000Y-101613000D01*
X270219000Y-101619000D01*
X270217000Y-101625000D01*
X270216000Y-101631000D01*
X270214000Y-101637000D01*
X270212000Y-101643000D01*
X270210000Y-101649000D01*
X270207000Y-101654000D01*
X270204000Y-101660000D01*
X270201000Y-101665000D01*
X270197000Y-101671000D01*
X270193000Y-101676000D01*
X270189000Y-101680000D01*
X270185000Y-101685000D01*
X270180000Y-101689000D01*
X270176000Y-101693000D01*
X270171000Y-101697000D01*
X270165000Y-101701000D01*
X270160000Y-101704000D01*
X270154000Y-101707000D01*
X270149000Y-101710000D01*
X270143000Y-101712000D01*
X270137000Y-101714000D01*
X270131000Y-101716000D01*
X270125000Y-101717000D01*
X270119000Y-101719000D01*
X270113000Y-101719000D01*
X270106000Y-101720000D01*
X270100000Y-101720000D01*
X269600000Y-101720000D01*
X269594000Y-101720000D01*
X269587000Y-101719000D01*
X269581000Y-101719000D01*
X269575000Y-101717000D01*
X269569000Y-101716000D01*
X269563000Y-101714000D01*
X269557000Y-101712000D01*
X269551000Y-101710000D01*
X269546000Y-101707000D01*
X269540000Y-101704000D01*
X269535000Y-101701000D01*
X269529000Y-101697000D01*
X269524000Y-101693000D01*
X269520000Y-101689000D01*
X269515000Y-101685000D01*
X269511000Y-101680000D01*
X269507000Y-101676000D01*
X269503000Y-101671000D01*
X269499000Y-101665000D01*
X269496000Y-101660000D01*
X269493000Y-101654000D01*
X269490000Y-101649000D01*
X269488000Y-101643000D01*
X269486000Y-101637000D01*
X269484000Y-101631000D01*
X269483000Y-101625000D01*
X269481000Y-101619000D01*
X269481000Y-101613000D01*
X269480000Y-101606000D01*
X269480000Y-101600000D01*
X269480000Y-101500000D01*
X269480000Y-101494000D01*
X269481000Y-101487000D01*
X269481000Y-101481000D01*
X269483000Y-101475000D01*
X269484000Y-101469000D01*
X269486000Y-101463000D01*
X269488000Y-101457000D01*
X269490000Y-101451000D01*
X269493000Y-101446000D01*
X269496000Y-101440000D01*
X269499000Y-101435000D01*
X269503000Y-101429000D01*
X269507000Y-101424000D01*
X269511000Y-101420000D01*
X269515000Y-101415000D01*
X269520000Y-101411000D01*
X269524000Y-101407000D01*
X269529000Y-101403000D01*
X269535000Y-101399000D01*
X269540000Y-101396000D01*
X269546000Y-101393000D01*
X269551000Y-101390000D01*
X269557000Y-101388000D01*
X269563000Y-101386000D01*
X269569000Y-101384000D01*
X269575000Y-101383000D01*
X269581000Y-101381000D01*
X269587000Y-101381000D01*
X269594000Y-101380000D01*
X269600000Y-101380000D01*
X270100000Y-101380000D01*
X270106000Y-101380000D01*
X270113000Y-101381000D01*
G37*
%TD*%
D11*
%TO.C,U2*%
X271825000Y-147900000D03*
X271825000Y-146900000D03*
X271825000Y-145900000D03*
X271825000Y-144900000D03*
X271825000Y-143900000D03*
X266550000Y-143900000D03*
X266550000Y-144900000D03*
X266550000Y-145900000D03*
X266550000Y-146900000D03*
X266550000Y-147900000D03*
D12*
X269187500Y-145900000D03*
%TD*%
D13*
%TO.C,S1*%
X199100000Y-152600000D03*
D14*
X199100000Y-157600000D03*
X184600000Y-152600000D03*
X184600000Y-157600000D03*
X184600000Y-155100000D03*
D15*
X192100000Y-149500000D03*
X192100000Y-160700000D03*
%TD*%
D16*
%TO.C,R1*%
X268637500Y-139900000D03*
X270462500Y-139900000D03*
%TD*%
D17*
%TO.C,R8*%
X263975000Y-142300000D03*
X262325000Y-142300000D03*
%TD*%
D16*
%TO.C,R14*%
X266237500Y-107900000D03*
X268062500Y-107900000D03*
%TD*%
D18*
%TO.C,SW2*%
X231062500Y-151000000D03*
X231062500Y-160000000D03*
D19*
X224812500Y-153000000D03*
D20*
X237312500Y-153000000D03*
X224812500Y-158000000D03*
X237312500Y-158000000D03*
%TD*%
D16*
%TO.C,R15*%
X270637500Y-107900000D03*
X272462500Y-107900000D03*
%TD*%
D21*
%TO.C,J3*%
X265740000Y-157420000D03*
X271520000Y-157420000D03*
D22*
X265430000Y-156300000D03*
X266230000Y-156300000D03*
D23*
X267380000Y-156300000D03*
X268380000Y-156300000D03*
X268880000Y-156300000D03*
X269880000Y-156300000D03*
D22*
X271030000Y-156300000D03*
X271830000Y-156300000D03*
X271830000Y-156300000D03*
X271030000Y-156300000D03*
D23*
X270380000Y-156300000D03*
X269380000Y-156300000D03*
X267880000Y-156300000D03*
X266880000Y-156300000D03*
D22*
X266230000Y-156300000D03*
X265430000Y-156300000D03*
D24*
X264310000Y-156900000D03*
D25*
X264310000Y-161100000D03*
D24*
X272950000Y-156900000D03*
D25*
X272950000Y-161100000D03*
%TD*%
D26*
%TO.C,R9*%
X272950000Y-140012500D03*
X272950000Y-138187500D03*
%TD*%
D27*
%TO.C,D1*%
X263350000Y-127100000D03*
X259350000Y-127100000D03*
%TD*%
D28*
%TO.C,R22*%
X240600000Y-92637500D03*
X240600000Y-95562500D03*
%TD*%
D29*
%TO.C,C10*%
X264350000Y-133175000D03*
X264350000Y-130225000D03*
%TD*%
D30*
%TO.C,R12*%
X272375000Y-116450000D03*
X270550000Y-116450000D03*
%TD*%
D26*
%TO.C,R6*%
X277150000Y-157525000D03*
X277150000Y-155700000D03*
%TD*%
D29*
%TO.C,C3*%
X260550000Y-138175000D03*
X260550000Y-135225000D03*
%TD*%
D30*
%TO.C,R7*%
X264062500Y-144900000D03*
X262237500Y-144900000D03*
%TD*%
D31*
%TO.C,JP1*%
X278900000Y-138750000D03*
X280200000Y-138750000D03*
%TD*%
D32*
%TO.C,D6*%
X264690000Y-151500000D03*
X259610000Y-151500000D03*
%TD*%
D33*
%TO.C,Q1*%
X228550000Y-97362500D03*
X226650000Y-97362500D03*
X227600000Y-99237500D03*
%TD*%
D34*
%TO.C,C1*%
X277750000Y-150025000D03*
X277750000Y-152975000D03*
%TD*%
D35*
%TO.C,C11*%
X281550000Y-150000000D03*
X281550000Y-151900000D03*
%TD*%
D36*
%TO.C,C6*%
X269000000Y-128100000D03*
X270900000Y-128100000D03*
%TD*%
D29*
%TO.C,C2*%
X258000000Y-138175000D03*
X258000000Y-135225000D03*
%TD*%
D37*
%TO.C,J2*%
X213600000Y-89100000D03*
X221600000Y-89100000D03*
X229600000Y-89100000D03*
X237600000Y-89100000D03*
X245600000Y-89100000D03*
X253600000Y-89100000D03*
%TD*%
D38*
%TO.C,D2*%
X263737500Y-148600000D03*
X262162500Y-148600000D03*
%TD*%
D39*
%TO.C,D4*%
X236050000Y-94900000D03*
D40*
X237750000Y-94900000D03*
X237750000Y-92900000D03*
X235850000Y-92900000D03*
%TD*%
D41*
%TO.C,R21*%
X274000000Y-97825000D03*
X274000000Y-96175000D03*
%TD*%
D16*
%TO.C,R20*%
X272575000Y-94250000D03*
X274400000Y-94250000D03*
%TD*%
D42*
%TO.C,JP2*%
X262500000Y-100750000D03*
X262500000Y-99450000D03*
%TD*%
D43*
%TO.C,R2*%
X224200000Y-99962500D03*
X224200000Y-97037500D03*
%TD*%
D44*
%TO.C,C4*%
X263000000Y-138250000D03*
X263000000Y-136350000D03*
%TD*%
D45*
%TO.C,L1*%
X264350000Y-123900000D03*
X264350000Y-117900000D03*
%TD*%
D16*
%TO.C,R16*%
X274837500Y-107900000D03*
X276662500Y-107900000D03*
%TD*%
%TO.C,R11*%
X270550000Y-113500000D03*
X272375000Y-113500000D03*
%TD*%
D36*
%TO.C,C9*%
X265800000Y-114910000D03*
X267700000Y-114910000D03*
%TD*%
D46*
%TO.C,C7*%
X269175000Y-125900000D03*
X270725000Y-125900000D03*
%TD*%
D47*
%TO.C,R13*%
X274150000Y-118587500D03*
X274150000Y-120412500D03*
%TD*%
D18*
%TO.C,SW3*%
X246962500Y-151000000D03*
X246962500Y-160000000D03*
D19*
X240712500Y-153000000D03*
D20*
X253212500Y-153000000D03*
X240712500Y-158000000D03*
X253212500Y-158000000D03*
%TD*%
D48*
%TO.C,J1*%
X214125000Y-82925000D03*
D49*
X221925000Y-82925000D03*
X229725000Y-82925000D03*
X237525000Y-82925000D03*
X245325000Y-82925000D03*
X253125000Y-82925000D03*
%TD*%
D16*
%TO.C,R10*%
X272750000Y-128100000D03*
X274575000Y-128100000D03*
%TD*%
D50*
%TO.C,LCD1*%
X253500000Y-119290000D03*
D51*
X253500000Y-121830000D03*
X253500000Y-124370000D03*
X253500000Y-126910000D03*
%TD*%
D36*
%TO.C,C12*%
X272200000Y-100950000D03*
X274100000Y-100950000D03*
%TD*%
D52*
%TO.C,U4*%
X275650000Y-147850000D03*
X277950000Y-147850000D03*
D53*
X277950000Y-141550000D03*
D52*
X280250000Y-147850000D03*
%TD*%
D27*
%TO.C,D8*%
X216200000Y-93300000D03*
X212200000Y-93300000D03*
%TD*%
D16*
%TO.C,R18*%
X266775000Y-96300000D03*
X268600000Y-96300000D03*
%TD*%
D27*
%TO.C,D9*%
X251500000Y-93300000D03*
X247500000Y-93300000D03*
%TD*%
D54*
%TO.C,U1*%
X186160000Y-98665000D03*
X188700000Y-98665000D03*
X191240000Y-98665000D03*
X193780000Y-98665000D03*
X196320000Y-98665000D03*
X198860000Y-98665000D03*
X201400000Y-98665000D03*
X201400000Y-82500000D03*
X198860000Y-82500000D03*
X196320000Y-82500000D03*
X193780000Y-82500000D03*
X191240000Y-82500000D03*
X188700000Y-82500000D03*
X186160000Y-82500000D03*
D55*
X199311700Y-92391400D03*
X199311700Y-89851400D03*
D56*
X185138500Y-91883400D03*
X185138500Y-89343400D03*
X187678500Y-91883400D03*
X187678500Y-89343400D03*
X190218500Y-91883400D03*
X190218500Y-89343400D03*
X192758500Y-91883400D03*
X192701700Y-89436000D03*
%TD*%
D28*
%TO.C,R4*%
X230800000Y-94837500D03*
X230800000Y-97762500D03*
%TD*%
D16*
%TO.C,R17*%
X272237500Y-103050000D03*
X274062500Y-103050000D03*
%TD*%
D18*
%TO.C,SW1*%
X215162500Y-150950000D03*
X215162500Y-159950000D03*
D19*
X208912500Y-152950000D03*
D20*
X221412500Y-152950000D03*
X208912500Y-157950000D03*
X221412500Y-157950000D03*
%TD*%
D57*
%TO.C,C5*%
X273750000Y-136300000D03*
X271850000Y-136300000D03*
%TD*%
D16*
%TO.C,R19*%
X268737500Y-94300000D03*
X270562500Y-94300000D03*
%TD*%
D39*
%TO.C,D5*%
X226450000Y-95100000D03*
D40*
X228150000Y-95100000D03*
X228150000Y-93100000D03*
X226250000Y-93100000D03*
%TD*%
D30*
%TO.C,R5*%
X264062500Y-146900000D03*
X262237500Y-146900000D03*
%TD*%
D58*
%TO.C,D7*%
X267950000Y-154100000D03*
X268450000Y-154100000D03*
D59*
X268950000Y-154100000D03*
D58*
X269450000Y-154100000D03*
X269950000Y-154100000D03*
X269950000Y-153300000D03*
X269450000Y-153300000D03*
D59*
X268950000Y-153300000D03*
D58*
X268450000Y-153300000D03*
X267950000Y-153300000D03*
%TD*%
D60*
%TO.C,Q2*%
X233062500Y-95350000D03*
X233062500Y-97250000D03*
X234937500Y-96300000D03*
%TD*%
D61*
%TO.C,FLT*%
X271150000Y-97887500D03*
X271150000Y-96312500D03*
%TD*%
D36*
%TO.C,C8*%
X265800000Y-110400000D03*
X267700000Y-110400000D03*
%TD*%
D28*
%TO.C,R3*%
X222600000Y-92237500D03*
X222600000Y-95162500D03*
%TD*%
D62*
%TO.C,J5*%
X207800000Y-99200000D03*
D63*
X207800000Y-94600000D03*
X207800000Y-90000000D03*
X207800000Y-85400000D03*
%TD*%
M02*
