%TF.GenerationSoftware,KiCad,Pcbnew,9.0.6*%
%TF.CreationDate,2025-12-16T14:16:19+01:00*%
%TF.ProjectId,controller,636f6e74-726f-46c6-9c65-722e6b696361,1*%
%TF.SameCoordinates,Original*%
%TF.FileFunction,Soldermask,Bot*%
%TF.FilePolarity,Negative*%
%FSLAX46Y46*%
G04 Gerber Fmt 4.6, Leading zero omitted, Abs format (unit mm)*
G04 Created by KiCad (PCBNEW 9.0.6) date 2025-12-16 14:16:19*
%MOMM*%
%LPD*%
G01*
G04 APERTURE LIST*
G04 Aperture macros list*
%AMRoundRect*
0 Rectangle with rounded corners*
0 $1 Rounding radius*
0 $2 $3 $4 $5 $6 $7 $8 $9 X,Y pos of 4 corners*
0 Add a 4 corners polygon primitive as box body*
4,1,4,$2,$3,$4,$5,$6,$7,$8,$9,$2,$3,0*
0 Add four circle primitives for the rounded corners*
1,1,$1+$1,$2,$3*
1,1,$1+$1,$4,$5*
1,1,$1+$1,$6,$7*
1,1,$1+$1,$8,$9*
0 Add four rect primitives between the rounded corners*
20,1,$1+$1,$2,$3,$4,$5,0*
20,1,$1+$1,$4,$5,$6,$7,0*
20,1,$1+$1,$6,$7,$8,$9,0*
20,1,$1+$1,$8,$9,$2,$3,0*%
G04 Aperture macros list end*
%ADD10RoundRect,0.102000X-0.900000X0.900000X-0.900000X-0.900000X0.900000X-0.900000X0.900000X0.900000X0*%
%ADD11C,2.004000*%
%ADD12O,6.204000X3.204000*%
%ADD13C,1.850000*%
%ADD14RoundRect,0.102000X-0.937500X-0.937500X0.937500X-0.937500X0.937500X0.937500X-0.937500X0.937500X0*%
%ADD15C,2.079000*%
%ADD16C,0.650000*%
%ADD17O,1.000000X2.100000*%
%ADD18O,1.000000X1.800000*%
%ADD19RoundRect,0.250002X-1.699998X-1.699998X1.699998X-1.699998X1.699998X1.699998X-1.699998X1.699998X0*%
%ADD20C,3.900000*%
%ADD21R,1.600000X1.600000*%
%ADD22C,1.600000*%
%ADD23RoundRect,0.250000X0.825000X-0.825000X0.825000X0.825000X-0.825000X0.825000X-0.825000X-0.825000X0*%
%ADD24C,2.150000*%
G04 APERTURE END LIST*
D10*
%TO.C,S1*%
X199100000Y-152600000D03*
D11*
X199100000Y-157600000D03*
X184600000Y-152600000D03*
X184600000Y-157600000D03*
X184600000Y-155100000D03*
D12*
X192100000Y-149500000D03*
X192100000Y-160700000D03*
%TD*%
D13*
%TO.C,SW2*%
X231062500Y-151000000D03*
X231062500Y-160000000D03*
D14*
X224812500Y-153000000D03*
D15*
X237312500Y-153000000D03*
X224812500Y-158000000D03*
X237312500Y-158000000D03*
%TD*%
D16*
%TO.C,J3*%
X265740000Y-157420000D03*
X271520000Y-157420000D03*
D17*
X264310000Y-156900000D03*
D18*
X264310000Y-161100000D03*
D17*
X272950000Y-156900000D03*
D18*
X272950000Y-161100000D03*
%TD*%
D13*
%TO.C,SW3*%
X246962500Y-151000000D03*
X246962500Y-160000000D03*
D14*
X240712500Y-153000000D03*
D15*
X253212500Y-153000000D03*
X240712500Y-158000000D03*
X253212500Y-158000000D03*
%TD*%
D19*
%TO.C,J1*%
X214125000Y-82925000D03*
D20*
X221925000Y-82925000D03*
X229725000Y-82925000D03*
X237525000Y-82925000D03*
X245325000Y-82925000D03*
X253125000Y-82925000D03*
%TD*%
D21*
%TO.C,LCD1*%
X253500000Y-119290000D03*
D22*
X253500000Y-121830000D03*
X253500000Y-124370000D03*
X253500000Y-126910000D03*
%TD*%
D13*
%TO.C,SW1*%
X215162500Y-150950000D03*
X215162500Y-159950000D03*
D14*
X208912500Y-152950000D03*
D15*
X221412500Y-152950000D03*
X208912500Y-157950000D03*
X221412500Y-157950000D03*
%TD*%
D23*
%TO.C,J5*%
X207800000Y-99200000D03*
D24*
X207800000Y-94600000D03*
X207800000Y-90000000D03*
X207800000Y-85400000D03*
%TD*%
M02*
