M48
; DRILL file {KiCad 9.0.6} date 2025-12-16T14:16:24+0100
; FORMAT={-:-/ absolute / metric / decimal}
; #@! TF.CreationDate,2025-12-16T14:16:24+01:00
; #@! TF.GenerationSoftware,Kicad,Pcbnew,9.0.6
; #@! TF.FileFunction,Plated,1,2,PTH
FMAT,2
METRIC
; #@! TA.AperFunction,Plated,PTH,ComponentDrill
T1C0.200
; #@! TA.AperFunction,Plated,PTH,ViaDrill
T2C0.300
; #@! TA.AperFunction,Plated,PTH,ComponentDrill
T3C0.400
; #@! TA.AperFunction,Plated,PTH,ComponentDrill
T4C0.510
; #@! TA.AperFunction,Plated,PTH,ComponentDrill
T5C0.600
; #@! TA.AperFunction,Plated,PTH,ComponentDrill
T6C1.000
; #@! TA.AperFunction,Plated,PTH,ComponentDrill
T7C1.150
; #@! TA.AperFunction,Plated,PTH,ComponentDrill
T8C1.200
; #@! TA.AperFunction,Plated,PTH,ComponentDrill
T9C1.250
; #@! TA.AperFunction,Plated,PTH,ComponentDrill
T10C1.750
; #@! TA.AperFunction,Plated,PTH,ComponentDrill
T11C2.000
%
G90
G05
T1
X266.95Y-100.3
X266.95Y-101.3
X267.95Y-100.3
X267.95Y-101.3
X268.95Y-100.3
X268.95Y-101.3
T2
X187.6Y-88.0
X188.2Y-80.6
X189.4Y-80.6
X201.2Y-89.8
X225.2Y-95.1
X234.8Y-94.9
X257.95Y-134.0
X257.95Y-150.8
X257.95Y-151.5
X257.95Y-152.2
X258.5Y-128.5
X260.3Y-128.5
X261.15Y-146.9
X262.05Y-135.1
X262.95Y-135.2
X264.1Y-154.1
X264.1Y-154.8
X264.8Y-154.1
X264.8Y-154.8
X265.4Y-154.5
X267.65Y-129.7
X267.7Y-109.3
X267.7Y-116.0
X269.2Y-152.2
X269.35Y-103.2
X270.05Y-95.5
X271.65Y-138.2
X271.75Y-125.9
X271.9Y-154.7
X272.6Y-154.0
X272.6Y-154.7
X273.3Y-154.0
X273.3Y-154.7
X273.55Y-121.5
X273.75Y-134.9
X274.05Y-104.3
X274.15Y-99.6
X274.15Y-121.5
X274.75Y-121.5
X275.55Y-93.4
X275.6Y-146.2
X275.65Y-128.1
X275.75Y-153.0
X275.85Y-155.7
X277.65Y-107.3
X277.65Y-107.9
X277.65Y-108.5
X281.55Y-153.0
T3
X266.95Y-133.6
X266.95Y-134.9
X268.25Y-133.6
X268.25Y-134.9
X269.55Y-133.6
X269.55Y-134.9
T4
X269.188Y-145.265
X269.188Y-146.535
T6
X253.5Y-119.29
X253.5Y-121.83
X253.5Y-124.37
X253.5Y-126.91
T7
X207.8Y-85.4
X207.8Y-90.0
X207.8Y-94.6
X207.8Y-99.2
T8
X184.6Y-152.6
X184.6Y-155.1
X184.6Y-157.6
X199.1Y-152.6
X199.1Y-157.6
T9
X208.912Y-152.95
X208.912Y-157.95
X221.412Y-152.95
X221.412Y-157.95
X224.812Y-153.0
X224.812Y-158.0
X237.312Y-153.0
X237.312Y-158.0
X240.712Y-153.0
X240.712Y-158.0
X253.212Y-153.0
X253.212Y-158.0
T10
X214.125Y-82.925
X221.925Y-82.925
X229.725Y-82.925
X237.525Y-82.925
X245.325Y-82.925
X253.125Y-82.925
T5
X264.31Y-156.35G85X264.31Y-157.45
G05
X264.31Y-160.7G85X264.31Y-161.5
G05
X272.95Y-156.35G85X272.95Y-157.45
G05
X272.95Y-160.7G85X272.95Y-161.5
G05
T11
X192.25Y-149.5G85X191.95Y-149.5
G05
X192.25Y-160.7G85X191.95Y-160.7
G05
M30
